<svg xmlns="http://www.w3.org/2000/svg" width="422.6" height="406.4" viewBox="0 0 422.6 406.4"><style type="text/css">.st0{fill:#016293;} .st1{fill:#9CBDD8;} .st2{fill:#9BD7D8;} .st3{fill:#016293;stroke:#016293;stroke-width:2.041;stroke-miterlimit:10;} .st4{fill:#FFFFFF;} .st5{fill:#231F20;} .st6{fill:#FFFFFF;stroke:#016293;stroke-width:1.0169;stroke-miterlimit:10;} .st7{fill:#FFFFFF;stroke:#016293;stroke-width:1.0185;stroke-miterlimit:10;} .st8{fill:#FFFFFF;stroke:#016293;stroke-width:1.0209;stroke-miterlimit:10;} .st9{fill:#016293;stroke:#FFFFFF;stroke-width:2;stroke-miterlimit:10;} .st10{fill:#016293;stroke:#FFFFFF;stroke-miterlimit:10;} .st11{fill:#FFFFFF;stroke:#016293;stroke-width:5.0184;stroke-miterlimit:10;} .st12{fill:none;stroke:#016293;stroke-width:3;stroke-miterlimit:10;} .st13{fill:#FFFFFF;stroke:#016293;stroke-width:3;stroke-miterlimit:10;} .st14{fill:#FFFFFF;stroke:#231F20;stroke-miterlimit:10;} .st15{fill:none;stroke:#231F20;stroke-miterlimit:10;} .st16{display:none;} .st17{display:inline;fill:#F26F6A;} .st18{fill:none;stroke:#9CBDD8;stroke-width:5.8821;stroke-miterlimit:10;} .st19{fill:#FFFFFF;stroke:#9CBDD8;stroke-width:5.8821;stroke-miterlimit:10;} .st20{fill:#9CBDD8;stroke:#FFFFFF;stroke-width:5.8821;stroke-miterlimit:10;} .st21{clip-path:url(#SVGID_2_);fill:#231F20;} .st22{clip-path:url(#SVGID_2_);fill:#046293;} .st23{clip-path:url(#SVGID_2_);fill:#9CBDD9;} .st24{clip-path:url(#SVGID_2_);fill:#9CD8D9;} .st25{clip-path:url(#SVGID_2_);fill:#FFFFFF;} .st26{clip-path:url(#SVGID_2_);} .st27{fill:#BDC4C9;} .st28{clip-path:url(#SVGID_2_);fill:none;stroke:#FFFFFF;stroke-width:0.809;stroke-miterlimit:10;} .st29{clip-path:url(#SVGID_2_);fill:none;stroke:#FFFFFF;stroke-width:0.453;stroke-miterlimit:10;} .st30{clip-path:url(#SVGID_2_);fill:none;stroke:#FFFFFF;stroke-width:0.535;stroke-miterlimit:10;} .st31{fill:#9CD8D9;} .st32{clip-path:url(#SVGID_4_);} .st33{clip-path:url(#SVGID_4_);fill:none;stroke:#231F20;stroke-width:0.689;stroke-miterlimit:10;} .st34{clip-path:url(#SVGID_4_);fill:none;stroke:#231F20;stroke-width:0.506;stroke-miterlimit:10;} .st35{fill:#066393;} .st36{fill:#9BD7D8;stroke:#016293;stroke-width:18.6809;stroke-miterlimit:10;} .st37{fill:#076393;} .st38{fill:none;stroke:#076393;stroke-width:3.5038;stroke-miterlimit:10;} .st39{fill:#FFFFFF;stroke:#076393;stroke-width:3.5038;stroke-miterlimit:10;} .st40{fill:#076393;stroke:#FFFFFF;stroke-width:3.5038;stroke-miterlimit:10;}</style><g id="YouTube_Icon"><path class="st37" d="M299.8 394.7h-207.9c-16.1 0-29.1-13-29.1-29.1v-287.4c0-16.1 13-29.1 29.1-29.1h207.9c16.1 0 29.1 13 29.1 29.1v287.5c0 16-13 29-29.1 29z"/><path class="st4" d="M98.9 64.1h195.8v290.4h-195.8z"/><path class="st38" d="M294.7 227.3l-102 83.7 25.9 43.5z"/><path class="st39" d="M223.2 46.9c.2-1.2.3-4.2.3-5.4 0-14.3-11.6-25.9-25.9-25.9-14.3 0-25.9 11.6-25.9 25.9 0 1.3.1 4.2.3 5.4l-48.3.5v29.2c0 5 6.2 9.1 13.8 9.1h121.4c7.6 0 13.8-4.1 13.8-9.1v-29.3l-49.5-.4z"/><circle class="st40" cx="198.1" cy="39.2" r="11.9"/><path class="st37" d="M261.7 203.5l-27.2 27.2-30.4 32.4-16.2-16.2 41.4-43.4-41.6-41.6 16.2-16.2 30.6 30.6zM219.6 203l-27.2 27.2-34.6 34.6-16.2-16.2 45.6-45.6-45.6-45.6 16.2-16.2 34.6 34.6z"/><g id="XMLID_11_"><path class="st37" d="M125.8 280.4l1.8 41.9-30.5-28.9-.2-.2-.3-.7-.1-.1-78.1-171.3c-.2 0-.4-.1-.7-.2-.9-.3-1.7-1-2-1.9l-1.1-2.4c-.5-1.1-.4-2.4.2-3.4l-4.4-9.6.2-.1-6.6-14.2c-2.1-4.7-.5-10 3.7-11.9l13.5-6.1c2-.9 4.3-.9 6.5.1 2.1 1 3.9 2.7 4.9 4.9l6.5 14.3.2-.1.5 1.1 4 8.7.3.1c.9.3 1.6 1 2 1.9l1.1 2.4c.4.9.4 1.9.1 2.8l-.1.3 78.3 171.6.3.8v.2zm-1 19.3l-.8-18.5v-.6l-.6-.4-1.1-.8-3.7-2.5-.8 4.5-.2 1.4-.2 1.4-.2 1-.9-.5-1.4-.7-1.4-.7-4.8-2.3-1.4 5.1-.4 1.5-.4 1.5-.3 1-.8-.5-1.3-.7-1.2-.7-4-2.4-.4 4.4-.1 1.4-.1.7.5.4 13.4 12.7.2-2.8 3.9 2.4 1.2-4.7 4.3 2.2.7-4.5 2.3 1.7zm-3.2-23l-72.2-158.3-5.7 2.6 72.6 159.2 1.1-6.4 4.2 2.9zm-7.2 5.1l-72.9-159.9-9 4.1 73 160.1 2.1-7.6 6.8 3.3zm-11.5 4.3l-72.6-159.1-5.5 2.5 72.2 158.2.4-4.9 5.5 3.3zm-54.3-169.4l-3.3-7.2-24.5 11.2 3.3 7.2 24.5-11.2zm-3.4-10.5c0-.2 0-.4-.1-.6l-1.1-2.4c-.1-.2-.2-.3-.4-.4-.1-.1-.2-.2-.4-.2-.3-.1-.7-.1-1 0l-24.5 11.2-.3.1c-.3.1-.5.4-.6.6-.1.3-.2.7 0 1.1l1.1 2.4c.1.3.4.5.7.7h.1c.3.1.6.1.9 0l.3-.1 24.5-11.2c.3-.1.6-.4.7-.7 0-.2 0-.4.1-.5zm-4-5.7l-3.1-6.9-24.5 11.2 3.1 6.9 24.5-11.2z"/><path class="st4" d="M49.4 118.4l72.2 158.3-4.3-2.9-1 6.4-72.6-159.2zM41.5 121.9l72.9 159.9-6.8-3.3-2.1 7.7-73-160.2z"/><path class="st37" d="M104.2 288.9v.1l-.1-.1z"/><path class="st4" d="M30.3 127l72.6 159.1-5.5-3.2-.4 4.8-72.1-158.2z"/></g><path class="st1" d="M283.9 317.3l39 39 73.6-73.6 18.3 18.3-90.1 90.1-57.3-57.3z"/></g></svg>