<?xml version="1.0" encoding="utf-8"?>
<!-- Generator: Adobe Illustrator 19.1.0, SVG Export Plug-In . SVG Version: 6.00 Build 0)  -->
<!DOCTYPE svg PUBLIC "-//W3C//DTD SVG 1.1//EN" "http://www.w3.org/Graphics/SVG/1.1/DTD/svg11.dtd">
<svg version="1.1" xmlns="http://www.w3.org/2000/svg" xmlns:xlink="http://www.w3.org/1999/xlink" x="0px" y="0px" width="422.6px"
	 height="406.4px" viewBox="0 0 422.6 406.4" style="enable-background:new 0 0 422.6 406.4;" xml:space="preserve">
<style type="text/css">
	.st0{fill:#016293;}
	.st1{fill:#9CBDD8;}
	.st2{fill:#9BD7D8;}
	.st3{fill:#016293;stroke:#016293;stroke-width:2.041;stroke-miterlimit:10;}
	.st4{fill:#FFFFFF;}
	.st5{fill:#231F20;}
	.st6{fill:#FFFFFF;stroke:#016293;stroke-width:1.0169;stroke-miterlimit:10;}
	.st7{fill:#FFFFFF;stroke:#016293;stroke-width:1.0185;stroke-miterlimit:10;}
	.st8{fill:#FFFFFF;stroke:#016293;stroke-width:1.0209;stroke-miterlimit:10;}
	.st9{fill:#016293;stroke:#FFFFFF;stroke-width:2;stroke-miterlimit:10;}
	.st10{fill:#016293;stroke:#FFFFFF;stroke-miterlimit:10;}
	.st11{fill:#FFFFFF;stroke:#016293;stroke-width:5.0184;stroke-miterlimit:10;}
	.st12{fill:none;stroke:#016293;stroke-width:3;stroke-miterlimit:10;}
	.st13{fill:#FFFFFF;stroke:#016293;stroke-width:3;stroke-miterlimit:10;}
	.st14{fill:#FFFFFF;stroke:#231F20;stroke-miterlimit:10;}
	.st15{fill:none;stroke:#231F20;stroke-miterlimit:10;}
	.st16{display:none;}
	.st17{display:inline;fill:#F26F6A;}
	.st18{fill:none;stroke:#9CBDD8;stroke-width:5.8821;stroke-miterlimit:10;}
	.st19{fill:#FFFFFF;stroke:#9CBDD8;stroke-width:5.8821;stroke-miterlimit:10;}
	.st20{fill:#9CBDD8;stroke:#FFFFFF;stroke-width:5.8821;stroke-miterlimit:10;}
	.st21{clip-path:url(#SVGID_2_);fill:#231F20;}
	.st22{clip-path:url(#SVGID_2_);fill:#046293;}
	.st23{clip-path:url(#SVGID_2_);fill:#9CBDD9;}
	.st24{clip-path:url(#SVGID_2_);fill:#9CD8D9;}
	.st25{clip-path:url(#SVGID_2_);fill:#FFFFFF;}
	.st26{clip-path:url(#SVGID_2_);}
	.st27{fill:#BDC4C9;}
	.st28{clip-path:url(#SVGID_2_);fill:none;stroke:#FFFFFF;stroke-width:0.809;stroke-miterlimit:10;}
	.st29{clip-path:url(#SVGID_2_);fill:none;stroke:#FFFFFF;stroke-width:0.453;stroke-miterlimit:10;}
	.st30{clip-path:url(#SVGID_2_);fill:none;stroke:#FFFFFF;stroke-width:0.535;stroke-miterlimit:10;}
	.st31{fill:#9CD8D9;}
	.st32{clip-path:url(#SVGID_4_);}
	.st33{clip-path:url(#SVGID_4_);fill:none;stroke:#231F20;stroke-width:0.689;stroke-miterlimit:10;}
	.st34{clip-path:url(#SVGID_4_);fill:none;stroke:#231F20;stroke-width:0.506;stroke-miterlimit:10;}
	.st35{fill:#066393;}
	.st36{fill:#9BD7D8;stroke:#016293;stroke-width:18.6809;stroke-miterlimit:10;}
	.st37{fill:#076393;}
	.st38{fill:none;stroke:#076393;stroke-width:3.5038;stroke-miterlimit:10;}
	.st39{fill:#FFFFFF;stroke:#076393;stroke-width:3.5038;stroke-miterlimit:10;}
	.st40{fill:#076393;stroke:#FFFFFF;stroke-width:3.5038;stroke-miterlimit:10;}
</style>
<g id="Layer_1">
</g>
<g id="Logo">
</g>
<g id="Layer_3">
</g>
<g id="Graphics">
</g>
<g id="Default_g_x2B__icon">
</g>
<g id="YouTube_Icon">
	<g>
		<g>
			<path class="st37" d="M299.8,394.7H91.9c-16.1,0-29.1-13-29.1-29.1V78.2c0-16.1,13-29.1,29.1-29.1h207.9
				c16.1,0,29.1,13,29.1,29.1v287.5C328.9,381.7,315.9,394.7,299.8,394.7z"/>
			<rect x="98.9" y="64.1" class="st4" width="195.8" height="290.4"/>
			<polygon class="st38" points="294.7,227.3 192.7,311 218.6,354.5 			"/>
			<path class="st39" d="M223.2,46.9c0.2-1.2,0.3-4.2,0.3-5.4c0-14.3-11.6-25.9-25.9-25.9c-14.3,0-25.9,11.6-25.9,25.9
				c0,1.3,0.1,4.2,0.3,5.4l-48.3,0.5v29.2c0,5,6.2,9.1,13.8,9.1h121.4c7.6,0,13.8-4.1,13.8-9.1V47.3L223.2,46.9z"/>
			<circle class="st40" cx="198.1" cy="39.2" r="11.9"/>
			<polygon class="st37" points="261.7,203.5 234.5,230.7 204.1,263.1 187.9,246.9 229.3,203.5 187.7,161.9 203.9,145.7 
				234.5,176.3 			"/>
			<polygon class="st37" points="219.6,203 192.4,230.2 157.8,264.8 141.6,248.6 187.2,203 141.6,157.4 157.8,141.2 192.4,175.8 			
				"/>
			<g>
				<g>
					<g id="XMLID_11_">
						<g>
							<path class="st37" d="M125.8,280.4l1.8,41.9l-30.5-28.9l-0.2-0.2l-0.3-0.7l-0.1-0.1L18.4,121.1c-0.2,0-0.4-0.1-0.7-0.2
								c-0.9-0.3-1.7-1-2-1.9l-1.1-2.4c-0.5-1.1-0.4-2.4,0.2-3.4l-4.4-9.6l0.2-0.1L4,89.3c-2.1-4.7-0.5-10,3.7-11.9l13.5-6.1
								c2-0.9,4.3-0.9,6.5,0.1c2.1,1,3.9,2.7,4.9,4.9l6.5,14.3l0.2-0.1l0.5,1.1l4,8.7c0.1,0,0.2,0.1,0.3,0.1c0.9,0.3,1.6,1,2,1.9
								l1.1,2.4c0.4,0.9,0.4,1.9,0.1,2.8c0,0.1-0.1,0.2-0.1,0.3l78.3,171.6l0.3,0.8L125.8,280.4z M124.8,299.7l-0.8-18.5l0-0.6
								l-0.6-0.4l-1.1-0.8l-3.7-2.5l-0.8,4.5l-0.2,1.4l-0.2,1.4l-0.2,1l-0.9-0.5l-1.4-0.7l-1.4-0.7l-4.8-2.3l-1.4,5.1l-0.4,1.5
								l-0.4,1.5l-0.3,1l-0.8-0.5l-1.3-0.7l0,0l-1.2-0.7l-4-2.4l-0.4,4.4l-0.1,1.4l-0.1,0.7l0.5,0.4l13.4,12.7l0.2-2.8l3.9,2.4
								l1.2-4.7l4.3,2.2l0.7-4.5L124.8,299.7z M121.6,276.7L49.4,118.4l-5.7,2.6l72.6,159.2l1.1-6.4L121.6,276.7z M114.4,281.8
								L41.5,121.9l-9,4.1l73,160.1l2.1-7.6L114.4,281.8z M102.9,286.1L30.3,127l-5.5,2.5L97,287.7l0.4-4.9L102.9,286.1z
								 M48.6,116.7l-3.3-7.2l-24.5,11.2l3.3,7.2L48.6,116.7z M45.2,106.2c0-0.2,0-0.4-0.1-0.6l-1.1-2.4c-0.1-0.2-0.2-0.3-0.4-0.4
								c-0.1-0.1-0.2-0.2-0.4-0.2c-0.3-0.1-0.7-0.1-1,0l0,0l-24.5,11.2l-0.3,0.1c-0.3,0.1-0.5,0.4-0.6,0.6c-0.1,0.3-0.2,0.7,0,1.1
								l1.1,2.4c0.1,0.3,0.4,0.5,0.7,0.7c0,0,0,0,0.1,0c0.3,0.1,0.6,0.1,0.9,0l0.3-0.1l24.5-11.2l0,0c0.3-0.1,0.6-0.4,0.7-0.7
								C45.1,106.5,45.1,106.3,45.2,106.2z M41.2,100.5l-3.1-6.9l-24.5,11.2l3.1,6.9L41.2,100.5z"/>
							<polygon class="st4" points="49.4,118.4 121.6,276.7 117.3,273.8 116.3,280.2 43.7,121 							"/>
							<polygon class="st4" points="41.5,121.9 114.4,281.8 107.6,278.5 105.5,286.2 32.5,126 							"/>
							<polygon class="st37" points="104.2,288.9 104.2,289 104.1,288.9 							"/>
							<polygon class="st4" points="30.3,127 102.9,286.1 97.4,282.9 97,287.7 24.9,129.5 							"/>
						</g>
					</g>
				</g>
			</g>
		</g>
		<polygon class="st1" points="283.9,317.3 322.9,356.3 396.5,282.7 414.8,301 324.7,391.1 267.4,333.8 		"/>
	</g>
</g>
</svg>
