<svg xmlns="http://www.w3.org/2000/svg" width="380.3" height="323.7" viewBox="0 0 380.3 323.7"><style type="text/css">.st0{fill:#016293;} .st1{fill:#9CBDD8;} .st2{fill:#9BD7D8;} .st3{fill:#016293;stroke:#016293;stroke-width:2.041;stroke-miterlimit:10;} .st4{fill:#FFFFFF;} .st5{fill:#231F20;} .st6{fill:#FFFFFF;stroke:#016293;stroke-width:1.0169;stroke-miterlimit:10;} .st7{fill:#FFFFFF;stroke:#016293;stroke-width:1.0185;stroke-miterlimit:10;} .st8{fill:#FFFFFF;stroke:#016293;stroke-width:1.0209;stroke-miterlimit:10;} .st9{fill:#016293;stroke:#FFFFFF;stroke-width:2;stroke-miterlimit:10;} .st10{fill:#016293;stroke:#FFFFFF;stroke-miterlimit:10;} .st11{fill:#FFFFFF;stroke:#016293;stroke-width:5.0184;stroke-miterlimit:10;} .st12{fill:none;stroke:#016293;stroke-width:3;stroke-miterlimit:10;} .st13{fill:#FFFFFF;stroke:#016293;stroke-width:3;stroke-miterlimit:10;} .st14{fill:#FFFFFF;stroke:#231F20;stroke-miterlimit:10;} .st15{fill:none;stroke:#231F20;stroke-miterlimit:10;} .st16{display:none;} .st17{display:inline;fill:#F26F6A;} .st18{fill:none;stroke:#9CBDD8;stroke-width:5.8821;stroke-miterlimit:10;} .st19{fill:#FFFFFF;stroke:#9CBDD8;stroke-width:5.8821;stroke-miterlimit:10;} .st20{fill:#9CBDD8;stroke:#FFFFFF;stroke-width:5.8821;stroke-miterlimit:10;} .st21{clip-path:url(#SVGID_2_);fill:#231F20;} .st22{clip-path:url(#SVGID_2_);fill:#046293;} .st23{clip-path:url(#SVGID_2_);fill:#9CBDD9;} .st24{clip-path:url(#SVGID_2_);fill:#9CD8D9;} .st25{clip-path:url(#SVGID_2_);fill:#FFFFFF;} .st26{clip-path:url(#SVGID_2_);} .st27{fill:#BDC4C9;} .st28{clip-path:url(#SVGID_2_);fill:none;stroke:#FFFFFF;stroke-width:0.809;stroke-miterlimit:10;} .st29{clip-path:url(#SVGID_2_);fill:none;stroke:#FFFFFF;stroke-width:0.453;stroke-miterlimit:10;} .st30{clip-path:url(#SVGID_2_);fill:none;stroke:#FFFFFF;stroke-width:0.535;stroke-miterlimit:10;} .st31{fill:#9CD8D9;} .st32{clip-path:url(#SVGID_4_);} .st33{clip-path:url(#SVGID_4_);fill:none;stroke:#231F20;stroke-width:0.689;stroke-miterlimit:10;} .st34{clip-path:url(#SVGID_4_);fill:none;stroke:#231F20;stroke-width:0.506;stroke-miterlimit:10;} .st35{fill:#066393;} .st36{fill:#9BD7D8;stroke:#016293;stroke-width:18.6809;stroke-miterlimit:10;} .st37{fill:#076393;} .st38{fill:none;stroke:#076393;stroke-width:3.5038;stroke-miterlimit:10;} .st39{fill:#FFFFFF;stroke:#076393;stroke-width:3.5038;stroke-miterlimit:10;} .st40{fill:#076393;stroke:#FFFFFF;stroke-width:3.5038;stroke-miterlimit:10;}</style><g id="Logo"><path class="st4" d="M102.5 152.4l-23.1 31.3-3.5 4.7-6.1-4.5c0-.2 0-.3-.1-.5l5.9 4.1 3.6-4.9 22.7-30.7.6.5zM277.9 228.7l26.3-22.1c-15.9 45.2-59.1 77.7-109.6 77.7-49.3 0-91.6-30.9-108.4-74.3l33.3-45.1-16.9-12.5 15.1-20.5-17.5-12.9-19.6 26.5c10.5-53.3 57.6-93.7 114-93.7 56.8 0 104.2 41 114.2 94.9l-39.4 33.1 13.6 16.2-19 16 13.9 16.7zM310.6 172.8v.9l-27.2 22.9-.4-.5 27.6-23.3z"/><path class="st0" d="M79.3 182.7l-3.6 4.9-5.9-4.1-10.2-7.2v.1l10.3 7.6 6.1 4.5 3.5-4.7c-.2-.4-.2-.7-.2-1.1zM323.8 208c-17 55.2-68.5 95.4-129.3 95.4-61.2 0-113-40.8-129.6-96.7l13.7 10.1 1.6 1.2 5.9-8c16.8 43.4 59.1 74.3 108.4 74.3 50.6 0 93.7-32.5 109.6-77.7l10.8-9.1 1.4 1.7 7.5 8.8zM328.2 147.3l-8.3-9.8-2.9 2.4-8.3 7c-10-53.9-57.4-94.9-114.2-94.9-56.4 0-103.5 40.3-114 93.7l-9.2 12.5-2-1.5-8.9-6.5c8.9-66.2 65.7-117.3 134.1-117.3 67.5 0 123.6 49.7 133.7 114.4z"/><path class="st2" d="M357.3 187.5l-9.7 8.1-18-20.4-9.4-10.7-2.5-2.8-7 5.9-26.8 22.5-8.1-9.7 33.8-28.4 8.5-7.1 1.2-1.1 9.9 11.8 7.3 8.7z"/><path class="st4" d="M282.9 196l.4.5 27.2-22.9v-.9l-27.6 23.3zm46.3-15.4c0 .3-.1.6-.1 1l18 20.4-17.9-21.4zM340 161.4l-11.8-14.1-8.3-9.8-2.9 2.4-8.3 7-39.4 33.1 13.6 16.2 27.7-23.2 7.1-5.9 2.5 3 9 10.7 17.9 21.4 16.7-14-23.8-26.8zm-10.4 13.8l-9.4-10.7-2.4-2.8-7 5.9-26.8 22.5-8.1-9.7 33.8-28.4 8.5-7.1 1.2-1 9.8 11.7 7.4 8.8 20.7 23.1-9.7 8.1-18-20.4zM282.9 196l.4.5 27.2-22.9v-.9l-27.6 23.3zm46.3-15.4c0 .3-.1.6-.1 1l18 20.4-17.9-21.4zM347.1 201.9l-18-20.4-8.9-10.1-2.9-3.3-6.7 5.6-27.2 22.9-.4-.5-19 16 14 16.7 26.3-22.1 10.8-9.1 1.4 1.7 7.4 8.8 22.4 26.7 16.7-14-15.9-18.9zm-21.8.8l-7.6-9.1-2.1-2.5-8.9 7.5-28.2 23.7-8.1-9.7 39.9-33.5 6.9-5.8 2.8 3.4 8.5 10.2 28 33.3-9.7 8.1-21.5-25.6z"/><path class="st1" d="M356.5 220.1l-9.8 8.1-21.4-25.5-7.6-9.1-2.1-2.5-8.9 7.5-28.3 23.7-8.1-9.7 39.9-33.5 6.9-5.9 2.9 3.4 8.5 10.2z"/><path class="st4" d="M101.9 152l-22.7 30.7-3.6 4.9-5.9-4.1-10.2-7.2-1.7-1.2 1.7 1.3 10.3 7.6 6.1 4.5 3.5-4.7 23.1-31.3-.6-.5zM102.5 152.4l-23.1 31.3-3.5 4.7-6.1-4.5-10.3-7.6-1.7-1.3-19.1-13.4-12.9 17.5 29.4 20.3 9.8 7.2 13.7 10.1 1.6 1.2 5.9-8 33.3-45.1-17-12.4zm-18.2 52.5l-5 6.8-3.7-2.7-12.6-9.4-5.2-3.9-25.6-17.7 7.5-10.2 20.3 14.4 10.6 7.5 6 4.2 3.6-4.9 22.7-30.7 10.2 7.5-28.8 39.1z"/><path class="st2" d="M113.1 165.9l-28.8 39-5 6.8-3.7-2.8-12.6-9.3-5.2-3.8-25.6-17.7 7.5-10.1 20.3 14.2 10.6 7.5 6 4.2 3.6-4.9 22.7-30.6z"/><path class="st4" d="M101.9 152l-22.7 30.7-3.6 4.9-5.9-4.1-10.2-7.2-1.7-1.2 1.7 1.3 10.3 7.6 6.1 4.5 3.5-4.7 23.1-31.3-.6-.5zM100.1 119.1l-19.6 26.5-9.2 12.5-2-1.5-8.9-6.5-28.1-20.8-12.9 17.5 38.4 28.4 1.7 1.2 10.2 7.2 5.9 4.1 3.6-4.9 22.7-30.7.6.4 15.1-20.5-17.5-12.9zm-21.4 58l-3.7 5.1-5.8-4.2-9.9-7.3-33.6-24.8 7.5-10.2 26.6 19.7 9.2 6.6 3.3 2.5 6.8-9.2 22-29.8 10.2 7.5-32.6 44.1z"/><path class="st1" d="M111.3 132.9l-32.6 44.2-3.8 5-5.7-4.2-9.9-7.3-33.6-24.8 7.6-10.2 26.6 19.7 9.1 6.7 3.3 2.4 6.8-9.2 22-29.8z"/></g></svg>