<?xml version="1.0" encoding="utf-8"?>
<!-- Generator: Adobe Illustrator 19.1.0, SVG Export Plug-In . SVG Version: 6.00 Build 0)  -->
<!DOCTYPE svg PUBLIC "-//W3C//DTD SVG 1.1//EN" "http://www.w3.org/Graphics/SVG/1.1/DTD/svg11.dtd">
<svg version="1.1" xmlns="http://www.w3.org/2000/svg" xmlns:xlink="http://www.w3.org/1999/xlink" x="0px" y="0px" width="380.3px"
	 height="323.7px" viewBox="0 0 380.3 323.7" style="enable-background:new 0 0 380.3 323.7;" xml:space="preserve">
<style type="text/css">
	.st0{fill:#016293;}
	.st1{fill:#9CBDD8;}
	.st2{fill:#9BD7D8;}
	.st3{fill:#016293;stroke:#016293;stroke-width:2.041;stroke-miterlimit:10;}
	.st4{fill:#FFFFFF;}
	.st5{fill:#231F20;}
	.st6{fill:#FFFFFF;stroke:#016293;stroke-width:1.0169;stroke-miterlimit:10;}
	.st7{fill:#FFFFFF;stroke:#016293;stroke-width:1.0185;stroke-miterlimit:10;}
	.st8{fill:#FFFFFF;stroke:#016293;stroke-width:1.0209;stroke-miterlimit:10;}
	.st9{fill:#016293;stroke:#FFFFFF;stroke-width:2;stroke-miterlimit:10;}
	.st10{fill:#016293;stroke:#FFFFFF;stroke-miterlimit:10;}
	.st11{fill:#FFFFFF;stroke:#016293;stroke-width:5.0184;stroke-miterlimit:10;}
	.st12{fill:none;stroke:#016293;stroke-width:3;stroke-miterlimit:10;}
	.st13{fill:#FFFFFF;stroke:#016293;stroke-width:3;stroke-miterlimit:10;}
	.st14{fill:#FFFFFF;stroke:#231F20;stroke-miterlimit:10;}
	.st15{fill:none;stroke:#231F20;stroke-miterlimit:10;}
	.st16{display:none;}
	.st17{display:inline;fill:#F26F6A;}
	.st18{fill:none;stroke:#9CBDD8;stroke-width:5.8821;stroke-miterlimit:10;}
	.st19{fill:#FFFFFF;stroke:#9CBDD8;stroke-width:5.8821;stroke-miterlimit:10;}
	.st20{fill:#9CBDD8;stroke:#FFFFFF;stroke-width:5.8821;stroke-miterlimit:10;}
	.st21{clip-path:url(#SVGID_2_);fill:#231F20;}
	.st22{clip-path:url(#SVGID_2_);fill:#046293;}
	.st23{clip-path:url(#SVGID_2_);fill:#9CBDD9;}
	.st24{clip-path:url(#SVGID_2_);fill:#9CD8D9;}
	.st25{clip-path:url(#SVGID_2_);fill:#FFFFFF;}
	.st26{clip-path:url(#SVGID_2_);}
	.st27{fill:#BDC4C9;}
	.st28{clip-path:url(#SVGID_2_);fill:none;stroke:#FFFFFF;stroke-width:0.809;stroke-miterlimit:10;}
	.st29{clip-path:url(#SVGID_2_);fill:none;stroke:#FFFFFF;stroke-width:0.453;stroke-miterlimit:10;}
	.st30{clip-path:url(#SVGID_2_);fill:none;stroke:#FFFFFF;stroke-width:0.535;stroke-miterlimit:10;}
	.st31{fill:#9CD8D9;}
	.st32{clip-path:url(#SVGID_4_);}
	.st33{clip-path:url(#SVGID_4_);fill:none;stroke:#231F20;stroke-width:0.689;stroke-miterlimit:10;}
	.st34{clip-path:url(#SVGID_4_);fill:none;stroke:#231F20;stroke-width:0.506;stroke-miterlimit:10;}
	.st35{fill:#066393;}
	.st36{fill:#9BD7D8;stroke:#016293;stroke-width:18.6809;stroke-miterlimit:10;}
	.st37{fill:#076393;}
	.st38{fill:none;stroke:#076393;stroke-width:3.5038;stroke-miterlimit:10;}
	.st39{fill:#FFFFFF;stroke:#076393;stroke-width:3.5038;stroke-miterlimit:10;}
	.st40{fill:#076393;stroke:#FFFFFF;stroke-width:3.5038;stroke-miterlimit:10;}
</style>
<g id="Layer_1">
</g>
<g id="Logo">
	<g>
		<path class="st4" d="M102.5,152.4l-23.1,31.3l-3.5,4.7l-6.1-4.5c0-0.2,0-0.3-0.1-0.5l5.9,4.1l3.6-4.9l22.7-30.7L102.5,152.4z"/>
		<path class="st4" d="M277.9,228.7l26.3-22.1c-15.9,45.2-59.1,77.7-109.6,77.7c-49.3,0-91.6-30.9-108.4-74.3l33.3-45.1l-16.9-12.5
			l15.1-20.5l-17.5-12.9l-19.6,26.5c10.5-53.3,57.6-93.7,114-93.7c56.8,0,104.2,41,114.2,94.9l-39.4,33.1l13.6,16.2l-19,16
			L277.9,228.7z"/>
		<path class="st4" d="M310.6,172.8c0,0.3,0,0.6,0,0.9l-27.2,22.9l-0.4-0.5L310.6,172.8z"/>
		<path class="st0" d="M79.3,182.7l-3.6,4.9l-5.9-4.1v0l-10.2-7.2v0.1l10.3,7.6l6.1,4.5l3.5-4.7C79.3,183.4,79.3,183.1,79.3,182.7z"
			/>
		<path class="st0" d="M323.8,208c-17,55.2-68.5,95.4-129.3,95.4c-61.2,0-113-40.8-129.6-96.7l13.7,10.1l1.6,1.2l5.9-8
			c16.8,43.4,59.1,74.3,108.4,74.3c50.6,0,93.7-32.5,109.6-77.7l10.8-9.1l1.4,1.7L323.8,208z"/>
		<path class="st0" d="M328.2,147.3l-8.3-9.8l-2.9,2.4l-8.3,7c-10-53.9-57.4-94.9-114.2-94.9c-56.4,0-103.5,40.3-114,93.7l-9.2,12.5
			l-2-1.5l-8.9-6.5C69.3,84,126.1,32.9,194.5,32.9C262,32.9,318.1,82.6,328.2,147.3z"/>
	</g>
	<g>
		<polygon class="st2" points="357.3,187.5 347.6,195.6 329.6,175.2 320.2,164.5 317.7,161.7 310.7,167.6 283.9,190.1 275.8,180.4 
			309.6,152 318.1,144.9 319.3,143.8 329.2,155.6 336.5,164.3 		"/>
		<path class="st4" d="M282.9,196l0.4,0.5l27.2-22.9c0-0.3,0-0.6,0-0.9L282.9,196z M329.2,180.6c0,0.3-0.1,0.6-0.1,1l18,20.4l0,0
			L329.2,180.6z"/>
		<path class="st4" d="M340,161.4l-11.8-14.1l-8.3-9.8l-2.9,2.4l-8.3,7l-39.4,33.1l13.6,16.2l27.7-23.2l7.1-5.9l2.5,3v0l9,10.7
			l17.9,21.4l16.7-14L340,161.4z M329.6,175.2l-9.4-10.7l-2.4-2.8l-7,5.9l-26.8,22.5l-8.1-9.7l33.8-28.4l8.5-7.1l1.2-1l9.8,11.7
			l7.4,8.8l20.7,23.1l-9.7,8.1L329.6,175.2z"/>
	</g>
	<g>
		<path class="st4" d="M282.9,196l0.4,0.5l27.2-22.9c0-0.3,0-0.6,0-0.9L282.9,196z M329.2,180.6c0,0.3-0.1,0.6-0.1,1l18,20.4l0,0
			L329.2,180.6z"/>
		<path class="st4" d="M347.1,201.9L347.1,201.9l-18-20.4l-8.9-10.1l-2.9-3.3l-6.7,5.6l-27.2,22.9l-0.4-0.5l-19,16l14,16.7
			l26.3-22.1l10.8-9.1l1.4,1.7l7.4,8.8l22.4,26.7l16.7-14L347.1,201.9z M325.3,202.7l-7.6-9.1l-2.1-2.5l-8.9,7.5l-28.2,23.7
			l-8.1-9.7l39.9-33.5l6.9-5.8l2.8,3.4l8.5,10.2l28,33.3l-9.7,8.1L325.3,202.7z"/>
		<polygon class="st1" points="356.5,220.1 346.7,228.2 325.3,202.7 317.7,193.6 315.6,191.1 306.7,198.6 278.4,222.3 270.3,212.6 
			310.2,179.1 317.1,173.2 320,176.6 328.5,186.8 		"/>
	</g>
	<g>
		<path class="st4" d="M101.9,152l-22.7,30.7l-3.6,4.9l-5.9-4.1v0l-10.2-7.2l-1.7-1.2l1.7,1.3l10.3,7.6l6.1,4.5l3.5-4.7l23.1-31.3
			L101.9,152z"/>
		<path class="st4" d="M102.5,152.4l-23.1,31.3l-3.5,4.7l-6.1-4.5l-10.3-7.6l-1.7-1.3l-19.1-13.4l-12.9,17.5l29.4,20.3l9.8,7.2
			l13.7,10.1l1.6,1.2l5.9-8l33.3-45.1L102.5,152.4z M84.3,204.9l-5,6.8l-3.7-2.7L63,199.6v0l-5.2-3.9l-25.6-17.7l7.5-10.2L60,182.2
			l10.6,7.5v0l6,4.2l3.6-4.9l22.7-30.7l10.2,7.5L84.3,204.9z"/>
		<polygon class="st2" points="113.1,165.9 84.3,204.9 79.3,211.7 75.6,208.9 63,199.6 63,199.6 57.8,195.8 32.2,178.1 39.7,168 
			60,182.2 70.6,189.7 70.6,189.7 76.6,193.9 80.2,189 102.9,158.4 		"/>
	</g>
	<g>
		<path class="st4" d="M101.9,152l-22.7,30.7l-3.6,4.9l-5.9-4.1v0l-10.2-7.2l-1.7-1.2l1.7,1.3l10.3,7.6l6.1,4.5l3.5-4.7l23.1-31.3
			L101.9,152z"/>
		<path class="st4" d="M100.1,119.1l-19.6,26.5l-9.2,12.5l-2-1.5l-8.9-6.5l-28.1-20.8l-12.9,17.5l38.4,28.4l1.7,1.2l10.2,7.2v0
			l5.9,4.1l3.6-4.9l22.7-30.7l0.6,0.4l15.1-20.5L100.1,119.1z M78.7,177.1l-3.7,5.1l-5.8-4.2l-9.9-7.3l-33.6-24.8l7.5-10.2
			l26.6,19.7L69,162l3.3,2.5l6.8-9.2l22-29.8l10.2,7.5L78.7,177.1z"/>
		<polygon class="st1" points="111.3,132.9 78.7,177.1 74.9,182.1 69.2,177.9 59.3,170.6 25.7,145.8 33.3,135.6 59.9,155.3 69,162 
			72.3,164.4 79.1,155.2 101.1,125.4 		"/>
	</g>
</g>
<g id="Layer_3">
</g>
<g id="Graphics">
</g>
<g id="Default_g_x2B__icon">
</g>
<g id="YouTube_Icon">
</g>
</svg>
