<?xml version="1.0" encoding="utf-8"?>
<!-- Generator: Adobe Illustrator 19.1.0, SVG Export Plug-In . SVG Version: 6.00 Build 0)  -->
<!DOCTYPE svg PUBLIC "-//W3C//DTD SVG 1.1//EN" "http://www.w3.org/Graphics/SVG/1.1/DTD/svg11.dtd">
<svg version="1.1" xmlns="http://www.w3.org/2000/svg" xmlns:xlink="http://www.w3.org/1999/xlink" x="0px" y="0px" width="317px"
	 height="322.9px" viewBox="0 0 317 322.9" style="enable-background:new 0 0 317 322.9;" xml:space="preserve">
<style type="text/css">
	.st0{fill:#016293;}
	.st1{fill:#9CBDD8;}
	.st2{fill:#9BD7D8;}
	.st3{fill:#016293;stroke:#016293;stroke-width:2.041;stroke-miterlimit:10;}
	.st4{fill:#FFFFFF;}
	.st5{fill:#231F20;}
	.st6{fill:#FFFFFF;stroke:#016293;stroke-width:1.0169;stroke-miterlimit:10;}
	.st7{fill:#FFFFFF;stroke:#016293;stroke-width:1.0185;stroke-miterlimit:10;}
	.st8{fill:#FFFFFF;stroke:#016293;stroke-width:1.0209;stroke-miterlimit:10;}
	.st9{fill:#016293;stroke:#FFFFFF;stroke-width:2;stroke-miterlimit:10;}
	.st10{fill:#016293;stroke:#FFFFFF;stroke-miterlimit:10;}
	.st11{fill:#FFFFFF;stroke:#016293;stroke-width:5.0184;stroke-miterlimit:10;}
	.st12{fill:none;stroke:#016293;stroke-width:3;stroke-miterlimit:10;}
	.st13{fill:#FFFFFF;stroke:#016293;stroke-width:3;stroke-miterlimit:10;}
	.st14{fill:#FFFFFF;stroke:#231F20;stroke-miterlimit:10;}
	.st15{fill:none;stroke:#231F20;stroke-miterlimit:10;}
	.st16{display:none;}
	.st17{display:inline;fill:#F26F6A;}
	.st18{fill:none;stroke:#9CBDD8;stroke-width:5.8821;stroke-miterlimit:10;}
	.st19{fill:#FFFFFF;stroke:#9CBDD8;stroke-width:5.8821;stroke-miterlimit:10;}
	.st20{fill:#9CBDD8;stroke:#FFFFFF;stroke-width:5.8821;stroke-miterlimit:10;}
	.st21{clip-path:url(#SVGID_2_);fill:#231F20;}
	.st22{clip-path:url(#SVGID_2_);fill:#046293;}
	.st23{clip-path:url(#SVGID_2_);fill:#9CBDD9;}
	.st24{clip-path:url(#SVGID_2_);fill:#9CD8D9;}
	.st25{clip-path:url(#SVGID_2_);fill:#FFFFFF;}
	.st26{clip-path:url(#SVGID_2_);}
	.st27{fill:#BDC4C9;}
	.st28{clip-path:url(#SVGID_2_);fill:none;stroke:#FFFFFF;stroke-width:0.809;stroke-miterlimit:10;}
	.st29{clip-path:url(#SVGID_2_);fill:none;stroke:#FFFFFF;stroke-width:0.453;stroke-miterlimit:10;}
	.st30{clip-path:url(#SVGID_2_);fill:none;stroke:#FFFFFF;stroke-width:0.535;stroke-miterlimit:10;}
	.st31{fill:#9CD8D9;}
	.st32{clip-path:url(#SVGID_4_);}
	.st33{clip-path:url(#SVGID_4_);fill:none;stroke:#231F20;stroke-width:0.689;stroke-miterlimit:10;}
	.st34{clip-path:url(#SVGID_4_);fill:none;stroke:#231F20;stroke-width:0.506;stroke-miterlimit:10;}
	.st35{fill:#066393;}
	.st36{fill:#9BD7D8;stroke:#016293;stroke-width:18.6809;stroke-miterlimit:10;}
	.st37{fill:#076393;}
	.st38{fill:none;stroke:#076393;stroke-width:3.5038;stroke-miterlimit:10;}
	.st39{fill:#FFFFFF;stroke:#076393;stroke-width:3.5038;stroke-miterlimit:10;}
	.st40{fill:#076393;stroke:#FFFFFF;stroke-width:3.5038;stroke-miterlimit:10;}
</style>
<g id="Layer_1">
</g>
<g id="Logo">
</g>
<g id="Layer_3">
</g>
<g id="Graphics">
</g>
<g id="Default_g_x2B__icon">
	<g>
		<path class="st1" d="M161.2,129.7c0-17-10.3-43.4-30.2-43.4c-6.2,0-12.9,2.5-16.8,7.2c-4.1,5-5.3,11.9-5.3,18
			c0,15.8,9.4,42,29.9,42c6,0,12.4-3.4,16.3-7.2C160.7,140.9,161.2,134,161.2,129.7z"/>
		<path class="st1" d="M148.2,191.2c-1.9-0.2-3.1-0.2-5.5-0.2c-2.2,0-15.1,0.5-25.2,3.8c-5.3,1.9-20.6,7.5-20.6,24.3
			c0,16.7,16.5,28.8,42.1,28.8c23,0,35.2-10.9,35.2-25.5C174.3,210.3,166.4,203.9,148.2,191.2z"/>
		<path class="st1" d="M289.7,120.7l-88.9-88.9c-11.2-11.2-26.1-17.4-41.9-17.4c-15.8,0-30.7,6.2-41.9,17.4l-88.9,88.9
			C5,143.8,5,181.4,28.1,204.5l88.9,88.9c11.2,11.2,26.1,17.4,41.9,17.4c15.8,0,30.7-6.2,41.9-17.4l88.9-88.9
			c11.2-11.2,17.4-26.1,17.4-41.9C307,146.7,300.9,131.9,289.7,120.7z M126.7,257.8c-34.7,0-50.8-16.4-50.8-33.9
			c0-8.5,4.3-20.5,18.4-28.8c14.8-9,35-10.1,45.7-10.9c-3.4-4.3-7.2-8.7-7.2-16c0-4,1.2-6.4,2.4-9.2c-2.6,0.2-5.3,0.5-7.7,0.5
			c-25.4,0-39.8-18.6-39.8-37c0-10.9,3.4-23.7,13.7-32.4c13.7-11.1,31.1-12.4,44-12.4l49.9,0L180,87.2h-14.2
			c5.5,4.5,16.4,13.1,16.4,31.1c0,17.5-10,25.7-20.1,33.5c-3.1,3.1-6.7,6.4-6.7,11.6c0,5.2,3.6,8,6.2,10.1l8.6,6.6
			c10.5,8.7,20.1,16.8,20.1,33C190.4,235.3,167.9,257.8,126.7,257.8z M255,169.4h-23.7v23.7h-12.1v-23.7h-23.7v-11.6h23.7v-23.7
			h12.1v23.7H255V169.4z"/>
	</g>
</g>
<g id="YouTube_Icon">
</g>
</svg>
