<svg xmlns="http://www.w3.org/2000/svg" width="317" height="322.9" viewBox="0 0 317 322.9"><style type="text/css">.st0{fill:#016293;} .st1{fill:#9CBDD8;} .st2{fill:#9BD7D8;} .st3{fill:#016293;stroke:#016293;stroke-width:2.041;stroke-miterlimit:10;} .st4{fill:#FFFFFF;} .st5{fill:#231F20;} .st6{fill:#FFFFFF;stroke:#016293;stroke-width:1.0169;stroke-miterlimit:10;} .st7{fill:#FFFFFF;stroke:#016293;stroke-width:1.0185;stroke-miterlimit:10;} .st8{fill:#FFFFFF;stroke:#016293;stroke-width:1.0209;stroke-miterlimit:10;} .st9{fill:#016293;stroke:#FFFFFF;stroke-width:2;stroke-miterlimit:10;} .st10{fill:#016293;stroke:#FFFFFF;stroke-miterlimit:10;} .st11{fill:#FFFFFF;stroke:#016293;stroke-width:5.0184;stroke-miterlimit:10;} .st12{fill:none;stroke:#016293;stroke-width:3;stroke-miterlimit:10;} .st13{fill:#FFFFFF;stroke:#016293;stroke-width:3;stroke-miterlimit:10;} .st14{fill:#FFFFFF;stroke:#231F20;stroke-miterlimit:10;} .st15{fill:none;stroke:#231F20;stroke-miterlimit:10;} .st16{display:none;} .st17{display:inline;fill:#F26F6A;} .st18{fill:none;stroke:#9CBDD8;stroke-width:5.8821;stroke-miterlimit:10;} .st19{fill:#FFFFFF;stroke:#9CBDD8;stroke-width:5.8821;stroke-miterlimit:10;} .st20{fill:#9CBDD8;stroke:#FFFFFF;stroke-width:5.8821;stroke-miterlimit:10;} .st21{clip-path:url(#SVGID_2_);fill:#231F20;} .st22{clip-path:url(#SVGID_2_);fill:#046293;} .st23{clip-path:url(#SVGID_2_);fill:#9CBDD9;} .st24{clip-path:url(#SVGID_2_);fill:#9CD8D9;} .st25{clip-path:url(#SVGID_2_);fill:#FFFFFF;} .st26{clip-path:url(#SVGID_2_);} .st27{fill:#BDC4C9;} .st28{clip-path:url(#SVGID_2_);fill:none;stroke:#FFFFFF;stroke-width:0.809;stroke-miterlimit:10;} .st29{clip-path:url(#SVGID_2_);fill:none;stroke:#FFFFFF;stroke-width:0.453;stroke-miterlimit:10;} .st30{clip-path:url(#SVGID_2_);fill:none;stroke:#FFFFFF;stroke-width:0.535;stroke-miterlimit:10;} .st31{fill:#9CD8D9;} .st32{clip-path:url(#SVGID_4_);} .st33{clip-path:url(#SVGID_4_);fill:none;stroke:#231F20;stroke-width:0.689;stroke-miterlimit:10;} .st34{clip-path:url(#SVGID_4_);fill:none;stroke:#231F20;stroke-width:0.506;stroke-miterlimit:10;} .st35{fill:#066393;} .st36{fill:#9BD7D8;stroke:#016293;stroke-width:18.6809;stroke-miterlimit:10;} .st37{fill:#076393;} .st38{fill:none;stroke:#076393;stroke-width:3.5038;stroke-miterlimit:10;} .st39{fill:#FFFFFF;stroke:#076393;stroke-width:3.5038;stroke-miterlimit:10;} .st40{fill:#076393;stroke:#FFFFFF;stroke-width:3.5038;stroke-miterlimit:10;}</style><g id="Default_g_x2B__icon"><path class="st1" d="M161.2 129.7c0-17-10.3-43.4-30.2-43.4-6.2 0-12.9 2.5-16.8 7.2-4.1 5-5.3 11.9-5.3 18 0 15.8 9.4 42 29.9 42 6 0 12.4-3.4 16.3-7.2 5.6-5.4 6.1-12.3 6.1-16.6zM148.2 191.2c-1.9-.2-3.1-.2-5.5-.2-2.2 0-15.1.5-25.2 3.8-5.3 1.9-20.6 7.5-20.6 24.3 0 16.7 16.5 28.8 42.1 28.8 23 0 35.2-10.9 35.2-25.5.1-12.1-7.8-18.5-26-31.2zM289.7 120.7l-88.9-88.9c-11.2-11.2-26.1-17.4-41.9-17.4-15.8 0-30.7 6.2-41.9 17.4l-88.9 88.9c-23.1 23.1-23.1 60.7 0 83.8l88.9 88.9c11.2 11.2 26.1 17.4 41.9 17.4 15.8 0 30.7-6.2 41.9-17.4l88.9-88.9c11.2-11.2 17.4-26.1 17.4-41.9-.1-15.9-6.2-30.7-17.4-41.9zm-163 137.1c-34.7 0-50.8-16.4-50.8-33.9 0-8.5 4.3-20.5 18.4-28.8 14.8-9 35-10.1 45.7-10.9-3.4-4.3-7.2-8.7-7.2-16 0-4 1.2-6.4 2.4-9.2-2.6.2-5.3.5-7.7.5-25.4 0-39.8-18.6-39.8-37 0-10.9 3.4-23.7 13.7-32.4 13.7-11.1 31.1-12.4 44-12.4h49.9l-15.3 9.5h-14.2c5.5 4.5 16.4 13.1 16.4 31.1 0 17.5-10 25.7-20.1 33.5-3.1 3.1-6.7 6.4-6.7 11.6 0 5.2 3.6 8 6.2 10.1l8.6 6.6c10.5 8.7 20.1 16.8 20.1 33 .1 22.2-22.4 44.7-63.6 44.7zm128.3-88.4h-23.7v23.7h-12.1v-23.7h-23.7v-11.6h23.7v-23.7h12.1v23.7h23.7v11.6z"/></g></svg>