<?xml version="1.0" encoding="utf-8"?>
<!-- Generator: Adobe Illustrator 19.1.0, SVG Export Plug-In . SVG Version: 6.00 Build 0)  -->
<!DOCTYPE svg PUBLIC "-//W3C//DTD SVG 1.1//EN" "http://www.w3.org/Graphics/SVG/1.1/DTD/svg11.dtd">
<svg version="1.1" xmlns="http://www.w3.org/2000/svg" xmlns:xlink="http://www.w3.org/1999/xlink" x="0px" y="0px" width="538.7px"
	 height="115.1px" viewBox="0 0 538.7 115.1" style="enable-background:new 0 0 538.7 115.1;" xml:space="preserve">
<style type="text/css">
	.st0{fill:#016293;}
	.st1{fill:#9CBDD8;}
	.st2{fill:#9BD7D8;}
	.st3{fill:#016293;stroke:#016293;stroke-width:2.041;stroke-miterlimit:10;}
	.st4{fill:#FFFFFF;}
	.st5{fill:#231F20;}
	.st6{fill:#FFFFFF;stroke:#016293;stroke-width:1.0169;stroke-miterlimit:10;}
	.st7{fill:#FFFFFF;stroke:#016293;stroke-width:1.0185;stroke-miterlimit:10;}
	.st8{fill:#FFFFFF;stroke:#016293;stroke-width:1.0209;stroke-miterlimit:10;}
	.st9{fill:#016293;stroke:#FFFFFF;stroke-width:2;stroke-miterlimit:10;}
	.st10{fill:#016293;stroke:#FFFFFF;stroke-miterlimit:10;}
	.st11{fill:#FFFFFF;stroke:#016293;stroke-width:5.0184;stroke-miterlimit:10;}
	.st12{fill:none;stroke:#016293;stroke-width:3;stroke-miterlimit:10;}
	.st13{fill:#FFFFFF;stroke:#016293;stroke-width:3;stroke-miterlimit:10;}
	.st14{fill:#FFFFFF;stroke:#231F20;stroke-miterlimit:10;}
	.st15{fill:none;stroke:#231F20;stroke-miterlimit:10;}
	.st16{display:none;}
	.st17{display:inline;fill:#F26F6A;}
	.st18{fill:none;stroke:#9CBDD8;stroke-width:5.8821;stroke-miterlimit:10;}
	.st19{fill:#FFFFFF;stroke:#9CBDD8;stroke-width:5.8821;stroke-miterlimit:10;}
	.st20{fill:#9CBDD8;stroke:#FFFFFF;stroke-width:5.8821;stroke-miterlimit:10;}
	.st21{clip-path:url(#SVGID_2_);fill:#231F20;}
	.st22{clip-path:url(#SVGID_2_);fill:#046293;}
	.st23{clip-path:url(#SVGID_2_);fill:#9CBDD9;}
	.st24{clip-path:url(#SVGID_2_);fill:#9CD8D9;}
	.st25{clip-path:url(#SVGID_2_);fill:#FFFFFF;}
	.st26{clip-path:url(#SVGID_2_);}
	.st27{fill:#BDC4C9;}
	.st28{clip-path:url(#SVGID_2_);fill:none;stroke:#FFFFFF;stroke-width:0.809;stroke-miterlimit:10;}
	.st29{clip-path:url(#SVGID_2_);fill:none;stroke:#FFFFFF;stroke-width:0.453;stroke-miterlimit:10;}
	.st30{clip-path:url(#SVGID_2_);fill:none;stroke:#FFFFFF;stroke-width:0.535;stroke-miterlimit:10;}
	.st31{fill:#9CD8D9;}
	.st32{clip-path:url(#SVGID_4_);}
	.st33{clip-path:url(#SVGID_4_);fill:none;stroke:#231F20;stroke-width:0.689;stroke-miterlimit:10;}
	.st34{clip-path:url(#SVGID_4_);fill:none;stroke:#231F20;stroke-width:0.506;stroke-miterlimit:10;}
	.st35{fill:#066393;}
	.st36{fill:#9BD7D8;stroke:#016293;stroke-width:18.6809;stroke-miterlimit:10;}
	.st37{fill:#076393;}
	.st38{fill:none;stroke:#076393;stroke-width:3.5038;stroke-miterlimit:10;}
	.st39{fill:#FFFFFF;stroke:#076393;stroke-width:3.5038;stroke-miterlimit:10;}
	.st40{fill:#076393;stroke:#FFFFFF;stroke-width:3.5038;stroke-miterlimit:10;}
</style>
<g id="Layer_1">
</g>
<g id="Logo">
	<polygon class="st2" points="527.8,59.6 505.2,82.2 480,109 466.6,95.6 500.9,59.6 466.5,25.2 479.9,11.7 505.2,37.1 	"/>
	<g>
		<path class="st4" d="M58.3,16.6l6.7,48.3l23.4-48.3h21.8L98,86.3H81.6l3-17.1l7.1-31.5L67.2,86.3H56.3l-7.9-50.4L44,70.8
			l-2.7,15.5H25L37,16.6H58.3z"/>
		<path class="st4" d="M129.4,63.5l13.4-29h17.4L129.8,94c-2.3,4.7-4.9,8.1-7.8,10.2c-3,2.1-6.5,3.1-10.6,3.1
			c-1.8,0-4.1-0.4-6.9-1.1l1.2-11.5h1.8c1.9,0,3.7-0.3,5.1-0.9c1.5-0.6,2.7-1.8,3.7-3.6l2.2-4.3l-8.3-51.4h16.3L129.4,63.5z"/>
		<path class="st4" d="M186.9,16.6l6.7,48.3l23.4-48.3h21.8l-12.1,69.7h-16.5l3-17.1l7.1-31.5l-24.4,48.6h-10.9l-7.9-50.4l-4.4,34.9
			l-2.7,15.5h-16.4l12.1-69.7H186.9z"/>
		<path class="st4" d="M264.4,33.5c4.6,0.1,8.6,1.2,12,3.5c3.4,2.2,5.9,5.4,7.4,9.4c1.6,4,2.1,8.5,1.7,13.4l-0.1,1.1
			c-0.9,7.9-3.8,14.4-8.9,19.2c-5,4.9-11.2,7.3-18.6,7.1c-4.6-0.1-8.6-1.2-11.9-3.4c-3.3-2.2-5.8-5.3-7.4-9.3
			c-1.6-4-2.2-8.4-1.7-13.3c0.8-8.5,3.7-15.2,8.7-20.3C250.7,35.9,256.9,33.4,264.4,33.5z M252.7,61.2l-0.1,2.8
			c-0.4,7.1,1.7,10.7,6.5,10.8c6.2,0.2,9.8-4.8,10.8-15l0.2-4.3c0.1-2.9-0.5-5.2-1.6-6.9c-1.1-1.7-2.8-2.6-5-2.7
			c-2.9-0.1-5.3,1.1-7.2,3.6C254.3,52,253.2,55.9,252.7,61.2z"/>
		<path class="st4" d="M312.7,21.6l-2.2,12.9h8.3l-2,11.2h-8.3l-4,23.8c-0.2,1.6-0.1,2.9,0.3,3.7c0.4,0.8,1.5,1.3,3.2,1.3
			c0.7,0,2,0,4.1-0.2L311,85.9c-2.6,0.9-5.5,1.3-8.5,1.2c-4.9-0.1-8.5-1.5-11-4.3c-2.4-2.8-3.4-6.6-3-11.4l4.2-25.7h-6.4l1.9-11.2
			h6.4l2.2-12.9H312.7z"/>
		<path class="st4" d="M332.4,86.3h-15.8l9-51.8h15.8L332.4,86.3z M327,21.4c-0.1-2.3,0.8-4.3,2.5-5.8c1.7-1.6,3.8-2.3,6.2-2.3
			c2.5,0,4.5,0.7,6.1,2.1c1.6,1.4,2.5,3.2,2.6,5.5c0.1,2.4-0.8,4.3-2.4,5.9c-1.7,1.5-3.8,2.3-6.2,2.3c-2.4,0-4.4-0.7-6.1-2.1
			C327.9,25.6,327,23.7,327,21.4z"/>
		<path class="st4" d="M368.6,33.5c4.6,0.1,8.6,1.2,12,3.5c3.4,2.2,5.9,5.4,7.4,9.4c1.6,4,2.1,8.5,1.7,13.4l-0.1,1.1
			c-0.9,7.9-3.8,14.4-8.9,19.2c-5,4.9-11.2,7.3-18.6,7.1c-4.6-0.1-8.6-1.2-11.9-3.4c-3.3-2.2-5.8-5.3-7.4-9.3
			c-1.6-4-2.2-8.4-1.7-13.3c0.8-8.5,3.7-15.2,8.7-20.3C354.9,35.9,361.1,33.4,368.6,33.5z M356.8,61.2l-0.1,2.8
			c-0.4,7.1,1.7,10.7,6.5,10.8c6.2,0.2,9.8-4.8,10.8-15l0.2-4.3c0.1-2.9-0.5-5.2-1.6-6.9c-1.1-1.7-2.8-2.6-5-2.7
			c-2.9-0.1-5.3,1.1-7.2,3.6C358.5,52,357.4,55.9,356.8,61.2z"/>
		<path class="st4" d="M411.6,34.4l-1.1,6.2c4.1-4.9,9.1-7.3,15-7.2c4.8,0.1,8.4,1.9,10.7,5.3c2.3,3.5,3.2,8.4,2.6,14.9l-5.5,32.6
			h-15.8l5.5-32.7c0.1-1.1,0.2-2.1,0.1-3.1c-0.2-3-2-4.6-5.4-4.6c-2.8-0.1-5.3,1.2-7.6,3.7l-6.5,36.6h-15.7l9-51.8L411.6,34.4z"/>
	</g>
	<polygon class="st2" points="492.9,59.2 470.3,81.8 441.7,110.4 428.3,97 466.1,59.2 428.3,21.4 441.7,8 470.3,36.7 	"/>
</g>
<g id="Layer_3">
</g>
<g id="Graphics">
</g>
<g id="Default_g_x2B__icon">
</g>
<g id="YouTube_Icon">
</g>
</svg>
