<svg xmlns="http://www.w3.org/2000/svg" width="538.7" height="115.1" viewBox="-126 555.9 538.7 115.1" enable-background="new -126 555.9 538.7 115.1"><style type="text/css">.st0{fill:#FFFFFF;}</style><path class="st0" d="M401.8 615.5l-22.6 22.6-25.2 26.8-13.4-13.4 34.3-36-34.4-34.4 13.4-13.5 25.3 25.4zM-67.7 572.5l6.7 48.3 23.4-48.3h21.8l-12.2 69.7h-16.4l3-17.1 7.1-31.5-24.5 48.6h-10.9l-7.9-50.4-4.4 34.9-2.7 15.5h-16.3l12-69.7h21.3zM3.4 619.4l13.4-29h17.4l-30.4 59.5c-2.3 4.7-4.9 8.1-7.8 10.2-3 2.1-6.5 3.1-10.6 3.1-1.8 0-4.1-.4-6.9-1.1l1.2-11.5h1.8c1.9 0 3.7-.3 5.1-.9 1.5-.6 2.7-1.8 3.7-3.6l2.2-4.3-8.3-51.4h16.3l2.9 29zM60.9 572.5l6.7 48.3 23.4-48.3h21.8l-12.1 69.7h-16.5l3-17.1 7.1-31.5-24.4 48.6h-10.9l-7.9-50.4-4.4 34.9-2.7 15.5h-16.4l12.1-69.7h21.2zM138.4 589.4c4.6.1 8.6 1.2 12 3.5 3.4 2.2 5.9 5.4 7.4 9.4 1.6 4 2.1 8.5 1.7 13.4l-.1 1.1c-.9 7.9-3.8 14.4-8.9 19.2-5 4.9-11.2 7.3-18.6 7.1-4.6-.1-8.6-1.2-11.9-3.4-3.3-2.2-5.8-5.3-7.4-9.3-1.6-4-2.2-8.4-1.7-13.3.8-8.5 3.7-15.2 8.7-20.3 5.1-5 11.3-7.5 18.8-7.4zm-11.7 27.7l-.1 2.8c-.4 7.1 1.7 10.7 6.5 10.8 6.2.2 9.8-4.8 10.8-15l.2-4.3c.1-2.9-.5-5.2-1.6-6.9-1.1-1.7-2.8-2.6-5-2.7-2.9-.1-5.3 1.1-7.2 3.6-2 2.5-3.1 6.4-3.6 11.7zM186.7 577.5l-2.2 12.9h8.3l-2 11.2h-8.3l-4 23.8c-.2 1.6-.1 2.9.3 3.7s1.5 1.3 3.2 1.3c.7 0 2 0 4.1-.2l-1.1 11.6c-2.6.9-5.5 1.3-8.5 1.2-4.9-.1-8.5-1.5-11-4.3-2.4-2.8-3.4-6.6-3-11.4l4.2-25.7h-6.4l1.9-11.2h6.4l2.2-12.9h15.9zM206.4 642.2h-15.8l9-51.8h15.8l-9 51.8zm-5.4-64.9c-.1-2.3.8-4.3 2.5-5.8 1.7-1.6 3.8-2.3 6.2-2.3 2.5 0 4.5.7 6.1 2.1 1.6 1.4 2.5 3.2 2.6 5.5.1 2.4-.8 4.3-2.4 5.9-1.7 1.5-3.8 2.3-6.2 2.3-2.4 0-4.4-.7-6.1-2.1-1.8-1.4-2.7-3.3-2.7-5.6zM242.6 589.4c4.6.1 8.6 1.2 12 3.5 3.4 2.2 5.9 5.4 7.4 9.4 1.6 4 2.1 8.5 1.7 13.4l-.1 1.1c-.9 7.9-3.8 14.4-8.9 19.2-5 4.9-11.2 7.3-18.6 7.1-4.6-.1-8.6-1.2-11.9-3.4s-5.8-5.3-7.4-9.3-2.2-8.4-1.7-13.3c.8-8.5 3.7-15.2 8.7-20.3 5.1-5 11.3-7.5 18.8-7.4zm-11.8 27.7l-.1 2.8c-.4 7.1 1.7 10.7 6.5 10.8 6.2.2 9.8-4.8 10.8-15l.2-4.3c.1-2.9-.5-5.2-1.6-6.9-1.1-1.7-2.8-2.6-5-2.7-2.9-.1-5.3 1.1-7.2 3.6-1.9 2.5-3 6.4-3.6 11.7zM285.6 590.3l-1.1 6.2c4.1-4.9 9.1-7.3 15-7.2 4.8.1 8.4 1.9 10.7 5.3 2.3 3.5 3.2 8.4 2.6 14.9l-5.5 32.6h-15.8l5.5-32.7c.1-1.1.2-2.1.1-3.1-.2-3-2-4.6-5.4-4.6-2.8-.1-5.3 1.2-7.6 3.7l-6.5 36.6h-15.7l9-51.8 14.7.1zM366.9 615.1l-22.6 22.6-28.6 28.6-13.4-13.4 37.8-37.8-37.8-37.8 13.4-13.4 28.6 28.7z"/></svg>