<?xml version="1.0" encoding="utf-8"?>
<!-- Generator: Adobe Illustrator 19.1.0, SVG Export Plug-In . SVG Version: 6.00 Build 0)  -->
<!DOCTYPE svg PUBLIC "-//W3C//DTD SVG 1.1//EN" "http://www.w3.org/Graphics/SVG/1.1/DTD/svg11.dtd">
<svg version="1.1" xmlns="http://www.w3.org/2000/svg" xmlns:xlink="http://www.w3.org/1999/xlink" x="0px" y="0px" width="507.3px"
	 height="406.4px" viewBox="0 0 507.3 406.4" style="enable-background:new 0 0 507.3 406.4;" xml:space="preserve">
<style type="text/css">
	.st0{fill:#016293;}
	.st1{fill:#9CBDD8;}
	.st2{fill:#9BD7D8;}
	.st3{fill:#016293;stroke:#016293;stroke-width:2.041;stroke-miterlimit:10;}
	.st4{fill:#FFFFFF;}
	.st5{fill:#231F20;}
	.st6{fill:#FFFFFF;stroke:#016293;stroke-width:1.0169;stroke-miterlimit:10;}
	.st7{fill:#FFFFFF;stroke:#016293;stroke-width:1.0185;stroke-miterlimit:10;}
	.st8{fill:#FFFFFF;stroke:#016293;stroke-width:1.0209;stroke-miterlimit:10;}
	.st9{fill:#016293;stroke:#FFFFFF;stroke-width:2;stroke-miterlimit:10;}
	.st10{fill:#016293;stroke:#FFFFFF;stroke-miterlimit:10;}
	.st11{fill:#FFFFFF;stroke:#016293;stroke-width:5.0184;stroke-miterlimit:10;}
	.st12{fill:none;stroke:#016293;stroke-width:3;stroke-miterlimit:10;}
	.st13{fill:#FFFFFF;stroke:#016293;stroke-width:3;stroke-miterlimit:10;}
	.st14{fill:#FFFFFF;stroke:#231F20;stroke-miterlimit:10;}
	.st15{fill:none;stroke:#231F20;stroke-miterlimit:10;}
	.st16{display:none;}
	.st17{display:inline;fill:#F26F6A;}
	.st18{fill:none;stroke:#9CBDD8;stroke-width:5.8821;stroke-miterlimit:10;}
	.st19{fill:#FFFFFF;stroke:#9CBDD8;stroke-width:5.8821;stroke-miterlimit:10;}
	.st20{fill:#9CBDD8;stroke:#FFFFFF;stroke-width:5.8821;stroke-miterlimit:10;}
	.st21{clip-path:url(#SVGID_2_);fill:#231F20;}
	.st22{clip-path:url(#SVGID_2_);fill:#046293;}
	.st23{clip-path:url(#SVGID_2_);fill:#9CBDD9;}
	.st24{clip-path:url(#SVGID_2_);fill:#9CD8D9;}
	.st25{clip-path:url(#SVGID_2_);fill:#FFFFFF;}
	.st26{clip-path:url(#SVGID_2_);}
	.st27{fill:#BDC4C9;}
	.st28{clip-path:url(#SVGID_2_);fill:none;stroke:#FFFFFF;stroke-width:0.809;stroke-miterlimit:10;}
	.st29{clip-path:url(#SVGID_2_);fill:none;stroke:#FFFFFF;stroke-width:0.453;stroke-miterlimit:10;}
	.st30{clip-path:url(#SVGID_2_);fill:none;stroke:#FFFFFF;stroke-width:0.535;stroke-miterlimit:10;}
	.st31{fill:#9CD8D9;}
	.st32{clip-path:url(#SVGID_4_);}
	.st33{clip-path:url(#SVGID_4_);fill:none;stroke:#231F20;stroke-width:0.689;stroke-miterlimit:10;}
	.st34{clip-path:url(#SVGID_4_);fill:none;stroke:#231F20;stroke-width:0.506;stroke-miterlimit:10;}
	.st35{fill:#066393;}
	.st36{fill:#9BD7D8;stroke:#016293;stroke-width:18.6809;stroke-miterlimit:10;}
	.st37{fill:#076393;}
	.st38{fill:none;stroke:#076393;stroke-width:3.5038;stroke-miterlimit:10;}
	.st39{fill:#FFFFFF;stroke:#076393;stroke-width:3.5038;stroke-miterlimit:10;}
	.st40{fill:#076393;stroke:#FFFFFF;stroke-width:3.5038;stroke-miterlimit:10;}
</style>
<g id="Layer_1">
</g>
<g id="Logo">
	<g>
		<g>
			<g id="XMLID_9_">
				<path class="st0" d="M106.9,65c80.8-35,177,4,214.5,87.2c18.7,41.3,20.2,86.7,4.2,127.9c-11.3,29.2-30.4,53.7-55.2,71.1
					c-5.1,3.6-10.4,6.8-15.9,9.8c-59,37.6-138.6,23.8-190.6-30.4c-7.1-7-13.6-14.7-19.5-23.1c-6.1-8.7-11.5-18.1-16.1-28.1
					c-18.7-41.3-20.2-86.7-4.2-128C39.4,112.3,68.7,81.6,106.9,65z M282.2,134.7l12.9-9.1c-4.4-5.9-9.2-11.5-14.3-16.6l-10.7,11.5
					C274.3,125,278.3,129.7,282.2,134.7z M300.5,133.3l-12.8,9c3.5,5,6.6,10.1,9.5,15.4l13.8-6C307.8,145.3,304.3,139.1,300.5,133.3
					z M314.8,160.2l-13.3,5.8c2.6,5.3,4.9,10.8,6.9,16.3l13.1-2.7C319.7,173,317.5,166.6,314.8,160.2z M263.4,113.9l10.6-11.4
					c-5-4.5-10.3-8.7-15.8-12.5l-7.9,12.7l0,0C254.9,106.2,259.3,109.9,263.4,113.9z M323.7,188.6l-12.4,2.6
					c1.9,6.2,3.4,12.5,4.5,18.7l11-0.1C326.3,202.6,325.3,195.6,323.7,188.6z M242.8,97.2l7.7-12.3c-6.1-3.8-12.5-7.1-19.1-10
					l-4.6,12.6C232.3,90.3,237.6,93.6,242.8,97.2z M327.3,219.1l-10,0.1c0.8,6.6,1.3,13.1,1.3,19.6l7.6,1.4
					C327,233.2,327.4,226.2,327.3,219.1z M218.4,83.2l4.3-11.9c-6.7-2.5-13.4-4.5-20.4-6.1l-1.7,10.9
					C206.7,78.1,212.6,80.5,218.4,83.2z M273.1,152.5c-0.5-0.7-1-1.5-1.5-2.2c-1.3-1.8-2.6-3.6-4-5.4c-3.1-4-6.3-7.9-9.6-11.5
					c-2.1-2.3-4.3-4.6-6.5-6.7c-3.3-3.3-6.8-6.4-10.4-9.3c-2.4-2-4.9-3.9-7.4-5.7c-4.1-3-8.4-5.8-12.7-8.3c-2.7-1.6-5.5-3.1-8.3-4.5
					c-4.7-2.4-9.6-4.6-14.5-6.4c-3-1.1-6-2.2-9-3.1c-5.1-1.6-10.3-2.9-15.5-3.9c-3.2-0.6-6.3-1-9.4-1.4c-5.3-0.6-10.7-0.9-16-0.9
					c-3.2,0-6.4,0.2-9.5,0.4c-5.8,0.5-11.5,1.4-17.1,2.7c-3.1,0.7-6.1,1.5-9.2,2.5c-5.8,1.8-11.5,4.2-17.1,6.9
					c-2.8,1.4-5.5,2.9-8.2,4.6c-0.5,0.3-1,0.6-1.6,1c-1.6,1-3.1,2-4.6,3.1l-0.1,0c-2.9,2.1-5.7,4.2-8.4,6.5l0,0
					c-2.4,2.1-4.7,4.2-6.9,6.4c-4,4-7.7,8.3-11.1,12.9c-1.9,2.5-3.6,5.1-5.3,7.7c-3.6,5.7-6.7,11.7-9.2,17.9
					c-1.2,2.9-2.3,5.8-3.3,8.8c-2,6-3.6,12.2-4.7,18.5c-0.6,3.1-1,6.2-1.3,9.3c-0.7,6.6-1,13.4-0.8,20.1c0.1,3.1,0.3,6.2,0.6,9.3
					c0.5,6,1.5,12.1,2.8,18.1c0.6,3,1.4,6.1,2.2,9.1c1.8,6.4,4,12.9,6.7,19.2c1.2,2.9,2.5,5.7,3.9,8.5c2.8,5.8,6.1,11.5,9.6,17.1
					c1.2,1.9,2.5,3.7,3.7,5.6c0.5,0.7,1,1.4,1.5,2.1c4,5.6,8.3,10.8,12.9,15.7c2.1,2.3,4.3,4.5,6.6,6.7c4.3,4.1,8.8,8,13.4,11.6
					c2.5,1.9,5,3.7,7.6,5.5c6,4.1,12.3,7.7,18.7,10.8c2.8,1.4,5.6,2.7,8.5,3.9c6,2.5,12.1,4.6,18.3,6.2c3,0.8,6.1,1.5,9.1,2.1
					c6.9,1.3,13.9,2.2,20.7,2.4c3.1,0.1,6.2,0.2,9.4,0c6.5-0.2,12.9-0.9,19.3-2.2c3-0.6,6.1-1.3,9.1-2.2c6.2-1.7,12.2-3.9,18.1-6.7
					c2.8-1.3,5.6-2.8,8.3-4.3c3.1-1.7,6.1-3.7,9-5.7c0,0,0,0,0,0c1.5-1.1,3-2.2,4.5-3.3c0.5-0.4,1-0.8,1.5-1.2c2.5-2,4.8-4,7.1-6.2
					c4.9-4.6,9.2-9.5,13.1-14.8c1.9-2.5,3.7-5.1,5.4-7.8c3-4.7,5.6-9.6,7.9-14.8c1.3-2.9,2.5-5.8,3.6-8.8c2.1-5.7,3.7-11.5,5-17.5
					c0.7-3.1,1.2-6.2,1.7-9.4c0.8-5.4,1.2-11,1.3-16.5c0.1-3.2,0.1-6.3-0.1-9.5c-0.2-5.3-0.7-10.7-1.5-16.1
					c-0.5-3.1-1.1-6.2-1.7-9.3c-1.1-5.1-2.4-10.1-4.1-15.1c-0.9-3-2-5.9-3.1-8.9c-1.7-4.3-3.5-8.6-5.6-12.8
					c-1.4-2.8-2.8-5.6-4.4-8.3C278.4,160.7,275.8,156.6,273.1,152.5z M324.7,249.5l-6.4-1.2c-0.4,6.7-1.1,13.3-2.4,19.7l3.6,1.5
					C321.7,262.9,323.5,256.2,324.7,249.5z M191.6,73.5l1.6-10c-6.8-1.1-13.7-1.8-20.6-1.9l0.4,8.2
					C179.2,70.6,185.5,71.8,191.6,73.5z M316.4,278.3l-2.4-1c-1.6,6.3-3.6,12.5-5.9,18.5C311.2,290.2,314,284.3,316.4,278.3z
					 M163.5,68.7l-0.3-7.1c-6.6,0.2-13.1,0.9-19.7,2.1l1.2,4.9C151,68.2,157.2,68.2,163.5,68.7z M135.3,69.4l-0.9-3.7
					c-6.5,1.6-13,3.6-19.4,6.2l0.7,1.4C122.1,71.5,128.7,70.2,135.3,69.4z"/>
				<path class="st4" d="M295.1,125.6l-12.9,9.1c-3.8-5-7.9-9.7-12.1-14.2l10.7-11.5C285.9,114.2,290.7,119.7,295.1,125.6z"/>
				<path class="st4" d="M287.7,142.3l12.8-9c3.9,5.8,7.4,12,10.5,18.4l-13.8,6C294.3,152.4,291.2,147.3,287.7,142.3z"/>
				<path class="st4" d="M301.5,166l13.3-5.8c2.7,6.3,4.9,12.8,6.7,19.3l-13.1,2.7C306.4,176.8,304.1,171.3,301.5,166z"/>
				<path class="st4" d="M274.1,102.5l-10.6,11.4c-4.2-4-8.6-7.7-13.1-11.2l0,0l7.9-12.7C263.8,93.8,269,98,274.1,102.5z"/>
				<path class="st4" d="M311.3,191.2l12.4-2.6c1.5,7,2.6,14.1,3.1,21.2l-11,0.1C314.7,203.6,313.2,197.4,311.3,191.2z"/>
				<path class="st4" d="M250.5,84.9l-7.7,12.3c-5.2-3.6-10.5-6.8-16-9.8l4.6-12.6C238,77.7,244.3,81.1,250.5,84.9z"/>
				<path class="st4" d="M317.3,219.2l10-0.1c0.1,7.1-0.3,14.2-1.2,21.2l-7.6-1.4C318.5,232.3,318.1,225.7,317.3,219.2z"/>
				<path class="st4" d="M222.7,71.3l-4.3,11.9c-5.8-2.7-11.7-5-17.7-7l1.7-10.9C209.3,66.7,216.1,68.8,222.7,71.3z"/>
				<path class="st4" d="M271.6,150.4l-3.6,2.5l-8.7-2.1l-14.2-3.4l-10.4-2.5l-9.2-2.2l-9.6-2.3l-7.7-1.8l-9.2-2.2l-7.3-1.8
					l-9.1-2.2l-6.9-1.7l-9.5-2.3l-7.7-1.9l-10.2-2.5l-10.9-2.6l-11.5-2.8l-17.4-4.2l-13.7-3.3l-10.9-2.6l1.7-7.2
					c0.5-0.3,1-0.6,1.6-1c2.7-1.6,5.4-3.2,8.2-4.6c5.5-2.8,11.2-5.1,17.1-6.9c3-1,6.1-1.8,9.2-2.5c5.6-1.3,11.3-2.2,17.1-2.7
					c3.2-0.3,6.4-0.4,9.5-0.4c5.3,0,10.7,0.3,16,0.9c3.2,0.4,6.3,0.8,9.4,1.4c5.2,1,10.4,2.2,15.5,3.9c3,0.9,6,1.9,9,3.1
					c4.9,1.8,9.8,4,14.5,6.4c2.8,1.4,5.6,2.9,8.3,4.5c4.3,2.5,8.6,5.3,12.7,8.3c2.5,1.8,5,3.7,7.4,5.7c3.6,2.9,7,6,10.4,9.3
					c2.3,2.1,4.4,4.4,6.5,6.7c3.3,3.6,6.6,7.5,9.6,11.5C269,146.7,270.3,148.5,271.6,150.4z"/>
				<path class="st4" d="M268,152.9l3.6-2.5c0.5,0.7,1,1.4,1.5,2.2c2.7,4,5.3,8.1,7.6,12.3c1.6,2.7,3,5.5,4.4,8.3
					c2.1,4.2,4,8.5,5.6,12.8c1.1,3,2.2,5.9,3.1,8.9c1.6,5,3,10.1,4.1,15.1c0.6,3.1,1.2,6.2,1.7,9.3c0.8,5.4,1.3,10.8,1.5,16.1
					c0.1,3.2,0.2,6.4,0.1,9.5c-0.1,5.6-0.5,11.1-1.3,16.5c-0.4,3.2-1,6.3-1.7,9.4c-1.2,6-2.9,11.8-5,17.5c-1.1,3-2.2,6-3.6,8.8
					c-2.3,5.1-4.9,10-7.9,14.8c-1.7,2.7-3.5,5.3-5.4,7.8c-3.9,5.3-8.3,10.2-13.1,14.8c-2.2,2.1-4.6,4.2-7.1,6.2
					c-0.5,0.4-1,0.8-1.5,1.2l-7.4-0.8l1.2-11.2l1.5-14.1l2.1-19.4l1.3-11.7l1.2-10.8l1.2-10.4l1-9.5l1.1-9.6l0.8-7.7l1-9.3l0.9-7.7
					l1-9.4l1-8.9l1.1-9.8l1.1-9.7l1.2-10.7l1.6-14.8L268,152.9z"/>
				<path class="st0" d="M259.3,150.8l8.7,2.1l-0.4,3.5l-1.6,14.8l-1.2,10.7l-1.1,9.7l-1.1,9.8l-1,8.9l-1,9.4l-0.9,7.7l-1,9.3
					l-0.8,7.7l-1.1,9.6l-1,9.5l-1.2,10.4l-1.2,10.8l-1.3,11.7l-2.1,19.4l-1.5,14.1l-1.2,11.2l-12-2.9l-11.5-2.8l-16.4-3.9l-10.2-2.5
					l-12.8-3.1l-9.5-2.3l-12.2-2.9l-9.1-2.2l-10.5-2.5l-9.1-2.2l-13.6-3.3l-9.6-2.3L98,305.2l-10.5-2.5l-20.9-5l-3.4-0.8l1-8.9
					l2.2-19.9l1.2-10.7l1.7-15.3l1.1-9.8l1.2-10.7l1-9.4l1.2-11.4l1-9.4l1.2-10.8l1.1-9.7l1.5-13.6l1.1-10.4l1.6-14.5l1.3-11.8
					l1.3-12l0,0l10.9,2.6l13.7,3.3l17.4,4.2l11.5,2.8l10.9,2.6l10.2,2.5l7.7,1.9l9.5,2.3l6.9,1.7l9.1,2.2l7.3,1.8l9.2,2.2l7.7,1.8
					l9.6,2.3l9.2,2.2l10.4,2.5L259.3,150.8z M186.2,171.3L186,171c-2.5-3.5-5.2-6.7-8-9.5c-0.3-0.4-0.7-0.7-1-1
					c-3-2.8-6.3-5.2-9.7-7.2c-0.9-0.5-1.8-1-2.7-1.5c-1.8-0.9-3.6-1.6-5.5-2.2c-1.7-0.6-3.3-1-5-1.3c-1.6-0.3-3.2-0.6-4.8-0.6
					c-3.3-0.3-6.7-0.1-10,0.6c-2,0.4-3.9,0.9-5.9,1.5c-1.8,0.6-3.6,1.3-5.4,2.2l-13.1-18.7l-12.1,8.5l12.9,18.3
					c-0.9,0.8-1.8,1.6-2.7,2.5c-1.3,1.2-2.4,2.5-3.5,3.8c-2,2.5-3.8,5.1-5.1,7.8l0,0c-1.1,2.1-2,4.3-2.7,6.5
					c-0.7,2.2-1.2,4.4-1.5,6.8c-0.1,0.9-0.2,1.8-0.2,2.6c-0.2,2-0.1,4,0.1,6.1c0.3,3.3,1.1,6.7,2.3,10c0.7,1.8,1.5,3.7,2.4,5.5
					c1.1,2,2.3,4.1,3.7,6.1c0.8,1.1,1.6,2.2,2.4,3.2c0.6,0.8,1.2,1.5,1.8,2.2c2.8,3.2,5.7,5.8,8.6,7.8l0,0c0.9,0.6,1.8,1.2,2.8,1.7
					c3.7,2.1,7.7,3.5,11.9,4.3c0.2,0,0.3,0.1,0.5,0.1c0.3,0,0.5,0.1,0.8,0.1c0,0,0,0,0,0c3.4,0.6,6.9,0.8,10.5,0.7l0,0
					c1.4,0,2.7-0.1,4.1-0.2c0.2,0,0.5,0,0.7-0.1c0.8-0.1,1.7-0.2,2.5-0.3c2.2-0.3,4.5-0.5,6.8-0.9l0,0c0.1,0,0.3,0,0.4-0.1
					c1.4-0.2,2.7-0.4,4.1-0.6c0.3,0,0.5-0.1,0.8-0.1c1.2-0.2,2.4-0.4,3.7-0.6c0.1,0,0.3,0,0.4-0.1c0.5-0.1,1.1-0.2,1.6-0.2
					c0.5-0.1,1.1-0.2,1.6-0.3c0.6-0.1,1.1-0.1,1.6-0.2c0.6-0.1,1.2-0.1,1.7-0.1c0.8,0,1.6-0.1,2.3-0.1c0.3,0,0.5,0,0.8,0
					c1.1,0,2.1,0.1,3.1,0.3c1.1,0.1,2,0.4,2.9,0.6c0.5,0.2,1,0.3,1.5,0.6c0,0,0,0,0,0l0.5,0.5l-0.1-0.3c3.1,1.5,6,4.1,8.6,7.9
					c0.4,0.5,0.7,1,1,1.5c0,0,0,0,0,0c2.2,3.5,3.1,7,2.8,10.2c-0.2,1.7-0.6,3.3-1.4,4.7c-0.1,0.2-0.2,0.3-0.3,0.5
					c-0.9,1.5-2.3,2.9-4,4.1c-1,0.7-2.1,1.3-3.1,1.8c-0.2,0.1-0.4,0.2-0.7,0.3c-3.1,1.3-6.2,1.6-9.4,0.8c0,0,0,0,0,0
					c-0.2,0-0.5-0.1-0.7-0.2c-0.2-0.1-0.4-0.1-0.7-0.2c-3-1-6.1-2.9-9-5.8c-0.1,0-0.1-0.1-0.1-0.1c-1.8-1.8-3.6-3.9-5.3-6.4
					l-25.7,18.1c0.5,0.8,1.1,1.5,1.6,2.2c1.2,1.7,2.5,3.2,3.9,4.7c2.3,2.7,4.8,5,7.3,7.1c1.4,1.1,2.8,2.2,4.3,3.1
					c2.8,1.8,5.7,3.3,8.8,4.4c1.1,0.4,2.2,0.7,3.3,1.1c1.2,0.3,2.4,0.6,3.6,0.8c3.1,0.6,6.2,0.8,9.4,0.7c2.1-0.1,4.1-0.3,6.2-0.7
					c3-0.6,6-1.5,9-2.6c1.8-0.7,3.6-1.5,5.4-2.5c0.4-0.2,0.7-0.4,1.1-0.6l12.3,17.5l12.1-8.5l-12.2-17.4c2-1.8,3.8-3.6,5.4-5.5
					c1.4-1.6,2.7-3.3,3.7-5.1c1.8-2.8,3.2-5.8,4.2-8.9c0.4-1.3,0.8-2.6,1-4c0.2-1.1,0.4-2.2,0.5-3.3c0.3-2.5,0.3-5,0.1-7.5
					c-0.1-1.4-0.3-2.7-0.6-4.1c-0.8-3.9-2.2-7.9-4.2-11.8c-0.2-0.5-0.5-1-0.8-1.6c-1-1.7-2.1-3.4-3.3-5.1c-1.3-1.9-2.7-3.6-4.1-5.2
					c-0.2-0.3-0.4-0.5-0.6-0.7c-2.6-2.9-5.3-5.2-8.1-7l-0.4-0.2c-0.7-0.4-1.4-0.9-2.1-1.2c-1.5-0.9-3.1-1.6-4.7-2.3
					c-2.2-0.9-4.5-1.6-6.9-2.1c-0.4-0.1-0.7-0.2-1.1-0.2c-0.2,0-0.4-0.1-0.7-0.1c-1.2-0.2-2.5-0.4-3.8-0.5c-1.1-0.1-2.3-0.2-3.5-0.3
					c-0.3,0-0.7,0-1,0c-0.8,0-1.7-0.1-2.5,0c-0.7,0-1.3,0-2,0.1c-0.3,0-0.7,0-1,0c-0.6,0-1.1,0.1-1.7,0.1l0,0c-0.2,0-0.3,0-0.5,0
					c-0.2,0-0.3,0-0.5,0c-0.2,0-0.4,0-0.6,0.1l0,0c-0.6,0.1-1.2,0.1-1.9,0.2c-0.2,0-0.4,0-0.6,0.1c-0.5,0-0.9,0.1-1.4,0.1
					c-0.2,0-0.4,0-0.6,0.1c-0.4,0-0.8,0.1-1.2,0.1c-0.2,0-0.4,0-0.6,0.1c-0.5,0.1-0.9,0.1-1.4,0.2c0,0-0.1,0-0.1,0
					c-0.5,0.1-1.1,0.2-1.6,0.2c-0.7,0.1-1.5,0.2-2.2,0.3c-1.1,0.2-2.2,0.3-3.3,0.5c-0.8,0.1-1.6,0.2-2.4,0.3c-0.1,0-0.1,0-0.2,0l0,0
					c-0.1,0-0.2,0-0.3,0.1c-1.3,0.2-2.6,0.4-3.9,0.5l0,0c-4.3,0.4-7.9,0.2-10.9-0.5c-2.6-0.7-5-2.1-7.2-4.3c-1.1-1-2.1-2.3-3.1-3.7
					c-1.8-2.5-3-4.9-3.6-7.2c-0.1-0.3-0.2-0.7-0.3-1c-0.3-1.3-0.4-2.5-0.3-3.7c0.1-2.4,0.8-4.4,2.3-6.3c0-0.1,0.1-0.1,0.1-0.2
					c0.8-1,1.8-1.9,2.9-2.7c1.7-1.2,3.5-2,5.4-2.2c0,0,0.1,0,0.1,0c2.1-0.3,4.3,0,6.6,1c2.5,1,4.9,2.7,7.3,5.1
					c1.9,1.8,3.7,4,5.5,6.6L186.2,171.3z"/>
				<path class="st4" d="M318.3,248.3l6.4,1.2c-1.2,6.7-3,13.4-5.1,19.9L316,268C317.2,261.6,317.9,254.9,318.3,248.3z"/>
				<path class="st4" d="M193.2,63.4l-1.6,10c-6.2-1.6-12.4-2.9-18.7-3.8l-0.4-8.2C179.5,61.7,186.4,62.3,193.2,63.4z"/>
				<path class="st4" d="M314,277.3l2.4,1c-2.4,6.1-5.2,11.9-8.3,17.5C310.4,289.8,312.4,283.6,314,277.3z"/>
				<path class="st4" d="M163.2,61.6l0.3,7.1c-6.3-0.5-12.6-0.5-18.8-0.2l-1.2-4.9C150.1,62.5,156.6,61.8,163.2,61.6z"/>
				<path class="st4" d="M134.4,65.6l0.9,3.7c-6.6,0.8-13.2,2.1-19.6,3.8l-0.7-1.4C121.4,69.2,127.9,67.2,134.4,65.6z"/>
				<path class="st4" d="M186,171l0.2,0.3l-25.8,18.1c-1.8-2.6-3.7-4.8-5.5-6.6c-2.4-2.4-4.8-4.1-7.3-5.1c-2.3-1-4.5-1.3-6.6-1
					c-0.1,0-0.1,0-0.1,0c-1.8,0.2-3.6,1-5.4,2.2c-1.2,0.8-2.1,1.7-2.9,2.7c-0.1,0-0.1,0.1-0.1,0.2c-1.4,1.8-2.2,3.9-2.3,6.3
					c0,1.2,0.1,2.4,0.3,3.7c0.1,0.3,0.2,0.6,0.3,1c0.7,2.3,1.9,4.7,3.6,7.2c1,1.4,2,2.6,3.1,3.7c2.2,2.2,4.6,3.6,7.2,4.3
					c3,0.8,6.6,0.9,10.9,0.5l0,0c1.3-0.1,2.5-0.3,3.9-0.5l0.5,0.1l-0.1-0.1c0.1,0,0.1,0,0.2,0c0.8-0.1,1.6-0.3,2.4-0.3
					c1.1-0.2,2.2-0.4,3.3-0.5c0.7-0.1,1.5-0.2,2.2-0.3c0.5-0.1,1.1-0.1,1.6-0.2l0.1,0.1l0-0.1c0.4,0,0.9-0.1,1.4-0.2
					c0.2,0,0.4-0.1,0.6-0.1c0.4-0.1,0.8-0.1,1.2-0.1c0.2,0,0.4-0.1,0.6-0.1c0.5-0.1,0.9-0.1,1.4-0.1c0.2,0,0.4-0.1,0.6-0.1
					c0.6-0.1,1.3-0.1,1.9-0.2l0,0c0.2,0,0.4-0.1,0.6-0.1c0.2,0,0.3,0,0.5,0c0.2,0,0.3,0,0.5,0l0,0c0.5-0.1,1.1-0.1,1.7-0.1
					c0.3,0,0.7,0,1,0c0.6,0,1.3-0.1,2-0.1c0.8,0,1.7,0,2.5,0c0.3,0,0.7,0,1,0c1.2,0.1,2.4,0.2,3.5,0.3c1.3,0.1,2.5,0.3,3.8,0.5
					c0.2,0,0.4,0.1,0.7,0.1c0.4,0.1,0.7,0.1,1.1,0.2c2.4,0.5,4.7,1.2,6.9,2.1c1.6,0.6,3.2,1.4,4.7,2.3c0.7,0.4,1.4,0.8,2.1,1.2
					l0.4,0.2c2.8,1.8,5.5,4.2,8.1,7c0.2,0.2,0.4,0.5,0.6,0.7c1.4,1.6,2.7,3.3,4.1,5.2c1.2,1.7,2.3,3.4,3.3,5.1
					c0.3,0.5,0.6,1,0.8,1.6c2,3.9,3.4,7.9,4.2,11.8c0.2,1.4,0.4,2.7,0.6,4.1c0.2,2.5,0.2,5-0.1,7.5c-0.1,1.1-0.3,2.2-0.5,3.3
					c-0.3,1.4-0.6,2.7-1,4c-1,3.1-2.4,6.1-4.2,8.9c-1.1,1.7-2.3,3.4-3.7,5.1c-1.6,1.9-3.4,3.7-5.4,5.5l12.2,17.4l-12.1,8.5
					l-12.3-17.5c-0.4,0.2-0.8,0.4-1.1,0.6c-1.8,0.9-3.6,1.8-5.4,2.5c-3,1.2-6,2.1-9,2.6c-2.1,0.4-4.2,0.7-6.2,0.7
					c-3.2,0.2-6.3,0-9.4-0.7c-1.2-0.2-2.4-0.5-3.6-0.8c-1.1-0.3-2.2-0.7-3.3-1.1c-3-1.1-5.9-2.6-8.8-4.4c-1.5-0.9-2.9-2-4.3-3.1
					c-2.5-2-5-4.4-7.3-7.1c-1.3-1.5-2.6-3-3.9-4.7c-0.5-0.7-1.1-1.5-1.6-2.2l25.7-18.1c1.8,2.5,3.5,4.6,5.3,6.4
					c0.1,0,0.1,0.1,0.1,0.1c2.9,2.9,5.9,4.8,9,5.8c0.2,0.1,0.4,0.1,0.7,0.2c0.2,0.1,0.5,0.1,0.7,0.2c0,0,0,0,0,0
					c3.2,0.8,6.3,0.5,9.4-0.8c0.2-0.1,0.4-0.2,0.7-0.3c1.1-0.5,2.1-1.1,3.1-1.8c1.7-1.2,3-2.6,4-4.1c0.1-0.2,0.2-0.3,0.3-0.5
					c0.8-1.4,1.3-3,1.4-4.7c0.3-3.2-0.6-6.7-2.8-10.2c0,0,0,0,0,0c-0.3-0.5-0.7-1-1-1.5c-2.7-3.8-5.5-6.4-8.6-7.9
					c-0.1-0.1-0.2-0.1-0.4-0.2c0,0,0,0,0,0c-0.5-0.2-1-0.4-1.5-0.6c-0.9-0.3-1.8-0.5-2.9-0.6c-1-0.1-2-0.2-3.1-0.3
					c-0.2,0-0.5,0-0.8,0c-0.8,0-1.5,0-2.3,0.1c-0.6,0-1.2,0.1-1.7,0.1c-0.5,0-1.1,0.1-1.6,0.2c-0.5,0.1-1.1,0.2-1.6,0.3
					c-0.5,0.1-1,0.1-1.6,0.2c-0.1,0-0.3,0-0.4,0.1c-1.2,0.2-2.5,0.4-3.7,0.6c-0.3,0.1-0.5,0.1-0.8,0.1c-1.4,0.2-2.8,0.4-4.1,0.6
					c-0.1,0-0.2,0.1-0.4,0.1l0,0c-2.3,0.4-4.6,0.6-6.8,0.9c-0.8,0.1-1.7,0.2-2.5,0.3c-0.2,0-0.5,0.1-0.7,0.1
					c-1.4,0.1-2.8,0.2-4.1,0.2l0,0c-3.6,0.1-7.2-0.1-10.5-0.7c0,0,0,0,0,0c-0.3,0-0.5-0.1-0.8-0.1c-0.2,0-0.3-0.1-0.5-0.1
					c-4.2-0.8-8.1-2.2-11.9-4.3c-0.9-0.5-1.9-1.1-2.8-1.7l0,0c-3-2-5.9-4.5-8.6-7.8c-0.6-0.7-1.2-1.4-1.8-2.2
					c-0.8-1-1.6-2.1-2.4-3.2c-1.4-2-2.6-4-3.7-6.1c-1-1.8-1.8-3.7-2.4-5.5c-1.2-3.3-2-6.6-2.3-10c-0.2-2-0.2-4-0.1-6.1
					c0-0.9,0.1-1.7,0.2-2.6c0.3-2.3,0.8-4.6,1.5-6.8c0.7-2.2,1.6-4.4,2.7-6.5l0,0c1.4-2.7,3.1-5.3,5.1-7.8c1.1-1.3,2.2-2.6,3.5-3.8
					c0.8-0.9,1.7-1.7,2.7-2.5L102.8,142l12.1-8.5l13.1,18.7c1.8-0.9,3.6-1.6,5.4-2.2c2-0.7,3.9-1.2,5.9-1.5c3.3-0.7,6.7-0.8,10-0.6
					c1.6,0.1,3.2,0.3,4.8,0.6c1.7,0.3,3.3,0.8,5,1.3c1.9,0.6,3.7,1.4,5.5,2.2c0.9,0.5,1.9,1,2.7,1.5c3.4,1.9,6.6,4.3,9.7,7.2
					c0.4,0.3,0.7,0.7,1,1C180.9,164.3,183.5,167.5,186,171z"/>
				<path class="st4" d="M169.8,206.4L169.8,206.4L169.8,206.4C169.7,206.4,169.7,206.4,169.8,206.4z"/>
				<path class="st0" d="M189,235.6l0.1,0.3l-0.5-0.5C188.8,235.5,188.9,235.5,189,235.6z"/>
				<path class="st4" d="M85.7,101.3l-1.7,7.2l0,0l-1.3,12l-1.3,11.8l-1.6,14.5l-1.1,10.4L77,170.8l-1.1,9.7l-1.2,10.8l-1,9.4
					l-1.2,11.4l-1,9.4l-1.2,10.7l-1.1,9.8l-1.7,15.3L66.4,268l-2.2,19.9l-1,8.9l-3.6,2.6c-1.3-1.8-2.5-3.7-3.7-5.6
					c-3.6-5.6-6.8-11.3-9.6-17.1c-1.4-2.8-2.7-5.7-3.9-8.5c-2.7-6.3-4.9-12.8-6.7-19.2c-0.8-3-1.6-6-2.2-9.1
					c-1.3-6-2.2-12.1-2.8-18.1c-0.3-3.1-0.5-6.2-0.6-9.3c-0.2-6.8,0.1-13.5,0.8-20.1c0.4-3.1,0.8-6.2,1.3-9.3
					c1.1-6.3,2.7-12.5,4.7-18.5c1-3,2.1-5.9,3.3-8.8c2.6-6.2,5.7-12.2,9.2-17.9c1.6-2.7,3.4-5.2,5.3-7.7c3.3-4.5,7-8.8,11.1-12.9
					c2.2-2.2,4.5-4.3,6.9-6.4l0,0c2.7-2.3,5.5-4.4,8.4-6.5l0.1,0C82.6,103.3,84.1,102.3,85.7,101.3z"/>
				<path class="st4" d="M247.4,341.1l7.4,0.8c-1.5,1.1-3,2.2-4.5,3.3c0,0,0,0,0,0c-3,2.1-6,4-9,5.7c-2.7,1.6-5.5,3-8.3,4.3
					c-5.9,2.8-11.9,5-18.1,6.7c-3,0.8-6.1,1.6-9.1,2.2c-6.4,1.2-12.8,2-19.3,2.2c-3.1,0.1-6.2,0.1-9.4,0c-6.9-0.2-13.8-1.1-20.7-2.4
					c-3.1-0.6-6.1-1.3-9.1-2.1c-6.2-1.6-12.3-3.7-18.3-6.2c-2.9-1.2-5.7-2.5-8.5-3.9c-6.4-3.1-12.6-6.7-18.7-10.8
					c-2.6-1.7-5.1-3.5-7.6-5.5c-4.6-3.6-9.1-7.4-13.4-11.6c-2.2-2.1-4.4-4.4-6.6-6.7c-4.5-4.9-8.8-10.1-12.9-15.7
					c-0.5-0.7-1-1.4-1.5-2.1l3.6-2.6l3.4,0.8l20.9,5l10.5,2.5l12.9,3.1l9.6,2.3l13.6,3.3l9.1,2.2l10.5,2.5l9.1,2.2l12.2,2.9l9.5,2.3
					l12.8,3.1l10.2,2.5l16.4,3.9l11.5,2.8L247.4,341.1z"/>
				<path class="st4" d="M159.9,207.8l0.1,0.1l-0.5-0.1C159.7,207.9,159.8,207.9,159.9,207.8L159.9,207.8z"/>
			</g>
		</g>
		<g>
			<g id="XMLID_10_">
				<path class="st0" d="M293.2,17.4c87.6,8.9,152.4,90.1,144.5,180.9c-3.9,45.1-24.8,85.5-58.9,113.7c-24.1,20-52.8,32-83,35
					c-6.2,0.6-12.4,0.9-18.6,0.7c-69.8,3.9-132.6-47-151.4-119.7c-2.8-9.6-4.7-19.5-5.7-29.6c-1.1-10.6-1.2-21.4-0.2-32.4
					c3.9-45.1,24.8-85.5,58.9-113.7C211.1,25.6,251.8,13.2,293.2,17.4z M412,163.9l15.7-1.6c-1-7.3-2.4-14.5-4.4-21.5l-15,4.8
					C409.9,151.6,411.1,157.7,412,163.9z M428.6,171.6l-15.5,1.6c0.6,6.1,0.8,12.1,0.8,18.1l14.9,1.5
					C429.2,185.7,429.1,178.6,428.6,171.6z M428,202.1l-14.5-1.5c-0.3,5.9-1,11.8-2,17.5l12.8,4C426,215.6,427.2,208.9,428,202.1z
					 M405.8,136.6l14.8-4.8c-2.2-6.4-4.7-12.6-7.6-18.6l-13.1,7.2l0,0C402.1,125.7,404.1,131.1,405.8,136.6z M421.9,231.2l-12.1-3.8
					c-1.4,6.3-3.2,12.5-5.2,18.5l9.6,5.3C417.2,244.7,419.8,238.1,421.9,231.2z M396,111.9l12.7-7c-3.5-6.3-7.4-12.3-11.7-18.1
					l-10.2,8.7C390.1,100.8,393.2,106.2,396,111.9z M410.1,259.6l-8.8-4.8c-2.5,6.1-5.3,12.1-8.5,17.8l5.9,5
					C402.9,271.8,406.7,265.8,410.1,259.6z M381.5,87.8l9.6-8.3c-4.6-5.4-9.5-10.5-14.8-15.3l-6.8,8.7
					C373.8,77.7,377.8,82.6,381.5,87.8z M395.3,175c-0.1-0.9-0.2-1.8-0.2-2.6c-0.2-2.2-0.5-4.5-0.8-6.6c-0.7-5-1.6-9.9-2.8-14.7
					c-0.7-3.1-1.5-6.1-2.4-9.1c-1.3-4.5-2.8-8.9-4.5-13.2c-1.2-2.9-2.4-5.8-3.7-8.6c-2.1-4.6-4.5-9.1-7-13.5c-1.6-2.7-3.3-5.4-5-8
					c-2.9-4.4-6.1-8.7-9.5-12.7c-2-2.4-4.1-4.8-6.3-7.1c-3.7-3.9-7.6-7.6-11.7-11c-2.5-2.1-5-4-7.6-5.8c-4.3-3.2-8.8-6-13.5-8.6
					c-2.8-1.5-5.6-3-8.5-4.3c-5.3-2.4-10.7-4.4-16.2-6c-3-0.9-6.1-1.7-9.2-2.3c-6-1.2-12.1-2-18.3-2.3c-3.1-0.1-6.2-0.1-9.4,0
					c-0.6,0-1.2,0-1.8,0.1c-1.8,0.1-3.7,0.2-5.5,0.4l-0.1,0c-3.6,0.4-7.1,0.9-10.5,1.6l0,0c-3.1,0.6-6.1,1.4-9.1,2.2
					c-5.5,1.5-10.8,3.5-15.9,5.8c-2.9,1.3-5.7,2.6-8.4,4.2c-5.9,3.2-11.5,6.9-16.8,11.1c-2.5,1.9-4.8,3.9-7.1,6.1
					c-4.7,4.3-9.1,8.9-13.1,13.8c-2,2.4-3.9,4.9-5.7,7.4c-3.9,5.4-7.4,11.2-10.5,17.2c-1.4,2.7-2.8,5.6-4,8.4
					c-2.5,5.5-4.6,11.3-6.4,17.1c-0.9,3-1.8,6-2.5,9c-1.6,6.5-2.8,13.2-3.5,20c-0.4,3.1-0.6,6.2-0.8,9.3c-0.4,6.4-0.3,13,0.1,19.6
					c0.1,2.2,0.3,4.4,0.5,6.7c0.1,0.9,0.2,1.7,0.3,2.6c0.8,6.8,2,13.5,3.6,20c0.7,3.1,1.6,6.1,2.5,9c1.7,5.7,3.8,11.3,6.1,16.6
					c1.2,2.9,2.6,5.7,4,8.5c3.3,6.5,6.9,12.8,11,18.6c1.8,2.6,3.6,5.1,5.5,7.5c4,5.1,8.3,9.9,12.9,14.4c2.2,2.2,4.6,4.3,6.9,6.3
					c5.4,4.5,11,8.7,16.9,12.3c2.7,1.7,5.4,3.2,8.1,4.6c5.8,3,11.8,5.5,17.9,7.5c2.9,1,6,1.8,9,2.6c6.2,1.5,12.6,2.5,19,3
					c3.1,0.2,6.2,0.3,9.4,0.3c3.5,0,7.1-0.2,10.7-0.6c0,0,0,0,0.1,0c1.9-0.2,3.7-0.4,5.5-0.7c0.6-0.1,1.2-0.2,1.8-0.3
					c3.1-0.5,6.2-1.2,9.2-1.9c6.5-1.6,12.7-3.8,18.7-6.5c2.9-1.3,5.7-2.7,8.5-4.2c4.9-2.6,9.6-5.7,14.1-9c2.5-1.9,5-3.9,7.4-6
					c4.6-3.9,8.9-8.2,12.9-12.8c2.1-2.4,4.1-4.8,6.1-7.4c3.3-4.4,6.4-9,9.2-13.8c1.6-2.7,3.1-5.5,4.6-8.4c2.4-4.7,4.6-9.7,6.5-14.8
					c1.1-3,2.1-6,3.1-9c1.5-5,2.8-10,3.9-15.2c0.6-3.1,1.2-6.2,1.6-9.3c0.6-4.6,1.1-9.2,1.4-14c0.2-3.1,0.3-6.2,0.2-9.4
					C396,184.7,395.7,179.9,395.3,175z M392.9,284.9l-5-4.2c-3.6,5.6-7.5,11-11.7,16.1l2.4,3.1C383.8,295.1,388.6,290.1,392.9,284.9
					z M362.9,66.2l6.3-8c-5.4-4.3-11.1-8.3-17.1-11.8l-3.7,7.3C353.5,57.6,358.3,61.8,362.9,66.2z M371.6,305.8l-1.6-2
					c-4.5,4.7-9.2,9.2-14.2,13.2C361.2,313.7,366.5,310,371.6,305.8z M340.7,48.3l3.2-6.4c-5.8-3-11.9-5.6-18.2-7.8l-1.4,4.8
					C330,41.7,335.5,44.8,340.7,48.3z M315.8,35.1l1.1-3.7c-6.5-1.8-13.1-3.2-19.9-4.1l-0.1,1.6C303.3,30.4,309.6,32.5,315.8,35.1z"
					/>
				<path class="st4" d="M427.7,162.3l-15.7,1.6c-0.9-6.2-2.1-12.3-3.6-18.3l15-4.8C425.3,147.8,426.7,155,427.7,162.3z"/>
				<path class="st4" d="M413.1,173.2l15.5-1.6c0.5,7,0.6,14.1,0.2,21.2l-14.9-1.5C413.9,185.3,413.7,179.3,413.1,173.2z"/>
				<path class="st4" d="M413.5,200.6l14.5,1.5c-0.8,6.8-2,13.5-3.6,20.1l-12.8-4C412.5,212.4,413.2,206.6,413.5,200.6z"/>
				<path class="st4" d="M420.6,131.9l-14.8,4.8c-1.7-5.5-3.7-10.9-5.9-16.2l0,0l13.1-7.2C415.9,119.2,418.5,125.4,420.6,131.9z"/>
				<path class="st4" d="M409.8,227.4l12.1,3.8c-2.1,6.9-4.7,13.5-7.6,20l-9.6-5.3C406.7,239.9,408.4,233.7,409.8,227.4z"/>
				<path class="st4" d="M408.7,104.9l-12.7,7c-2.7-5.7-5.8-11.1-9.1-16.3l10.2-8.7C401.3,92.6,405.2,98.6,408.7,104.9z"/>
				<path class="st4" d="M401.3,254.7l8.8,4.8c-3.4,6.2-7.1,12.2-11.4,17.9l-5.9-5C396,266.8,398.8,260.9,401.3,254.7z"/>
				<path class="st4" d="M391.1,79.5l-9.6,8.3c-3.8-5.2-7.7-10.1-12-14.8l6.8-8.7C381.6,69,386.5,74.1,391.1,79.5z"/>
				<path class="st4" d="M395.1,172.4l-4.4,0.4l-6.6-6.1l-10.7-10l-7.9-7.3l-7-6.4l-7.2-6.7l-5.8-5.3l-6.9-6.4l-5.5-5.1l-6.9-6.4
					l-5.2-4.8l-7.1-6.6l-5.8-5.4l-7.7-7.2l-8.2-7.6l-8.7-8.1l-13.1-12.1L260,51.8l-8.2-7.6l5.1-5.5c0.6,0,1.2-0.1,1.8-0.1
					c3.2-0.1,6.3-0.1,9.4,0c6.2,0.3,12.3,1,18.3,2.3c3.1,0.6,6.2,1.4,9.2,2.3c5.5,1.6,10.9,3.6,16.2,6c2.9,1.3,5.8,2.8,8.5,4.3
					c4.7,2.6,9.2,5.4,13.5,8.6c2.6,1.9,5.1,3.8,7.6,5.8c4.1,3.4,8,7,11.7,11c2.2,2.3,4.3,4.6,6.3,7.1c3.4,4,6.6,8.2,9.5,12.7
					c1.8,2.6,3.4,5.3,5,8c2.5,4.3,4.9,8.8,7,13.5c1.3,2.8,2.5,5.7,3.7,8.6c1.7,4.3,3.2,8.7,4.5,13.2c0.9,3,1.7,6,2.4,9.1
					c1.1,4.8,2.1,9.7,2.8,14.7C394.6,167.9,394.9,170.2,395.1,172.4z"/>
				<path class="st4" d="M390.7,172.8l4.4-0.4c0.1,0.9,0.2,1.7,0.2,2.6c0.4,4.9,0.6,9.7,0.6,14.4c0,3.1-0.1,6.2-0.2,9.4
					c-0.2,4.7-0.7,9.4-1.4,14c-0.5,3.1-1,6.2-1.6,9.3c-1,5.2-2.3,10.2-3.9,15.2c-1,3-2,6-3.1,9c-1.9,5.1-4.1,10-6.5,14.8
					c-1.4,2.9-3,5.6-4.6,8.4c-2.8,4.8-5.9,9.4-9.2,13.8c-1.9,2.6-4,5-6.1,7.4c-4,4.6-8.3,8.9-12.9,12.8c-2.4,2.1-4.9,4.1-7.4,6
					c-4.5,3.3-9.2,6.4-14.1,9c-2.8,1.5-5.6,2.9-8.5,4.2c-6,2.7-12.2,4.9-18.7,6.5c-3,0.8-6.1,1.4-9.2,1.9c-0.6,0.1-1.2,0.2-1.8,0.3
					l-6.1-4.3l6.5-9.2l8.2-11.5l11.3-15.8l6.9-9.6l6.3-8.8l6.1-8.5l5.6-7.8l5.6-7.9l4.5-6.3l5.4-7.6l4.5-6.3l5.5-7.7l5.2-7.3l5.7-8
					l5.7-8l6.2-8.7l8.7-12.1L390.7,172.8z"/>
				<path class="st0" d="M384.1,166.8l6.6,6.1l-2.1,2.9l-8.7,12.1l-6.2,8.7l-5.7,8l-5.7,8l-5.2,7.3l-5.5,7.7l-4.5,6.3l-5.4,7.6
					l-4.5,6.3l-5.6,7.9l-5.6,7.8l-6.1,8.5l-6.3,8.8l-6.9,9.6l-11.3,15.8l-8.2,11.5l-6.5,9.2l-9-8.4l-8.7-8.1l-12.4-11.4l-7.7-7.1
					l-9.6-8.9l-7.1-6.6l-9.2-8.5l-6.9-6.4l-7.9-7.3l-6.9-6.4l-10.3-9.5l-7.2-6.7l-9.8-9l-7.9-7.3l-15.7-14.6l-2.6-2.4l5.2-7.3
					l11.6-16.3l6.3-8.8l8.9-12.5l5.7-8l6.2-8.8l5.5-7.7l6.6-9.3l5.5-7.7l6.3-8.9l5.7-7.9l8-11.1l6.1-8.5l8.5-11.9l6.9-9.6l7-9.8l0,0
					l8.2,7.6l10.4,9.6l13.1,12.1l8.7,8.1l8.2,7.6l7.7,7.2l5.8,5.4l7.1,6.6l5.2,4.8l6.9,6.4l5.5,5.1l6.9,6.4l5.8,5.3l7.2,6.7l7,6.4
					l7.9,7.3L384.1,166.8z M310.4,148.9l0-0.3c-0.5-4.3-1.2-8.4-2.3-12.1c-0.1-0.5-0.2-0.9-0.4-1.4c-1.3-4-2.9-7.6-4.9-11
					c-0.5-0.9-1.1-1.8-1.7-2.6c-1.1-1.6-2.4-3.2-3.7-4.6c-1.2-1.3-2.4-2.5-3.7-3.6c-1.3-1.1-2.5-2.1-3.9-2.9c-2.8-1.9-5.8-3.3-9-4.4
					c-1.9-0.6-3.8-1.2-5.9-1.5c-1.9-0.3-3.8-0.6-5.8-0.7L266.7,81l-14.8,1.5l2.3,22.3c-1.2,0.3-2.4,0.5-3.5,0.9
					c-1.7,0.4-3.3,1-4.9,1.6c-3,1.2-5.8,2.6-8.3,4.3l0,0c-2,1.3-3.8,2.7-5.5,4.4c-1.7,1.6-3.2,3.3-4.6,5.2c-0.5,0.7-1.1,1.5-1.5,2.2
					c-1.1,1.7-2.1,3.5-2.9,5.3c-1.4,3.1-2.3,6.3-2.9,9.8c-0.3,1.9-0.5,3.9-0.6,6c-0.1,2.3,0,4.7,0.3,7.1c0.1,1.4,0.3,2.7,0.5,4
					c0.1,0.9,0.3,1.9,0.5,2.8c0.9,4.2,2.1,7.8,3.8,11l0,0c0.5,1,1,1.9,1.6,2.8c2.2,3.6,5,6.8,8.3,9.5c0.1,0.1,0.3,0.2,0.4,0.3
					c0.2,0.2,0.4,0.3,0.6,0.5c0,0,0,0,0,0c2.7,2.1,5.6,4,8.9,5.7l0,0c1.2,0.7,2.4,1.2,3.7,1.8c0.2,0.1,0.4,0.2,0.6,0.3
					c0.8,0.3,1.6,0.7,2.4,1c2.1,0.9,4.2,1.7,6.4,2.5l0,0c0.1,0.1,0.2,0.1,0.3,0.1c1.3,0.5,2.6,1,3.9,1.5c0.3,0.1,0.5,0.2,0.7,0.3
					c1.1,0.4,2.3,0.8,3.5,1.3c0.1,0,0.3,0.1,0.4,0.1c0.5,0.2,1,0.4,1.5,0.6c0.5,0.2,1.1,0.4,1.5,0.6c0.5,0.2,1,0.4,1.5,0.7
					c0.5,0.2,1.1,0.5,1.6,0.7c0.7,0.4,1.4,0.7,2.1,1.1c0.2,0.1,0.5,0.2,0.7,0.4c0.9,0.6,1.8,1.1,2.6,1.7c0.8,0.6,1.6,1.3,2.2,2
					c0.4,0.4,0.7,0.8,1,1.2c0,0,0,0,0,0l0.2,0.7l0-0.3c2,2.8,3.2,6.5,3.7,11.1c0.1,0.6,0.1,1.2,0.1,1.8c0,0,0,0,0,0
					c0.2,4.1-0.7,7.6-2.6,10.3c-1,1.4-2.2,2.6-3.6,3.4c-0.2,0.1-0.3,0.2-0.5,0.3c-1.5,0.9-3.4,1.4-5.4,1.6c-1.3,0.1-2.5,0.1-3.6,0
					c-0.2,0-0.5,0-0.7-0.1c-3.3-0.4-6.2-1.7-8.6-3.9c0,0,0,0,0,0c-0.2-0.1-0.4-0.3-0.5-0.5c-0.2-0.2-0.3-0.3-0.5-0.5
					c-2.2-2.4-3.9-5.5-5-9.4c0-0.1,0-0.1-0.1-0.2c-0.7-2.4-1.2-5.2-1.5-8.2l-31.3,3.2c0.1,0.9,0.2,1.9,0.3,2.8
					c0.3,2.1,0.6,4.1,1.1,6c0.7,3.5,1.7,6.7,3,9.8c0.7,1.7,1.4,3.3,2.2,4.8c1.6,3,3.4,5.7,5.5,8.2c0.8,0.9,1.5,1.7,2.4,2.6
					c0.9,0.9,1.8,1.7,2.7,2.5c2.4,2,5,3.7,7.9,5.2c1.8,0.9,3.8,1.7,5.8,2.4c2.9,0.9,5.9,1.6,9.1,2.1c1.9,0.2,3.9,0.4,5.9,0.5
					c0.4,0,0.8,0,1.3,0l2.2,21.3l14.7-1.5l-2.2-21.2c2.6-0.6,5-1.3,7.4-2.1c2-0.7,3.9-1.6,5.7-2.6c3-1.6,5.7-3.5,8-5.7
					c1-0.9,2-1.9,2.9-3c0.7-0.9,1.4-1.7,2.1-2.7c1.5-2,2.7-4.2,3.7-6.4c0.5-1.2,1-2.5,1.5-3.8c1.2-3.8,2-7.9,2.1-12.3
					c0-0.6,0-1.2,0-1.8c0-2-0.1-4-0.3-6.1c-0.2-2.3-0.6-4.5-1-6.5c0-0.3-0.1-0.6-0.2-1c-0.8-3.8-2.1-7.1-3.6-10.1l-0.2-0.4
					c-0.4-0.7-0.8-1.4-1.2-2.1c-0.9-1.5-1.9-2.9-3-4.3c-1.5-1.9-3.2-3.7-5-5.2c-0.3-0.3-0.6-0.5-0.8-0.7c-0.2-0.1-0.4-0.3-0.5-0.4
					c-1-0.8-2-1.6-3.1-2.3c-0.9-0.7-1.9-1.3-2.9-1.9c-0.3-0.2-0.6-0.4-0.9-0.5c-0.7-0.4-1.5-0.9-2.2-1.3c-0.6-0.3-1.2-0.6-1.8-0.9
					c-0.3-0.2-0.6-0.3-0.9-0.5c-0.5-0.2-1-0.5-1.5-0.7l0,0c-0.2-0.1-0.3-0.2-0.5-0.2c-0.1-0.1-0.3-0.1-0.5-0.2
					c-0.2-0.1-0.4-0.2-0.6-0.2l0,0c-0.6-0.2-1.2-0.5-1.7-0.7c-0.2-0.1-0.4-0.2-0.6-0.3c-0.4-0.2-0.8-0.4-1.3-0.5
					c-0.2-0.1-0.4-0.2-0.6-0.2c-0.4-0.2-0.8-0.4-1.1-0.5c-0.2-0.1-0.4-0.2-0.5-0.2c-0.4-0.2-0.9-0.4-1.3-0.5c0,0-0.1,0-0.1,0
					c-0.5-0.2-1-0.4-1.5-0.6c-0.7-0.3-1.4-0.6-2.1-0.8c-1-0.4-2.1-0.8-3.2-1.2c-0.7-0.3-1.5-0.6-2.2-0.9c-0.1,0-0.1,0-0.2-0.1l0,0
					c-0.1,0-0.2-0.1-0.3-0.1c-1.3-0.4-2.5-0.9-3.6-1.4l0,0c-4-1.7-7-3.7-9.3-5.8c-2-1.9-3.4-4.3-4.2-7.3c-0.5-1.4-0.8-3-0.9-4.7
					c-0.3-3.1-0.2-5.8,0.4-8.1c0.1-0.3,0.1-0.7,0.3-1c0.4-1.2,0.9-2.3,1.5-3.4c1.2-2,2.9-3.5,5-4.4c0.1,0,0.1-0.1,0.2-0.1
					c1.2-0.5,2.5-0.8,3.9-0.9c2.1-0.2,4,0,5.8,0.7c0,0,0.1,0,0.1,0c2,0.8,3.8,2.1,5.3,4.1c1.6,2.1,2.9,4.7,3.9,8
					c0.7,2.5,1.3,5.3,1.6,8.5L310.4,148.9z"/>
				<path class="st4" d="M388,280.6l5,4.2c-4.4,5.2-9.1,10.2-14.2,14.9l-2.4-3.1C380.5,291.7,384.4,286.3,388,280.6z"/>
				<path class="st4" d="M369.2,58.2l-6.3,8c-4.6-4.5-9.4-8.6-14.5-12.4l3.7-7.3C358.1,50,363.8,53.9,369.2,58.2z"/>
				<path class="st4" d="M370,303.8l1.6,2c-5.1,4.1-10.4,7.9-15.8,11.2C360.8,313,365.5,308.6,370,303.8z"/>
				<path class="st4" d="M343.9,42l-3.2,6.4c-5.2-3.5-10.7-6.6-16.3-9.4l1.4-4.8C332,36.4,338.1,39,343.9,42z"/>
				<path class="st4" d="M316.8,31.4l-1.1,3.7c-6.2-2.5-12.5-4.6-19-6.2l0.1-1.6C303.7,28.2,310.4,29.5,316.8,31.4z"/>
				<path class="st4" d="M310.4,148.6l0,0.3l-31.4,3.2c-0.3-3.2-0.9-6-1.6-8.5c-0.9-3.3-2.2-5.9-3.9-8c-1.5-2-3.3-3.3-5.3-4.1
					c0-0.1-0.1,0-0.1,0c-1.7-0.7-3.7-0.9-5.8-0.7c-1.4,0.1-2.7,0.5-3.9,0.9c-0.1,0-0.1,0-0.2,0.1c-2.1,0.9-3.8,2.3-5,4.4
					c-0.6,1-1.1,2.1-1.5,3.4c-0.1,0.3-0.2,0.6-0.3,1c-0.6,2.3-0.7,5-0.4,8.1c0.2,1.7,0.5,3.3,0.9,4.7c0.9,3,2.3,5.4,4.2,7.3
					c2.2,2.1,5.3,4,9.3,5.8l0,0c1.2,0.5,2.4,1,3.6,1.4l0.4,0.3l0-0.2c0.1,0,0.1,0,0.2,0.1c0.7,0.3,1.5,0.5,2.2,0.9
					c1.1,0.4,2.1,0.8,3.2,1.2c0.7,0.3,1.4,0.6,2.1,0.8c0.5,0.2,1,0.4,1.5,0.6l0.1,0.1l0-0.1c0.4,0.2,0.9,0.4,1.3,0.5
					c0.2,0.1,0.4,0.1,0.5,0.2c0.4,0.1,0.8,0.3,1.1,0.5c0.2,0.1,0.4,0.1,0.6,0.2c0.4,0.2,0.8,0.3,1.3,0.5c0.2,0.1,0.4,0.1,0.6,0.3
					c0.6,0.2,1.2,0.5,1.7,0.7l0,0c0.2,0.1,0.4,0.1,0.6,0.2c0.1,0.1,0.3,0.1,0.5,0.2c0.2,0.1,0.3,0.2,0.5,0.2l0,0
					c0.5,0.2,1,0.5,1.5,0.7c0.3,0.2,0.6,0.3,0.9,0.5c0.6,0.3,1.2,0.6,1.8,0.9c0.7,0.4,1.5,0.8,2.2,1.3c0.3,0.2,0.6,0.3,0.9,0.5
					c1,0.6,2,1.3,2.9,1.9c1.1,0.7,2.1,1.5,3.1,2.3c0.2,0.1,0.4,0.3,0.5,0.4c0.3,0.2,0.6,0.5,0.8,0.7c1.8,1.6,3.5,3.4,5,5.2
					c1.1,1.4,2.1,2.8,3,4.3c0.4,0.7,0.8,1.4,1.2,2.1l0.2,0.4c1.5,3,2.8,6.3,3.6,10.1c0.1,0.3,0.1,0.6,0.2,1c0.5,2,0.8,4.2,1,6.5
					c0.2,2.1,0.3,4.1,0.3,6.1c0,0.6,0,1.2,0,1.8c-0.1,4.4-0.9,8.5-2.1,12.3c-0.5,1.3-0.9,2.6-1.5,3.8c-1.1,2.3-2.3,4.4-3.7,6.4
					c-0.7,0.9-1.3,1.8-2.1,2.7c-0.9,1.1-1.9,2-2.9,3c-2.4,2.2-5.1,4.1-8,5.7c-1.8,1-3.7,1.9-5.7,2.6c-2.3,0.9-4.8,1.6-7.4,2.1
					l2.2,21.2l-14.7,1.5l-2.2-21.3c-0.4,0-0.9,0-1.3,0c-2-0.1-4-0.2-5.9-0.5c-3.2-0.4-6.2-1.1-9.1-2.1c-2-0.7-4-1.5-5.8-2.4
					c-2.9-1.4-5.5-3.1-7.9-5.2c-0.9-0.8-1.8-1.6-2.7-2.5c-0.8-0.8-1.6-1.7-2.4-2.6c-2.1-2.5-3.9-5.2-5.5-8.2
					c-0.8-1.5-1.6-3.1-2.2-4.8c-1.2-3-2.2-6.3-3-9.8c-0.4-2-0.8-3.9-1.1-6c-0.1-0.9-0.2-1.8-0.3-2.8l31.3-3.2c0.3,3,0.8,5.7,1.5,8.2
					c0,0.1,0,0.1,0.1,0.2c1.1,3.9,2.8,7.1,5,9.4c0.2,0.2,0.3,0.3,0.5,0.5c0.2,0.2,0.3,0.3,0.5,0.5c0,0,0,0,0,0
					c2.4,2.2,5.3,3.5,8.6,3.9c0.2,0,0.5,0.1,0.7,0.1c1.2,0.1,2.4,0.1,3.6,0c2.1-0.2,3.9-0.7,5.4-1.6c0.2-0.1,0.3-0.2,0.5-0.3
					c1.4-0.8,2.6-2,3.6-3.4c1.9-2.7,2.7-6.1,2.6-10.3c0,0,0,0,0,0c0-0.6-0.1-1.2-0.1-1.8c-0.5-4.6-1.7-8.3-3.7-11.1
					c0-0.1-0.1-0.2-0.2-0.3c0,0,0,0,0,0c-0.3-0.5-0.7-0.8-1-1.2c-0.6-0.7-1.4-1.3-2.2-2c-0.8-0.6-1.6-1.2-2.6-1.7
					c-0.2-0.1-0.4-0.3-0.7-0.4c-0.7-0.4-1.3-0.7-2.1-1.1c-0.5-0.2-1-0.5-1.6-0.7c-0.5-0.2-1-0.4-1.5-0.7c-0.5-0.2-1-0.4-1.5-0.6
					c-0.5-0.2-1-0.4-1.5-0.6c-0.1,0-0.3-0.1-0.4-0.1c-1.2-0.4-2.4-0.8-3.5-1.3c-0.2-0.1-0.5-0.2-0.7-0.3c-1.3-0.5-2.6-1-3.9-1.5
					c-0.1,0-0.2-0.1-0.3-0.1l0,0c-2.2-0.8-4.3-1.7-6.4-2.5c-0.8-0.3-1.6-0.7-2.4-1c-0.2-0.1-0.4-0.2-0.6-0.3
					c-1.3-0.6-2.5-1.2-3.7-1.8l0,0c-3.2-1.7-6.2-3.6-8.9-5.7c0,0,0,0,0,0c-0.2-0.2-0.4-0.3-0.6-0.5c-0.1-0.1-0.3-0.2-0.4-0.3
					c-3.3-2.7-6-5.9-8.3-9.5c-0.6-0.9-1.1-1.8-1.6-2.8l0,0c-1.6-3.2-2.9-6.8-3.8-11c-0.2-0.9-0.4-1.8-0.5-2.8
					c-0.2-1.3-0.4-2.6-0.5-4c-0.2-2.4-0.3-4.8-0.3-7.1c0.1-2.1,0.3-4.1,0.6-6c0.5-3.5,1.5-6.8,2.9-9.8c0.8-1.9,1.8-3.6,2.9-5.3
					c0.4-0.7,1-1.5,1.5-2.2c1.4-1.9,2.9-3.6,4.6-5.2c1.7-1.6,3.5-3.1,5.5-4.4l0,0c2.5-1.7,5.3-3.1,8.3-4.3c1.6-0.6,3.2-1.2,4.9-1.6
					c1.2-0.3,2.3-0.6,3.5-0.9l-2.3-22.3l14.8-1.5l2.3,22.7c2,0.1,3.9,0.4,5.8,0.7c2.1,0.4,4,0.9,5.9,1.5c3.2,1.1,6.2,2.5,9,4.4
					c1.4,0.8,2.6,1.8,3.9,2.9c1.3,1.1,2.5,2.3,3.7,3.6c1.3,1.5,2.6,3,3.7,4.6c0.6,0.9,1.2,1.7,1.7,2.6c2,3.3,3.7,7,4.9,11
					c0.2,0.5,0.3,0.9,0.4,1.4C309.1,140.2,309.9,144.3,310.4,148.6z"/>
				<path class="st4" d="M278.9,171.5L278.9,171.5L278.9,171.5C278.8,171.5,278.8,171.5,278.9,171.5z"/>
				<path class="st0" d="M281.4,206.4l0,0.3l-0.2-0.7C281.2,206.2,281.3,206.3,281.4,206.4z"/>
				<path class="st4" d="M256.9,38.7l-5.1,5.5l0,0l-7,9.8l-6.9,9.6l-8.5,11.9l-6.1,8.5l-8,11.1l-5.7,7.9l-6.3,8.9l-5.5,7.7l-6.6,9.3
					l-5.5,7.7l-6.2,8.8l-5.7,8l-8.9,12.5l-6.3,8.8L147,191l-5.2,7.3l-4.4,0.5c-0.2-2.2-0.4-4.5-0.5-6.7c-0.4-6.6-0.4-13.2-0.1-19.6
					c0.2-3.1,0.4-6.2,0.8-9.3c0.7-6.8,1.9-13.5,3.5-20c0.7-3.1,1.6-6.1,2.5-9c1.8-5.9,3.9-11.6,6.4-17.1c1.3-2.9,2.6-5.7,4-8.4
					c3.1-6,6.7-11.8,10.5-17.2c1.8-2.5,3.7-5,5.7-7.4c4.1-4.9,8.4-9.6,13.1-13.8c2.3-2.1,4.7-4.1,7.1-6.1
					c5.3-4.2,10.9-7.9,16.8-11.1c2.7-1.5,5.5-2.9,8.4-4.2c5.1-2.3,10.5-4.3,15.9-5.8c3-0.8,6-1.6,9.1-2.2l0,0
					c3.4-0.7,6.9-1.2,10.5-1.6l0.1,0C253.2,38.9,255,38.8,256.9,38.7z"/>
				<path class="st4" d="M280.7,326.9l6.1,4.3c-1.8,0.3-3.7,0.5-5.5,0.7c0,0,0,0-0.1,0c-3.6,0.4-7.2,0.6-10.7,0.6
					c-3.1,0-6.3-0.1-9.4-0.3c-6.5-0.5-12.8-1.5-19-3c-3-0.7-6-1.6-9-2.6c-6.2-2-12.1-4.6-17.9-7.5c-2.8-1.4-5.5-3-8.1-4.6
					c-5.9-3.6-11.5-7.7-16.9-12.3c-2.4-2-4.7-4.1-6.9-6.3c-4.6-4.5-8.9-9.2-12.9-14.4c-1.9-2.4-3.8-5-5.5-7.5
					c-4.1-5.8-7.7-12.1-11-18.6c-1.4-2.8-2.7-5.6-4-8.5c-2.3-5.4-4.3-10.9-6.1-16.6c-0.9-3-1.7-6-2.5-9c-1.6-6.5-2.8-13.1-3.6-20
					c-0.1-0.9-0.2-1.7-0.3-2.6l4.4-0.5l2.6,2.4l15.7,14.6l7.9,7.3l9.8,9l7.2,6.7l10.3,9.5l6.9,6.4l7.9,7.3l6.9,6.4l9.2,8.5l7.1,6.6
					l9.6,8.9l7.7,7.1l12.4,11.4l8.7,8.1L280.7,326.9z"/>
				<path class="st4" d="M269.6,167.9l0,0.2l-0.4-0.3C269.4,167.8,269.5,167.9,269.6,167.9L269.6,167.9z"/>
			</g>
		</g>
		<polygon class="st2" points="322.5,275.2 373.5,326.3 469.8,230 493.7,253.8 375.8,371.8 300.9,296.8 		"/>
	</g>
</g>
<g id="Layer_3">
</g>
<g id="Graphics">
</g>
<g id="Default_g_x2B__icon">
</g>
<g id="YouTube_Icon">
</g>
</svg>
