<?xml version="1.0" encoding="utf-8"?>
<!-- Generator: Adobe Illustrator 19.1.0, SVG Export Plug-In . SVG Version: 6.00 Build 0)  -->
<!DOCTYPE svg PUBLIC "-//W3C//DTD SVG 1.1//EN" "http://www.w3.org/Graphics/SVG/1.1/DTD/svg11.dtd">
<svg version="1.1" id="Layer_1" xmlns="http://www.w3.org/2000/svg" xmlns:xlink="http://www.w3.org/1999/xlink" x="0px" y="0px"
	 width="538.7px" height="115.1px" viewBox="-126 555.9 538.7 115.1" style="enable-background:new -126 555.9 538.7 115.1;"
	 xml:space="preserve">
<style type="text/css">
	.st0{fill:#FFFFFF;}
</style>
<polygon class="st0" points="401.8,615.5 379.2,638.1 354,664.9 340.6,651.5 374.9,615.5 340.5,581.1 353.9,567.6 379.2,593 "/>
<g>
	<path class="st0" d="M-67.7,572.5l6.7,48.3l23.4-48.3h21.8L-28,642.2h-16.4l3-17.1l7.1-31.5l-24.5,48.6h-10.9l-7.9-50.4l-4.4,34.9
		l-2.7,15.5H-101l12-69.7H-67.7z"/>
	<path class="st0" d="M3.4,619.4l13.4-29h17.4L3.8,649.9c-2.3,4.7-4.9,8.1-7.8,10.2c-3,2.1-6.5,3.1-10.6,3.1c-1.8,0-4.1-0.4-6.9-1.1
		l1.2-11.5h1.8c1.9,0,3.7-0.3,5.1-0.9c1.5-0.6,2.7-1.8,3.7-3.6l2.2-4.3l-8.3-51.4H0.5L3.4,619.4z"/>
	<path class="st0" d="M60.9,572.5l6.7,48.3L91,572.5h21.8l-12.1,69.7H84.2l3-17.1l7.1-31.5l-24.4,48.6H59l-7.9-50.4l-4.4,34.9
		L44,642.2H27.6l12.1-69.7C39.7,572.5,60.9,572.5,60.9,572.5z"/>
	<path class="st0" d="M138.4,589.4c4.6,0.1,8.6,1.2,12,3.5c3.4,2.2,5.9,5.4,7.4,9.4c1.6,4,2.1,8.5,1.7,13.4l-0.1,1.1
		c-0.9,7.9-3.8,14.4-8.9,19.2c-5,4.9-11.2,7.3-18.6,7.1c-4.6-0.1-8.6-1.2-11.9-3.4c-3.3-2.2-5.8-5.3-7.4-9.3
		c-1.6-4-2.2-8.4-1.7-13.3c0.8-8.5,3.7-15.2,8.7-20.3C124.7,591.8,130.9,589.3,138.4,589.4z M126.7,617.1l-0.1,2.8
		c-0.4,7.1,1.7,10.7,6.5,10.8c6.2,0.2,9.8-4.8,10.8-15l0.2-4.3c0.1-2.9-0.5-5.2-1.6-6.9c-1.1-1.7-2.8-2.6-5-2.7
		c-2.9-0.1-5.3,1.1-7.2,3.6C128.3,607.9,127.2,611.8,126.7,617.1z"/>
	<path class="st0" d="M186.7,577.5l-2.2,12.9h8.3l-2,11.2h-8.3l-4,23.8c-0.2,1.6-0.1,2.9,0.3,3.7s1.5,1.3,3.2,1.3c0.7,0,2,0,4.1-0.2
		l-1.1,11.6c-2.6,0.9-5.5,1.3-8.5,1.2c-4.9-0.1-8.5-1.5-11-4.3c-2.4-2.8-3.4-6.6-3-11.4l4.2-25.7h-6.4l1.9-11.2h6.4l2.2-12.9
		C170.8,577.5,186.7,577.5,186.7,577.5z"/>
	<path class="st0" d="M206.4,642.2h-15.8l9-51.8h15.8L206.4,642.2z M201,577.3c-0.1-2.3,0.8-4.3,2.5-5.8c1.7-1.6,3.8-2.3,6.2-2.3
		c2.5,0,4.5,0.7,6.1,2.1c1.6,1.4,2.5,3.2,2.6,5.5c0.1,2.4-0.8,4.3-2.4,5.9c-1.7,1.5-3.8,2.3-6.2,2.3c-2.4,0-4.4-0.7-6.1-2.1
		C201.9,581.5,201,579.6,201,577.3z"/>
	<path class="st0" d="M242.6,589.4c4.6,0.1,8.6,1.2,12,3.5c3.4,2.2,5.9,5.4,7.4,9.4c1.6,4,2.1,8.5,1.7,13.4l-0.1,1.1
		c-0.9,7.9-3.8,14.4-8.9,19.2c-5,4.9-11.2,7.3-18.6,7.1c-4.6-0.1-8.6-1.2-11.9-3.4s-5.8-5.3-7.4-9.3s-2.2-8.4-1.7-13.3
		c0.8-8.5,3.7-15.2,8.7-20.3C228.9,591.8,235.1,589.3,242.6,589.4z M230.8,617.1l-0.1,2.8c-0.4,7.1,1.7,10.7,6.5,10.8
		c6.2,0.2,9.8-4.8,10.8-15l0.2-4.3c0.1-2.9-0.5-5.2-1.6-6.9c-1.1-1.7-2.8-2.6-5-2.7c-2.9-0.1-5.3,1.1-7.2,3.6
		C232.5,607.9,231.4,611.8,230.8,617.1z"/>
	<path class="st0" d="M285.6,590.3l-1.1,6.2c4.1-4.9,9.1-7.3,15-7.2c4.8,0.1,8.4,1.9,10.7,5.3c2.3,3.5,3.2,8.4,2.6,14.9l-5.5,32.6
		h-15.8l5.5-32.7c0.1-1.1,0.2-2.1,0.1-3.1c-0.2-3-2-4.6-5.4-4.6c-2.8-0.1-5.3,1.2-7.6,3.7l-6.5,36.6h-15.7l9-51.8L285.6,590.3z"/>
</g>
<polygon class="st0" points="366.9,615.1 344.3,637.7 315.7,666.3 302.3,652.9 340.1,615.1 302.3,577.3 315.7,563.9 344.3,592.6 "/>
</svg>
