<svg xmlns="http://www.w3.org/2000/svg" width="538.7" height="115.1" viewBox="0 0 538.7 115.1"><style type="text/css">.st0{fill:#016293;} .st1{fill:#9CBDD8;} .st2{fill:#9BD7D8;} .st3{fill:#016293;stroke:#016293;stroke-width:2.041;stroke-miterlimit:10;} .st4{fill:#FFFFFF;} .st5{fill:#231F20;} .st6{fill:#FFFFFF;stroke:#016293;stroke-width:1.0169;stroke-miterlimit:10;} .st7{fill:#FFFFFF;stroke:#016293;stroke-width:1.0185;stroke-miterlimit:10;} .st8{fill:#FFFFFF;stroke:#016293;stroke-width:1.0209;stroke-miterlimit:10;} .st9{fill:#016293;stroke:#FFFFFF;stroke-width:2;stroke-miterlimit:10;} .st10{fill:#016293;stroke:#FFFFFF;stroke-miterlimit:10;} .st11{fill:#FFFFFF;stroke:#016293;stroke-width:5.0184;stroke-miterlimit:10;} .st12{fill:none;stroke:#016293;stroke-width:3;stroke-miterlimit:10;} .st13{fill:#FFFFFF;stroke:#016293;stroke-width:3;stroke-miterlimit:10;} .st14{fill:#FFFFFF;stroke:#231F20;stroke-miterlimit:10;} .st15{fill:none;stroke:#231F20;stroke-miterlimit:10;} .st16{display:none;} .st17{display:inline;fill:#F26F6A;} .st18{fill:none;stroke:#9CBDD8;stroke-width:5.8821;stroke-miterlimit:10;} .st19{fill:#FFFFFF;stroke:#9CBDD8;stroke-width:5.8821;stroke-miterlimit:10;} .st20{fill:#9CBDD8;stroke:#FFFFFF;stroke-width:5.8821;stroke-miterlimit:10;} .st21{clip-path:url(#SVGID_2_);fill:#231F20;} .st22{clip-path:url(#SVGID_2_);fill:#046293;} .st23{clip-path:url(#SVGID_2_);fill:#9CBDD9;} .st24{clip-path:url(#SVGID_2_);fill:#9CD8D9;} .st25{clip-path:url(#SVGID_2_);fill:#FFFFFF;} .st26{clip-path:url(#SVGID_2_);} .st27{fill:#BDC4C9;} .st28{clip-path:url(#SVGID_2_);fill:none;stroke:#FFFFFF;stroke-width:0.809;stroke-miterlimit:10;} .st29{clip-path:url(#SVGID_2_);fill:none;stroke:#FFFFFF;stroke-width:0.453;stroke-miterlimit:10;} .st30{clip-path:url(#SVGID_2_);fill:none;stroke:#FFFFFF;stroke-width:0.535;stroke-miterlimit:10;} .st31{fill:#9CD8D9;} .st32{clip-path:url(#SVGID_4_);} .st33{clip-path:url(#SVGID_4_);fill:none;stroke:#231F20;stroke-width:0.689;stroke-miterlimit:10;} .st34{clip-path:url(#SVGID_4_);fill:none;stroke:#231F20;stroke-width:0.506;stroke-miterlimit:10;} .st35{fill:#066393;} .st36{fill:#9BD7D8;stroke:#016293;stroke-width:18.6809;stroke-miterlimit:10;} .st37{fill:#076393;} .st38{fill:none;stroke:#076393;stroke-width:3.5038;stroke-miterlimit:10;} .st39{fill:#FFFFFF;stroke:#076393;stroke-width:3.5038;stroke-miterlimit:10;} .st40{fill:#076393;stroke:#FFFFFF;stroke-width:3.5038;stroke-miterlimit:10;}</style><g id="Logo"><path class="st2" d="M527.8 59.6l-22.6 22.6-25.2 26.8-13.4-13.4 34.3-36-34.4-34.4 13.4-13.5 25.3 25.4z"/><path class="st4" d="M58.3 16.6l6.7 48.3 23.4-48.3h21.8l-12.2 69.7h-16.4l3-17.1 7.1-31.5-24.5 48.6h-10.9l-7.9-50.4-4.4 34.9-2.7 15.5h-16.3l12-69.7h21.3zM129.4 63.5l13.4-29h17.4l-30.4 59.5c-2.3 4.7-4.9 8.1-7.8 10.2-3 2.1-6.5 3.1-10.6 3.1-1.8 0-4.1-.4-6.9-1.1l1.2-11.5h1.8c1.9 0 3.7-.3 5.1-.9 1.5-.6 2.7-1.8 3.7-3.6l2.2-4.3-8.3-51.4h16.3l2.9 29zM186.9 16.6l6.7 48.3 23.4-48.3h21.8l-12.1 69.7h-16.5l3-17.1 7.1-31.5-24.4 48.6h-10.9l-7.9-50.4-4.4 34.9-2.7 15.5h-16.4l12.1-69.7h21.2zM264.4 33.5c4.6.1 8.6 1.2 12 3.5 3.4 2.2 5.9 5.4 7.4 9.4 1.6 4 2.1 8.5 1.7 13.4l-.1 1.1c-.9 7.9-3.8 14.4-8.9 19.2-5 4.9-11.2 7.3-18.6 7.1-4.6-.1-8.6-1.2-11.9-3.4-3.3-2.2-5.8-5.3-7.4-9.3-1.6-4-2.2-8.4-1.7-13.3.8-8.5 3.7-15.2 8.7-20.3 5.1-5 11.3-7.5 18.8-7.4zm-11.7 27.7l-.1 2.8c-.4 7.1 1.7 10.7 6.5 10.8 6.2.2 9.8-4.8 10.8-15l.2-4.3c.1-2.9-.5-5.2-1.6-6.9-1.1-1.7-2.8-2.6-5-2.7-2.9-.1-5.3 1.1-7.2 3.6-2 2.5-3.1 6.4-3.6 11.7zM312.7 21.6l-2.2 12.9h8.3l-2 11.2h-8.3l-4 23.8c-.2 1.6-.1 2.9.3 3.7.4.8 1.5 1.3 3.2 1.3.7 0 2 0 4.1-.2l-1.1 11.6c-2.6.9-5.5 1.3-8.5 1.2-4.9-.1-8.5-1.5-11-4.3-2.4-2.8-3.4-6.6-3-11.4l4.2-25.7h-6.4l1.9-11.2h6.4l2.2-12.9h15.9zM332.4 86.3h-15.8l9-51.8h15.8l-9 51.8zm-5.4-64.9c-.1-2.3.8-4.3 2.5-5.8 1.7-1.6 3.8-2.3 6.2-2.3 2.5 0 4.5.7 6.1 2.1 1.6 1.4 2.5 3.2 2.6 5.5.1 2.4-.8 4.3-2.4 5.9-1.7 1.5-3.8 2.3-6.2 2.3-2.4 0-4.4-.7-6.1-2.1-1.8-1.4-2.7-3.3-2.7-5.6zM368.6 33.5c4.6.1 8.6 1.2 12 3.5 3.4 2.2 5.9 5.4 7.4 9.4 1.6 4 2.1 8.5 1.7 13.4l-.1 1.1c-.9 7.9-3.8 14.4-8.9 19.2-5 4.9-11.2 7.3-18.6 7.1-4.6-.1-8.6-1.2-11.9-3.4-3.3-2.2-5.8-5.3-7.4-9.3-1.6-4-2.2-8.4-1.7-13.3.8-8.5 3.7-15.2 8.7-20.3 5.1-5 11.3-7.5 18.8-7.4zm-11.8 27.7l-.1 2.8c-.4 7.1 1.7 10.7 6.5 10.8 6.2.2 9.8-4.8 10.8-15l.2-4.3c.1-2.9-.5-5.2-1.6-6.9-1.1-1.7-2.8-2.6-5-2.7-2.9-.1-5.3 1.1-7.2 3.6-1.9 2.5-3 6.4-3.6 11.7zM411.6 34.4l-1.1 6.2c4.1-4.9 9.1-7.3 15-7.2 4.8.1 8.4 1.9 10.7 5.3 2.3 3.5 3.2 8.4 2.6 14.9l-5.5 32.6h-15.8l5.5-32.7c.1-1.1.2-2.1.1-3.1-.2-3-2-4.6-5.4-4.6-2.8-.1-5.3 1.2-7.6 3.7l-6.5 36.6h-15.7l9-51.8 14.7.1z"/><path class="st2" d="M492.9 59.2l-22.6 22.6-28.6 28.6-13.4-13.4 37.8-37.8-37.8-37.8 13.4-13.4 28.6 28.7z"/></g></svg>