<svg xmlns="http://www.w3.org/2000/svg" width="507.3" height="406.4" viewBox="0 0 507.3 406.4"><style type="text/css">.st0{fill:#016293;} .st1{fill:#9CBDD8;} .st2{fill:#9BD7D8;} .st3{fill:#016293;stroke:#016293;stroke-width:2.041;stroke-miterlimit:10;} .st4{fill:#FFFFFF;} .st5{fill:#231F20;} .st6{fill:#FFFFFF;stroke:#016293;stroke-width:1.0169;stroke-miterlimit:10;} .st7{fill:#FFFFFF;stroke:#016293;stroke-width:1.0185;stroke-miterlimit:10;} .st8{fill:#FFFFFF;stroke:#016293;stroke-width:1.0209;stroke-miterlimit:10;} .st9{fill:#016293;stroke:#FFFFFF;stroke-width:2;stroke-miterlimit:10;} .st10{fill:#016293;stroke:#FFFFFF;stroke-miterlimit:10;} .st11{fill:#FFFFFF;stroke:#016293;stroke-width:5.0184;stroke-miterlimit:10;} .st12{fill:none;stroke:#016293;stroke-width:3;stroke-miterlimit:10;} .st13{fill:#FFFFFF;stroke:#016293;stroke-width:3;stroke-miterlimit:10;} .st14{fill:#FFFFFF;stroke:#231F20;stroke-miterlimit:10;} .st15{fill:none;stroke:#231F20;stroke-miterlimit:10;} .st16{display:none;} .st17{display:inline;fill:#F26F6A;} .st18{fill:none;stroke:#9CBDD8;stroke-width:5.8821;stroke-miterlimit:10;} .st19{fill:#FFFFFF;stroke:#9CBDD8;stroke-width:5.8821;stroke-miterlimit:10;} .st20{fill:#9CBDD8;stroke:#FFFFFF;stroke-width:5.8821;stroke-miterlimit:10;} .st21{clip-path:url(#SVGID_2_);fill:#231F20;} .st22{clip-path:url(#SVGID_2_);fill:#046293;} .st23{clip-path:url(#SVGID_2_);fill:#9CBDD9;} .st24{clip-path:url(#SVGID_2_);fill:#9CD8D9;} .st25{clip-path:url(#SVGID_2_);fill:#FFFFFF;} .st26{clip-path:url(#SVGID_2_);} .st27{fill:#BDC4C9;} .st28{clip-path:url(#SVGID_2_);fill:none;stroke:#FFFFFF;stroke-width:0.809;stroke-miterlimit:10;} .st29{clip-path:url(#SVGID_2_);fill:none;stroke:#FFFFFF;stroke-width:0.453;stroke-miterlimit:10;} .st30{clip-path:url(#SVGID_2_);fill:none;stroke:#FFFFFF;stroke-width:0.535;stroke-miterlimit:10;} .st31{fill:#9CD8D9;} .st32{clip-path:url(#SVGID_4_);} .st33{clip-path:url(#SVGID_4_);fill:none;stroke:#231F20;stroke-width:0.689;stroke-miterlimit:10;} .st34{clip-path:url(#SVGID_4_);fill:none;stroke:#231F20;stroke-width:0.506;stroke-miterlimit:10;} .st35{fill:#066393;} .st36{fill:#9BD7D8;stroke:#016293;stroke-width:18.6809;stroke-miterlimit:10;} .st37{fill:#076393;} .st38{fill:none;stroke:#076393;stroke-width:3.5038;stroke-miterlimit:10;} .st39{fill:#FFFFFF;stroke:#076393;stroke-width:3.5038;stroke-miterlimit:10;} .st40{fill:#076393;stroke:#FFFFFF;stroke-width:3.5038;stroke-miterlimit:10;}</style><g id="Logo"><g id="XMLID_9_"><path class="st0" d="M106.9 65c80.8-35 177 4 214.5 87.2 18.7 41.3 20.2 86.7 4.2 127.9-11.3 29.2-30.4 53.7-55.2 71.1-5.1 3.6-10.4 6.8-15.9 9.8-59 37.6-138.6 23.8-190.6-30.4-7.1-7-13.6-14.7-19.5-23.1-6.1-8.7-11.5-18.1-16.1-28.1-18.7-41.3-20.2-86.7-4.2-128 15.3-39.1 44.6-69.8 82.8-86.4zm175.3 69.7l12.9-9.1c-4.4-5.9-9.2-11.5-14.3-16.6l-10.7 11.5c4.2 4.5 8.2 9.2 12.1 14.2zm18.3-1.4l-12.8 9c3.5 5 6.6 10.1 9.5 15.4l13.8-6c-3.2-6.4-6.7-12.6-10.5-18.4zm14.3 26.9l-13.3 5.8c2.6 5.3 4.9 10.8 6.9 16.3l13.1-2.7c-1.8-6.6-4-13-6.7-19.4zm-51.4-46.3l10.6-11.4c-5-4.5-10.3-8.7-15.8-12.5l-7.9 12.7c4.6 3.5 9 7.2 13.1 11.2zm60.3 74.7l-12.4 2.6c1.9 6.2 3.4 12.5 4.5 18.7l11-.1c-.5-7.2-1.5-14.2-3.1-21.2zm-80.9-91.4l7.7-12.3c-6.1-3.8-12.5-7.1-19.1-10l-4.6 12.6c5.5 2.8 10.8 6.1 16 9.7zm84.5 121.9l-10 .1c.8 6.6 1.3 13.1 1.3 19.6l7.6 1.4c.8-7 1.2-14 1.1-21.1zm-108.9-135.9l4.3-11.9c-6.7-2.5-13.4-4.5-20.4-6.1l-1.7 10.9c6.1 2 12 4.4 17.8 7.1zm54.7 69.3l-1.5-2.2c-1.3-1.8-2.6-3.6-4-5.4-3.1-4-6.3-7.9-9.6-11.5-2.1-2.3-4.3-4.6-6.5-6.7-3.3-3.3-6.8-6.4-10.4-9.3-2.4-2-4.9-3.9-7.4-5.7-4.1-3-8.4-5.8-12.7-8.3-2.7-1.6-5.5-3.1-8.3-4.5-4.7-2.4-9.6-4.6-14.5-6.4-3-1.1-6-2.2-9-3.1-5.1-1.6-10.3-2.9-15.5-3.9-3.2-.6-6.3-1-9.4-1.4-5.3-.6-10.7-.9-16-.9-3.2 0-6.4.2-9.5.4-5.8.5-11.5 1.4-17.1 2.7-3.1.7-6.1 1.5-9.2 2.5-5.8 1.8-11.5 4.2-17.1 6.9-2.8 1.4-5.5 2.9-8.2 4.6-.5.3-1 .6-1.6 1-1.6 1-3.1 2-4.6 3.1h-.1c-2.9 2.1-5.7 4.2-8.4 6.5-2.4 2.1-4.7 4.2-6.9 6.4-4 4-7.7 8.3-11.1 12.9-1.9 2.5-3.6 5.1-5.3 7.7-3.6 5.7-6.7 11.7-9.2 17.9-1.2 2.9-2.3 5.8-3.3 8.8-2 6-3.6 12.2-4.7 18.5-.6 3.1-1 6.2-1.3 9.3-.7 6.6-1 13.4-.8 20.1.1 3.1.3 6.2.6 9.3.5 6 1.5 12.1 2.8 18.1.6 3 1.4 6.1 2.2 9.1 1.8 6.4 4 12.9 6.7 19.2 1.2 2.9 2.5 5.7 3.9 8.5 2.8 5.8 6.1 11.5 9.6 17.1l3.7 5.6 1.5 2.1c4 5.6 8.3 10.8 12.9 15.7 2.1 2.3 4.3 4.5 6.6 6.7 4.3 4.1 8.8 8 13.4 11.6 2.5 1.9 5 3.7 7.6 5.5 6 4.1 12.3 7.7 18.7 10.8 2.8 1.4 5.6 2.7 8.5 3.9 6 2.5 12.1 4.6 18.3 6.2 3 .8 6.1 1.5 9.1 2.1 6.9 1.3 13.9 2.2 20.7 2.4 3.1.1 6.2.2 9.4 0 6.5-.2 12.9-.9 19.3-2.2 3-.6 6.1-1.3 9.1-2.2 6.2-1.7 12.2-3.9 18.1-6.7 2.8-1.3 5.6-2.8 8.3-4.3 3.1-1.7 6.1-3.7 9-5.7l4.5-3.3 1.5-1.2c2.5-2 4.8-4 7.1-6.2 4.9-4.6 9.2-9.5 13.1-14.8 1.9-2.5 3.7-5.1 5.4-7.8 3-4.7 5.6-9.6 7.9-14.8 1.3-2.9 2.5-5.8 3.6-8.8 2.1-5.7 3.7-11.5 5-17.5.7-3.1 1.2-6.2 1.7-9.4.8-5.4 1.2-11 1.3-16.5.1-3.2.1-6.3-.1-9.5-.2-5.3-.7-10.7-1.5-16.1-.5-3.1-1.1-6.2-1.7-9.3-1.1-5.1-2.4-10.1-4.1-15.1-.9-3-2-5.9-3.1-8.9-1.7-4.3-3.5-8.6-5.6-12.8-1.4-2.8-2.8-5.6-4.4-8.3-2.1-4.3-4.7-8.4-7.4-12.5zm51.6 97l-6.4-1.2c-.4 6.7-1.1 13.3-2.4 19.7l3.6 1.5c2.2-6.6 4-13.3 5.2-20zm-133.1-176l1.6-10c-6.8-1.1-13.7-1.8-20.6-1.9l.4 8.2c6.2.8 12.5 2 18.6 3.7zm124.8 204.8l-2.4-1c-1.6 6.3-3.6 12.5-5.9 18.5 3.1-5.6 5.9-11.5 8.3-17.5zm-152.9-209.6l-.3-7.1c-6.6.2-13.1.9-19.7 2.1l1.2 4.9c6.3-.4 12.5-.4 18.8.1zm-28.2.7l-.9-3.7c-6.5 1.6-13 3.6-19.4 6.2l.7 1.4c6.4-1.8 13-3.1 19.6-3.9z"/><path class="st4" d="M295.1 125.6l-12.9 9.1c-3.8-5-7.9-9.7-12.1-14.2l10.7-11.5c5.1 5.2 9.9 10.7 14.3 16.6zM287.7 142.3l12.8-9c3.9 5.8 7.4 12 10.5 18.4l-13.8 6c-2.9-5.3-6-10.4-9.5-15.4zM301.5 166l13.3-5.8c2.7 6.3 4.9 12.8 6.7 19.3l-13.1 2.7c-2-5.4-4.3-10.9-6.9-16.2zM274.1 102.5l-10.6 11.4c-4.2-4-8.6-7.7-13.1-11.2l7.9-12.7c5.5 3.8 10.7 8 15.8 12.5zM311.3 191.2l12.4-2.6c1.5 7 2.6 14.1 3.1 21.2l-11 .1c-1.1-6.3-2.6-12.5-4.5-18.7zM250.5 84.9l-7.7 12.3c-5.2-3.6-10.5-6.8-16-9.8l4.6-12.6c6.6 2.9 12.9 6.3 19.1 10.1zM317.3 219.2l10-.1c.1 7.1-.3 14.2-1.2 21.2l-7.6-1.4c0-6.6-.4-13.2-1.2-19.7zM222.7 71.3l-4.3 11.9c-5.8-2.7-11.7-5-17.7-7l1.7-10.9c6.9 1.4 13.7 3.5 20.3 6zM271.6 150.4l-3.6 2.5-8.7-2.1-14.2-3.4-10.4-2.5-9.2-2.2-9.6-2.3-7.7-1.8-9.2-2.2-7.3-1.8-9.1-2.2-6.9-1.7-9.5-2.3-7.7-1.9-10.2-2.5-10.9-2.6-11.5-2.8-17.4-4.2-13.7-3.3-10.9-2.6 1.7-7.2c.5-.3 1-.6 1.6-1 2.7-1.6 5.4-3.2 8.2-4.6 5.5-2.8 11.2-5.1 17.1-6.9 3-1 6.1-1.8 9.2-2.5 5.6-1.3 11.3-2.2 17.1-2.7 3.2-.3 6.4-.4 9.5-.4 5.3 0 10.7.3 16 .9 3.2.4 6.3.8 9.4 1.4 5.2 1 10.4 2.2 15.5 3.9 3 .9 6 1.9 9 3.1 4.9 1.8 9.8 4 14.5 6.4 2.8 1.4 5.6 2.9 8.3 4.5 4.3 2.5 8.6 5.3 12.7 8.3 2.5 1.8 5 3.7 7.4 5.7 3.6 2.9 7 6 10.4 9.3 2.3 2.1 4.4 4.4 6.5 6.7 3.3 3.6 6.6 7.5 9.6 11.5 1.4 1.8 2.7 3.6 4 5.5zM268 152.9l3.6-2.5c.5.7 1 1.4 1.5 2.2 2.7 4 5.3 8.1 7.6 12.3 1.6 2.7 3 5.5 4.4 8.3 2.1 4.2 4 8.5 5.6 12.8 1.1 3 2.2 5.9 3.1 8.9 1.6 5 3 10.1 4.1 15.1.6 3.1 1.2 6.2 1.7 9.3.8 5.4 1.3 10.8 1.5 16.1.1 3.2.2 6.4.1 9.5-.1 5.6-.5 11.1-1.3 16.5-.4 3.2-1 6.3-1.7 9.4-1.2 6-2.9 11.8-5 17.5-1.1 3-2.2 6-3.6 8.8-2.3 5.1-4.9 10-7.9 14.8-1.7 2.7-3.5 5.3-5.4 7.8-3.9 5.3-8.3 10.2-13.1 14.8-2.2 2.1-4.6 4.2-7.1 6.2l-1.5 1.2-7.4-.8 1.2-11.2 1.5-14.1 2.1-19.4 1.3-11.7 1.2-10.8 1.2-10.4 1-9.5 1.1-9.6.8-7.7 1-9.3.9-7.7 1-9.4 1-8.9 1.1-9.8 1.1-9.7 1.2-10.7 1.6-14.8.5-3.5z"/><path class="st0" d="M259.3 150.8l8.7 2.1-.4 3.5-1.6 14.8-1.2 10.7-1.1 9.7-1.1 9.8-1 8.9-1 9.4-.9 7.7-1 9.3-.8 7.7-1.1 9.6-1 9.5-1.2 10.4-1.2 10.8-1.3 11.7-2.1 19.4-1.5 14.1-1.2 11.2-12-2.9-11.5-2.8-16.4-3.9-10.2-2.5-12.8-3.1-9.5-2.3-12.2-2.9-9.1-2.2-10.5-2.5-9.1-2.2-13.6-3.3-9.6-2.3-12.8-3-10.5-2.5-20.9-5-3.4-.8 1-8.9 2.2-19.9 1.2-10.7 1.7-15.3 1.1-9.8 1.2-10.7 1-9.4 1.2-11.4 1-9.4 1.2-10.8 1.1-9.7 1.5-13.6 1.1-10.4 1.6-14.5 1.3-11.8 1.3-12 10.9 2.6 13.7 3.3 17.4 4.2 11.5 2.8 10.9 2.6 10.2 2.5 7.7 1.9 9.5 2.3 6.9 1.7 9.1 2.2 7.3 1.8 9.2 2.2 7.7 1.8 9.6 2.3 9.2 2.2 10.4 2.5 14.2 3.3zm-73.1 20.5l-.2-.3c-2.5-3.5-5.2-6.7-8-9.5-.3-.4-.7-.7-1-1-3-2.8-6.3-5.2-9.7-7.2l-2.7-1.5c-1.8-.9-3.6-1.6-5.5-2.2-1.7-.6-3.3-1-5-1.3-1.6-.3-3.2-.6-4.8-.6-3.3-.3-6.7-.1-10 .6-2 .4-3.9.9-5.9 1.5-1.8.6-3.6 1.3-5.4 2.2l-13.1-18.7-12.1 8.5 12.9 18.3c-.9.8-1.8 1.6-2.7 2.5-1.3 1.2-2.4 2.5-3.5 3.8-2 2.5-3.8 5.1-5.1 7.8-1.1 2.1-2 4.3-2.7 6.5-.7 2.2-1.2 4.4-1.5 6.8-.1.9-.2 1.8-.2 2.6-.2 2-.1 4 .1 6.1.3 3.3 1.1 6.7 2.3 10 .7 1.8 1.5 3.7 2.4 5.5 1.1 2 2.3 4.1 3.7 6.1.8 1.1 1.6 2.2 2.4 3.2.6.8 1.2 1.5 1.8 2.2 2.8 3.2 5.7 5.8 8.6 7.8.9.6 1.8 1.2 2.8 1.7 3.7 2.1 7.7 3.5 11.9 4.3l.5.1.8.1c3.4.6 6.9.8 10.5.7 1.4 0 2.7-.1 4.1-.2.2 0 .5 0 .7-.1l2.5-.3c2.2-.3 4.5-.5 6.8-.9.1 0 .3 0 .4-.1l4.1-.6.8-.1c1.2-.2 2.4-.4 3.7-.6.1 0 .3 0 .4-.1.5-.1 1.1-.2 1.6-.2l1.6-.3c.6-.1 1.1-.1 1.6-.2.6-.1 1.2-.1 1.7-.1.8 0 1.6-.1 2.3-.1h.8c1.1 0 2.1.1 3.1.3 1.1.1 2 .4 2.9.6.5.2 1 .3 1.5.6l.5.5-.1-.3c3.1 1.5 6 4.1 8.6 7.9.4.5.7 1 1 1.5 2.2 3.5 3.1 7 2.8 10.2-.2 1.7-.6 3.3-1.4 4.7l-.3.5c-.9 1.5-2.3 2.9-4 4.1-1 .7-2.1 1.3-3.1 1.8-.2.1-.4.2-.7.3-3.1 1.3-6.2 1.6-9.4.8-.2 0-.5-.1-.7-.2-.2-.1-.4-.1-.7-.2-3-1-6.1-2.9-9-5.8-.1 0-.1-.1-.1-.1-1.8-1.8-3.6-3.9-5.3-6.4l-25.7 18.1c.5.8 1.1 1.5 1.6 2.2 1.2 1.7 2.5 3.2 3.9 4.7 2.3 2.7 4.8 5 7.3 7.1 1.4 1.1 2.8 2.2 4.3 3.1 2.8 1.8 5.7 3.3 8.8 4.4l3.3 1.1c1.2.3 2.4.6 3.6.8 3.1.6 6.2.8 9.4.7 2.1-.1 4.1-.3 6.2-.7 3-.6 6-1.5 9-2.6 1.8-.7 3.6-1.5 5.4-2.5l1.1-.6 12.3 17.5 12.1-8.5-12.2-17.4c2-1.8 3.8-3.6 5.4-5.5 1.4-1.6 2.7-3.3 3.7-5.1 1.8-2.8 3.2-5.8 4.2-8.9.4-1.3.8-2.6 1-4 .2-1.1.4-2.2.5-3.3.3-2.5.3-5 .1-7.5-.1-1.4-.3-2.7-.6-4.1-.8-3.9-2.2-7.9-4.2-11.8-.2-.5-.5-1-.8-1.6-1-1.7-2.1-3.4-3.3-5.1-1.3-1.9-2.7-3.6-4.1-5.2-.2-.3-.4-.5-.6-.7-2.6-2.9-5.3-5.2-8.1-7l-.4-.2c-.7-.4-1.4-.9-2.1-1.2-1.5-.9-3.1-1.6-4.7-2.3-2.2-.9-4.5-1.6-6.9-2.1-.4-.1-.7-.2-1.1-.2-.2 0-.4-.1-.7-.1-1.2-.2-2.5-.4-3.8-.5-1.1-.1-2.3-.2-3.5-.3h-1c-.8 0-1.7-.1-2.5 0-.7 0-1.3 0-2 .1h-1l-1.7.1h-1c-.2 0-.4 0-.6.1-.6.1-1.2.1-1.9.2-.2 0-.4 0-.6.1l-1.4.1c-.2 0-.4 0-.6.1l-1.2.1c-.2 0-.4 0-.6.1l-1.4.2h-.1c-.5.1-1.1.2-1.6.2l-2.2.3-3.3.5-2.4.3h-.2c-.1 0-.2 0-.3.1-1.3.2-2.6.4-3.9.5-4.3.4-7.9.2-10.9-.5-2.6-.7-5-2.1-7.2-4.3-1.1-1-2.1-2.3-3.1-3.7-1.8-2.5-3-4.9-3.6-7.2l-.3-1c-.3-1.3-.4-2.5-.3-3.7.1-2.4.8-4.4 2.3-6.3l.1-.2c.8-1 1.8-1.9 2.9-2.7 1.7-1.2 3.5-2 5.4-2.2h.1c2.1-.3 4.3 0 6.6 1 2.5 1 4.9 2.7 7.3 5.1 1.9 1.8 3.7 4 5.5 6.6l26-18.2z"/><path class="st4" d="M318.3 248.3l6.4 1.2c-1.2 6.7-3 13.4-5.1 19.9l-3.6-1.4c1.2-6.4 1.9-13.1 2.3-19.7zM193.2 63.4l-1.6 10c-6.2-1.6-12.4-2.9-18.7-3.8l-.4-8.2c7 .3 13.9.9 20.7 2zM314 277.3l2.4 1c-2.4 6.1-5.2 11.9-8.3 17.5 2.3-6 4.3-12.2 5.9-18.5zM163.2 61.6l.3 7.1c-6.3-.5-12.6-.5-18.8-.2l-1.2-4.9c6.6-1.1 13.1-1.8 19.7-2zM134.4 65.6l.9 3.7c-6.6.8-13.2 2.1-19.6 3.8l-.7-1.4c6.4-2.5 12.9-4.5 19.4-6.1zM186 171l.2.3-25.8 18.1c-1.8-2.6-3.7-4.8-5.5-6.6-2.4-2.4-4.8-4.1-7.3-5.1-2.3-1-4.5-1.3-6.6-1h-.1c-1.8.2-3.6 1-5.4 2.2-1.2.8-2.1 1.7-2.9 2.7-.1 0-.1.1-.1.2-1.4 1.8-2.2 3.9-2.3 6.3 0 1.2.1 2.4.3 3.7.1.3.2.6.3 1 .7 2.3 1.9 4.7 3.6 7.2 1 1.4 2 2.6 3.1 3.7 2.2 2.2 4.6 3.6 7.2 4.3 3 .8 6.6.9 10.9.5 1.3-.1 2.5-.3 3.9-.5l.5.1-.1-.1h.2c.8-.1 1.6-.3 2.4-.3 1.1-.2 2.2-.4 3.3-.5l2.2-.3 1.6-.2.1.1v-.1c.4 0 .9-.1 1.4-.2l.6-.1c.4-.1.8-.1 1.2-.1l.6-.1c.5-.1.9-.1 1.4-.1l.6-.1 1.9-.2.6-.1h1c.5-.1 1.1-.1 1.7-.1h1c.6 0 1.3-.1 2-.1h3.5c1.2.1 2.4.2 3.5.3 1.3.1 2.5.3 3.8.5.2 0 .4.1.7.1l1.1.2c2.4.5 4.7 1.2 6.9 2.1 1.6.6 3.2 1.4 4.7 2.3l2.1 1.2.4.2c2.8 1.8 5.5 4.2 8.1 7l.6.7c1.4 1.6 2.7 3.3 4.1 5.2 1.2 1.7 2.3 3.4 3.3 5.1.3.5.6 1 .8 1.6 2 3.9 3.4 7.9 4.2 11.8l.6 4.1c.2 2.5.2 5-.1 7.5-.1 1.1-.3 2.2-.5 3.3-.3 1.4-.6 2.7-1 4-1 3.1-2.4 6.1-4.2 8.9-1.1 1.7-2.3 3.4-3.7 5.1-1.6 1.9-3.4 3.7-5.4 5.5l12.2 17.4-12.1 8.5-12.3-17.5c-.4.2-.8.4-1.1.6-1.8.9-3.6 1.8-5.4 2.5-3 1.2-6 2.1-9 2.6-2.1.4-4.2.7-6.2.7-3.2.2-6.3 0-9.4-.7-1.2-.2-2.4-.5-3.6-.8-1.1-.3-2.2-.7-3.3-1.1-3-1.1-5.9-2.6-8.8-4.4-1.5-.9-2.9-2-4.3-3.1-2.5-2-5-4.4-7.3-7.1-1.3-1.5-2.6-3-3.9-4.7l-1.6-2.2 25.7-18.1c1.8 2.5 3.5 4.6 5.3 6.4.1 0 .1.1.1.1 2.9 2.9 5.9 4.8 9 5.8.2.1.4.1.7.2l.7.2c3.2.8 6.3.5 9.4-.8.2-.1.4-.2.7-.3 1.1-.5 2.1-1.1 3.1-1.8 1.7-1.2 3-2.6 4-4.1l.3-.5c.8-1.4 1.3-3 1.4-4.7.3-3.2-.6-6.7-2.8-10.2l-1-1.5c-2.7-3.8-5.5-6.4-8.6-7.9-.1-.1-.2-.1-.4-.2l-1.5-.6c-.9-.3-1.8-.5-2.9-.6-1-.1-2-.2-3.1-.3h-.8c-.8 0-1.5 0-2.3.1-.6 0-1.2.1-1.7.1s-1.1.1-1.6.2l-1.6.3c-.5.1-1 .1-1.6.2-.1 0-.3 0-.4.1l-3.7.6c-.3.1-.5.1-.8.1-1.4.2-2.8.4-4.1.6-.1 0-.2.1-.4.1-2.3.4-4.6.6-6.8.9l-2.5.3-.7.1c-1.4.1-2.8.2-4.1.2-3.6.1-7.2-.1-10.5-.7l-.8-.1-.5-.1c-4.2-.8-8.1-2.2-11.9-4.3-.9-.5-1.9-1.1-2.8-1.7-3-2-5.9-4.5-8.6-7.8-.6-.7-1.2-1.4-1.8-2.2-.8-1-1.6-2.1-2.4-3.2-1.4-2-2.6-4-3.7-6.1-1-1.8-1.8-3.7-2.4-5.5-1.2-3.3-2-6.6-2.3-10-.2-2-.2-4-.1-6.1 0-.9.1-1.7.2-2.6.3-2.3.8-4.6 1.5-6.8s1.6-4.4 2.7-6.5c1.4-2.7 3.1-5.3 5.1-7.8 1.1-1.3 2.2-2.6 3.5-3.8.8-.9 1.7-1.7 2.7-2.5l-13.2-18.1 12.1-8.5 13.1 18.7c1.8-.9 3.6-1.6 5.4-2.2 2-.7 3.9-1.2 5.9-1.5 3.3-.7 6.7-.8 10-.6 1.6.1 3.2.3 4.8.6 1.7.3 3.3.8 5 1.3 1.9.6 3.7 1.4 5.5 2.2.9.5 1.9 1 2.7 1.5 3.4 1.9 6.6 4.3 9.7 7.2.4.3.7.7 1 1 2.9 2.6 5.5 5.8 8 9.3zM169.8 206.4z"/><path class="st0" d="M189 235.6l.1.3-.5-.5c.2.1.3.1.4.2z"/><path class="st4" d="M85.7 101.3l-1.7 7.2-1.3 12-1.3 11.8-1.6 14.5-1.1 10.4-1.7 13.6-1.1 9.7-1.2 10.8-1 9.4-1.2 11.4-1 9.4-1.2 10.7-1.1 9.8-1.7 15.3-1.1 10.7-2.2 19.9-1 8.9-3.6 2.6c-1.3-1.8-2.5-3.7-3.7-5.6-3.6-5.6-6.8-11.3-9.6-17.1-1.4-2.8-2.7-5.7-3.9-8.5-2.7-6.3-4.9-12.8-6.7-19.2-.8-3-1.6-6-2.2-9.1-1.3-6-2.2-12.1-2.8-18.1-.3-3.1-.5-6.2-.6-9.3-.2-6.8.1-13.5.8-20.1.4-3.1.8-6.2 1.3-9.3 1.1-6.3 2.7-12.5 4.7-18.5 1-3 2.1-5.9 3.3-8.8 2.6-6.2 5.7-12.2 9.2-17.9 1.6-2.7 3.4-5.2 5.3-7.7 3.3-4.5 7-8.8 11.1-12.9 2.2-2.2 4.5-4.3 6.9-6.4 2.7-2.3 5.5-4.4 8.4-6.5h.1c1.4-1.1 2.9-2.1 4.5-3.1zM247.4 341.1l7.4.8-4.5 3.3c-3 2.1-6 4-9 5.7-2.7 1.6-5.5 3-8.3 4.3-5.9 2.8-11.9 5-18.1 6.7-3 .8-6.1 1.6-9.1 2.2-6.4 1.2-12.8 2-19.3 2.2-3.1.1-6.2.1-9.4 0-6.9-.2-13.8-1.1-20.7-2.4-3.1-.6-6.1-1.3-9.1-2.1-6.2-1.6-12.3-3.7-18.3-6.2-2.9-1.2-5.7-2.5-8.5-3.9-6.4-3.1-12.6-6.7-18.7-10.8-2.6-1.7-5.1-3.5-7.6-5.5-4.6-3.6-9.1-7.4-13.4-11.6-2.2-2.1-4.4-4.4-6.6-6.7-4.5-4.9-8.8-10.1-12.9-15.7l-1.5-2.1 3.6-2.6 3.4.8 20.9 5 10.5 2.5 12.9 3.1 9.6 2.3 13.6 3.3 9.1 2.2 10.5 2.5 9.1 2.2 12.2 2.9 9.5 2.3 12.8 3.1 10.2 2.5 16.4 3.9 11.5 2.8 11.8 3zM159.9 207.8l.1.1-.5-.1c.2.1.3.1.4 0z"/></g><g id="XMLID_10_"><path class="st0" d="M293.2 17.4c87.6 8.9 152.4 90.1 144.5 180.9-3.9 45.1-24.8 85.5-58.9 113.7-24.1 20-52.8 32-83 35-6.2.6-12.4.9-18.6.7-69.8 3.9-132.6-47-151.4-119.7-2.8-9.6-4.7-19.5-5.7-29.6-1.1-10.6-1.2-21.4-.2-32.4 3.9-45.1 24.8-85.5 58.9-113.7 32.3-26.7 73-39.1 114.4-34.9zm118.8 146.5l15.7-1.6c-1-7.3-2.4-14.5-4.4-21.5l-15 4.8c1.6 6 2.8 12.1 3.7 18.3zm16.6 7.7l-15.5 1.6c.6 6.1.8 12.1.8 18.1l14.9 1.5c.4-7.1.3-14.2-.2-21.2zm-.6 30.5l-14.5-1.5c-.3 5.9-1 11.8-2 17.5l12.8 4c1.7-6.5 2.9-13.2 3.7-20zm-22.2-65.5l14.8-4.8c-2.2-6.4-4.7-12.6-7.6-18.6l-13.1 7.2c2.2 5.3 4.2 10.7 5.9 16.2zm16.1 94.6l-12.1-3.8c-1.4 6.3-3.2 12.5-5.2 18.5l9.6 5.3c3-6.5 5.6-13.1 7.7-20zm-25.9-119.3l12.7-7c-3.5-6.3-7.4-12.3-11.7-18.1l-10.2 8.7c3.3 5.3 6.4 10.7 9.2 16.4zm14.1 147.7l-8.8-4.8c-2.5 6.1-5.3 12.1-8.5 17.8l5.9 5c4.2-5.8 8-11.8 11.4-18zm-28.6-171.8l9.6-8.3c-4.6-5.4-9.5-10.5-14.8-15.3l-6.8 8.7c4.3 4.8 8.3 9.7 12 14.9zm13.8 87.2c-.1-.9-.2-1.8-.2-2.6-.2-2.2-.5-4.5-.8-6.6-.7-5-1.6-9.9-2.8-14.7-.7-3.1-1.5-6.1-2.4-9.1-1.3-4.5-2.8-8.9-4.5-13.2-1.2-2.9-2.4-5.8-3.7-8.6-2.1-4.6-4.5-9.1-7-13.5-1.6-2.7-3.3-5.4-5-8-2.9-4.4-6.1-8.7-9.5-12.7-2-2.4-4.1-4.8-6.3-7.1-3.7-3.9-7.6-7.6-11.7-11-2.5-2.1-5-4-7.6-5.8-4.3-3.2-8.8-6-13.5-8.6-2.8-1.5-5.6-3-8.5-4.3-5.3-2.4-10.7-4.4-16.2-6-3-.9-6.1-1.7-9.2-2.3-6-1.2-12.1-2-18.3-2.3-3.1-.1-6.2-.1-9.4 0-.6 0-1.2 0-1.8.1-1.8.1-3.7.2-5.5.4h-.1c-3.6.4-7.1.9-10.5 1.6-3.1.6-6.1 1.4-9.1 2.2-5.5 1.5-10.8 3.5-15.9 5.8-2.9 1.3-5.7 2.6-8.4 4.2-5.9 3.2-11.5 6.9-16.8 11.1-2.5 1.9-4.8 3.9-7.1 6.1-4.7 4.3-9.1 8.9-13.1 13.8-2 2.4-3.9 4.9-5.7 7.4-3.9 5.4-7.4 11.2-10.5 17.2-1.4 2.7-2.8 5.6-4 8.4-2.5 5.5-4.6 11.3-6.4 17.1-.9 3-1.8 6-2.5 9-1.6 6.5-2.8 13.2-3.5 20-.4 3.1-.6 6.2-.8 9.3-.4 6.4-.3 13 .1 19.6.1 2.2.3 4.4.5 6.7l.3 2.6c.8 6.8 2 13.5 3.6 20 .7 3.1 1.6 6.1 2.5 9 1.7 5.7 3.8 11.3 6.1 16.6 1.2 2.9 2.6 5.7 4 8.5 3.3 6.5 6.9 12.8 11 18.6 1.8 2.6 3.6 5.1 5.5 7.5 4 5.1 8.3 9.9 12.9 14.4 2.2 2.2 4.6 4.3 6.9 6.3 5.4 4.5 11 8.7 16.9 12.3 2.7 1.7 5.4 3.2 8.1 4.6 5.8 3 11.8 5.5 17.9 7.5 2.9 1 6 1.8 9 2.6 6.2 1.5 12.6 2.5 19 3 3.1.2 6.2.3 9.4.3 3.5 0 7.1-.2 10.7-.6h.1c1.9-.2 3.7-.4 5.5-.7l1.8-.3c3.1-.5 6.2-1.2 9.2-1.9 6.5-1.6 12.7-3.8 18.7-6.5 2.9-1.3 5.7-2.7 8.5-4.2 4.9-2.6 9.6-5.7 14.1-9 2.5-1.9 5-3.9 7.4-6 4.6-3.9 8.9-8.2 12.9-12.8 2.1-2.4 4.1-4.8 6.1-7.4 3.3-4.4 6.4-9 9.2-13.8 1.6-2.7 3.1-5.5 4.6-8.4 2.4-4.7 4.6-9.7 6.5-14.8 1.1-3 2.1-6 3.1-9 1.5-5 2.8-10 3.9-15.2.6-3.1 1.2-6.2 1.6-9.3.6-4.6 1.1-9.2 1.4-14 .2-3.1.3-6.2.2-9.4-.2-4.4-.5-9.2-.9-14.1zm-2.4 109.9l-5-4.2c-3.6 5.6-7.5 11-11.7 16.1l2.4 3.1c5.2-4.8 10-9.8 14.3-15zm-30-218.7l6.3-8c-5.4-4.3-11.1-8.3-17.1-11.8l-3.7 7.3c5.1 3.9 9.9 8.1 14.5 12.5zm8.7 239.6l-1.6-2c-4.5 4.7-9.2 9.2-14.2 13.2 5.4-3.3 10.7-7 15.8-11.2zm-30.9-257.5l3.2-6.4c-5.8-3-11.9-5.6-18.2-7.8l-1.4 4.8c5.7 2.8 11.2 5.9 16.4 9.4zm-24.9-13.2l1.1-3.7c-6.5-1.8-13.1-3.2-19.9-4.1l-.1 1.6c6.4 1.5 12.7 3.6 18.9 6.2z"/><path class="st4" d="M427.7 162.3l-15.7 1.6c-.9-6.2-2.1-12.3-3.6-18.3l15-4.8c1.9 7 3.3 14.2 4.3 21.5zM413.1 173.2l15.5-1.6c.5 7 .6 14.1.2 21.2l-14.9-1.5c0-6-.2-12-.8-18.1zM413.5 200.6l14.5 1.5c-.8 6.8-2 13.5-3.6 20.1l-12.8-4c.9-5.8 1.6-11.6 1.9-17.6zM420.6 131.9l-14.8 4.8c-1.7-5.5-3.7-10.9-5.9-16.2l13.1-7.2c2.9 5.9 5.5 12.1 7.6 18.6zM409.8 227.4l12.1 3.8c-2.1 6.9-4.7 13.5-7.6 20l-9.6-5.3c2-6 3.7-12.2 5.1-18.5zM408.7 104.9l-12.7 7c-2.7-5.7-5.8-11.1-9.1-16.3l10.2-8.7c4.2 5.7 8.1 11.7 11.6 18zM401.3 254.7l8.8 4.8c-3.4 6.2-7.1 12.2-11.4 17.9l-5.9-5c3.2-5.6 6-11.5 8.5-17.7zM391.1 79.5l-9.6 8.3c-3.8-5.2-7.7-10.1-12-14.8l6.8-8.7c5.3 4.7 10.2 9.8 14.8 15.2zM395.1 172.4l-4.4.4-6.6-6.1-10.7-10-7.9-7.3-7-6.4-7.2-6.7-5.8-5.3-6.9-6.4-5.5-5.1-6.9-6.4-5.2-4.8-7.1-6.6-5.8-5.4-7.7-7.2-8.2-7.6-8.7-8.1-13.1-12.1-10.4-9.5-8.2-7.6 5.1-5.5 1.8-.1c3.2-.1 6.3-.1 9.4 0 6.2.3 12.3 1 18.3 2.3 3.1.6 6.2 1.4 9.2 2.3 5.5 1.6 10.9 3.6 16.2 6 2.9 1.3 5.8 2.8 8.5 4.3 4.7 2.6 9.2 5.4 13.5 8.6 2.6 1.9 5.1 3.8 7.6 5.8 4.1 3.4 8 7 11.7 11 2.2 2.3 4.3 4.6 6.3 7.1 3.4 4 6.6 8.2 9.5 12.7 1.8 2.6 3.4 5.3 5 8 2.5 4.3 4.9 8.8 7 13.5 1.3 2.8 2.5 5.7 3.7 8.6 1.7 4.3 3.2 8.7 4.5 13.2.9 3 1.7 6 2.4 9.1 1.1 4.8 2.1 9.7 2.8 14.7.3 2.1.6 4.4.8 6.6zM390.7 172.8l4.4-.4c.1.9.2 1.7.2 2.6.4 4.9.6 9.7.6 14.4 0 3.1-.1 6.2-.2 9.4-.2 4.7-.7 9.4-1.4 14-.5 3.1-1 6.2-1.6 9.3-1 5.2-2.3 10.2-3.9 15.2-1 3-2 6-3.1 9-1.9 5.1-4.1 10-6.5 14.8-1.4 2.9-3 5.6-4.6 8.4-2.8 4.8-5.9 9.4-9.2 13.8-1.9 2.6-4 5-6.1 7.4-4 4.6-8.3 8.9-12.9 12.8-2.4 2.1-4.9 4.1-7.4 6-4.5 3.3-9.2 6.4-14.1 9-2.8 1.5-5.6 2.9-8.5 4.2-6 2.7-12.2 4.9-18.7 6.5-3 .8-6.1 1.4-9.2 1.9l-1.8.3-6.1-4.3 6.5-9.2 8.2-11.5 11.3-15.8 6.9-9.6 6.3-8.8 6.1-8.5 5.6-7.8 5.6-7.9 4.5-6.3 5.4-7.6 4.5-6.3 5.5-7.7 5.2-7.3 5.7-8 5.7-8 6.2-8.7 8.7-12.1 2.2-3.2z"/><path class="st0" d="M384.1 166.8l6.6 6.1-2.1 2.9-8.7 12.1-6.2 8.7-5.7 8-5.7 8-5.2 7.3-5.5 7.7-4.5 6.3-5.4 7.6-4.5 6.3-5.6 7.9-5.6 7.8-6.1 8.5-6.3 8.8-6.9 9.6-11.3 15.8-8.2 11.5-6.5 9.2-9-8.4-8.7-8.1-12.4-11.4-7.7-7.1-9.6-8.9-7.1-6.6-9.2-8.5-6.9-6.4-7.9-7.3-6.9-6.4-10.3-9.5-7.2-6.7-9.8-9-7.9-7.3-15.7-14.6-2.6-2.4 5.2-7.3 11.6-16.3 6.3-8.8 8.9-12.5 5.7-8 6.2-8.8 5.5-7.7 6.6-9.3 5.5-7.7 6.3-8.9 5.7-7.9 8-11.1 6.1-8.5 8.5-11.9 6.9-9.6 7-9.8 8.2 7.6 10.4 9.6 13.1 12.1 8.7 8.1 8.2 7.6 7.7 7.2 5.8 5.4 7.1 6.6 5.2 4.8 6.9 6.4 5.5 5.1 6.9 6.4 5.8 5.3 7.2 6.7 7 6.4 7.9 7.3 10.7 10zm-73.7-17.9v-.3c-.5-4.3-1.2-8.4-2.3-12.1-.1-.5-.2-.9-.4-1.4-1.3-4-2.9-7.6-4.9-11-.5-.9-1.1-1.8-1.7-2.6-1.1-1.6-2.4-3.2-3.7-4.6-1.2-1.3-2.4-2.5-3.7-3.6-1.3-1.1-2.5-2.1-3.9-2.9-2.8-1.9-5.8-3.3-9-4.4-1.9-.6-3.8-1.2-5.9-1.5-1.9-.3-3.8-.6-5.8-.7l-2.4-22.8-14.8 1.5 2.3 22.3c-1.2.3-2.4.5-3.5.9-1.7.4-3.3 1-4.9 1.6-3 1.2-5.8 2.6-8.3 4.3-2 1.3-3.8 2.7-5.5 4.4-1.7 1.6-3.2 3.3-4.6 5.2-.5.7-1.1 1.5-1.5 2.2-1.1 1.7-2.1 3.5-2.9 5.3-1.4 3.1-2.3 6.3-2.9 9.8-.3 1.9-.5 3.9-.6 6-.1 2.3 0 4.7.3 7.1.1 1.4.3 2.7.5 4 .1.9.3 1.9.5 2.8.9 4.2 2.1 7.8 3.8 11 .5 1 1 1.9 1.6 2.8 2.2 3.6 5 6.8 8.3 9.5l.4.3.6.5c2.7 2.1 5.6 4 8.9 5.7 1.2.7 2.4 1.2 3.7 1.8l.6.3 2.4 1c2.1.9 4.2 1.7 6.4 2.5.1.1.2.1.3.1l3.9 1.5c.3.1.5.2.7.3 1.1.4 2.3.8 3.5 1.3l.4.1 1.5.6c.5.2 1.1.4 1.5.6.5.2 1 .4 1.5.7l1.6.7 2.1 1.1c.2.1.5.2.7.4.9.6 1.8 1.1 2.6 1.7.8.6 1.6 1.3 2.2 2 .4.4.7.8 1 1.2l.2.7v-.3c2 2.8 3.2 6.5 3.7 11.1.1.6.1 1.2.1 1.8.2 4.1-.7 7.6-2.6 10.3-1 1.4-2.2 2.6-3.6 3.4l-.5.3c-1.5.9-3.4 1.4-5.4 1.6-1.3.1-2.5.1-3.6 0-.2 0-.5 0-.7-.1-3.3-.4-6.2-1.7-8.6-3.9-.2-.1-.4-.3-.5-.5l-.5-.5c-2.2-2.4-3.9-5.5-5-9.4 0-.1 0-.1-.1-.2-.7-2.4-1.2-5.2-1.5-8.2l-31.3 3.2.3 2.8c.3 2.1.6 4.1 1.1 6 .7 3.5 1.7 6.7 3 9.8.7 1.7 1.4 3.3 2.2 4.8 1.6 3 3.4 5.7 5.5 8.2.8.9 1.5 1.7 2.4 2.6.9.9 1.8 1.7 2.7 2.5 2.4 2 5 3.7 7.9 5.2 1.8.9 3.8 1.7 5.8 2.4 2.9.9 5.9 1.6 9.1 2.1 1.9.2 3.9.4 5.9.5h1.3l2.2 21.3 14.7-1.5-2.2-21.2c2.6-.6 5-1.3 7.4-2.1 2-.7 3.9-1.6 5.7-2.6 3-1.6 5.7-3.5 8-5.7 1-.9 2-1.9 2.9-3 .7-.9 1.4-1.7 2.1-2.7 1.5-2 2.7-4.2 3.7-6.4.5-1.2 1-2.5 1.5-3.8 1.2-3.8 2-7.9 2.1-12.3v-1.8c0-2-.1-4-.3-6.1-.2-2.3-.6-4.5-1-6.5 0-.3-.1-.6-.2-1-.8-3.8-2.1-7.1-3.6-10.1l-.2-.4-1.2-2.1c-.9-1.5-1.9-2.9-3-4.3-1.5-1.9-3.2-3.7-5-5.2-.3-.3-.6-.5-.8-.7-.2-.1-.4-.3-.5-.4-1-.8-2-1.6-3.1-2.3-.9-.7-1.9-1.3-2.9-1.9-.3-.2-.6-.4-.9-.5l-2.2-1.3-1.8-.9-.9-.5-1.5-.7c-.2-.1-.3-.2-.5-.2-.1-.1-.3-.1-.5-.2s-.4-.2-.6-.2c-.6-.2-1.2-.5-1.7-.7l-.6-.3c-.4-.2-.8-.4-1.3-.5-.2-.1-.4-.2-.6-.2-.4-.2-.8-.4-1.1-.5-.2-.1-.4-.2-.5-.2-.4-.2-.9-.4-1.3-.5h-.1l-1.5-.6c-.7-.3-1.4-.6-2.1-.8-1-.4-2.1-.8-3.2-1.2l-2.2-.9c-.1 0-.1 0-.2-.1l-.3-.1c-1.3-.4-2.5-.9-3.6-1.4-4-1.7-7-3.7-9.3-5.8-2-1.9-3.4-4.3-4.2-7.3-.5-1.4-.8-3-.9-4.7-.3-3.1-.2-5.8.4-8.1.1-.3.1-.7.3-1 .4-1.2.9-2.3 1.5-3.4 1.2-2 2.9-3.5 5-4.4l.2-.1c1.2-.5 2.5-.8 3.9-.9 2.1-.2 4 0 5.8.7h.1c2 .8 3.8 2.1 5.3 4.1 1.6 2.1 2.9 4.7 3.9 8 .7 2.5 1.3 5.3 1.6 8.5l31.4-3.7z"/><path class="st4" d="M388 280.6l5 4.2c-4.4 5.2-9.1 10.2-14.2 14.9l-2.4-3.1c4.1-4.9 8-10.3 11.6-16zM369.2 58.2l-6.3 8c-4.6-4.5-9.4-8.6-14.5-12.4l3.7-7.3c6 3.5 11.7 7.4 17.1 11.7zM370 303.8l1.6 2c-5.1 4.1-10.4 7.9-15.8 11.2 5-4 9.7-8.4 14.2-13.2zM343.9 42l-3.2 6.4c-5.2-3.5-10.7-6.6-16.3-9.4l1.4-4.8c6.2 2.2 12.3 4.8 18.1 7.8zM316.8 31.4l-1.1 3.7c-6.2-2.5-12.5-4.6-19-6.2l.1-1.6c6.9.9 13.6 2.2 20 4.1zM310.4 148.6v.3l-31.4 3.2c-.3-3.2-.9-6-1.6-8.5-.9-3.3-2.2-5.9-3.9-8-1.5-2-3.3-3.3-5.3-4.1 0-.1-.1 0-.1 0-1.7-.7-3.7-.9-5.8-.7-1.4.1-2.7.5-3.9.9-.1 0-.1 0-.2.1-2.1.9-3.8 2.3-5 4.4-.6 1-1.1 2.1-1.5 3.4-.1.3-.2.6-.3 1-.6 2.3-.7 5-.4 8.1.2 1.7.5 3.3.9 4.7.9 3 2.3 5.4 4.2 7.3 2.2 2.1 5.3 4 9.3 5.8 1.2.5 2.4 1 3.6 1.4l.4.3v-.2c.1 0 .1 0 .2.1.7.3 1.5.5 2.2.9l3.2 1.2c.7.3 1.4.6 2.1.8l1.5.6.1.1v-.1c.4.2.9.4 1.3.5.2.1.4.1.5.2.4.1.8.3 1.1.5l.6.2c.4.2.8.3 1.3.5.2.1.4.1.6.3.6.2 1.2.5 1.7.7l.6.2c.1.1.3.1.5.2s.3.2.5.2l1.5.7.9.5 1.8.9c.7.4 1.5.8 2.2 1.3l.9.5c1 .6 2 1.3 2.9 1.9 1.1.7 2.1 1.5 3.1 2.3.2.1.4.3.5.4.3.2.6.5.8.7 1.8 1.6 3.5 3.4 5 5.2 1.1 1.4 2.1 2.8 3 4.3l1.2 2.1.2.4c1.5 3 2.8 6.3 3.6 10.1.1.3.1.6.2 1 .5 2 .8 4.2 1 6.5.2 2.1.3 4.1.3 6.1v1.8c-.1 4.4-.9 8.5-2.1 12.3-.5 1.3-.9 2.6-1.5 3.8-1.1 2.3-2.3 4.4-3.7 6.4-.7.9-1.3 1.8-2.1 2.7-.9 1.1-1.9 2-2.9 3-2.4 2.2-5.1 4.1-8 5.7-1.8 1-3.7 1.9-5.7 2.6-2.3.9-4.8 1.6-7.4 2.1l2.2 21.2-14.7 1.5-2.2-21.3h-1.3c-2-.1-4-.2-5.9-.5-3.2-.4-6.2-1.1-9.1-2.1-2-.7-4-1.5-5.8-2.4-2.9-1.4-5.5-3.1-7.9-5.2-.9-.8-1.8-1.6-2.7-2.5-.8-.8-1.6-1.7-2.4-2.6-2.1-2.5-3.9-5.2-5.5-8.2-.8-1.5-1.6-3.1-2.2-4.8-1.2-3-2.2-6.3-3-9.8-.4-2-.8-3.9-1.1-6-.1-.9-.2-1.8-.3-2.8l31.3-3.2c.3 3 .8 5.7 1.5 8.2 0 .1 0 .1.1.2 1.1 3.9 2.8 7.1 5 9.4l.5.5.5.5c2.4 2.2 5.3 3.5 8.6 3.9l.7.1c1.2.1 2.4.1 3.6 0 2.1-.2 3.9-.7 5.4-1.6l.5-.3c1.4-.8 2.6-2 3.6-3.4 1.9-2.7 2.7-6.1 2.6-10.3l-.1-1.8c-.5-4.6-1.7-8.3-3.7-11.1 0-.1-.1-.2-.2-.3-.3-.5-.7-.8-1-1.2-.6-.7-1.4-1.3-2.2-2-.8-.6-1.6-1.2-2.6-1.7-.2-.1-.4-.3-.7-.4-.7-.4-1.3-.7-2.1-1.1-.5-.2-1-.5-1.6-.7-.5-.2-1-.4-1.5-.7l-1.5-.6-1.5-.6-.4-.1c-1.2-.4-2.4-.8-3.5-1.3l-.7-.3-3.9-1.5-.3-.1c-2.2-.8-4.3-1.7-6.4-2.5l-2.4-1-.6-.3c-1.3-.6-2.5-1.2-3.7-1.8-3.2-1.7-6.2-3.6-8.9-5.7l-.6-.5-.4-.3c-3.3-2.7-6-5.9-8.3-9.5-.6-.9-1.1-1.8-1.6-2.8-1.6-3.2-2.9-6.8-3.8-11-.2-.9-.4-1.8-.5-2.8-.2-1.3-.4-2.6-.5-4-.2-2.4-.3-4.8-.3-7.1.1-2.1.3-4.1.6-6 .5-3.5 1.5-6.8 2.9-9.8.8-1.9 1.8-3.6 2.9-5.3.4-.7 1-1.5 1.5-2.2 1.4-1.9 2.9-3.6 4.6-5.2 1.7-1.6 3.5-3.1 5.5-4.4 2.5-1.7 5.3-3.1 8.3-4.3 1.6-.6 3.2-1.2 4.9-1.6l3.5-.9-2.3-22.3 14.8-1.5 2.3 22.7c2 .1 3.9.4 5.8.7 2.1.4 4 .9 5.9 1.5 3.2 1.1 6.2 2.5 9 4.4 1.4.8 2.6 1.8 3.9 2.9 1.3 1.1 2.5 2.3 3.7 3.6 1.3 1.5 2.6 3 3.7 4.6.6.9 1.2 1.7 1.7 2.6 2 3.3 3.7 7 4.9 11 .2.5.3.9.4 1.4 1 4.2 1.8 8.3 2.3 12.6zM278.9 171.5z"/><path class="st0" d="M281.4 206.4v.3l-.2-.7c0 .2.1.3.2.4z"/><path class="st4" d="M256.9 38.7l-5.1 5.5-7 9.8-6.9 9.6-8.5 11.9-6.1 8.5-8 11.1-5.7 7.9-6.3 8.9-5.5 7.7-6.6 9.3-5.5 7.7-6.2 8.8-5.7 8-8.9 12.5-6.3 8.8-11.6 16.3-5.2 7.3-4.4.5c-.2-2.2-.4-4.5-.5-6.7-.4-6.6-.4-13.2-.1-19.6.2-3.1.4-6.2.8-9.3.7-6.8 1.9-13.5 3.5-20 .7-3.1 1.6-6.1 2.5-9 1.8-5.9 3.9-11.6 6.4-17.1 1.3-2.9 2.6-5.7 4-8.4 3.1-6 6.7-11.8 10.5-17.2 1.8-2.5 3.7-5 5.7-7.4 4.1-4.9 8.4-9.6 13.1-13.8 2.3-2.1 4.7-4.1 7.1-6.1 5.3-4.2 10.9-7.9 16.8-11.1 2.7-1.5 5.5-2.9 8.4-4.2 5.1-2.3 10.5-4.3 15.9-5.8 3-.8 6-1.6 9.1-2.2 3.4-.7 6.9-1.2 10.5-1.6h.1c2-.4 3.8-.5 5.7-.6zM280.7 326.9l6.1 4.3c-1.8.3-3.7.5-5.5.7h-.1c-3.6.4-7.2.6-10.7.6-3.1 0-6.3-.1-9.4-.3-6.5-.5-12.8-1.5-19-3-3-.7-6-1.6-9-2.6-6.2-2-12.1-4.6-17.9-7.5-2.8-1.4-5.5-3-8.1-4.6-5.9-3.6-11.5-7.7-16.9-12.3-2.4-2-4.7-4.1-6.9-6.3-4.6-4.5-8.9-9.2-12.9-14.4-1.9-2.4-3.8-5-5.5-7.5-4.1-5.8-7.7-12.1-11-18.6-1.4-2.8-2.7-5.6-4-8.5-2.3-5.4-4.3-10.9-6.1-16.6-.9-3-1.7-6-2.5-9-1.6-6.5-2.8-13.1-3.6-20l-.3-2.6 4.4-.5 2.6 2.4 15.7 14.6 7.9 7.3 9.8 9 7.2 6.7 10.3 9.5 6.9 6.4 7.9 7.3 6.9 6.4 9.2 8.5 7.1 6.6 9.6 8.9 7.7 7.1 12.4 11.4 8.7 8.1 9 8.5zM269.6 167.9v.2l-.4-.3c.2 0 .3.1.4.1z"/></g><path class="st2" d="M322.5 275.2l51 51.1 96.3-96.3 23.9 23.8-117.9 118-74.9-75z"/></g></svg>