<?xml version="1.0" encoding="utf-8"?>
<!-- Generator: Adobe Illustrator 19.1.0, SVG Export Plug-In . SVG Version: 6.00 Build 0)  -->
<!DOCTYPE svg PUBLIC "-//W3C//DTD SVG 1.1//EN" "http://www.w3.org/Graphics/SVG/1.1/DTD/svg11.dtd">
<svg version="1.1" xmlns="http://www.w3.org/2000/svg" xmlns:xlink="http://www.w3.org/1999/xlink" x="0px" y="0px" width="556.5px"
	 height="122.8px" viewBox="0 0 556.5 122.8" style="enable-background:new 0 0 556.5 122.8;" xml:space="preserve">
<style type="text/css">
	.st0{fill:#FFFFFF;}
</style>
<g id="Layer_1">
</g>
<g id="Logo">
	<path class="st0" d="M58.9,5.7c-3.4,0-6.7,0.3-10,0.9c-3.3,0.6-6.5,1.6-9.5,2.8C25,15.2,13.6,27.1,8.7,42C6.9,47.2,6,52.9,6,58.7
		c0,5.9,0.9,11.5,2.7,16.8C13.6,90.3,25,102.3,39.5,108c3,1.2,6.2,2.1,9.5,2.8c3.2,0.6,6.6,0.9,10,0.9c29.3,0,53-23.7,53-53
		S88.2,5.7,58.9,5.7z M70.3,75.5L58.9,86.8l-10-10l-9.5-9.5l-8.6-8.6l8.6-8.6l9.5-9.5l10-10L70.3,42L87,58.7L70.3,75.5z"/>
	<g>
		<path class="st0" d="M161.3,23.7l6.7,48.3l23.4-48.3h21.8l-12.1,69.7h-16.5l3-17.1l7.1-31.5l-24.4,48.6h-10.9L151.5,43l-4.4,34.9
			l-2.7,15.5H128l12.1-69.7H161.3z"/>
		<path class="st0" d="M232.4,70.6l13.4-29h17.4l-30.3,59.5c-2.3,4.7-4.9,8.1-7.8,10.2c-3,2.1-6.5,3.1-10.6,3.1
			c-1.8,0-4.1-0.4-6.9-1.1l1.2-11.5h1.8c1.9,0,3.7-0.3,5.1-0.9c1.5-0.6,2.7-1.8,3.7-3.6l2.2-4.3l-8.3-51.4h16.3L232.4,70.6z"/>
		<path class="st0" d="M289.9,23.7l6.7,48.3l23.4-48.3h21.8l-12.1,69.7h-16.5l3-17.1l7.1-31.5l-24.4,48.6H288L280.1,43l-4.4,34.9
			L273,93.4h-16.4l12.1-69.7H289.9z"/>
		<path class="st0" d="M367.4,40.7c4.6,0.1,8.6,1.2,12,3.5c3.4,2.2,5.9,5.4,7.4,9.4c1.6,4,2.1,8.5,1.7,13.4l-0.1,1.1
			c-0.9,7.9-3.8,14.4-8.9,19.2c-5,4.9-11.2,7.3-18.6,7.1c-4.6-0.1-8.6-1.2-11.9-3.4c-3.3-2.2-5.8-5.3-7.4-9.3
			c-1.6-4-2.2-8.4-1.7-13.3c0.8-8.5,3.7-15.2,8.7-20.3C353.7,43,360,40.5,367.4,40.7z M355.7,68.3l-0.1,2.8
			c-0.4,7.1,1.7,10.7,6.5,10.8c6.2,0.2,9.8-4.8,10.8-15l0.2-4.3c0.1-2.9-0.5-5.2-1.6-6.9c-1.1-1.7-2.8-2.6-5-2.7
			c-2.9-0.1-5.3,1.1-7.2,3.6C357.4,59.1,356.2,63,355.7,68.3z"/>
		<path class="st0" d="M415.7,28.7l-2.2,12.9h8.3l-2,11.2h-8.3l-4,23.8c-0.2,1.6-0.1,2.9,0.3,3.7c0.4,0.8,1.5,1.3,3.2,1.3
			c0.7,0,2,0,4.1-0.2L414,93.1c-2.6,0.9-5.5,1.3-8.5,1.2c-4.9-0.1-8.5-1.5-11-4.3c-2.4-2.8-3.4-6.6-3-11.4l4.2-25.7h-6.4l1.9-11.2
			h6.4l2.2-12.9H415.7z"/>
		<path class="st0" d="M435.4,93.4h-15.8l9-51.8h15.8L435.4,93.4z M430,28.6c-0.1-2.3,0.8-4.3,2.5-5.8c1.7-1.6,3.8-2.3,6.2-2.3
			c2.5,0,4.5,0.7,6.1,2.1c1.6,1.4,2.5,3.2,2.6,5.5c0.1,2.4-0.8,4.3-2.4,5.9c-1.7,1.5-3.8,2.3-6.2,2.3c-2.4,0-4.4-0.7-6.1-2.1
			C431,32.7,430.1,30.9,430,28.6z"/>
		<path class="st0" d="M471.6,40.7c4.6,0.1,8.6,1.2,12,3.5c3.4,2.2,5.9,5.4,7.4,9.4c1.6,4,2.1,8.5,1.7,13.4l-0.1,1.1
			c-0.9,7.9-3.8,14.4-8.9,19.2c-5,4.9-11.2,7.3-18.6,7.1c-4.6-0.1-8.6-1.2-11.9-3.4c-3.3-2.2-5.8-5.3-7.4-9.3
			c-1.6-4-2.2-8.4-1.7-13.3c0.8-8.5,3.7-15.2,8.7-20.3C457.9,43,464.1,40.5,471.6,40.7z M459.9,68.3l-0.1,2.8
			c-0.4,7.1,1.7,10.7,6.5,10.8c6.2,0.2,9.8-4.8,10.8-15l0.2-4.3c0.1-2.9-0.5-5.2-1.6-6.9c-1.1-1.7-2.8-2.6-5-2.7
			c-2.9-0.1-5.3,1.1-7.2,3.6C461.6,59.1,460.4,63,459.9,68.3z"/>
		<path class="st0" d="M514.6,41.6l-1.1,6.2c4.1-4.9,9.1-7.3,15-7.2c4.8,0.1,8.4,1.9,10.7,5.3c2.3,3.5,3.2,8.4,2.6,14.9l-5.5,32.6
			h-15.8l5.5-32.7c0.1-1.1,0.2-2.1,0.1-3.1c-0.2-3-2-4.6-5.4-4.6c-2.8-0.1-5.3,1.2-7.6,3.7l-6.5,36.6h-15.7l9-51.8L514.6,41.6z"/>
	</g>
</g>
</svg>
