<?xml version="1.0" encoding="utf-8"?>
<!-- Generator: Adobe Illustrator 19.1.0, SVG Export Plug-In . SVG Version: 6.00 Build 0)  -->
<!DOCTYPE svg PUBLIC "-//W3C//DTD SVG 1.1//EN" "http://www.w3.org/Graphics/SVG/1.1/DTD/svg11.dtd">
<svg version="1.1" xmlns="http://www.w3.org/2000/svg" xmlns:xlink="http://www.w3.org/1999/xlink" x="0px" y="0px" width="317px"
	 height="322.9px" viewBox="0 0 317 322.9" style="enable-background:new 0 0 317 322.9;" xml:space="preserve">
<style type="text/css">
	.st0{fill:#016293;}
	.st1{fill:#9CBDD8;}
	.st2{fill:#9BD7D8;}
	.st3{fill:#016293;stroke:#016293;stroke-width:2.041;stroke-miterlimit:10;}
	.st4{fill:#FFFFFF;}
	.st5{fill:#231F20;}
	.st6{fill:#FFFFFF;stroke:#016293;stroke-width:1.0169;stroke-miterlimit:10;}
	.st7{fill:#FFFFFF;stroke:#016293;stroke-width:1.0185;stroke-miterlimit:10;}
	.st8{fill:#FFFFFF;stroke:#016293;stroke-width:1.0209;stroke-miterlimit:10;}
	.st9{fill:#016293;stroke:#FFFFFF;stroke-width:2;stroke-miterlimit:10;}
	.st10{fill:#016293;stroke:#FFFFFF;stroke-miterlimit:10;}
	.st11{fill:#FFFFFF;stroke:#016293;stroke-width:5.0184;stroke-miterlimit:10;}
	.st12{fill:none;stroke:#016293;stroke-width:3;stroke-miterlimit:10;}
	.st13{fill:#FFFFFF;stroke:#016293;stroke-width:3;stroke-miterlimit:10;}
	.st14{fill:#FFFFFF;stroke:#231F20;stroke-miterlimit:10;}
	.st15{fill:none;stroke:#231F20;stroke-miterlimit:10;}
	.st16{display:none;}
	.st17{display:inline;fill:#F26F6A;}
	.st18{fill:none;stroke:#9CBDD8;stroke-width:5.8821;stroke-miterlimit:10;}
	.st19{fill:#FFFFFF;stroke:#9CBDD8;stroke-width:5.8821;stroke-miterlimit:10;}
	.st20{fill:#9CBDD8;stroke:#FFFFFF;stroke-width:5.8821;stroke-miterlimit:10;}
	.st21{clip-path:url(#SVGID_2_);fill:#231F20;}
	.st22{clip-path:url(#SVGID_2_);fill:#046293;}
	.st23{clip-path:url(#SVGID_2_);fill:#9CBDD9;}
	.st24{clip-path:url(#SVGID_2_);fill:#9CD8D9;}
	.st25{clip-path:url(#SVGID_2_);fill:#FFFFFF;}
	.st26{clip-path:url(#SVGID_2_);}
	.st27{fill:#BDC4C9;}
	.st28{clip-path:url(#SVGID_2_);fill:none;stroke:#FFFFFF;stroke-width:0.809;stroke-miterlimit:10;}
	.st29{clip-path:url(#SVGID_2_);fill:none;stroke:#FFFFFF;stroke-width:0.453;stroke-miterlimit:10;}
	.st30{clip-path:url(#SVGID_2_);fill:none;stroke:#FFFFFF;stroke-width:0.535;stroke-miterlimit:10;}
	.st31{fill:#9CD8D9;}
	.st32{clip-path:url(#SVGID_4_);}
	.st33{clip-path:url(#SVGID_4_);fill:none;stroke:#231F20;stroke-width:0.689;stroke-miterlimit:10;}
	.st34{clip-path:url(#SVGID_4_);fill:none;stroke:#231F20;stroke-width:0.506;stroke-miterlimit:10;}
	.st35{fill:#066393;}
	.st36{fill:#9BD7D8;stroke:#016293;stroke-width:18.6809;stroke-miterlimit:10;}
	.st37{fill:#076393;}
	.st38{fill:none;stroke:#076393;stroke-width:3.5038;stroke-miterlimit:10;}
	.st39{fill:#FFFFFF;stroke:#076393;stroke-width:3.5038;stroke-miterlimit:10;}
	.st40{fill:#076393;stroke:#FFFFFF;stroke-width:3.5038;stroke-miterlimit:10;}
</style>
<g id="Layer_1">
</g>
<g id="Logo">
</g>
<g id="Layer_3">
</g>
<g id="Graphics">
	<g>
		<path class="st1" d="M202,130.1h17.9c4.2,0,7.7-3.4,7.7-7.7v-16.3c0-4.3-3.4-7.7-7.7-7.7H202c-4.3,0-7.7,3.4-7.7,7.7v16.3
			C194.3,126.6,197.7,130.1,202,130.1z"/>
		<path class="st1" d="M161.2,196.6c18.2,0,33-14.8,33-33.1c0-18.2-14.8-33-33-33c-18.3,0-33.1,14.8-33.1,33
			C128.2,181.8,143,196.6,161.2,196.6z"/>
		<path class="st1" d="M103.4,229.3h115.7c4.7,0,8.4-3.8,8.4-8.4v-70.8c0,0-12.2-0.4-15-0.1c1.1,4.2,1.6,8.6,1.6,13.1
			c0,29.2-23.7,52.9-52.9,52.9s-52.9-23.7-52.9-52.9c0-4.5,0.6-8.8,1.6-12.9h-15v70.8C94.9,225.6,98.7,229.3,103.4,229.3z"/>
		<path class="st1" d="M292,120.7l-88.9-88.9c-23.1-23.1-60.7-23.1-83.8,0l-88.9,88.9c-23.1,23.1-23.1,60.7,0,83.8l88.9,88.9
			c11.6,11.5,26.7,17.3,41.9,17.3c15.2,0,30.4-5.8,41.9-17.3l88.9-88.9c11.2-11.2,17.4-26.1,17.4-41.9
			C309.4,146.7,303.2,131.9,292,120.7z M246.7,228.6v1c0,10.7-8.7,19.4-19.5,19.4H95.3c-10.8,0-19.5-8.7-19.5-19.4v-1v-131
			c0-10.7,8.7-19.5,19.5-19.5h131.9c10.8,0,19.5,8.7,19.5,19.5V228.6z"/>
	</g>
</g>
<g id="Default_g_x2B__icon">
</g>
<g id="YouTube_Icon">
</g>
</svg>
