<svg xmlns="http://www.w3.org/2000/svg" width="507.3" height="496.9" viewBox="0 0 507.3 496.9"><style type="text/css">.st0{fill:#016293;} .st1{fill:#9CBDD8;} .st2{fill:#9BD7D8;} .st3{fill:#016293;stroke:#016293;stroke-width:2.041;stroke-miterlimit:10;} .st4{fill:#FFFFFF;} .st5{fill:#231F20;} .st6{fill:#FFFFFF;stroke:#016293;stroke-width:1.0169;stroke-miterlimit:10;} .st7{fill:#FFFFFF;stroke:#016293;stroke-width:1.0185;stroke-miterlimit:10;} .st8{fill:#FFFFFF;stroke:#016293;stroke-width:1.0209;stroke-miterlimit:10;} .st9{fill:#016293;stroke:#FFFFFF;stroke-width:2;stroke-miterlimit:10;} .st10{fill:#016293;stroke:#FFFFFF;stroke-miterlimit:10;} .st11{fill:#FFFFFF;stroke:#016293;stroke-width:5.0184;stroke-miterlimit:10;} .st12{fill:none;stroke:#016293;stroke-width:3;stroke-miterlimit:10;} .st13{fill:#FFFFFF;stroke:#016293;stroke-width:3;stroke-miterlimit:10;} .st14{fill:#FFFFFF;stroke:#231F20;stroke-miterlimit:10;} .st15{fill:none;stroke:#231F20;stroke-miterlimit:10;} .st16{display:none;} .st17{display:inline;fill:#F26F6A;} .st18{fill:none;stroke:#9CBDD8;stroke-width:5.8821;stroke-miterlimit:10;} .st19{fill:#FFFFFF;stroke:#9CBDD8;stroke-width:5.8821;stroke-miterlimit:10;} .st20{fill:#9CBDD8;stroke:#FFFFFF;stroke-width:5.8821;stroke-miterlimit:10;} .st21{clip-path:url(#SVGID_2_);fill:#231F20;} .st22{clip-path:url(#SVGID_2_);fill:#046293;} .st23{clip-path:url(#SVGID_2_);fill:#9CBDD9;} .st24{clip-path:url(#SVGID_2_);fill:#9CD8D9;} .st25{clip-path:url(#SVGID_2_);fill:#FFFFFF;} .st26{clip-path:url(#SVGID_2_);} .st27{fill:#BDC4C9;} .st28{clip-path:url(#SVGID_2_);fill:none;stroke:#FFFFFF;stroke-width:0.809;stroke-miterlimit:10;} .st29{clip-path:url(#SVGID_2_);fill:none;stroke:#FFFFFF;stroke-width:0.453;stroke-miterlimit:10;} .st30{clip-path:url(#SVGID_2_);fill:none;stroke:#FFFFFF;stroke-width:0.535;stroke-miterlimit:10;} .st31{fill:#9CD8D9;} .st32{clip-path:url(#SVGID_4_);} .st33{clip-path:url(#SVGID_4_);fill:none;stroke:#231F20;stroke-width:0.689;stroke-miterlimit:10;} .st34{clip-path:url(#SVGID_4_);fill:none;stroke:#231F20;stroke-width:0.506;stroke-miterlimit:10;} .st35{fill:#066393;} .st36{fill:#9BD7D8;stroke:#016293;stroke-width:18.6809;stroke-miterlimit:10;} .st37{fill:#076393;} .st38{fill:none;stroke:#076393;stroke-width:3.5038;stroke-miterlimit:10;} .st39{fill:#FFFFFF;stroke:#076393;stroke-width:3.5038;stroke-miterlimit:10;} .st40{fill:#076393;stroke:#FFFFFF;stroke-width:3.5038;stroke-miterlimit:10;}</style><g id="Logo"><g id="XMLID_4_"><path class="st4" d="M264.2 318.8z"/><path class="st0" d="M263.4 344.9v.2l-.1-.5c0 .2.1.2.1.3z"/><path class="st4" d="M257.6 315.6l-.2-.3.2.1v.2z"/></g><path class="st0" d="M359.4 178.6c2 .4 3.9.8 5.8 1.2.9-.4 1.7-.8 2.5-1.2h-8.3zM138.4 178.6h-1.8l1.2-.3c.3.1.4.2.6.3zM281.9 135.7v-9.3c2-.3 5.5-.9 9.8-1.9 18-2.8 31.9-2 34.7 1.1.1.1.5.5 0 2.1-2.4 8.1.1 15.5 6.8 20.3-7.4.1-15.5.7-24.2 1.9h-34.5c4.5-3.2 7.4-8.4 7.4-14.2zm-45.8-9.6c0-3.9 3.2-7.1 7.1-7.1h21.2c3.9 0 7.1 3.2 7.1 7.1v9.6c0 3.9-3.2 7.1-7.1 7.1h-21.2c-3.9 0-7.1-3.2-7.1-7.1v-9.6zm-56.5 1.6c-.5-1.6-.1-2 0-2.1 2.8-3 16.8-3.9 34.8-1.1 5.8 1.3 9.9 2 11.3 2.1v9.1c0 5.9 2.9 11.1 7.3 14.2h-22.1c-13.2-2.3-25.1-3.5-35.7-3.8 4.9-4.8 6.6-11.3 4.4-18.4zm73.9 66.2l-5.7 6.5-5.8 6.6-7.2 8.2-3.9 4.5v-.4l-51.6 58.9h.2l-4.6 5.3-9.9 11.2-4.3 4.8 80.3 91.6.9 1.1 5.8 6.6 6.1 6.9 5.5-6.3 7-7.9 9.6-10.9v.4l54.2-61.8h-.1l2.8-3.2 5.3-6 7.3-8.3 1.3-1.5-93.2-106.3zm35.8 81.8h-23.5c0-2.4-.2-4.5-.5-6.4-.4-2.5-1.2-4.6-2.2-6.2-1-1.6-2.2-2.7-3.6-3.4h-.1c-1.2-.6-2.6-1-4.2-1-1.1 0-2 .1-2.9.4h-.1c-1.6.5-3 1.5-4.1 2.9-.5.7-1 1.5-1.4 2.4l-.3.7c-.6 1.7-.9 3.7-.9 6 0 1.3.1 2.5.3 3.6.4 2.3 1.3 4.2 2.6 5.7 1.5 1.7 3.6 3.4 6.4 5 .8.5 1.7.9 2.6 1.4l.2.1s.1 0 .1.1l1.6.8c.8.4 1.5.7 2.2 1.1l1.5.8 1.1.6h.1l.9.5.4.2.8.4.4.2.9.5.4.2c.4.2.8.4 1.2.7l.4.2.3.2.3.2 1.1.6.6.4c.4.2.8.5 1.2.8l1.5 1.1c.2.1.4.3.6.5.7.5 1.4 1.1 2 1.7.7.6 1.4 1.3 2.1 2 .1.1.2.2.4.3l.6.6c1.2 1.3 2.3 2.8 3.3 4.3.7 1.1 1.3 2.2 1.9 3.4.3.5.5 1.1.8 1.7l.1.3c.9 2.3 1.6 4.9 1.9 7.8v.7c.2 1.5.3 3.2.3 4.9 0 1.5-.1 3.1-.2 4.5 0 .4-.1.9-.2 1.3-.4 3.3-1.3 6.3-2.5 9-.4.9-.9 1.8-1.4 2.7-1 1.6-2 3.1-3.3 4.5-.6.6-1.1 1.2-1.8 1.8-.7.7-1.5 1.4-2.4 2l-1.2.9c-1.6 1.1-3.3 2-5.1 2.7-1.4.6-2.9 1.1-4.4 1.5-1.8.5-3.7.8-5.6 1v15.9h-11v-16l-.9-.1c-1.5-.2-3-.5-4.4-.8-2.3-.6-4.5-1.3-6.6-2.2-1.5-.7-2.8-1.4-4.1-2.2-2-1.3-3.8-2.7-5.4-4.4l-.3-.3c-.5-.6-1.1-1.1-1.6-1.8l-1.5-2.1c-1.4-2-2.5-4.1-3.4-6.5-.5-1.2-.9-2.4-1.3-3.7-.7-2.3-1.2-4.8-1.4-7.5-.2-1.5-.3-3-.3-4.5v-2h23.4c0 2.3.2 4.3.5 6.2v.1c.5 3 1.6 5.5 3 7.4l.3.4.3.4c1.6 1.8 3.6 3 6.1 3.6.2 0 .4.1.5.1.9.2 1.8.2 2.7.2 1.5 0 2.9-.3 4.2-.8l.4-.2c1.1-.5 2.1-1.3 2.9-2.2 1.6-1.9 2.5-4.3 2.7-7.4v-1.4c0-3.5-.6-6.3-1.9-8.5v.2l-.1-.5c-.2-.4-.4-.7-.7-1-.4-.5-.9-1.1-1.5-1.6-.5-.5-1.1-1-1.8-1.5-.1-.1-.3-.2-.5-.3-.5-.3-.9-.6-1.4-1-.4-.2-.7-.4-1.1-.7-.3-.2-.7-.4-1.1-.6-.3-.2-.7-.4-1.1-.5-.3-.2-.7-.4-1.1-.5l-.3-.1c-.9-.4-1.7-.8-2.5-1.2-.2-.1-.4-.1-.5-.2-1-.5-1.9-.9-2.8-1.4-.1 0-.2-.1-.2-.1-1.6-.8-3.1-1.6-4.5-2.4l-1.7-.9-.4-.3c-.9-.5-1.8-1-2.6-1.6-2.3-1.5-4.3-3.1-6.1-4.9l-.4-.4-.3-.3c-2.2-2.3-4-4.8-5.4-7.7-.4-.7-.7-1.5-1-2.2-.8-1.9-1.3-4-1.7-6.3l-.3-2.1-.2-2.1c-.1-1-.1-2-.1-3 0-1.8.1-3.6.3-5.3.2-1.5.5-3 .9-4.4.7-2.5 1.6-4.9 2.9-7.1.7-1.3 1.6-2.5 2.5-3.7.4-.5.8-1 1.3-1.5l1-1.1c.9-.9 1.8-1.7 2.8-2.4 1.4-1.1 2.8-2 4.4-2.8 2-1 4.2-1.9 6.5-2.5 1.2-.3 2.5-.6 3.8-.8.9-.2 1.8-.3 2.7-.4v-16.7h11.1v17c1.5.2 2.9.6 4.2 1 1.5.4 2.9 1 4.3 1.6 2.2 1 4.3 2.2 6.1 3.8.1 0 .1.1.2.2.9.7 1.8 1.5 2.7 2.5.9.9 1.7 1.9 2.5 2.9.9 1.2 1.7 2.4 2.4 3.7l1.1 2.1c1.2 2.6 2.2 5.5 2.8 8.5l.2 1.1c.5 2.9.8 6 .8 9.2v-.3zm-35.8-81.8l-5.7 6.5-5.8 6.6-7.2 8.2-3.9 4.5v-.4l-51.6 58.9h.2l-4.6 5.3-9.9 11.2-4.3 4.8 80.3 91.6.9 1.1 5.8 6.6 6.1 6.9 5.5-6.3 7-7.9 9.6-10.9v.4l54.2-61.8h-.1l2.8-3.2 5.3-6 7.3-8.3 1.3-1.5-93.2-106.3zm35.8 81.8h-23.5c0-2.4-.2-4.5-.5-6.4-.4-2.5-1.2-4.6-2.2-6.2-1-1.6-2.2-2.7-3.6-3.4h-.1c-1.2-.6-2.6-1-4.2-1-1.1 0-2 .1-2.9.4h-.1c-1.6.5-3 1.5-4.1 2.9-.5.7-1 1.5-1.4 2.4l-.3.7c-.6 1.7-.9 3.7-.9 6 0 1.3.1 2.5.3 3.6.4 2.3 1.3 4.2 2.6 5.7 1.5 1.7 3.6 3.4 6.4 5 .8.5 1.7.9 2.6 1.4l.2.1s.1 0 .1.1l1.6.8c.8.4 1.5.7 2.2 1.1l1.5.8 1.1.6h.1l.9.5.4.2.8.4.4.2.9.5.4.2c.4.2.8.4 1.2.7l.4.2.3.2.3.2 1.1.6.6.4c.4.2.8.5 1.2.8l1.5 1.1c.2.1.4.3.6.5.7.5 1.4 1.1 2 1.7.7.6 1.4 1.3 2.1 2 .1.1.2.2.4.3l.6.6c1.2 1.3 2.3 2.8 3.3 4.3.7 1.1 1.3 2.2 1.9 3.4.3.5.5 1.1.8 1.7l.1.3c.9 2.3 1.6 4.9 1.9 7.8v.7c.2 1.5.3 3.2.3 4.9 0 1.5-.1 3.1-.2 4.5 0 .4-.1.9-.2 1.3-.4 3.3-1.3 6.3-2.5 9-.4.9-.9 1.8-1.4 2.7-1 1.6-2 3.1-3.3 4.5-.6.6-1.1 1.2-1.8 1.8-.7.7-1.5 1.4-2.4 2l-1.2.9c-1.6 1.1-3.3 2-5.1 2.7-1.4.6-2.9 1.1-4.4 1.5-1.8.5-3.7.8-5.6 1v15.9h-11v-16l-.9-.1c-1.5-.2-3-.5-4.4-.8-2.3-.6-4.5-1.3-6.6-2.2-1.5-.7-2.8-1.4-4.1-2.2-2-1.3-3.8-2.7-5.4-4.4l-.3-.3c-.5-.6-1.1-1.1-1.6-1.8l-1.5-2.1c-1.4-2-2.5-4.1-3.4-6.5-.5-1.2-.9-2.4-1.3-3.7-.7-2.3-1.2-4.8-1.4-7.5-.2-1.5-.3-3-.3-4.5v-2h23.4c0 2.3.2 4.3.5 6.2v.1c.5 3 1.6 5.5 3 7.4l.3.4.3.4c1.6 1.8 3.6 3 6.1 3.6.2 0 .4.1.5.1.9.2 1.8.2 2.7.2 1.5 0 2.9-.3 4.2-.8l.4-.2c1.1-.5 2.1-1.3 2.9-2.2 1.6-1.9 2.5-4.3 2.7-7.4v-1.4c0-3.5-.6-6.3-1.9-8.5v.2l-.1-.5c-.2-.4-.4-.7-.7-1-.4-.5-.9-1.1-1.5-1.6-.5-.5-1.1-1-1.8-1.5-.1-.1-.3-.2-.5-.3-.5-.3-.9-.6-1.4-1-.4-.2-.7-.4-1.1-.7-.3-.2-.7-.4-1.1-.6-.3-.2-.7-.4-1.1-.5-.3-.2-.7-.4-1.1-.5l-.3-.1c-.9-.4-1.7-.8-2.5-1.2-.2-.1-.4-.1-.5-.2-1-.5-1.9-.9-2.8-1.4-.1 0-.2-.1-.2-.1-1.6-.8-3.1-1.6-4.5-2.4l-1.7-.9-.4-.3c-.9-.5-1.8-1-2.6-1.6-2.3-1.5-4.3-3.1-6.1-4.9l-.4-.4-.3-.3c-2.2-2.3-4-4.8-5.4-7.7-.4-.7-.7-1.5-1-2.2-.8-1.9-1.3-4-1.7-6.3l-.3-2.1-.2-2.1c-.1-1-.1-2-.1-3 0-1.8.1-3.6.3-5.3.2-1.5.5-3 .9-4.4.7-2.5 1.6-4.9 2.9-7.1.7-1.3 1.6-2.5 2.5-3.7.4-.5.8-1 1.3-1.5l1-1.1c.9-.9 1.8-1.7 2.8-2.4 1.4-1.1 2.8-2 4.4-2.8 2-1 4.2-1.9 6.5-2.5 1.2-.3 2.5-.6 3.8-.8.9-.2 1.8-.3 2.7-.4v-16.7h11.1v17c1.5.2 2.9.6 4.2 1 1.5.4 2.9 1 4.3 1.6 2.2 1 4.3 2.2 6.1 3.8.1 0 .1.1.2.2.9.7 1.8 1.5 2.7 2.5.9.9 1.7 1.9 2.5 2.9.9 1.2 1.7 2.4 2.4 3.7l1.1 2.1c1.2 2.6 2.2 5.5 2.8 8.5l.2 1.1c.5 2.9.8 6 .8 9.2v-.3zm-35.8-81.8l-5.7 6.5-5.8 6.6-7.2 8.2-3.9 4.5v-.4l-51.6 58.9h.2l-4.6 5.3-9.9 11.2-4.3 4.8 80.3 91.6.9 1.1 5.8 6.6 6.1 6.9 5.5-6.3 7-7.9 9.6-10.9v.4l54.2-61.8h-.1l2.8-3.2 5.3-6 7.3-8.3 1.3-1.5-93.2-106.3zm35.8 81.8h-23.5c0-2.4-.2-4.5-.5-6.4-.4-2.5-1.2-4.6-2.2-6.2-1-1.6-2.2-2.7-3.6-3.4h-.1c-1.2-.6-2.6-1-4.2-1-1.1 0-2 .1-2.9.4h-.1c-1.6.5-3 1.5-4.1 2.9-.5.7-1 1.5-1.4 2.4l-.3.7c-.6 1.7-.9 3.7-.9 6 0 1.3.1 2.5.3 3.6.4 2.3 1.3 4.2 2.6 5.7 1.5 1.7 3.6 3.4 6.4 5 .8.5 1.7.9 2.6 1.4l.2.1s.1 0 .1.1l1.6.8c.8.4 1.5.7 2.2 1.1l1.5.8 1.1.6h.1l.9.5.4.2.8.4.4.2.9.5.4.2c.4.2.8.4 1.2.7l.4.2.3.2.3.2 1.1.6.6.4c.4.2.8.5 1.2.8l1.5 1.1c.2.1.4.3.6.5.7.5 1.4 1.1 2 1.7.7.6 1.4 1.3 2.1 2 .1.1.2.2.4.3l.6.6c1.2 1.3 2.3 2.8 3.3 4.3.7 1.1 1.3 2.2 1.9 3.4.3.5.5 1.1.8 1.7l.1.3c.9 2.3 1.6 4.9 1.9 7.8v.7c.2 1.5.3 3.2.3 4.9 0 1.5-.1 3.1-.2 4.5 0 .4-.1.9-.2 1.3-.4 3.3-1.3 6.3-2.5 9-.4.9-.9 1.8-1.4 2.7-1 1.6-2 3.1-3.3 4.5-.6.6-1.1 1.2-1.8 1.8-.7.7-1.5 1.4-2.4 2l-1.2.9c-1.6 1.1-3.3 2-5.1 2.7-1.4.6-2.9 1.1-4.4 1.5-1.8.5-3.7.8-5.6 1v15.9h-11v-16l-.9-.1c-1.5-.2-3-.5-4.4-.8-2.3-.6-4.5-1.3-6.6-2.2-1.5-.7-2.8-1.4-4.1-2.2-2-1.3-3.8-2.7-5.4-4.4l-.3-.3c-.5-.6-1.1-1.1-1.6-1.8l-1.5-2.1c-1.4-2-2.5-4.1-3.4-6.5-.5-1.2-.9-2.4-1.3-3.7-.7-2.3-1.2-4.8-1.4-7.5-.2-1.5-.3-3-.3-4.5v-2h23.4c0 2.3.2 4.3.5 6.2v.1c.5 3 1.6 5.5 3 7.4l.3.4.3.4c1.6 1.8 3.6 3 6.1 3.6.2 0 .4.1.5.1.9.2 1.8.2 2.7.2 1.5 0 2.9-.3 4.2-.8l.4-.2c1.1-.5 2.1-1.3 2.9-2.2 1.6-1.9 2.5-4.3 2.7-7.4v-1.4c0-3.5-.6-6.3-1.9-8.5v.2l-.1-.5c-.2-.4-.4-.7-.7-1-.4-.5-.9-1.1-1.5-1.6-.5-.5-1.1-1-1.8-1.5-.1-.1-.3-.2-.5-.3-.5-.3-.9-.6-1.4-1-.4-.2-.7-.4-1.1-.7-.3-.2-.7-.4-1.1-.6-.3-.2-.7-.4-1.1-.5-.3-.2-.7-.4-1.1-.5l-.3-.1c-.9-.4-1.7-.8-2.5-1.2-.2-.1-.4-.1-.5-.2-1-.5-1.9-.9-2.8-1.4-.1 0-.2-.1-.2-.1-1.6-.8-3.1-1.6-4.5-2.4l-1.7-.9-.4-.3c-.9-.5-1.8-1-2.6-1.6-2.3-1.5-4.3-3.1-6.1-4.9l-.4-.4-.3-.3c-2.2-2.3-4-4.8-5.4-7.7-.4-.7-.7-1.5-1-2.2-.8-1.9-1.3-4-1.7-6.3l-.3-2.1-.2-2.1c-.1-1-.1-2-.1-3 0-1.8.1-3.6.3-5.3.2-1.5.5-3 .9-4.4.7-2.5 1.6-4.9 2.9-7.1.7-1.3 1.6-2.5 2.5-3.7.4-.5.8-1 1.3-1.5l1-1.1c.9-.9 1.8-1.7 2.8-2.4 1.4-1.1 2.8-2 4.4-2.8 2-1 4.2-1.9 6.5-2.5 1.2-.3 2.5-.6 3.8-.8.9-.2 1.8-.3 2.7-.4v-16.7h11.1v17c1.5.2 2.9.6 4.2 1 1.5.4 2.9 1 4.3 1.6 2.2 1 4.3 2.2 6.1 3.8.1 0 .1.1.2.2.9.7 1.8 1.5 2.7 2.5.9.9 1.7 1.9 2.5 2.9.9 1.2 1.7 2.4 2.4 3.7l1.1 2.1c1.2 2.6 2.2 5.5 2.8 8.5l.2 1.1c.5 2.9.8 6 .8 9.2v-.3zm-35.8-81.8l-5.7 6.5-5.8 6.6-7.2 8.2-3.9 4.5v-.4l-51.6 58.9h.2l-4.6 5.3-9.9 11.2-4.3 4.8 80.3 91.6.9 1.1 5.8 6.6 6.1 6.9 5.5-6.3 7-7.9 9.6-10.9v.4l54.2-61.8h-.1l2.8-3.2 5.3-6 7.3-8.3 1.3-1.5-93.2-106.3zm35.8 81.8h-23.5c0-2.4-.2-4.5-.5-6.4-.4-2.5-1.2-4.6-2.2-6.2-1-1.6-2.2-2.7-3.6-3.4h-.1c-1.2-.6-2.6-1-4.2-1-1.1 0-2 .1-2.9.4h-.1c-1.6.5-3 1.5-4.1 2.9-.5.7-1 1.5-1.4 2.4l-.3.7c-.6 1.7-.9 3.7-.9 6 0 1.3.1 2.5.3 3.6.4 2.3 1.3 4.2 2.6 5.7 1.5 1.7 3.6 3.4 6.4 5 .8.5 1.7.9 2.6 1.4l.2.1s.1 0 .1.1l1.6.8c.8.4 1.5.7 2.2 1.1l1.5.8 1.1.6h.1l.9.5.4.2.8.4.4.2.9.5.4.2c.4.2.8.4 1.2.7l.4.2.3.2.3.2 1.1.6.6.4c.4.2.8.5 1.2.8l1.5 1.1c.2.1.4.3.6.5.7.5 1.4 1.1 2 1.7.7.6 1.4 1.3 2.1 2 .1.1.2.2.4.3l.6.6c1.2 1.3 2.3 2.8 3.3 4.3.7 1.1 1.3 2.2 1.9 3.4.3.5.5 1.1.8 1.7l.1.3c.9 2.3 1.6 4.9 1.9 7.8v.7c.2 1.5.3 3.2.3 4.9 0 1.5-.1 3.1-.2 4.5 0 .4-.1.9-.2 1.3-.4 3.3-1.3 6.3-2.5 9-.4.9-.9 1.8-1.4 2.7-1 1.6-2 3.1-3.3 4.5-.6.6-1.1 1.2-1.8 1.8-.7.7-1.5 1.4-2.4 2l-1.2.9c-1.6 1.1-3.3 2-5.1 2.7-1.4.6-2.9 1.1-4.4 1.5-1.8.5-3.7.8-5.6 1v15.9h-11v-16l-.9-.1c-1.5-.2-3-.5-4.4-.8-2.3-.6-4.5-1.3-6.6-2.2-1.5-.7-2.8-1.4-4.1-2.2-2-1.3-3.8-2.7-5.4-4.4l-.3-.3c-.5-.6-1.1-1.1-1.6-1.8l-1.5-2.1c-1.4-2-2.5-4.1-3.4-6.5-.5-1.2-.9-2.4-1.3-3.7-.7-2.3-1.2-4.8-1.4-7.5-.2-1.5-.3-3-.3-4.5v-2h23.4c0 2.3.2 4.3.5 6.2v.1c.5 3 1.6 5.5 3 7.4l.3.4.3.4c1.6 1.8 3.6 3 6.1 3.6.2 0 .4.1.5.1.9.2 1.8.2 2.7.2 1.5 0 2.9-.3 4.2-.8l.4-.2c1.1-.5 2.1-1.3 2.9-2.2 1.6-1.9 2.5-4.3 2.7-7.4v-1.4c0-3.5-.6-6.3-1.9-8.5v.2l-.1-.5c-.2-.4-.4-.7-.7-1-.4-.5-.9-1.1-1.5-1.6-.5-.5-1.1-1-1.8-1.5-.1-.1-.3-.2-.5-.3-.5-.3-.9-.6-1.4-1-.4-.2-.7-.4-1.1-.7-.3-.2-.7-.4-1.1-.6-.3-.2-.7-.4-1.1-.5-.3-.2-.7-.4-1.1-.5l-.3-.1c-.9-.4-1.7-.8-2.5-1.2-.2-.1-.4-.1-.5-.2-1-.5-1.9-.9-2.8-1.4-.1 0-.2-.1-.2-.1-1.6-.8-3.1-1.6-4.5-2.4l-1.7-.9-.4-.3c-.9-.5-1.8-1-2.6-1.6-2.3-1.5-4.3-3.1-6.1-4.9l-.4-.4-.3-.3c-2.2-2.3-4-4.8-5.4-7.7-.4-.7-.7-1.5-1-2.2-.8-1.9-1.3-4-1.7-6.3l-.3-2.1-.2-2.1c-.1-1-.1-2-.1-3 0-1.8.1-3.6.3-5.3.2-1.5.5-3 .9-4.4.7-2.5 1.6-4.9 2.9-7.1.7-1.3 1.6-2.5 2.5-3.7.4-.5.8-1 1.3-1.5l1-1.1c.9-.9 1.8-1.7 2.8-2.4 1.4-1.1 2.8-2 4.4-2.8 2-1 4.2-1.9 6.5-2.5 1.2-.3 2.5-.6 3.8-.8.9-.2 1.8-.3 2.7-.4v-16.7h11.1v17c1.5.2 2.9.6 4.2 1 1.5.4 2.9 1 4.3 1.6 2.2 1 4.3 2.2 6.1 3.8.1 0 .1.1.2.2.9.7 1.8 1.5 2.7 2.5.9.9 1.7 1.9 2.5 2.9.9 1.2 1.7 2.4 2.4 3.7l1.1 2.1c1.2 2.6 2.2 5.5 2.8 8.5l.2 1.1c.5 2.9.8 6 .8 9.2v-.3zm170.7-131.4c-7 4.1-24 11.5-31.8 8.1-1.4-.7-3.4-2-4.3-6.5-3.7-18.9-18.5-28.8-31.5-30.2-9.5-1-17.2 2.5-20.1 9.3-1.3 3-6.4 11.1-9.4 13.8-4.7 4.1-16.6 3.5-22 0-3.1-2-3.9-4.2-2.9-7.6 1.6-5.3.6-10.2-2.7-13.7-2.1-2.3-5-3.9-8.9-5 11.6-5.9 22.6-14.1 29-25.2 7.4-12.9 7.7-27.7 1-44-8-19.2-17.7-28.5-29-27.9-13.8.8-27.4 16.6-41.5 48.4-9.8 22-16.1 43.5-16.4 44.4l11.5 3.4c.1-.2 6.4-21.6 15.8-42.9 16.2-36.6 27.2-41 31.1-41.2 5.6-.3 11.7 7 17.3 20.5 5.3 12.8 5.2 23.8-.3 33.4-7.8 13.5-25.1 21.9-38.4 26.6-7.1 2.5-13.7 4.2-18.8 5.3-5.7.9-9.6 1.8-9.9 1.8v.1c-3.2-3.9-8.1-6.4-13.6-6.4h-21.2c-6.8 0-12.7 3.9-15.6 9.6l.6-3.3c-.3-.1-4.2-.9-9.9-1.8-5.1-1.1-11.7-2.8-18.8-5.3-13.2-4.7-30.6-13-38.4-26.6-5.5-9.6-5.6-20.5-.3-33.4 5.6-13.6 11.8-20.8 17.3-20.5 4 .2 14.9 4.7 31.1 41.1 9.5 21.3 15.8 42.8 15.8 43l11.5-3.4c-.3-.9-6.6-22.4-16.4-44.4-14.1-31.8-27.6-47.6-41.4-48.4-11.3-.6-21.1 8.8-29 27.9-6.8 16.3-6.5 31.1 1 44 6.4 11.2 17.4 19.3 29 25.2-3.9 1.1-6.8 2.8-8.9 5-3.3 3.6-4.3 8.4-2.7 13.7 1 3.4.1 5.7-2.9 7.6-5.4 3.5-17.3 4.1-22 0-3-2.6-8-10.7-9.4-13.8-2.9-6.8-10.7-10.3-20.1-9.3-13 1.4-27.8 11.3-31.5 30.2-.9 4.5-2.9 5.8-4.3 6.5-7.5 3.4-23.5-3.2-31.8-8l-5.9 10.2c2.2 1.3 18.5 10.6 32.8 10.6 3.5 0 6.9-.6 10-1.9 4.1-1.9 9.4-6 11.2-15.2 2.5-12.9 12.4-19.6 21-20.6 3.8-.4 7.1.5 7.8 2.2 1.7 3.9 7.6 13.7 12.4 18 .8.7 1.7 1.3 2.6 1.9l.6.3h-1.8c-16.6 4.5-27.7 12.8-34.8 22.9-20.7 29.6-7.8 75.6-.6 95.5v52.1s-8.1 26.8-9.4 38.4c-4 35.4.5 59.5 10 75.5 6.5 11.1 15.3 18.3 25.3 22.8 24.1 10.9 54.9 6 76.1.1h97.8c21.4 5.8 52.5 10.7 76.9 0h2.1c15.8 0 28.6-12.8 28.6-28.6v-3.6c8.8-21.3 10.5-53.3 0-100.8v-75.9c4.1-17.9 6.5-40.4 0-59.6-5.8-17.1-18.6-31.5-43.6-37.6-1.9-.5-3.8-.9-5.8-1.2h8.2c1.2-.7 2.2-1.4 3.2-2.2 4.8-4.3 10.8-14.1 12.4-18 .7-1.7 4-2.6 7.8-2.2 8.7 1 18.5 7.7 21 20.6 1.8 9.2 7.1 13.3 11.2 15.2 3 1.4 6.5 1.9 10 1.9 14.4 0 30.6-9.3 32.8-10.6l-5.8-10.3zm-56.6 135.8v39h-65.4l-62.1 70.9v62.6h-48v-67.3l-56.9-64.9h-65v-42.3h65.3l59.6-68v-56.7h45.8v57.8l60.4 68.9h66.3zm-155.6-79.8l-5.8 6.6-7.2 8.2-3.9 4.5v-.4l-51.6 58.9h.2l-4.6 5.3-9.9 11.2-4.3 4.8 80.3 91.6.9 1.1 5.8 6.6 6.1 6.9 5.5-6.3 7-7.9 9.6-10.9v.4l54.2-61.8h-.1l2.8-3.2 5.3-6 7.3-8.3 1.3-1.5-93.1-106.2-5.8 6.4zm18.5 39.7c1.5.4 2.9 1 4.3 1.6 2.2 1 4.3 2.2 6.1 3.8.1 0 .1.1.2.2.9.7 1.8 1.5 2.7 2.5.9.9 1.7 1.9 2.5 2.9.9 1.2 1.7 2.4 2.4 3.7l1.1 2.1c1.2 2.6 2.2 5.5 2.8 8.5l.2 1.1c.5 2.9.8 6 .8 9.2v.2h-23.5c0-2.4-.2-4.5-.5-6.4-.4-2.5-1.2-4.6-2.2-6.2-1-1.6-2.2-2.7-3.6-3.4h-.1c-1.2-.6-2.6-1-4.2-1-1.1 0-2 .1-2.9.4h-.1c-1.6.5-3 1.5-4.1 2.9-.5.7-1 1.5-1.4 2.4l-.3.7c-.6 1.7-.9 3.7-.9 6 0 1.3.1 2.5.3 3.6.4 2.3 1.3 4.2 2.6 5.7 1.5 1.7 3.6 3.4 6.4 5 .8.5 1.7.9 2.6 1.4l.2.1s.1 0 .1.1l1.6.8c.8.4 1.5.7 2.2 1.1l1.5.8 1.1.6h.1l.9.5.4.2.8.4.4.2.9.5.4.2c.4.2.8.4 1.2.7l.4.2.3.2.3.2 1.1.6.6.4c.4.2.8.5 1.2.8l1.5 1.1c.2.1.4.3.6.5.7.5 1.4 1.1 2 1.7.7.6 1.4 1.3 2.1 2 .1.1.2.2.4.3l.6.6c1.2 1.3 2.3 2.8 3.3 4.3.7 1.1 1.3 2.2 1.9 3.4.3.5.5 1.1.8 1.7l.1.3c.9 2.3 1.6 4.9 1.9 7.8v.7c.2 1.5.3 3.2.3 4.9 0 1.5-.1 3.1-.2 4.5 0 .4-.1.9-.2 1.3-.4 3.3-1.3 6.3-2.5 9-.4.9-.9 1.8-1.4 2.7-1 1.6-2 3.1-3.3 4.5-.6.6-1.1 1.2-1.8 1.8-.7.7-1.5 1.4-2.4 2l-1.2.9c-1.6 1.1-3.3 2-5.1 2.7-1.4.6-2.9 1.1-4.4 1.5-1.8.5-3.7.8-5.6 1v15.9h-11v-16l-.9-.1c-1.5-.2-3-.5-4.4-.8-2.3-.6-4.5-1.3-6.6-2.2-1.5-.7-2.8-1.4-4.1-2.2-2-1.3-3.8-2.7-5.4-4.4l-.3-.3c-.5-.6-1.1-1.1-1.6-1.8l-1.5-2.1c-1.4-2-2.5-4.1-3.4-6.5-.5-1.2-.9-2.4-1.3-3.7-.7-2.3-1.2-4.8-1.4-7.5-.2-1.5-.3-3-.3-4.5v-2h23.4c0 2.3.2 4.3.5 6.2v.1c.5 3 1.6 5.5 3 7.4l.3.4.3.4c1.6 1.8 3.6 3 6.1 3.6.2 0 .4.1.5.1.9.2 1.8.2 2.7.2 1.5 0 2.9-.3 4.2-.8l.4-.2c1.1-.5 2.1-1.3 2.9-2.2 1.6-1.9 2.5-4.3 2.7-7.4v-1.4c0-3.5-.6-6.3-1.9-8.5v.2l-.1-.5c-.2-.4-.4-.7-.7-1-.4-.5-.9-1.1-1.5-1.6-.5-.5-1.1-1-1.8-1.5-.1-.1-.3-.2-.5-.3-.5-.3-.9-.6-1.4-1-.4-.2-.7-.4-1.1-.7-.3-.2-.7-.4-1.1-.6-.3-.2-.7-.4-1.1-.5-.3-.2-.7-.4-1.1-.5l-.3-.1c-.9-.4-1.7-.8-2.5-1.2-.2-.1-.4-.1-.5-.2-1-.5-1.9-.9-2.8-1.4-.1 0-.2-.1-.2-.1-1.6-.8-3.1-1.6-4.5-2.4l-1.7-.9-.4-.3c-.9-.5-1.8-1-2.6-1.6-2.3-1.5-4.3-3.1-6.1-4.9l-.4-.4-.3-.3c-2.2-2.3-4-4.8-5.4-7.7-.4-.7-.7-1.5-1-2.2-.8-1.9-1.3-4-1.7-6.3l-.3-2.1-.2-2.1c-.1-1-.1-2-.1-3 0-1.8.1-3.6.3-5.3.2-1.5.5-3 .9-4.4.7-2.5 1.6-4.9 2.9-7.1.7-1.3 1.6-2.5 2.5-3.7.4-.5.8-1 1.3-1.5l1-1.1c.9-.9 1.8-1.7 2.8-2.4 1.4-1.1 2.8-2 4.4-2.8 2-1 4.2-1.9 6.5-2.5 1.2-.3 2.5-.6 3.8-.8.9-.2 1.8-.3 2.7-.4v-16.7h11.1v17c1.2-.2 2.6.1 4 .5zm-12.8-46.1l-5.7 6.5-5.8 6.6-7.2 8.2-3.9 4.5v-.4l-51.6 58.9h.2l-4.6 5.3-9.9 11.2-4.3 4.8 80.3 91.6.9 1.1 5.8 6.6 6.1 6.9 5.5-6.3 7-7.9 9.6-10.9v.4l54.2-61.8h-.1l2.8-3.2 5.3-6 7.3-8.3 1.3-1.5-93.2-106.3zm35.8 81.8h-23.5c0-2.4-.2-4.5-.5-6.4-.4-2.5-1.2-4.6-2.2-6.2-1-1.6-2.2-2.7-3.6-3.4h-.1c-1.2-.6-2.6-1-4.2-1-1.1 0-2 .1-2.9.4h-.1c-1.6.5-3 1.5-4.1 2.9-.5.7-1 1.5-1.4 2.4l-.3.7c-.6 1.7-.9 3.7-.9 6 0 1.3.1 2.5.3 3.6.4 2.3 1.3 4.2 2.6 5.7 1.5 1.7 3.6 3.4 6.4 5 .8.5 1.7.9 2.6 1.4l.2.1s.1 0 .1.1l1.6.8c.8.4 1.5.7 2.2 1.1l1.5.8 1.1.6h.1l.9.5.4.2.8.4.4.2.9.5.4.2c.4.2.8.4 1.2.7l.4.2.3.2.3.2 1.1.6.6.4c.4.2.8.5 1.2.8l1.5 1.1c.2.1.4.3.6.5.7.5 1.4 1.1 2 1.7.7.6 1.4 1.3 2.1 2 .1.1.2.2.4.3l.6.6c1.2 1.3 2.3 2.8 3.3 4.3.7 1.1 1.3 2.2 1.9 3.4.3.5.5 1.1.8 1.7l.1.3c.9 2.3 1.6 4.9 1.9 7.8v.7c.2 1.5.3 3.2.3 4.9 0 1.5-.1 3.1-.2 4.5 0 .4-.1.9-.2 1.3-.4 3.3-1.3 6.3-2.5 9-.4.9-.9 1.8-1.4 2.7-1 1.6-2 3.1-3.3 4.5-.6.6-1.1 1.2-1.8 1.8-.7.7-1.5 1.4-2.4 2l-1.2.9c-1.6 1.1-3.3 2-5.1 2.7-1.4.6-2.9 1.1-4.4 1.5-1.8.5-3.7.8-5.6 1v15.9h-11v-16l-.9-.1c-1.5-.2-3-.5-4.4-.8-2.3-.6-4.5-1.3-6.6-2.2-1.5-.7-2.8-1.4-4.1-2.2-2-1.3-3.8-2.7-5.4-4.4l-.3-.3c-.5-.6-1.1-1.1-1.6-1.8l-1.5-2.1c-1.4-2-2.5-4.1-3.4-6.5-.5-1.2-.9-2.4-1.3-3.7-.7-2.3-1.2-4.8-1.4-7.5-.2-1.5-.3-3-.3-4.5v-2h23.4c0 2.3.2 4.3.5 6.2v.1c.5 3 1.6 5.5 3 7.4l.3.4.3.4c1.6 1.8 3.6 3 6.1 3.6.2 0 .4.1.5.1.9.2 1.8.2 2.7.2 1.5 0 2.9-.3 4.2-.8l.4-.2c1.1-.5 2.1-1.3 2.9-2.2 1.6-1.9 2.5-4.3 2.7-7.4v-1.4c0-3.5-.6-6.3-1.9-8.5v.2l-.1-.5c-.2-.4-.4-.7-.7-1-.4-.5-.9-1.1-1.5-1.6-.5-.5-1.1-1-1.8-1.5-.1-.1-.3-.2-.5-.3-.5-.3-.9-.6-1.4-1-.4-.2-.7-.4-1.1-.7-.3-.2-.7-.4-1.1-.6-.3-.2-.7-.4-1.1-.5-.3-.2-.7-.4-1.1-.5l-.3-.1c-.9-.4-1.7-.8-2.5-1.2-.2-.1-.4-.1-.5-.2-1-.5-1.9-.9-2.8-1.4-.1 0-.2-.1-.2-.1-1.6-.8-3.1-1.6-4.5-2.4l-1.7-.9-.4-.3c-.9-.5-1.8-1-2.6-1.6-2.3-1.5-4.3-3.1-6.1-4.9l-.4-.4-.3-.3c-2.2-2.3-4-4.8-5.4-7.7-.4-.7-.7-1.5-1-2.2-.8-1.9-1.3-4-1.7-6.3l-.3-2.1-.2-2.1c-.1-1-.1-2-.1-3 0-1.8.1-3.6.3-5.3.2-1.5.5-3 .9-4.4.7-2.5 1.6-4.9 2.9-7.1.7-1.3 1.6-2.5 2.5-3.7.4-.5.8-1 1.3-1.5l1-1.1c.9-.9 1.8-1.7 2.8-2.4 1.4-1.1 2.8-2 4.4-2.8 2-1 4.2-1.9 6.5-2.5 1.2-.3 2.5-.6 3.8-.8.9-.2 1.8-.3 2.7-.4v-16.7h11.1v17c1.5.2 2.9.6 4.2 1 1.5.4 2.9 1 4.3 1.6 2.2 1 4.3 2.2 6.1 3.8.1 0 .1.1.2.2.9.7 1.8 1.5 2.7 2.5.9.9 1.7 1.9 2.5 2.9.9 1.2 1.7 2.4 2.4 3.7l1.1 2.1c1.2 2.6 2.2 5.5 2.8 8.5l.2 1.1c.5 2.9.8 6 .8 9.2v-.3zm-35.8-81.8l-5.7 6.5-5.8 6.6-7.2 8.2-3.9 4.5v-.4l-51.6 58.9h.2l-4.6 5.3-9.9 11.2-4.3 4.8 80.3 91.6.9 1.1 5.8 6.6 6.1 6.9 5.5-6.3 7-7.9 9.6-10.9v.4l54.2-61.8h-.1l2.8-3.2 5.3-6 7.3-8.3 1.3-1.5-93.2-106.3zm35.8 81.8h-23.5c0-2.4-.2-4.5-.5-6.4-.4-2.5-1.2-4.6-2.2-6.2-1-1.6-2.2-2.7-3.6-3.4h-.1c-1.2-.6-2.6-1-4.2-1-1.1 0-2 .1-2.9.4h-.1c-1.6.5-3 1.5-4.1 2.9-.5.7-1 1.5-1.4 2.4l-.3.7c-.6 1.7-.9 3.7-.9 6 0 1.3.1 2.5.3 3.6.4 2.3 1.3 4.2 2.6 5.7 1.5 1.7 3.6 3.4 6.4 5 .8.5 1.7.9 2.6 1.4l.2.1s.1 0 .1.1l1.6.8c.8.4 1.5.7 2.2 1.1l1.5.8 1.1.6h.1l.9.5.4.2.8.4.4.2.9.5.4.2c.4.2.8.4 1.2.7l.4.2.3.2.3.2 1.1.6.6.4c.4.2.8.5 1.2.8l1.5 1.1c.2.1.4.3.6.5.7.5 1.4 1.1 2 1.7.7.6 1.4 1.3 2.1 2 .1.1.2.2.4.3l.6.6c1.2 1.3 2.3 2.8 3.3 4.3.7 1.1 1.3 2.2 1.9 3.4.3.5.5 1.1.8 1.7l.1.3c.9 2.3 1.6 4.9 1.9 7.8v.7c.2 1.5.3 3.2.3 4.9 0 1.5-.1 3.1-.2 4.5 0 .4-.1.9-.2 1.3-.4 3.3-1.3 6.3-2.5 9-.4.9-.9 1.8-1.4 2.7-1 1.6-2 3.1-3.3 4.5-.6.6-1.1 1.2-1.8 1.8-.7.7-1.5 1.4-2.4 2l-1.2.9c-1.6 1.1-3.3 2-5.1 2.7-1.4.6-2.9 1.1-4.4 1.5-1.8.5-3.7.8-5.6 1v15.9h-11v-16l-.9-.1c-1.5-.2-3-.5-4.4-.8-2.3-.6-4.5-1.3-6.6-2.2-1.5-.7-2.8-1.4-4.1-2.2-2-1.3-3.8-2.7-5.4-4.4l-.3-.3c-.5-.6-1.1-1.1-1.6-1.8l-1.5-2.1c-1.4-2-2.5-4.1-3.4-6.5-.5-1.2-.9-2.4-1.3-3.7-.7-2.3-1.2-4.8-1.4-7.5-.2-1.5-.3-3-.3-4.5v-2h23.4c0 2.3.2 4.3.5 6.2v.1c.5 3 1.6 5.5 3 7.4l.3.4.3.4c1.6 1.8 3.6 3 6.1 3.6.2 0 .4.1.5.1.9.2 1.8.2 2.7.2 1.5 0 2.9-.3 4.2-.8l.4-.2c1.1-.5 2.1-1.3 2.9-2.2 1.6-1.9 2.5-4.3 2.7-7.4v-1.4c0-3.5-.6-6.3-1.9-8.5v.2l-.1-.5c-.2-.4-.4-.7-.7-1-.4-.5-.9-1.1-1.5-1.6-.5-.5-1.1-1-1.8-1.5-.1-.1-.3-.2-.5-.3-.5-.3-.9-.6-1.4-1-.4-.2-.7-.4-1.1-.7-.3-.2-.7-.4-1.1-.6-.3-.2-.7-.4-1.1-.5-.3-.2-.7-.4-1.1-.5l-.3-.1c-.9-.4-1.7-.8-2.5-1.2-.2-.1-.4-.1-.5-.2-1-.5-1.9-.9-2.8-1.4-.1 0-.2-.1-.2-.1-1.6-.8-3.1-1.6-4.5-2.4l-1.7-.9-.4-.3c-.9-.5-1.8-1-2.6-1.6-2.3-1.5-4.3-3.1-6.1-4.9l-.4-.4-.3-.3c-2.2-2.3-4-4.8-5.4-7.7-.4-.7-.7-1.5-1-2.2-.8-1.9-1.3-4-1.7-6.3l-.3-2.1-.2-2.1c-.1-1-.1-2-.1-3 0-1.8.1-3.6.3-5.3.2-1.5.5-3 .9-4.4.7-2.5 1.6-4.9 2.9-7.1.7-1.3 1.6-2.5 2.5-3.7.4-.5.8-1 1.3-1.5l1-1.1c.9-.9 1.8-1.7 2.8-2.4 1.4-1.1 2.8-2 4.4-2.8 2-1 4.2-1.9 6.5-2.5 1.2-.3 2.5-.6 3.8-.8.9-.2 1.8-.3 2.7-.4v-16.7h11.1v17c1.5.2 2.9.6 4.2 1 1.5.4 2.9 1 4.3 1.6 2.2 1 4.3 2.2 6.1 3.8.1 0 .1.1.2.2.9.7 1.8 1.5 2.7 2.5.9.9 1.7 1.9 2.5 2.9.9 1.2 1.7 2.4 2.4 3.7l1.1 2.1c1.2 2.6 2.2 5.5 2.8 8.5l.2 1.1c.5 2.9.8 6 .8 9.2v-.3zm-35.8-81.8l-5.7 6.5-5.8 6.6-7.2 8.2-3.9 4.5v-.4l-51.6 58.9h.2l-4.6 5.3-9.9 11.2-4.3 4.8 80.3 91.6.9 1.1 5.8 6.6 6.1 6.9 5.5-6.3 7-7.9 9.6-10.9v.4l54.2-61.8h-.1l2.8-3.2 5.3-6 7.3-8.3 1.3-1.5-93.2-106.3zm35.8 81.8h-23.5c0-2.4-.2-4.5-.5-6.4-.4-2.5-1.2-4.6-2.2-6.2-1-1.6-2.2-2.7-3.6-3.4h-.1c-1.2-.6-2.6-1-4.2-1-1.1 0-2 .1-2.9.4h-.1c-1.6.5-3 1.5-4.1 2.9-.5.7-1 1.5-1.4 2.4l-.3.7c-.6 1.7-.9 3.7-.9 6 0 1.3.1 2.5.3 3.6.4 2.3 1.3 4.2 2.6 5.7 1.5 1.7 3.6 3.4 6.4 5 .8.5 1.7.9 2.6 1.4l.2.1s.1 0 .1.1l1.6.8c.8.4 1.5.7 2.2 1.1l1.5.8 1.1.6h.1l.9.5.4.2.8.4.4.2.9.5.4.2c.4.2.8.4 1.2.7l.4.2.3.2.3.2 1.1.6.6.4c.4.2.8.5 1.2.8l1.5 1.1c.2.1.4.3.6.5.7.5 1.4 1.1 2 1.7.7.6 1.4 1.3 2.1 2 .1.1.2.2.4.3l.6.6c1.2 1.3 2.3 2.8 3.3 4.3.7 1.1 1.3 2.2 1.9 3.4.3.5.5 1.1.8 1.7l.1.3c.9 2.3 1.6 4.9 1.9 7.8v.7c.2 1.5.3 3.2.3 4.9 0 1.5-.1 3.1-.2 4.5 0 .4-.1.9-.2 1.3-.4 3.3-1.3 6.3-2.5 9-.4.9-.9 1.8-1.4 2.7-1 1.6-2 3.1-3.3 4.5-.6.6-1.1 1.2-1.8 1.8-.7.7-1.5 1.4-2.4 2l-1.2.9c-1.6 1.1-3.3 2-5.1 2.7-1.4.6-2.9 1.1-4.4 1.5-1.8.5-3.7.8-5.6 1v15.9h-11v-16l-.9-.1c-1.5-.2-3-.5-4.4-.8-2.3-.6-4.5-1.3-6.6-2.2-1.5-.7-2.8-1.4-4.1-2.2-2-1.3-3.8-2.7-5.4-4.4l-.3-.3c-.5-.6-1.1-1.1-1.6-1.8l-1.5-2.1c-1.4-2-2.5-4.1-3.4-6.5-.5-1.2-.9-2.4-1.3-3.7-.7-2.3-1.2-4.8-1.4-7.5-.2-1.5-.3-3-.3-4.5v-2h23.4c0 2.3.2 4.3.5 6.2v.1c.5 3 1.6 5.5 3 7.4l.3.4.3.4c1.6 1.8 3.6 3 6.1 3.6.2 0 .4.1.5.1.9.2 1.8.2 2.7.2 1.5 0 2.9-.3 4.2-.8l.4-.2c1.1-.5 2.1-1.3 2.9-2.2 1.6-1.9 2.5-4.3 2.7-7.4v-1.4c0-3.5-.6-6.3-1.9-8.5v.2l-.1-.5c-.2-.4-.4-.7-.7-1-.4-.5-.9-1.1-1.5-1.6-.5-.5-1.1-1-1.8-1.5-.1-.1-.3-.2-.5-.3-.5-.3-.9-.6-1.4-1-.4-.2-.7-.4-1.1-.7-.3-.2-.7-.4-1.1-.6-.3-.2-.7-.4-1.1-.5-.3-.2-.7-.4-1.1-.5l-.3-.1c-.9-.4-1.7-.8-2.5-1.2-.2-.1-.4-.1-.5-.2-1-.5-1.9-.9-2.8-1.4-.1 0-.2-.1-.2-.1-1.6-.8-3.1-1.6-4.5-2.4l-1.7-.9-.4-.3c-.9-.5-1.8-1-2.6-1.6-2.3-1.5-4.3-3.1-6.1-4.9l-.4-.4-.3-.3c-2.2-2.3-4-4.8-5.4-7.7-.4-.7-.7-1.5-1-2.2-.8-1.9-1.3-4-1.7-6.3l-.3-2.1-.2-2.1c-.1-1-.1-2-.1-3 0-1.8.1-3.6.3-5.3.2-1.5.5-3 .9-4.4.7-2.5 1.6-4.9 2.9-7.1.7-1.3 1.6-2.5 2.5-3.7.4-.5.8-1 1.3-1.5l1-1.1c.9-.9 1.8-1.7 2.8-2.4 1.4-1.1 2.8-2 4.4-2.8 2-1 4.2-1.9 6.5-2.5 1.2-.3 2.5-.6 3.8-.8.9-.2 1.8-.3 2.7-.4v-16.7h11.1v17c1.5.2 2.9.6 4.2 1 1.5.4 2.9 1 4.3 1.6 2.2 1 4.3 2.2 6.1 3.8.1 0 .1.1.2.2.9.7 1.8 1.5 2.7 2.5.9.9 1.7 1.9 2.5 2.9.9 1.2 1.7 2.4 2.4 3.7l1.1 2.1c1.2 2.6 2.2 5.5 2.8 8.5l.2 1.1c.5 2.9.8 6 .8 9.2v-.3zm-35.8-81.8l-5.7 6.5-5.8 6.6-7.2 8.2-3.9 4.5v-.4l-51.6 58.9h.2l-4.6 5.3-9.9 11.2-4.3 4.8 80.3 91.6.9 1.1 5.8 6.6 6.1 6.9 5.5-6.3 7-7.9 9.6-10.9v.4l54.2-61.8h-.1l2.8-3.2 5.3-6 7.3-8.3 1.3-1.5-93.2-106.3zm35.8 81.8h-23.5c0-2.4-.2-4.5-.5-6.4-.4-2.5-1.2-4.6-2.2-6.2-1-1.6-2.2-2.7-3.6-3.4h-.1c-1.2-.6-2.6-1-4.2-1-1.1 0-2 .1-2.9.4h-.1c-1.6.5-3 1.5-4.1 2.9-.5.7-1 1.5-1.4 2.4l-.3.7c-.6 1.7-.9 3.7-.9 6 0 1.3.1 2.5.3 3.6.4 2.3 1.3 4.2 2.6 5.7 1.5 1.7 3.6 3.4 6.4 5 .8.5 1.7.9 2.6 1.4l.2.1s.1 0 .1.1l1.6.8c.8.4 1.5.7 2.2 1.1l1.5.8 1.1.6h.1l.9.5.4.2.8.4.4.2.9.5.4.2c.4.2.8.4 1.2.7l.4.2.3.2.3.2 1.1.6.6.4c.4.2.8.5 1.2.8l1.5 1.1c.2.1.4.3.6.5.7.5 1.4 1.1 2 1.7.7.6 1.4 1.3 2.1 2 .1.1.2.2.4.3l.6.6c1.2 1.3 2.3 2.8 3.3 4.3.7 1.1 1.3 2.2 1.9 3.4.3.5.5 1.1.8 1.7l.1.3c.9 2.3 1.6 4.9 1.9 7.8v.7c.2 1.5.3 3.2.3 4.9 0 1.5-.1 3.1-.2 4.5 0 .4-.1.9-.2 1.3-.4 3.3-1.3 6.3-2.5 9-.4.9-.9 1.8-1.4 2.7-1 1.6-2 3.1-3.3 4.5-.6.6-1.1 1.2-1.8 1.8-.7.7-1.5 1.4-2.4 2l-1.2.9c-1.6 1.1-3.3 2-5.1 2.7-1.4.6-2.9 1.1-4.4 1.5-1.8.5-3.7.8-5.6 1v15.9h-11v-16l-.9-.1c-1.5-.2-3-.5-4.4-.8-2.3-.6-4.5-1.3-6.6-2.2-1.5-.7-2.8-1.4-4.1-2.2-2-1.3-3.8-2.7-5.4-4.4l-.3-.3c-.5-.6-1.1-1.1-1.6-1.8l-1.5-2.1c-1.4-2-2.5-4.1-3.4-6.5-.5-1.2-.9-2.4-1.3-3.7-.7-2.3-1.2-4.8-1.4-7.5-.2-1.5-.3-3-.3-4.5v-2h23.4c0 2.3.2 4.3.5 6.2v.1c.5 3 1.6 5.5 3 7.4l.3.4.3.4c1.6 1.8 3.6 3 6.1 3.6.2 0 .4.1.5.1.9.2 1.8.2 2.7.2 1.5 0 2.9-.3 4.2-.8l.4-.2c1.1-.5 2.1-1.3 2.9-2.2 1.6-1.9 2.5-4.3 2.7-7.4v-1.4c0-3.5-.6-6.3-1.9-8.5v.2l-.1-.5c-.2-.4-.4-.7-.7-1-.4-.5-.9-1.1-1.5-1.6-.5-.5-1.1-1-1.8-1.5-.1-.1-.3-.2-.5-.3-.5-.3-.9-.6-1.4-1-.4-.2-.7-.4-1.1-.7-.3-.2-.7-.4-1.1-.6-.3-.2-.7-.4-1.1-.5-.3-.2-.7-.4-1.1-.5l-.3-.1c-.9-.4-1.7-.8-2.5-1.2-.2-.1-.4-.1-.5-.2-1-.5-1.9-.9-2.8-1.4-.1 0-.2-.1-.2-.1-1.6-.8-3.1-1.6-4.5-2.4l-1.7-.9-.4-.3c-.9-.5-1.8-1-2.6-1.6-2.3-1.5-4.3-3.1-6.1-4.9l-.4-.4-.3-.3c-2.2-2.3-4-4.8-5.4-7.7-.4-.7-.7-1.5-1-2.2-.8-1.9-1.3-4-1.7-6.3l-.3-2.1-.2-2.1c-.1-1-.1-2-.1-3 0-1.8.1-3.6.3-5.3.2-1.5.5-3 .9-4.4.7-2.5 1.6-4.9 2.9-7.1.7-1.3 1.6-2.5 2.5-3.7.4-.5.8-1 1.3-1.5l1-1.1c.9-.9 1.8-1.7 2.8-2.4 1.4-1.1 2.8-2 4.4-2.8 2-1 4.2-1.9 6.5-2.5 1.2-.3 2.5-.6 3.8-.8.9-.2 1.8-.3 2.7-.4v-16.7h11.1v17c1.5.2 2.9.6 4.2 1 1.5.4 2.9 1 4.3 1.6 2.2 1 4.3 2.2 6.1 3.8.1 0 .1.1.2.2.9.7 1.8 1.5 2.7 2.5.9.9 1.7 1.9 2.5 2.9.9 1.2 1.7 2.4 2.4 3.7l1.1 2.1c1.2 2.6 2.2 5.5 2.8 8.5l.2 1.1c.5 2.9.8 6 .8 9.2v-.3z"/><path class="st4" d="M337.1 280.1l-60.4-68.9v-57.8h-45.8v56.7l-59.6 68h-65.3v42.3h65l56.9 64.8v67.3h48v-62.5l62.1-70.9h65.4v-39h-66.3zm-7.1 39l-54.2 61.8v-.4l-9.6 10.9-7 7.9-5.5 6.3-6.1-6.9-5.8-6.6-.9-1.1-80.3-91.6 18.6-21.3 51.6-58.9v.4l3.9-4.5 7.2-8.2 5.8-6.6 5.7-6.5 93.1 106.2-16.5 19.1z"/></g></svg>