<?xml version="1.0" encoding="utf-8"?>
<!-- Generator: Adobe Illustrator 19.1.0, SVG Export Plug-In . SVG Version: 6.00 Build 0)  -->
<!DOCTYPE svg PUBLIC "-//W3C//DTD SVG 1.1//EN" "http://www.w3.org/Graphics/SVG/1.1/DTD/svg11.dtd">
<svg version="1.1" xmlns="http://www.w3.org/2000/svg" xmlns:xlink="http://www.w3.org/1999/xlink" x="0px" y="0px" width="507.3px"
	 height="496.9px" viewBox="0 0 507.3 496.9" style="enable-background:new 0 0 507.3 496.9;" xml:space="preserve">
<style type="text/css">
	.st0{fill:#016293;}
	.st1{fill:#9CBDD8;}
	.st2{fill:#9BD7D8;}
	.st3{fill:#016293;stroke:#016293;stroke-width:2.041;stroke-miterlimit:10;}
	.st4{fill:#FFFFFF;}
	.st5{fill:#231F20;}
	.st6{fill:#FFFFFF;stroke:#016293;stroke-width:1.0169;stroke-miterlimit:10;}
	.st7{fill:#FFFFFF;stroke:#016293;stroke-width:1.0185;stroke-miterlimit:10;}
	.st8{fill:#FFFFFF;stroke:#016293;stroke-width:1.0209;stroke-miterlimit:10;}
	.st9{fill:#016293;stroke:#FFFFFF;stroke-width:2;stroke-miterlimit:10;}
	.st10{fill:#016293;stroke:#FFFFFF;stroke-miterlimit:10;}
	.st11{fill:#FFFFFF;stroke:#016293;stroke-width:5.0184;stroke-miterlimit:10;}
	.st12{fill:none;stroke:#016293;stroke-width:3;stroke-miterlimit:10;}
	.st13{fill:#FFFFFF;stroke:#016293;stroke-width:3;stroke-miterlimit:10;}
	.st14{fill:#FFFFFF;stroke:#231F20;stroke-miterlimit:10;}
	.st15{fill:none;stroke:#231F20;stroke-miterlimit:10;}
	.st16{display:none;}
	.st17{display:inline;fill:#F26F6A;}
	.st18{fill:none;stroke:#9CBDD8;stroke-width:5.8821;stroke-miterlimit:10;}
	.st19{fill:#FFFFFF;stroke:#9CBDD8;stroke-width:5.8821;stroke-miterlimit:10;}
	.st20{fill:#9CBDD8;stroke:#FFFFFF;stroke-width:5.8821;stroke-miterlimit:10;}
	.st21{clip-path:url(#SVGID_2_);fill:#231F20;}
	.st22{clip-path:url(#SVGID_2_);fill:#046293;}
	.st23{clip-path:url(#SVGID_2_);fill:#9CBDD9;}
	.st24{clip-path:url(#SVGID_2_);fill:#9CD8D9;}
	.st25{clip-path:url(#SVGID_2_);fill:#FFFFFF;}
	.st26{clip-path:url(#SVGID_2_);}
	.st27{fill:#BDC4C9;}
	.st28{clip-path:url(#SVGID_2_);fill:none;stroke:#FFFFFF;stroke-width:0.809;stroke-miterlimit:10;}
	.st29{clip-path:url(#SVGID_2_);fill:none;stroke:#FFFFFF;stroke-width:0.453;stroke-miterlimit:10;}
	.st30{clip-path:url(#SVGID_2_);fill:none;stroke:#FFFFFF;stroke-width:0.535;stroke-miterlimit:10;}
	.st31{fill:#9CD8D9;}
	.st32{clip-path:url(#SVGID_4_);}
	.st33{clip-path:url(#SVGID_4_);fill:none;stroke:#231F20;stroke-width:0.689;stroke-miterlimit:10;}
	.st34{clip-path:url(#SVGID_4_);fill:none;stroke:#231F20;stroke-width:0.506;stroke-miterlimit:10;}
	.st35{fill:#066393;}
	.st36{fill:#9BD7D8;stroke:#016293;stroke-width:18.6809;stroke-miterlimit:10;}
	.st37{fill:#076393;}
	.st38{fill:none;stroke:#076393;stroke-width:3.5038;stroke-miterlimit:10;}
	.st39{fill:#FFFFFF;stroke:#076393;stroke-width:3.5038;stroke-miterlimit:10;}
	.st40{fill:#076393;stroke:#FFFFFF;stroke-width:3.5038;stroke-miterlimit:10;}
</style>
<g id="Layer_1">
</g>
<g id="Logo">
	<g>
		<g id="XMLID_4_">
			<g>
				<g>
					<path class="st4" d="M264.2,318.8L264.2,318.8L264.2,318.8C264.2,318.8,264.2,318.8,264.2,318.8z"/>
				</g>
			</g>
			<g>
				<g>
					<path class="st0" d="M263.4,344.9l0,0.2l-0.1-0.5C263.3,344.8,263.4,344.8,263.4,344.9z"/>
				</g>
			</g>
			<g>
				<g>
					<path class="st4" d="M257.6,315.6l-0.2-0.3c0.1,0,0.1,0.1,0.2,0.1v0L257.6,315.6z"/>
				</g>
			</g>
		</g>
	</g>
	<g>
		<path class="st0" d="M359.4,178.6c2,0.4,3.9,0.8,5.8,1.2c0.9-0.4,1.7-0.8,2.5-1.2H359.4z"/>
	</g>
	<g>
		<path class="st0" d="M138.4,178.6h-1.8c0.4-0.1,0.8-0.2,1.2-0.3C138.1,178.4,138.2,178.5,138.4,178.6z"/>
	</g>
	<g>
		<g>
			<g>
				<path class="st0" d="M281.9,135.7v-9.3c2-0.3,5.5-0.9,9.8-1.9c18-2.8,31.9-2,34.7,1.1c0.1,0.1,0.5,0.5,0,2.1
					c-2.4,8.1,0.1,15.5,6.8,20.3c-7.4,0.1-15.5,0.7-24.2,1.9h-34.5C279,146.7,281.9,141.5,281.9,135.7z M236.1,126.1
					c0-3.9,3.2-7.1,7.1-7.1h21.2c3.9,0,7.1,3.2,7.1,7.1v9.6c0,3.9-3.2,7.1-7.1,7.1h-21.2c-3.9,0-7.1-3.2-7.1-7.1V126.1z
					 M179.6,127.7c-0.5-1.6-0.1-2,0-2.1c2.8-3,16.8-3.9,34.8-1.1c5.8,1.3,9.9,2,11.3,2.1v9.1c0,5.9,2.9,11.1,7.3,14.2h-22.1
					c-13.2-2.3-25.1-3.5-35.7-3.8C180.1,141.3,181.8,134.8,179.6,127.7z M253.5,193.9l-5.7,6.5l-5.8,6.6l-7.2,8.2l-3.9,4.5v-0.4
					l-51.6,58.9h0.2l-4.6,5.3l-9.9,11.2l-4.3,4.8l80.3,91.6l0.9,1.1l5.8,6.6l6.1,6.9l5.5-6.3l7-7.9l9.6-10.9v0.4l54.2-61.8h-0.1
					l2.8-3.2l5.3-6l7.3-8.3l1.3-1.5L253.5,193.9z M289.3,275.7h-23.5c0-2.4-0.2-4.5-0.5-6.4c-0.4-2.5-1.2-4.6-2.2-6.2
					c-1-1.6-2.2-2.7-3.6-3.4c0,0-0.1,0-0.1,0c-1.2-0.6-2.6-1-4.2-1c-1.1,0-2,0.1-2.9,0.4c-0.1,0-0.1,0-0.1,0c-1.6,0.5-3,1.5-4.1,2.9
					c-0.5,0.7-1,1.5-1.4,2.4c-0.1,0.2-0.2,0.5-0.3,0.7c-0.6,1.7-0.9,3.7-0.9,6c0,1.3,0.1,2.5,0.3,3.6c0.4,2.3,1.3,4.2,2.6,5.7
					c1.5,1.7,3.6,3.4,6.4,5v0c0.8,0.5,1.7,0.9,2.6,1.4c0.1,0,0.1,0.1,0.2,0.1v0c0,0,0.1,0,0.1,0.1c0.5,0.3,1.1,0.5,1.6,0.8
					c0.8,0.4,1.5,0.7,2.2,1.1c0.5,0.3,1,0.5,1.5,0.8c0.4,0.2,0.7,0.4,1.1,0.6c0,0,0,0,0.1,0c0.3,0.2,0.6,0.3,0.9,0.5
					c0.1,0.1,0.3,0.1,0.4,0.2c0.3,0.1,0.5,0.3,0.8,0.4c0.1,0.1,0.3,0.1,0.4,0.2c0.3,0.2,0.6,0.3,0.9,0.5c0.1,0.1,0.3,0.1,0.4,0.2
					c0.4,0.2,0.8,0.4,1.2,0.7v0c0.1,0.1,0.3,0.1,0.4,0.2c0.1,0.1,0.2,0.1,0.3,0.2c0.1,0.1,0.2,0.1,0.3,0.2v0
					c0.4,0.2,0.7,0.4,1.1,0.6c0.2,0.1,0.4,0.3,0.6,0.4c0.4,0.2,0.8,0.5,1.2,0.8c0.5,0.4,1,0.7,1.5,1.1c0.2,0.1,0.4,0.3,0.6,0.5
					c0.7,0.5,1.4,1.1,2,1.7c0.7,0.6,1.4,1.3,2.1,2c0.1,0.1,0.2,0.2,0.4,0.3c0.2,0.2,0.4,0.4,0.6,0.6c1.2,1.3,2.3,2.8,3.3,4.3
					c0.7,1.1,1.3,2.2,1.9,3.4c0.3,0.5,0.5,1.1,0.8,1.7l0.1,0.3c0.9,2.3,1.6,4.9,1.9,7.8c0,0,0,0.1,0,0.1c0,0.2,0,0.4,0,0.6
					c0.2,1.5,0.3,3.2,0.3,4.9c0,1.5-0.1,3.1-0.2,4.5c0,0.4-0.1,0.9-0.2,1.3c-0.4,3.3-1.3,6.3-2.5,9c-0.4,0.9-0.9,1.8-1.4,2.7
					c-1,1.6-2,3.1-3.3,4.5c-0.6,0.6-1.1,1.2-1.8,1.8c-0.7,0.7-1.5,1.4-2.4,2c-0.4,0.3-0.8,0.6-1.2,0.9c-1.6,1.1-3.3,2-5.1,2.7
					c-1.4,0.6-2.9,1.1-4.4,1.5c-1.8,0.5-3.7,0.8-5.6,1v15.9h-11v-16c-0.3,0-0.6-0.1-0.9-0.1c-1.5-0.2-3-0.5-4.4-0.8
					c-2.3-0.6-4.5-1.3-6.6-2.2c-1.5-0.7-2.8-1.4-4.1-2.2c-2-1.3-3.8-2.7-5.4-4.4c-0.1-0.1-0.2-0.2-0.3-0.3c-0.5-0.6-1.1-1.1-1.6-1.8
					c-0.5-0.7-1-1.4-1.5-2.1c-1.4-2-2.5-4.1-3.4-6.5c-0.5-1.2-0.9-2.4-1.3-3.7c-0.7-2.3-1.2-4.8-1.4-7.5c-0.2-1.5-0.3-3-0.3-4.5
					c0,0,0,0,0,0c0-0.7,0-1.4,0-2h23.4c0,2.3,0.2,4.3,0.5,6.2c0,0,0,0.1,0,0.1c0.5,3,1.6,5.5,3,7.4c0.1,0.1,0.2,0.3,0.3,0.4
					c0.1,0.1,0.2,0.3,0.3,0.4c0,0,0,0,0,0c1.6,1.8,3.6,3,6.1,3.6c0.2,0,0.4,0.1,0.5,0.1c0.9,0.2,1.8,0.2,2.7,0.2
					c1.5,0,2.9-0.3,4.2-0.8c0.1-0.1,0.3-0.1,0.4-0.2c1.1-0.5,2.1-1.3,2.9-2.2c1.6-1.9,2.5-4.3,2.7-7.4c0,0,0,0,0,0
					c0-0.5,0-0.9,0-1.4c0-3.5-0.6-6.3-1.9-8.5l0,0.2l-0.1-0.5c0,0,0,0,0,0c-0.2-0.4-0.4-0.7-0.7-1c-0.4-0.5-0.9-1.1-1.5-1.6
					c-0.5-0.5-1.1-1-1.8-1.5c-0.1-0.1-0.3-0.2-0.5-0.3c-0.5-0.3-0.9-0.6-1.4-1c-0.4-0.2-0.7-0.4-1.1-0.7c-0.3-0.2-0.7-0.4-1.1-0.6
					c-0.3-0.2-0.7-0.4-1.1-0.5c-0.3-0.2-0.7-0.4-1.1-0.5c-0.1,0-0.2-0.1-0.3-0.1c-0.9-0.4-1.7-0.8-2.5-1.2c-0.2-0.1-0.4-0.1-0.5-0.2
					c-1-0.5-1.9-0.9-2.8-1.4c-0.1,0-0.2-0.1-0.2-0.1h0c-1.6-0.8-3.1-1.6-4.5-2.4c-0.6-0.3-1.1-0.6-1.7-0.9c-0.1-0.1-0.3-0.2-0.4-0.3
					c-0.9-0.5-1.8-1-2.6-1.6h0c-2.3-1.5-4.3-3.1-6.1-4.9c0,0,0,0,0,0c-0.1-0.1-0.3-0.3-0.4-0.4l-0.3-0.3c-2.2-2.3-4-4.8-5.4-7.7
					c-0.4-0.7-0.7-1.5-1-2.2l0,0c-0.8-1.9-1.3-4-1.7-6.3c-0.1-0.7-0.2-1.4-0.3-2.1c-0.1-0.7-0.1-1.4-0.2-2.1c-0.1-1-0.1-2-0.1-3
					c0-1.8,0.1-3.6,0.3-5.3c0.2-1.5,0.5-3,0.9-4.4c0.7-2.5,1.6-4.9,2.9-7.1c0.7-1.3,1.6-2.5,2.5-3.7c0.4-0.5,0.8-1,1.3-1.5
					c0.3-0.4,0.7-0.7,1-1.1c0.9-0.9,1.8-1.7,2.8-2.4c1.4-1.1,2.8-2,4.4-2.8v0c2-1,4.2-1.9,6.5-2.5c1.2-0.3,2.5-0.6,3.8-0.8
					c0.9-0.2,1.8-0.3,2.7-0.4v-16.7h11.1v17c1.5,0.2,2.9,0.6,4.2,1c1.5,0.4,2.9,1,4.3,1.6c2.2,1,4.3,2.2,6.1,3.8
					c0.1,0,0.1,0.1,0.2,0.2c0.9,0.7,1.8,1.5,2.7,2.5c0.9,0.9,1.7,1.9,2.5,2.9c0.9,1.2,1.7,2.4,2.4,3.7c0.4,0.7,0.7,1.4,1.1,2.1
					c1.2,2.6,2.2,5.5,2.8,8.5c0.1,0.4,0.1,0.7,0.2,1.1c0.5,2.9,0.8,6,0.8,9.2V275.7z M253.5,193.9l-5.7,6.5l-5.8,6.6l-7.2,8.2
					l-3.9,4.5v-0.4l-51.6,58.9h0.2l-4.6,5.3l-9.9,11.2l-4.3,4.8l80.3,91.6l0.9,1.1l5.8,6.6l6.1,6.9l5.5-6.3l7-7.9l9.6-10.9v0.4
					l54.2-61.8h-0.1l2.8-3.2l5.3-6l7.3-8.3l1.3-1.5L253.5,193.9z M289.3,275.7h-23.5c0-2.4-0.2-4.5-0.5-6.4
					c-0.4-2.5-1.2-4.6-2.2-6.2c-1-1.6-2.2-2.7-3.6-3.4c0,0-0.1,0-0.1,0c-1.2-0.6-2.6-1-4.2-1c-1.1,0-2,0.1-2.9,0.4
					c-0.1,0-0.1,0-0.1,0c-1.6,0.5-3,1.5-4.1,2.9c-0.5,0.7-1,1.5-1.4,2.4c-0.1,0.2-0.2,0.5-0.3,0.7c-0.6,1.7-0.9,3.7-0.9,6
					c0,1.3,0.1,2.5,0.3,3.6c0.4,2.3,1.3,4.2,2.6,5.7c1.5,1.7,3.6,3.4,6.4,5v0c0.8,0.5,1.7,0.9,2.6,1.4c0.1,0,0.1,0.1,0.2,0.1v0
					c0,0,0.1,0,0.1,0.1c0.5,0.3,1.1,0.5,1.6,0.8c0.8,0.4,1.5,0.7,2.2,1.1c0.5,0.3,1,0.5,1.5,0.8c0.4,0.2,0.7,0.4,1.1,0.6
					c0,0,0,0,0.1,0c0.3,0.2,0.6,0.3,0.9,0.5c0.1,0.1,0.3,0.1,0.4,0.2c0.3,0.1,0.5,0.3,0.8,0.4c0.1,0.1,0.3,0.1,0.4,0.2
					c0.3,0.2,0.6,0.3,0.9,0.5c0.1,0.1,0.3,0.1,0.4,0.2c0.4,0.2,0.8,0.4,1.2,0.7v0c0.1,0.1,0.3,0.1,0.4,0.2c0.1,0.1,0.2,0.1,0.3,0.2
					c0.1,0.1,0.2,0.1,0.3,0.2v0c0.4,0.2,0.7,0.4,1.1,0.6c0.2,0.1,0.4,0.3,0.6,0.4c0.4,0.2,0.8,0.5,1.2,0.8c0.5,0.4,1,0.7,1.5,1.1
					c0.2,0.1,0.4,0.3,0.6,0.5c0.7,0.5,1.4,1.1,2,1.7c0.7,0.6,1.4,1.3,2.1,2c0.1,0.1,0.2,0.2,0.4,0.3c0.2,0.2,0.4,0.4,0.6,0.6
					c1.2,1.3,2.3,2.8,3.3,4.3c0.7,1.1,1.3,2.2,1.9,3.4c0.3,0.5,0.5,1.1,0.8,1.7l0.1,0.3c0.9,2.3,1.6,4.9,1.9,7.8c0,0,0,0.1,0,0.1
					c0,0.2,0,0.4,0,0.6c0.2,1.5,0.3,3.2,0.3,4.9c0,1.5-0.1,3.1-0.2,4.5c0,0.4-0.1,0.9-0.2,1.3c-0.4,3.3-1.3,6.3-2.5,9
					c-0.4,0.9-0.9,1.8-1.4,2.7c-1,1.6-2,3.1-3.3,4.5c-0.6,0.6-1.1,1.2-1.8,1.8c-0.7,0.7-1.5,1.4-2.4,2c-0.4,0.3-0.8,0.6-1.2,0.9
					c-1.6,1.1-3.3,2-5.1,2.7c-1.4,0.6-2.9,1.1-4.4,1.5c-1.8,0.5-3.7,0.8-5.6,1v15.9h-11v-16c-0.3,0-0.6-0.1-0.9-0.1
					c-1.5-0.2-3-0.5-4.4-0.8c-2.3-0.6-4.5-1.3-6.6-2.2c-1.5-0.7-2.8-1.4-4.1-2.2c-2-1.3-3.8-2.7-5.4-4.4c-0.1-0.1-0.2-0.2-0.3-0.3
					c-0.5-0.6-1.1-1.1-1.6-1.8c-0.5-0.7-1-1.4-1.5-2.1c-1.4-2-2.5-4.1-3.4-6.5c-0.5-1.2-0.9-2.4-1.3-3.7c-0.7-2.3-1.2-4.8-1.4-7.5
					c-0.2-1.5-0.3-3-0.3-4.5c0,0,0,0,0,0c0-0.7,0-1.4,0-2h23.4c0,2.3,0.2,4.3,0.5,6.2c0,0,0,0.1,0,0.1c0.5,3,1.6,5.5,3,7.4
					c0.1,0.1,0.2,0.3,0.3,0.4c0.1,0.1,0.2,0.3,0.3,0.4c0,0,0,0,0,0c1.6,1.8,3.6,3,6.1,3.6c0.2,0,0.4,0.1,0.5,0.1
					c0.9,0.2,1.8,0.2,2.7,0.2c1.5,0,2.9-0.3,4.2-0.8c0.1-0.1,0.3-0.1,0.4-0.2c1.1-0.5,2.1-1.3,2.9-2.2c1.6-1.9,2.5-4.3,2.7-7.4
					c0,0,0,0,0,0c0-0.5,0-0.9,0-1.4c0-3.5-0.6-6.3-1.9-8.5l0,0.2l-0.1-0.5c0,0,0,0,0,0c-0.2-0.4-0.4-0.7-0.7-1
					c-0.4-0.5-0.9-1.1-1.5-1.6c-0.5-0.5-1.1-1-1.8-1.5c-0.1-0.1-0.3-0.2-0.5-0.3c-0.5-0.3-0.9-0.6-1.4-1c-0.4-0.2-0.7-0.4-1.1-0.7
					c-0.3-0.2-0.7-0.4-1.1-0.6c-0.3-0.2-0.7-0.4-1.1-0.5c-0.3-0.2-0.7-0.4-1.1-0.5c-0.1,0-0.2-0.1-0.3-0.1c-0.9-0.4-1.7-0.8-2.5-1.2
					c-0.2-0.1-0.4-0.1-0.5-0.2c-1-0.5-1.9-0.9-2.8-1.4c-0.1,0-0.2-0.1-0.2-0.1h0c-1.6-0.8-3.1-1.6-4.5-2.4c-0.6-0.3-1.1-0.6-1.7-0.9
					c-0.1-0.1-0.3-0.2-0.4-0.3c-0.9-0.5-1.8-1-2.6-1.6h0c-2.3-1.5-4.3-3.1-6.1-4.9c0,0,0,0,0,0c-0.1-0.1-0.3-0.3-0.4-0.4l-0.3-0.3
					c-2.2-2.3-4-4.8-5.4-7.7c-0.4-0.7-0.7-1.5-1-2.2l0,0c-0.8-1.9-1.3-4-1.7-6.3c-0.1-0.7-0.2-1.4-0.3-2.1c-0.1-0.7-0.1-1.4-0.2-2.1
					c-0.1-1-0.1-2-0.1-3c0-1.8,0.1-3.6,0.3-5.3c0.2-1.5,0.5-3,0.9-4.4c0.7-2.5,1.6-4.9,2.9-7.1c0.7-1.3,1.6-2.5,2.5-3.7
					c0.4-0.5,0.8-1,1.3-1.5c0.3-0.4,0.7-0.7,1-1.1c0.9-0.9,1.8-1.7,2.8-2.4c1.4-1.1,2.8-2,4.4-2.8v0c2-1,4.2-1.9,6.5-2.5
					c1.2-0.3,2.5-0.6,3.8-0.8c0.9-0.2,1.8-0.3,2.7-0.4v-16.7h11.1v17c1.5,0.2,2.9,0.6,4.2,1c1.5,0.4,2.9,1,4.3,1.6
					c2.2,1,4.3,2.2,6.1,3.8c0.1,0,0.1,0.1,0.2,0.2c0.9,0.7,1.8,1.5,2.7,2.5c0.9,0.9,1.7,1.9,2.5,2.9c0.9,1.2,1.7,2.4,2.4,3.7
					c0.4,0.7,0.7,1.4,1.1,2.1c1.2,2.6,2.2,5.5,2.8,8.5c0.1,0.4,0.1,0.7,0.2,1.1c0.5,2.9,0.8,6,0.8,9.2V275.7z M253.5,193.9l-5.7,6.5
					l-5.8,6.6l-7.2,8.2l-3.9,4.5v-0.4l-51.6,58.9h0.2l-4.6,5.3l-9.9,11.2l-4.3,4.8l80.3,91.6l0.9,1.1l5.8,6.6l6.1,6.9l5.5-6.3l7-7.9
					l9.6-10.9v0.4l54.2-61.8h-0.1l2.8-3.2l5.3-6l7.3-8.3l1.3-1.5L253.5,193.9z M289.3,275.7h-23.5c0-2.4-0.2-4.5-0.5-6.4
					c-0.4-2.5-1.2-4.6-2.2-6.2c-1-1.6-2.2-2.7-3.6-3.4c0,0-0.1,0-0.1,0c-1.2-0.6-2.6-1-4.2-1c-1.1,0-2,0.1-2.9,0.4
					c-0.1,0-0.1,0-0.1,0c-1.6,0.5-3,1.5-4.1,2.9c-0.5,0.7-1,1.5-1.4,2.4c-0.1,0.2-0.2,0.5-0.3,0.7c-0.6,1.7-0.9,3.7-0.9,6
					c0,1.3,0.1,2.5,0.3,3.6c0.4,2.3,1.3,4.2,2.6,5.7c1.5,1.7,3.6,3.4,6.4,5v0c0.8,0.5,1.7,0.9,2.6,1.4c0.1,0,0.1,0.1,0.2,0.1v0
					c0,0,0.1,0,0.1,0.1c0.5,0.3,1.1,0.5,1.6,0.8c0.8,0.4,1.5,0.7,2.2,1.1c0.5,0.3,1,0.5,1.5,0.8c0.4,0.2,0.7,0.4,1.1,0.6
					c0,0,0,0,0.1,0c0.3,0.2,0.6,0.3,0.9,0.5c0.1,0.1,0.3,0.1,0.4,0.2c0.3,0.1,0.5,0.3,0.8,0.4c0.1,0.1,0.3,0.1,0.4,0.2
					c0.3,0.2,0.6,0.3,0.9,0.5c0.1,0.1,0.3,0.1,0.4,0.2c0.4,0.2,0.8,0.4,1.2,0.7v0c0.1,0.1,0.3,0.1,0.4,0.2c0.1,0.1,0.2,0.1,0.3,0.2
					c0.1,0.1,0.2,0.1,0.3,0.2v0c0.4,0.2,0.7,0.4,1.1,0.6c0.2,0.1,0.4,0.3,0.6,0.4c0.4,0.2,0.8,0.5,1.2,0.8c0.5,0.4,1,0.7,1.5,1.1
					c0.2,0.1,0.4,0.3,0.6,0.5c0.7,0.5,1.4,1.1,2,1.7c0.7,0.6,1.4,1.3,2.1,2c0.1,0.1,0.2,0.2,0.4,0.3c0.2,0.2,0.4,0.4,0.6,0.6
					c1.2,1.3,2.3,2.8,3.3,4.3c0.7,1.1,1.3,2.2,1.9,3.4c0.3,0.5,0.5,1.1,0.8,1.7l0.1,0.3c0.9,2.3,1.6,4.9,1.9,7.8c0,0,0,0.1,0,0.1
					c0,0.2,0,0.4,0,0.6c0.2,1.5,0.3,3.2,0.3,4.9c0,1.5-0.1,3.1-0.2,4.5c0,0.4-0.1,0.9-0.2,1.3c-0.4,3.3-1.3,6.3-2.5,9
					c-0.4,0.9-0.9,1.8-1.4,2.7c-1,1.6-2,3.1-3.3,4.5c-0.6,0.6-1.1,1.2-1.8,1.8c-0.7,0.7-1.5,1.4-2.4,2c-0.4,0.3-0.8,0.6-1.2,0.9
					c-1.6,1.1-3.3,2-5.1,2.7c-1.4,0.6-2.9,1.1-4.4,1.5c-1.8,0.5-3.7,0.8-5.6,1v15.9h-11v-16c-0.3,0-0.6-0.1-0.9-0.1
					c-1.5-0.2-3-0.5-4.4-0.8c-2.3-0.6-4.5-1.3-6.6-2.2c-1.5-0.7-2.8-1.4-4.1-2.2c-2-1.3-3.8-2.7-5.4-4.4c-0.1-0.1-0.2-0.2-0.3-0.3
					c-0.5-0.6-1.1-1.1-1.6-1.8c-0.5-0.7-1-1.4-1.5-2.1c-1.4-2-2.5-4.1-3.4-6.5c-0.5-1.2-0.9-2.4-1.3-3.7c-0.7-2.3-1.2-4.8-1.4-7.5
					c-0.2-1.5-0.3-3-0.3-4.5c0,0,0,0,0,0c0-0.7,0-1.4,0-2h23.4c0,2.3,0.2,4.3,0.5,6.2c0,0,0,0.1,0,0.1c0.5,3,1.6,5.5,3,7.4
					c0.1,0.1,0.2,0.3,0.3,0.4c0.1,0.1,0.2,0.3,0.3,0.4c0,0,0,0,0,0c1.6,1.8,3.6,3,6.1,3.6c0.2,0,0.4,0.1,0.5,0.1
					c0.9,0.2,1.8,0.2,2.7,0.2c1.5,0,2.9-0.3,4.2-0.8c0.1-0.1,0.3-0.1,0.4-0.2c1.1-0.5,2.1-1.3,2.9-2.2c1.6-1.9,2.5-4.3,2.7-7.4
					c0,0,0,0,0,0c0-0.5,0-0.9,0-1.4c0-3.5-0.6-6.3-1.9-8.5l0,0.2l-0.1-0.5c0,0,0,0,0,0c-0.2-0.4-0.4-0.7-0.7-1
					c-0.4-0.5-0.9-1.1-1.5-1.6c-0.5-0.5-1.1-1-1.8-1.5c-0.1-0.1-0.3-0.2-0.5-0.3c-0.5-0.3-0.9-0.6-1.4-1c-0.4-0.2-0.7-0.4-1.1-0.7
					c-0.3-0.2-0.7-0.4-1.1-0.6c-0.3-0.2-0.7-0.4-1.1-0.5c-0.3-0.2-0.7-0.4-1.1-0.5c-0.1,0-0.2-0.1-0.3-0.1c-0.9-0.4-1.7-0.8-2.5-1.2
					c-0.2-0.1-0.4-0.1-0.5-0.2c-1-0.5-1.9-0.9-2.8-1.4c-0.1,0-0.2-0.1-0.2-0.1h0c-1.6-0.8-3.1-1.6-4.5-2.4c-0.6-0.3-1.1-0.6-1.7-0.9
					c-0.1-0.1-0.3-0.2-0.4-0.3c-0.9-0.5-1.8-1-2.6-1.6h0c-2.3-1.5-4.3-3.1-6.1-4.9c0,0,0,0,0,0c-0.1-0.1-0.3-0.3-0.4-0.4l-0.3-0.3
					c-2.2-2.3-4-4.8-5.4-7.7c-0.4-0.7-0.7-1.5-1-2.2l0,0c-0.8-1.9-1.3-4-1.7-6.3c-0.1-0.7-0.2-1.4-0.3-2.1c-0.1-0.7-0.1-1.4-0.2-2.1
					c-0.1-1-0.1-2-0.1-3c0-1.8,0.1-3.6,0.3-5.3c0.2-1.5,0.5-3,0.9-4.4c0.7-2.5,1.6-4.9,2.9-7.1c0.7-1.3,1.6-2.5,2.5-3.7
					c0.4-0.5,0.8-1,1.3-1.5c0.3-0.4,0.7-0.7,1-1.1c0.9-0.9,1.8-1.7,2.8-2.4c1.4-1.1,2.8-2,4.4-2.8v0c2-1,4.2-1.9,6.5-2.5
					c1.2-0.3,2.5-0.6,3.8-0.8c0.9-0.2,1.8-0.3,2.7-0.4v-16.7h11.1v17c1.5,0.2,2.9,0.6,4.2,1c1.5,0.4,2.9,1,4.3,1.6
					c2.2,1,4.3,2.2,6.1,3.8c0.1,0,0.1,0.1,0.2,0.2c0.9,0.7,1.8,1.5,2.7,2.5c0.9,0.9,1.7,1.9,2.5,2.9c0.9,1.2,1.7,2.4,2.4,3.7
					c0.4,0.7,0.7,1.4,1.1,2.1c1.2,2.6,2.2,5.5,2.8,8.5c0.1,0.4,0.1,0.7,0.2,1.1c0.5,2.9,0.8,6,0.8,9.2V275.7z M253.5,193.9l-5.7,6.5
					l-5.8,6.6l-7.2,8.2l-3.9,4.5v-0.4l-51.6,58.9h0.2l-4.6,5.3l-9.9,11.2l-4.3,4.8l80.3,91.6l0.9,1.1l5.8,6.6l6.1,6.9l5.5-6.3l7-7.9
					l9.6-10.9v0.4l54.2-61.8h-0.1l2.8-3.2l5.3-6l7.3-8.3l1.3-1.5L253.5,193.9z M289.3,275.7h-23.5c0-2.4-0.2-4.5-0.5-6.4
					c-0.4-2.5-1.2-4.6-2.2-6.2c-1-1.6-2.2-2.7-3.6-3.4c0,0-0.1,0-0.1,0c-1.2-0.6-2.6-1-4.2-1c-1.1,0-2,0.1-2.9,0.4
					c-0.1,0-0.1,0-0.1,0c-1.6,0.5-3,1.5-4.1,2.9c-0.5,0.7-1,1.5-1.4,2.4c-0.1,0.2-0.2,0.5-0.3,0.7c-0.6,1.7-0.9,3.7-0.9,6
					c0,1.3,0.1,2.5,0.3,3.6c0.4,2.3,1.3,4.2,2.6,5.7c1.5,1.7,3.6,3.4,6.4,5v0c0.8,0.5,1.7,0.9,2.6,1.4c0.1,0,0.1,0.1,0.2,0.1v0
					c0,0,0.1,0,0.1,0.1c0.5,0.3,1.1,0.5,1.6,0.8c0.8,0.4,1.5,0.7,2.2,1.1c0.5,0.3,1,0.5,1.5,0.8c0.4,0.2,0.7,0.4,1.1,0.6
					c0,0,0,0,0.1,0c0.3,0.2,0.6,0.3,0.9,0.5c0.1,0.1,0.3,0.1,0.4,0.2c0.3,0.1,0.5,0.3,0.8,0.4c0.1,0.1,0.3,0.1,0.4,0.2
					c0.3,0.2,0.6,0.3,0.9,0.5c0.1,0.1,0.3,0.1,0.4,0.2c0.4,0.2,0.8,0.4,1.2,0.7v0c0.1,0.1,0.3,0.1,0.4,0.2c0.1,0.1,0.2,0.1,0.3,0.2
					c0.1,0.1,0.2,0.1,0.3,0.2v0c0.4,0.2,0.7,0.4,1.1,0.6c0.2,0.1,0.4,0.3,0.6,0.4c0.4,0.2,0.8,0.5,1.2,0.8c0.5,0.4,1,0.7,1.5,1.1
					c0.2,0.1,0.4,0.3,0.6,0.5c0.7,0.5,1.4,1.1,2,1.7c0.7,0.6,1.4,1.3,2.1,2c0.1,0.1,0.2,0.2,0.4,0.3c0.2,0.2,0.4,0.4,0.6,0.6
					c1.2,1.3,2.3,2.8,3.3,4.3c0.7,1.1,1.3,2.2,1.9,3.4c0.3,0.5,0.5,1.1,0.8,1.7l0.1,0.3c0.9,2.3,1.6,4.9,1.9,7.8c0,0,0,0.1,0,0.1
					c0,0.2,0,0.4,0,0.6c0.2,1.5,0.3,3.2,0.3,4.9c0,1.5-0.1,3.1-0.2,4.5c0,0.4-0.1,0.9-0.2,1.3c-0.4,3.3-1.3,6.3-2.5,9
					c-0.4,0.9-0.9,1.8-1.4,2.7c-1,1.6-2,3.1-3.3,4.5c-0.6,0.6-1.1,1.2-1.8,1.8c-0.7,0.7-1.5,1.4-2.4,2c-0.4,0.3-0.8,0.6-1.2,0.9
					c-1.6,1.1-3.3,2-5.1,2.7c-1.4,0.6-2.9,1.1-4.4,1.5c-1.8,0.5-3.7,0.8-5.6,1v15.9h-11v-16c-0.3,0-0.6-0.1-0.9-0.1
					c-1.5-0.2-3-0.5-4.4-0.8c-2.3-0.6-4.5-1.3-6.6-2.2c-1.5-0.7-2.8-1.4-4.1-2.2c-2-1.3-3.8-2.7-5.4-4.4c-0.1-0.1-0.2-0.2-0.3-0.3
					c-0.5-0.6-1.1-1.1-1.6-1.8c-0.5-0.7-1-1.4-1.5-2.1c-1.4-2-2.5-4.1-3.4-6.5c-0.5-1.2-0.9-2.4-1.3-3.7c-0.7-2.3-1.2-4.8-1.4-7.5
					c-0.2-1.5-0.3-3-0.3-4.5c0,0,0,0,0,0c0-0.7,0-1.4,0-2h23.4c0,2.3,0.2,4.3,0.5,6.2c0,0,0,0.1,0,0.1c0.5,3,1.6,5.5,3,7.4
					c0.1,0.1,0.2,0.3,0.3,0.4c0.1,0.1,0.2,0.3,0.3,0.4c0,0,0,0,0,0c1.6,1.8,3.6,3,6.1,3.6c0.2,0,0.4,0.1,0.5,0.1
					c0.9,0.2,1.8,0.2,2.7,0.2c1.5,0,2.9-0.3,4.2-0.8c0.1-0.1,0.3-0.1,0.4-0.2c1.1-0.5,2.1-1.3,2.9-2.2c1.6-1.9,2.5-4.3,2.7-7.4
					c0,0,0,0,0,0c0-0.5,0-0.9,0-1.4c0-3.5-0.6-6.3-1.9-8.5l0,0.2l-0.1-0.5c0,0,0,0,0,0c-0.2-0.4-0.4-0.7-0.7-1
					c-0.4-0.5-0.9-1.1-1.5-1.6c-0.5-0.5-1.1-1-1.8-1.5c-0.1-0.1-0.3-0.2-0.5-0.3c-0.5-0.3-0.9-0.6-1.4-1c-0.4-0.2-0.7-0.4-1.1-0.7
					c-0.3-0.2-0.7-0.4-1.1-0.6c-0.3-0.2-0.7-0.4-1.1-0.5c-0.3-0.2-0.7-0.4-1.1-0.5c-0.1,0-0.2-0.1-0.3-0.1c-0.9-0.4-1.7-0.8-2.5-1.2
					c-0.2-0.1-0.4-0.1-0.5-0.2c-1-0.5-1.9-0.9-2.8-1.4c-0.1,0-0.2-0.1-0.2-0.1h0c-1.6-0.8-3.1-1.6-4.5-2.4c-0.6-0.3-1.1-0.6-1.7-0.9
					c-0.1-0.1-0.3-0.2-0.4-0.3c-0.9-0.5-1.8-1-2.6-1.6h0c-2.3-1.5-4.3-3.1-6.1-4.9c0,0,0,0,0,0c-0.1-0.1-0.3-0.3-0.4-0.4l-0.3-0.3
					c-2.2-2.3-4-4.8-5.4-7.7c-0.4-0.7-0.7-1.5-1-2.2l0,0c-0.8-1.9-1.3-4-1.7-6.3c-0.1-0.7-0.2-1.4-0.3-2.1c-0.1-0.7-0.1-1.4-0.2-2.1
					c-0.1-1-0.1-2-0.1-3c0-1.8,0.1-3.6,0.3-5.3c0.2-1.5,0.5-3,0.9-4.4c0.7-2.5,1.6-4.9,2.9-7.1c0.7-1.3,1.6-2.5,2.5-3.7
					c0.4-0.5,0.8-1,1.3-1.5c0.3-0.4,0.7-0.7,1-1.1c0.9-0.9,1.8-1.7,2.8-2.4c1.4-1.1,2.8-2,4.4-2.8v0c2-1,4.2-1.9,6.5-2.5
					c1.2-0.3,2.5-0.6,3.8-0.8c0.9-0.2,1.8-0.3,2.7-0.4v-16.7h11.1v17c1.5,0.2,2.9,0.6,4.2,1c1.5,0.4,2.9,1,4.3,1.6
					c2.2,1,4.3,2.2,6.1,3.8c0.1,0,0.1,0.1,0.2,0.2c0.9,0.7,1.8,1.5,2.7,2.5c0.9,0.9,1.7,1.9,2.5,2.9c0.9,1.2,1.7,2.4,2.4,3.7
					c0.4,0.7,0.7,1.4,1.1,2.1c1.2,2.6,2.2,5.5,2.8,8.5c0.1,0.4,0.1,0.7,0.2,1.1c0.5,2.9,0.8,6,0.8,9.2V275.7z M460,144.3
					c-7,4.1-24,11.5-31.8,8.1c-1.4-0.7-3.4-2-4.3-6.5c-3.7-18.9-18.5-28.8-31.5-30.2c-9.5-1-17.2,2.5-20.1,9.3
					c-1.3,3-6.4,11.1-9.4,13.8c-4.7,4.1-16.6,3.5-22,0c-3.1-2-3.9-4.2-2.9-7.6c1.6-5.3,0.6-10.2-2.7-13.7c-2.1-2.3-5-3.9-8.9-5
					c11.6-5.9,22.6-14.1,29-25.2c7.4-12.9,7.7-27.7,1-44c-8-19.2-17.7-28.5-29-27.9c-13.8,0.8-27.4,16.6-41.5,48.4
					c-9.8,22-16.1,43.5-16.4,44.4l11.5,3.4c0.1-0.2,6.4-21.6,15.8-42.9c16.2-36.6,27.2-41,31.1-41.2c5.6-0.3,11.7,7,17.3,20.5
					c5.3,12.8,5.2,23.8-0.3,33.4c-7.8,13.5-25.1,21.9-38.4,26.6c-7.1,2.5-13.7,4.2-18.8,5.3c-5.7,0.9-9.6,1.8-9.9,1.8l0,0.1
					c-3.2-3.9-8.1-6.4-13.6-6.4h-21.2c-6.8,0-12.7,3.9-15.6,9.6l0.6-3.3c-0.3-0.1-4.2-0.9-9.9-1.8c-5.1-1.1-11.7-2.8-18.8-5.3
					c-13.2-4.7-30.6-13-38.4-26.6c-5.5-9.6-5.6-20.5-0.3-33.4c5.6-13.6,11.8-20.8,17.3-20.5c4,0.2,14.9,4.7,31.1,41.1
					c9.5,21.3,15.8,42.8,15.8,43l11.5-3.4c-0.3-0.9-6.6-22.4-16.4-44.4c-14.1-31.8-27.6-47.6-41.4-48.4c-11.3-0.6-21.1,8.8-29,27.9
					c-6.8,16.3-6.5,31.1,1,44c6.4,11.2,17.4,19.3,29,25.2c-3.9,1.1-6.8,2.8-8.9,5c-3.3,3.6-4.3,8.4-2.7,13.7c1,3.4,0.1,5.7-2.9,7.6
					c-5.4,3.5-17.3,4.1-22,0c-3-2.6-8-10.7-9.4-13.8c-2.9-6.8-10.7-10.3-20.1-9.3c-13,1.4-27.8,11.3-31.5,30.2
					c-0.9,4.5-2.9,5.8-4.3,6.5c-7.5,3.4-23.5-3.2-31.8-8L40,154.6c2.2,1.3,18.5,10.6,32.8,10.6c3.5,0,6.9-0.6,10-1.9
					c4.1-1.9,9.4-6,11.2-15.2c2.5-12.9,12.4-19.6,21-20.6c3.8-0.4,7.1,0.5,7.8,2.2c1.7,3.9,7.6,13.7,12.4,18
					c0.8,0.7,1.7,1.3,2.6,1.9c0.2,0.1,0.4,0.2,0.6,0.3h-1.8c-16.6,4.5-27.7,12.8-34.8,22.9c-20.7,29.6-7.8,75.6-0.6,95.5v52.1
					c0,0-8.1,26.8-9.4,38.4c-4,35.4,0.5,59.5,10,75.5c6.5,11.1,15.3,18.3,25.3,22.8c24.1,10.9,54.9,6,76.1,0.1h97.8
					c21.4,5.8,52.5,10.7,76.9,0h2.1c15.8,0,28.6-12.8,28.6-28.6v-3.6c8.8-21.3,10.5-53.3,0-100.8v-75.9c4.1-17.9,6.5-40.4,0-59.6
					c-5.8-17.1-18.6-31.5-43.6-37.6c-1.9-0.5-3.8-0.9-5.8-1.2h8.2c1.2-0.7,2.2-1.4,3.2-2.2c4.8-4.3,10.8-14.1,12.4-18
					c0.7-1.7,4-2.6,7.8-2.2c8.7,1,18.5,7.7,21,20.6c1.8,9.2,7.1,13.3,11.2,15.2c3,1.4,6.5,1.9,10,1.9c14.4,0,30.6-9.3,32.8-10.6
					L460,144.3z M403.4,280.1v39H338L275.9,390v62.6h-48v-67.3L171,320.4h-65v-42.3h65.3l59.6-68v-56.7h45.8v57.8l60.4,68.9H403.4z
					 M247.8,200.3l-5.8,6.6l-7.2,8.2l-3.9,4.5v-0.4l-51.6,58.9h0.2l-4.6,5.3l-9.9,11.2l-4.3,4.8l80.3,91.6l0.9,1.1l5.8,6.6l6.1,6.9
					l5.5-6.3l7-7.9l9.6-10.9v0.4l54.2-61.8h-0.1l2.8-3.2l5.3-6l7.3-8.3l1.3-1.5l-93.1-106.2L247.8,200.3z M266.3,240
					c1.5,0.4,2.9,1,4.3,1.6c2.2,1,4.3,2.2,6.1,3.8c0.1,0,0.1,0.1,0.2,0.2c0.9,0.7,1.8,1.5,2.7,2.5c0.9,0.9,1.7,1.9,2.5,2.9
					c0.9,1.2,1.7,2.4,2.4,3.7c0.4,0.7,0.7,1.4,1.1,2.1c1.2,2.6,2.2,5.5,2.8,8.5c0.1,0.4,0.1,0.7,0.2,1.1c0.5,2.9,0.8,6,0.8,9.2v0.2
					h-23.5c0-2.4-0.2-4.5-0.5-6.4c-0.4-2.5-1.2-4.6-2.2-6.2c-1-1.6-2.2-2.7-3.6-3.4c0,0-0.1,0-0.1,0c-1.2-0.6-2.6-1-4.2-1
					c-1.1,0-2,0.1-2.9,0.4c-0.1,0-0.1,0-0.1,0c-1.6,0.5-3,1.5-4.1,2.9c-0.5,0.7-1,1.5-1.4,2.4c-0.1,0.2-0.2,0.5-0.3,0.7
					c-0.6,1.7-0.9,3.7-0.9,6c0,1.3,0.1,2.5,0.3,3.6c0.4,2.3,1.3,4.2,2.6,5.7c1.5,1.7,3.6,3.4,6.4,5v0c0.8,0.5,1.7,0.9,2.6,1.4
					c0.1,0,0.1,0.1,0.2,0.1v0c0,0,0.1,0,0.1,0.1c0.5,0.3,1.1,0.5,1.6,0.8c0.8,0.4,1.5,0.7,2.2,1.1c0.5,0.3,1,0.5,1.5,0.8
					c0.4,0.2,0.7,0.4,1.1,0.6c0,0,0,0,0.1,0c0.3,0.2,0.6,0.3,0.9,0.5c0.1,0.1,0.3,0.1,0.4,0.2c0.3,0.1,0.5,0.3,0.8,0.4
					c0.1,0.1,0.3,0.1,0.4,0.2c0.3,0.2,0.6,0.3,0.9,0.5c0.1,0.1,0.3,0.1,0.4,0.2c0.4,0.2,0.8,0.4,1.2,0.7v0c0.1,0.1,0.3,0.1,0.4,0.2
					c0.1,0.1,0.2,0.1,0.3,0.2c0.1,0.1,0.2,0.1,0.3,0.2v0c0.4,0.2,0.7,0.4,1.1,0.6c0.2,0.1,0.4,0.3,0.6,0.4c0.4,0.2,0.8,0.5,1.2,0.8
					c0.5,0.4,1,0.7,1.5,1.1c0.2,0.1,0.4,0.3,0.6,0.5c0.7,0.5,1.4,1.1,2,1.7c0.7,0.6,1.4,1.3,2.1,2c0.1,0.1,0.2,0.2,0.4,0.3
					c0.2,0.2,0.4,0.4,0.6,0.6c1.2,1.3,2.3,2.8,3.3,4.3c0.7,1.1,1.3,2.2,1.9,3.4c0.3,0.5,0.5,1.1,0.8,1.7l0.1,0.3
					c0.9,2.3,1.6,4.9,1.9,7.8c0,0,0,0.1,0,0.1c0,0.2,0,0.4,0,0.6c0.2,1.5,0.3,3.2,0.3,4.9c0,1.5-0.1,3.1-0.2,4.5
					c0,0.4-0.1,0.9-0.2,1.3c-0.4,3.3-1.3,6.3-2.5,9c-0.4,0.9-0.9,1.8-1.4,2.7c-1,1.6-2,3.1-3.3,4.5c-0.6,0.6-1.1,1.2-1.8,1.8
					c-0.7,0.7-1.5,1.4-2.4,2c-0.4,0.3-0.8,0.6-1.2,0.9c-1.6,1.1-3.3,2-5.1,2.7c-1.4,0.6-2.9,1.1-4.4,1.5c-1.8,0.5-3.7,0.8-5.6,1
					v15.9h-11v-16c-0.3,0-0.6-0.1-0.9-0.1c-1.5-0.2-3-0.5-4.4-0.8c-2.3-0.6-4.5-1.3-6.6-2.2c-1.5-0.7-2.8-1.4-4.1-2.2
					c-2-1.3-3.8-2.7-5.4-4.4c-0.1-0.1-0.2-0.2-0.3-0.3c-0.5-0.6-1.1-1.1-1.6-1.8c-0.5-0.7-1-1.4-1.5-2.1c-1.4-2-2.5-4.1-3.4-6.5
					c-0.5-1.2-0.9-2.4-1.3-3.7c-0.7-2.3-1.2-4.8-1.4-7.5c-0.2-1.5-0.3-3-0.3-4.5c0,0,0,0,0,0c0-0.7,0-1.4,0-2h23.4
					c0,2.3,0.2,4.3,0.5,6.2c0,0,0,0.1,0,0.1c0.5,3,1.6,5.5,3,7.4c0.1,0.1,0.2,0.3,0.3,0.4c0.1,0.1,0.2,0.3,0.3,0.4c0,0,0,0,0,0
					c1.6,1.8,3.6,3,6.1,3.6c0.2,0,0.4,0.1,0.5,0.1c0.9,0.2,1.8,0.2,2.7,0.2c1.5,0,2.9-0.3,4.2-0.8c0.1-0.1,0.3-0.1,0.4-0.2
					c1.1-0.5,2.1-1.3,2.9-2.2c1.6-1.9,2.5-4.3,2.7-7.4c0,0,0,0,0,0c0-0.5,0-0.9,0-1.4c0-3.5-0.6-6.3-1.9-8.5l0,0.2l-0.1-0.5
					c0,0,0,0,0,0c-0.2-0.4-0.4-0.7-0.7-1c-0.4-0.5-0.9-1.1-1.5-1.6c-0.5-0.5-1.1-1-1.8-1.5c-0.1-0.1-0.3-0.2-0.5-0.3
					c-0.5-0.3-0.9-0.6-1.4-1c-0.4-0.2-0.7-0.4-1.1-0.7c-0.3-0.2-0.7-0.4-1.1-0.6c-0.3-0.2-0.7-0.4-1.1-0.5c-0.3-0.2-0.7-0.4-1.1-0.5
					c-0.1,0-0.2-0.1-0.3-0.1c-0.9-0.4-1.7-0.8-2.5-1.2c-0.2-0.1-0.4-0.1-0.5-0.2c-1-0.5-1.9-0.9-2.8-1.4c-0.1,0-0.2-0.1-0.2-0.1h0
					c-1.6-0.8-3.1-1.6-4.5-2.4c-0.6-0.3-1.1-0.6-1.7-0.9c-0.1-0.1-0.3-0.2-0.4-0.3c-0.9-0.5-1.8-1-2.6-1.6h0
					c-2.3-1.5-4.3-3.1-6.1-4.9c0,0,0,0,0,0c-0.1-0.1-0.3-0.3-0.4-0.4l-0.3-0.3c-2.2-2.3-4-4.8-5.4-7.7c-0.4-0.7-0.7-1.5-1-2.2l0,0
					c-0.8-1.9-1.3-4-1.7-6.3c-0.1-0.7-0.2-1.4-0.3-2.1c-0.1-0.7-0.1-1.4-0.2-2.1c-0.1-1-0.1-2-0.1-3c0-1.8,0.1-3.6,0.3-5.3
					c0.2-1.5,0.5-3,0.9-4.4c0.7-2.5,1.6-4.9,2.9-7.1c0.7-1.3,1.6-2.5,2.5-3.7c0.4-0.5,0.8-1,1.3-1.5c0.3-0.4,0.7-0.7,1-1.1
					c0.9-0.9,1.8-1.7,2.8-2.4c1.4-1.1,2.8-2,4.4-2.8v0c2-1,4.2-1.9,6.5-2.5c1.2-0.3,2.5-0.6,3.8-0.8c0.9-0.2,1.8-0.3,2.7-0.4v-16.7
					h11.1v17C263.5,239.3,264.9,239.6,266.3,240z M253.5,193.9l-5.7,6.5l-5.8,6.6l-7.2,8.2l-3.9,4.5v-0.4l-51.6,58.9h0.2l-4.6,5.3
					l-9.9,11.2l-4.3,4.8l80.3,91.6l0.9,1.1l5.8,6.6l6.1,6.9l5.5-6.3l7-7.9l9.6-10.9v0.4l54.2-61.8h-0.1l2.8-3.2l5.3-6l7.3-8.3
					l1.3-1.5L253.5,193.9z M289.3,275.7h-23.5c0-2.4-0.2-4.5-0.5-6.4c-0.4-2.5-1.2-4.6-2.2-6.2c-1-1.6-2.2-2.7-3.6-3.4
					c0,0-0.1,0-0.1,0c-1.2-0.6-2.6-1-4.2-1c-1.1,0-2,0.1-2.9,0.4c-0.1,0-0.1,0-0.1,0c-1.6,0.5-3,1.5-4.1,2.9c-0.5,0.7-1,1.5-1.4,2.4
					c-0.1,0.2-0.2,0.5-0.3,0.7c-0.6,1.7-0.9,3.7-0.9,6c0,1.3,0.1,2.5,0.3,3.6c0.4,2.3,1.3,4.2,2.6,5.7c1.5,1.7,3.6,3.4,6.4,5v0
					c0.8,0.5,1.7,0.9,2.6,1.4c0.1,0,0.1,0.1,0.2,0.1v0c0,0,0.1,0,0.1,0.1c0.5,0.3,1.1,0.5,1.6,0.8c0.8,0.4,1.5,0.7,2.2,1.1
					c0.5,0.3,1,0.5,1.5,0.8c0.4,0.2,0.7,0.4,1.1,0.6c0,0,0,0,0.1,0c0.3,0.2,0.6,0.3,0.9,0.5c0.1,0.1,0.3,0.1,0.4,0.2
					c0.3,0.1,0.5,0.3,0.8,0.4c0.1,0.1,0.3,0.1,0.4,0.2c0.3,0.2,0.6,0.3,0.9,0.5c0.1,0.1,0.3,0.1,0.4,0.2c0.4,0.2,0.8,0.4,1.2,0.7v0
					c0.1,0.1,0.3,0.1,0.4,0.2c0.1,0.1,0.2,0.1,0.3,0.2c0.1,0.1,0.2,0.1,0.3,0.2v0c0.4,0.2,0.7,0.4,1.1,0.6c0.2,0.1,0.4,0.3,0.6,0.4
					c0.4,0.2,0.8,0.5,1.2,0.8c0.5,0.4,1,0.7,1.5,1.1c0.2,0.1,0.4,0.3,0.6,0.5c0.7,0.5,1.4,1.1,2,1.7c0.7,0.6,1.4,1.3,2.1,2
					c0.1,0.1,0.2,0.2,0.4,0.3c0.2,0.2,0.4,0.4,0.6,0.6c1.2,1.3,2.3,2.8,3.3,4.3c0.7,1.1,1.3,2.2,1.9,3.4c0.3,0.5,0.5,1.1,0.8,1.7
					l0.1,0.3c0.9,2.3,1.6,4.9,1.9,7.8c0,0,0,0.1,0,0.1c0,0.2,0,0.4,0,0.6c0.2,1.5,0.3,3.2,0.3,4.9c0,1.5-0.1,3.1-0.2,4.5
					c0,0.4-0.1,0.9-0.2,1.3c-0.4,3.3-1.3,6.3-2.5,9c-0.4,0.9-0.9,1.8-1.4,2.7c-1,1.6-2,3.1-3.3,4.5c-0.6,0.6-1.1,1.2-1.8,1.8
					c-0.7,0.7-1.5,1.4-2.4,2c-0.4,0.3-0.8,0.6-1.2,0.9c-1.6,1.1-3.3,2-5.1,2.7c-1.4,0.6-2.9,1.1-4.4,1.5c-1.8,0.5-3.7,0.8-5.6,1
					v15.9h-11v-16c-0.3,0-0.6-0.1-0.9-0.1c-1.5-0.2-3-0.5-4.4-0.8c-2.3-0.6-4.5-1.3-6.6-2.2c-1.5-0.7-2.8-1.4-4.1-2.2
					c-2-1.3-3.8-2.7-5.4-4.4c-0.1-0.1-0.2-0.2-0.3-0.3c-0.5-0.6-1.1-1.1-1.6-1.8c-0.5-0.7-1-1.4-1.5-2.1c-1.4-2-2.5-4.1-3.4-6.5
					c-0.5-1.2-0.9-2.4-1.3-3.7c-0.7-2.3-1.2-4.8-1.4-7.5c-0.2-1.5-0.3-3-0.3-4.5c0,0,0,0,0,0c0-0.7,0-1.4,0-2h23.4
					c0,2.3,0.2,4.3,0.5,6.2c0,0,0,0.1,0,0.1c0.5,3,1.6,5.5,3,7.4c0.1,0.1,0.2,0.3,0.3,0.4c0.1,0.1,0.2,0.3,0.3,0.4c0,0,0,0,0,0
					c1.6,1.8,3.6,3,6.1,3.6c0.2,0,0.4,0.1,0.5,0.1c0.9,0.2,1.8,0.2,2.7,0.2c1.5,0,2.9-0.3,4.2-0.8c0.1-0.1,0.3-0.1,0.4-0.2
					c1.1-0.5,2.1-1.3,2.9-2.2c1.6-1.9,2.5-4.3,2.7-7.4c0,0,0,0,0,0c0-0.5,0-0.9,0-1.4c0-3.5-0.6-6.3-1.9-8.5l0,0.2l-0.1-0.5
					c0,0,0,0,0,0c-0.2-0.4-0.4-0.7-0.7-1c-0.4-0.5-0.9-1.1-1.5-1.6c-0.5-0.5-1.1-1-1.8-1.5c-0.1-0.1-0.3-0.2-0.5-0.3
					c-0.5-0.3-0.9-0.6-1.4-1c-0.4-0.2-0.7-0.4-1.1-0.7c-0.3-0.2-0.7-0.4-1.1-0.6c-0.3-0.2-0.7-0.4-1.1-0.5c-0.3-0.2-0.7-0.4-1.1-0.5
					c-0.1,0-0.2-0.1-0.3-0.1c-0.9-0.4-1.7-0.8-2.5-1.2c-0.2-0.1-0.4-0.1-0.5-0.2c-1-0.5-1.9-0.9-2.8-1.4c-0.1,0-0.2-0.1-0.2-0.1h0
					c-1.6-0.8-3.1-1.6-4.5-2.4c-0.6-0.3-1.1-0.6-1.7-0.9c-0.1-0.1-0.3-0.2-0.4-0.3c-0.9-0.5-1.8-1-2.6-1.6h0
					c-2.3-1.5-4.3-3.1-6.1-4.9c0,0,0,0,0,0c-0.1-0.1-0.3-0.3-0.4-0.4l-0.3-0.3c-2.2-2.3-4-4.8-5.4-7.7c-0.4-0.7-0.7-1.5-1-2.2l0,0
					c-0.8-1.9-1.3-4-1.7-6.3c-0.1-0.7-0.2-1.4-0.3-2.1c-0.1-0.7-0.1-1.4-0.2-2.1c-0.1-1-0.1-2-0.1-3c0-1.8,0.1-3.6,0.3-5.3
					c0.2-1.5,0.5-3,0.9-4.4c0.7-2.5,1.6-4.9,2.9-7.1c0.7-1.3,1.6-2.5,2.5-3.7c0.4-0.5,0.8-1,1.3-1.5c0.3-0.4,0.7-0.7,1-1.1
					c0.9-0.9,1.8-1.7,2.8-2.4c1.4-1.1,2.8-2,4.4-2.8v0c2-1,4.2-1.9,6.5-2.5c1.2-0.3,2.5-0.6,3.8-0.8c0.9-0.2,1.8-0.3,2.7-0.4v-16.7
					h11.1v17c1.5,0.2,2.9,0.6,4.2,1c1.5,0.4,2.9,1,4.3,1.6c2.2,1,4.3,2.2,6.1,3.8c0.1,0,0.1,0.1,0.2,0.2c0.9,0.7,1.8,1.5,2.7,2.5
					c0.9,0.9,1.7,1.9,2.5,2.9c0.9,1.2,1.7,2.4,2.4,3.7c0.4,0.7,0.7,1.4,1.1,2.1c1.2,2.6,2.2,5.5,2.8,8.5c0.1,0.4,0.1,0.7,0.2,1.1
					c0.5,2.9,0.8,6,0.8,9.2V275.7z M253.5,193.9l-5.7,6.5l-5.8,6.6l-7.2,8.2l-3.9,4.5v-0.4l-51.6,58.9h0.2l-4.6,5.3l-9.9,11.2
					l-4.3,4.8l80.3,91.6l0.9,1.1l5.8,6.6l6.1,6.9l5.5-6.3l7-7.9l9.6-10.9v0.4l54.2-61.8h-0.1l2.8-3.2l5.3-6l7.3-8.3l1.3-1.5
					L253.5,193.9z M289.3,275.7h-23.5c0-2.4-0.2-4.5-0.5-6.4c-0.4-2.5-1.2-4.6-2.2-6.2c-1-1.6-2.2-2.7-3.6-3.4c0,0-0.1,0-0.1,0
					c-1.2-0.6-2.6-1-4.2-1c-1.1,0-2,0.1-2.9,0.4c-0.1,0-0.1,0-0.1,0c-1.6,0.5-3,1.5-4.1,2.9c-0.5,0.7-1,1.5-1.4,2.4
					c-0.1,0.2-0.2,0.5-0.3,0.7c-0.6,1.7-0.9,3.7-0.9,6c0,1.3,0.1,2.5,0.3,3.6c0.4,2.3,1.3,4.2,2.6,5.7c1.5,1.7,3.6,3.4,6.4,5v0
					c0.8,0.5,1.7,0.9,2.6,1.4c0.1,0,0.1,0.1,0.2,0.1v0c0,0,0.1,0,0.1,0.1c0.5,0.3,1.1,0.5,1.6,0.8c0.8,0.4,1.5,0.7,2.2,1.1
					c0.5,0.3,1,0.5,1.5,0.8c0.4,0.2,0.7,0.4,1.1,0.6c0,0,0,0,0.1,0c0.3,0.2,0.6,0.3,0.9,0.5c0.1,0.1,0.3,0.1,0.4,0.2
					c0.3,0.1,0.5,0.3,0.8,0.4c0.1,0.1,0.3,0.1,0.4,0.2c0.3,0.2,0.6,0.3,0.9,0.5c0.1,0.1,0.3,0.1,0.4,0.2c0.4,0.2,0.8,0.4,1.2,0.7v0
					c0.1,0.1,0.3,0.1,0.4,0.2c0.1,0.1,0.2,0.1,0.3,0.2c0.1,0.1,0.2,0.1,0.3,0.2v0c0.4,0.2,0.7,0.4,1.1,0.6c0.2,0.1,0.4,0.3,0.6,0.4
					c0.4,0.2,0.8,0.5,1.2,0.8c0.5,0.4,1,0.7,1.5,1.1c0.2,0.1,0.4,0.3,0.6,0.5c0.7,0.5,1.4,1.1,2,1.7c0.7,0.6,1.4,1.3,2.1,2
					c0.1,0.1,0.2,0.2,0.4,0.3c0.2,0.2,0.4,0.4,0.6,0.6c1.2,1.3,2.3,2.8,3.3,4.3c0.7,1.1,1.3,2.2,1.9,3.4c0.3,0.5,0.5,1.1,0.8,1.7
					l0.1,0.3c0.9,2.3,1.6,4.9,1.9,7.8c0,0,0,0.1,0,0.1c0,0.2,0,0.4,0,0.6c0.2,1.5,0.3,3.2,0.3,4.9c0,1.5-0.1,3.1-0.2,4.5
					c0,0.4-0.1,0.9-0.2,1.3c-0.4,3.3-1.3,6.3-2.5,9c-0.4,0.9-0.9,1.8-1.4,2.7c-1,1.6-2,3.1-3.3,4.5c-0.6,0.6-1.1,1.2-1.8,1.8
					c-0.7,0.7-1.5,1.4-2.4,2c-0.4,0.3-0.8,0.6-1.2,0.9c-1.6,1.1-3.3,2-5.1,2.7c-1.4,0.6-2.9,1.1-4.4,1.5c-1.8,0.5-3.7,0.8-5.6,1
					v15.9h-11v-16c-0.3,0-0.6-0.1-0.9-0.1c-1.5-0.2-3-0.5-4.4-0.8c-2.3-0.6-4.5-1.3-6.6-2.2c-1.5-0.7-2.8-1.4-4.1-2.2
					c-2-1.3-3.8-2.7-5.4-4.4c-0.1-0.1-0.2-0.2-0.3-0.3c-0.5-0.6-1.1-1.1-1.6-1.8c-0.5-0.7-1-1.4-1.5-2.1c-1.4-2-2.5-4.1-3.4-6.5
					c-0.5-1.2-0.9-2.4-1.3-3.7c-0.7-2.3-1.2-4.8-1.4-7.5c-0.2-1.5-0.3-3-0.3-4.5c0,0,0,0,0,0c0-0.7,0-1.4,0-2h23.4
					c0,2.3,0.2,4.3,0.5,6.2c0,0,0,0.1,0,0.1c0.5,3,1.6,5.5,3,7.4c0.1,0.1,0.2,0.3,0.3,0.4c0.1,0.1,0.2,0.3,0.3,0.4c0,0,0,0,0,0
					c1.6,1.8,3.6,3,6.1,3.6c0.2,0,0.4,0.1,0.5,0.1c0.9,0.2,1.8,0.2,2.7,0.2c1.5,0,2.9-0.3,4.2-0.8c0.1-0.1,0.3-0.1,0.4-0.2
					c1.1-0.5,2.1-1.3,2.9-2.2c1.6-1.9,2.5-4.3,2.7-7.4c0,0,0,0,0,0c0-0.5,0-0.9,0-1.4c0-3.5-0.6-6.3-1.9-8.5l0,0.2l-0.1-0.5
					c0,0,0,0,0,0c-0.2-0.4-0.4-0.7-0.7-1c-0.4-0.5-0.9-1.1-1.5-1.6c-0.5-0.5-1.1-1-1.8-1.5c-0.1-0.1-0.3-0.2-0.5-0.3
					c-0.5-0.3-0.9-0.6-1.4-1c-0.4-0.2-0.7-0.4-1.1-0.7c-0.3-0.2-0.7-0.4-1.1-0.6c-0.3-0.2-0.7-0.4-1.1-0.5c-0.3-0.2-0.7-0.4-1.1-0.5
					c-0.1,0-0.2-0.1-0.3-0.1c-0.9-0.4-1.7-0.8-2.5-1.2c-0.2-0.1-0.4-0.1-0.5-0.2c-1-0.5-1.9-0.9-2.8-1.4c-0.1,0-0.2-0.1-0.2-0.1h0
					c-1.6-0.8-3.1-1.6-4.5-2.4c-0.6-0.3-1.1-0.6-1.7-0.9c-0.1-0.1-0.3-0.2-0.4-0.3c-0.9-0.5-1.8-1-2.6-1.6h0
					c-2.3-1.5-4.3-3.1-6.1-4.9c0,0,0,0,0,0c-0.1-0.1-0.3-0.3-0.4-0.4l-0.3-0.3c-2.2-2.3-4-4.8-5.4-7.7c-0.4-0.7-0.7-1.5-1-2.2l0,0
					c-0.8-1.9-1.3-4-1.7-6.3c-0.1-0.7-0.2-1.4-0.3-2.1c-0.1-0.7-0.1-1.4-0.2-2.1c-0.1-1-0.1-2-0.1-3c0-1.8,0.1-3.6,0.3-5.3
					c0.2-1.5,0.5-3,0.9-4.4c0.7-2.5,1.6-4.9,2.9-7.1c0.7-1.3,1.6-2.5,2.5-3.7c0.4-0.5,0.8-1,1.3-1.5c0.3-0.4,0.7-0.7,1-1.1
					c0.9-0.9,1.8-1.7,2.8-2.4c1.4-1.1,2.8-2,4.4-2.8v0c2-1,4.2-1.9,6.5-2.5c1.2-0.3,2.5-0.6,3.8-0.8c0.9-0.2,1.8-0.3,2.7-0.4v-16.7
					h11.1v17c1.5,0.2,2.9,0.6,4.2,1c1.5,0.4,2.9,1,4.3,1.6c2.2,1,4.3,2.2,6.1,3.8c0.1,0,0.1,0.1,0.2,0.2c0.9,0.7,1.8,1.5,2.7,2.5
					c0.9,0.9,1.7,1.9,2.5,2.9c0.9,1.2,1.7,2.4,2.4,3.7c0.4,0.7,0.7,1.4,1.1,2.1c1.2,2.6,2.2,5.5,2.8,8.5c0.1,0.4,0.1,0.7,0.2,1.1
					c0.5,2.9,0.8,6,0.8,9.2V275.7z M253.5,193.9l-5.7,6.5l-5.8,6.6l-7.2,8.2l-3.9,4.5v-0.4l-51.6,58.9h0.2l-4.6,5.3l-9.9,11.2
					l-4.3,4.8l80.3,91.6l0.9,1.1l5.8,6.6l6.1,6.9l5.5-6.3l7-7.9l9.6-10.9v0.4l54.2-61.8h-0.1l2.8-3.2l5.3-6l7.3-8.3l1.3-1.5
					L253.5,193.9z M289.3,275.7h-23.5c0-2.4-0.2-4.5-0.5-6.4c-0.4-2.5-1.2-4.6-2.2-6.2c-1-1.6-2.2-2.7-3.6-3.4c0,0-0.1,0-0.1,0
					c-1.2-0.6-2.6-1-4.2-1c-1.1,0-2,0.1-2.9,0.4c-0.1,0-0.1,0-0.1,0c-1.6,0.5-3,1.5-4.1,2.9c-0.5,0.7-1,1.5-1.4,2.4
					c-0.1,0.2-0.2,0.5-0.3,0.7c-0.6,1.7-0.9,3.7-0.9,6c0,1.3,0.1,2.5,0.3,3.6c0.4,2.3,1.3,4.2,2.6,5.7c1.5,1.7,3.6,3.4,6.4,5v0
					c0.8,0.5,1.7,0.9,2.6,1.4c0.1,0,0.1,0.1,0.2,0.1v0c0,0,0.1,0,0.1,0.1c0.5,0.3,1.1,0.5,1.6,0.8c0.8,0.4,1.5,0.7,2.2,1.1
					c0.5,0.3,1,0.5,1.5,0.8c0.4,0.2,0.7,0.4,1.1,0.6c0,0,0,0,0.1,0c0.3,0.2,0.6,0.3,0.9,0.5c0.1,0.1,0.3,0.1,0.4,0.2
					c0.3,0.1,0.5,0.3,0.8,0.4c0.1,0.1,0.3,0.1,0.4,0.2c0.3,0.2,0.6,0.3,0.9,0.5c0.1,0.1,0.3,0.1,0.4,0.2c0.4,0.2,0.8,0.4,1.2,0.7v0
					c0.1,0.1,0.3,0.1,0.4,0.2c0.1,0.1,0.2,0.1,0.3,0.2c0.1,0.1,0.2,0.1,0.3,0.2v0c0.4,0.2,0.7,0.4,1.1,0.6c0.2,0.1,0.4,0.3,0.6,0.4
					c0.4,0.2,0.8,0.5,1.2,0.8c0.5,0.4,1,0.7,1.5,1.1c0.2,0.1,0.4,0.3,0.6,0.5c0.7,0.5,1.4,1.1,2,1.7c0.7,0.6,1.4,1.3,2.1,2
					c0.1,0.1,0.2,0.2,0.4,0.3c0.2,0.2,0.4,0.4,0.6,0.6c1.2,1.3,2.3,2.8,3.3,4.3c0.7,1.1,1.3,2.2,1.9,3.4c0.3,0.5,0.5,1.1,0.8,1.7
					l0.1,0.3c0.9,2.3,1.6,4.9,1.9,7.8c0,0,0,0.1,0,0.1c0,0.2,0,0.4,0,0.6c0.2,1.5,0.3,3.2,0.3,4.9c0,1.5-0.1,3.1-0.2,4.5
					c0,0.4-0.1,0.9-0.2,1.3c-0.4,3.3-1.3,6.3-2.5,9c-0.4,0.9-0.9,1.8-1.4,2.7c-1,1.6-2,3.1-3.3,4.5c-0.6,0.6-1.1,1.2-1.8,1.8
					c-0.7,0.7-1.5,1.4-2.4,2c-0.4,0.3-0.8,0.6-1.2,0.9c-1.6,1.1-3.3,2-5.1,2.7c-1.4,0.6-2.9,1.1-4.4,1.5c-1.8,0.5-3.7,0.8-5.6,1
					v15.9h-11v-16c-0.3,0-0.6-0.1-0.9-0.1c-1.5-0.2-3-0.5-4.4-0.8c-2.3-0.6-4.5-1.3-6.6-2.2c-1.5-0.7-2.8-1.4-4.1-2.2
					c-2-1.3-3.8-2.7-5.4-4.4c-0.1-0.1-0.2-0.2-0.3-0.3c-0.5-0.6-1.1-1.1-1.6-1.8c-0.5-0.7-1-1.4-1.5-2.1c-1.4-2-2.5-4.1-3.4-6.5
					c-0.5-1.2-0.9-2.4-1.3-3.7c-0.7-2.3-1.2-4.8-1.4-7.5c-0.2-1.5-0.3-3-0.3-4.5c0,0,0,0,0,0c0-0.7,0-1.4,0-2h23.4
					c0,2.3,0.2,4.3,0.5,6.2c0,0,0,0.1,0,0.1c0.5,3,1.6,5.5,3,7.4c0.1,0.1,0.2,0.3,0.3,0.4c0.1,0.1,0.2,0.3,0.3,0.4c0,0,0,0,0,0
					c1.6,1.8,3.6,3,6.1,3.6c0.2,0,0.4,0.1,0.5,0.1c0.9,0.2,1.8,0.2,2.7,0.2c1.5,0,2.9-0.3,4.2-0.8c0.1-0.1,0.3-0.1,0.4-0.2
					c1.1-0.5,2.1-1.3,2.9-2.2c1.6-1.9,2.5-4.3,2.7-7.4c0,0,0,0,0,0c0-0.5,0-0.9,0-1.4c0-3.5-0.6-6.3-1.9-8.5l0,0.2l-0.1-0.5
					c0,0,0,0,0,0c-0.2-0.4-0.4-0.7-0.7-1c-0.4-0.5-0.9-1.1-1.5-1.6c-0.5-0.5-1.1-1-1.8-1.5c-0.1-0.1-0.3-0.2-0.5-0.3
					c-0.5-0.3-0.9-0.6-1.4-1c-0.4-0.2-0.7-0.4-1.1-0.7c-0.3-0.2-0.7-0.4-1.1-0.6c-0.3-0.2-0.7-0.4-1.1-0.5c-0.3-0.2-0.7-0.4-1.1-0.5
					c-0.1,0-0.2-0.1-0.3-0.1c-0.9-0.4-1.7-0.8-2.5-1.2c-0.2-0.1-0.4-0.1-0.5-0.2c-1-0.5-1.9-0.9-2.8-1.4c-0.1,0-0.2-0.1-0.2-0.1h0
					c-1.6-0.8-3.1-1.6-4.5-2.4c-0.6-0.3-1.1-0.6-1.7-0.9c-0.1-0.1-0.3-0.2-0.4-0.3c-0.9-0.5-1.8-1-2.6-1.6h0
					c-2.3-1.5-4.3-3.1-6.1-4.9c0,0,0,0,0,0c-0.1-0.1-0.3-0.3-0.4-0.4l-0.3-0.3c-2.2-2.3-4-4.8-5.4-7.7c-0.4-0.7-0.7-1.5-1-2.2l0,0
					c-0.8-1.9-1.3-4-1.7-6.3c-0.1-0.7-0.2-1.4-0.3-2.1c-0.1-0.7-0.1-1.4-0.2-2.1c-0.1-1-0.1-2-0.1-3c0-1.8,0.1-3.6,0.3-5.3
					c0.2-1.5,0.5-3,0.9-4.4c0.7-2.5,1.6-4.9,2.9-7.1c0.7-1.3,1.6-2.5,2.5-3.7c0.4-0.5,0.8-1,1.3-1.5c0.3-0.4,0.7-0.7,1-1.1
					c0.9-0.9,1.8-1.7,2.8-2.4c1.4-1.1,2.8-2,4.4-2.8v0c2-1,4.2-1.9,6.5-2.5c1.2-0.3,2.5-0.6,3.8-0.8c0.9-0.2,1.8-0.3,2.7-0.4v-16.7
					h11.1v17c1.5,0.2,2.9,0.6,4.2,1c1.5,0.4,2.9,1,4.3,1.6c2.2,1,4.3,2.2,6.1,3.8c0.1,0,0.1,0.1,0.2,0.2c0.9,0.7,1.8,1.5,2.7,2.5
					c0.9,0.9,1.7,1.9,2.5,2.9c0.9,1.2,1.7,2.4,2.4,3.7c0.4,0.7,0.7,1.4,1.1,2.1c1.2,2.6,2.2,5.5,2.8,8.5c0.1,0.4,0.1,0.7,0.2,1.1
					c0.5,2.9,0.8,6,0.8,9.2V275.7z M253.5,193.9l-5.7,6.5l-5.8,6.6l-7.2,8.2l-3.9,4.5v-0.4l-51.6,58.9h0.2l-4.6,5.3l-9.9,11.2
					l-4.3,4.8l80.3,91.6l0.9,1.1l5.8,6.6l6.1,6.9l5.5-6.3l7-7.9l9.6-10.9v0.4l54.2-61.8h-0.1l2.8-3.2l5.3-6l7.3-8.3l1.3-1.5
					L253.5,193.9z M289.3,275.7h-23.5c0-2.4-0.2-4.5-0.5-6.4c-0.4-2.5-1.2-4.6-2.2-6.2c-1-1.6-2.2-2.7-3.6-3.4c0,0-0.1,0-0.1,0
					c-1.2-0.6-2.6-1-4.2-1c-1.1,0-2,0.1-2.9,0.4c-0.1,0-0.1,0-0.1,0c-1.6,0.5-3,1.5-4.1,2.9c-0.5,0.7-1,1.5-1.4,2.4
					c-0.1,0.2-0.2,0.5-0.3,0.7c-0.6,1.7-0.9,3.7-0.9,6c0,1.3,0.1,2.5,0.3,3.6c0.4,2.3,1.3,4.2,2.6,5.7c1.5,1.7,3.6,3.4,6.4,5v0
					c0.8,0.5,1.7,0.9,2.6,1.4c0.1,0,0.1,0.1,0.2,0.1v0c0,0,0.1,0,0.1,0.1c0.5,0.3,1.1,0.5,1.6,0.8c0.8,0.4,1.5,0.7,2.2,1.1
					c0.5,0.3,1,0.5,1.5,0.8c0.4,0.2,0.7,0.4,1.1,0.6c0,0,0,0,0.1,0c0.3,0.2,0.6,0.3,0.9,0.5c0.1,0.1,0.3,0.1,0.4,0.2
					c0.3,0.1,0.5,0.3,0.8,0.4c0.1,0.1,0.3,0.1,0.4,0.2c0.3,0.2,0.6,0.3,0.9,0.5c0.1,0.1,0.3,0.1,0.4,0.2c0.4,0.2,0.8,0.4,1.2,0.7v0
					c0.1,0.1,0.3,0.1,0.4,0.2c0.1,0.1,0.2,0.1,0.3,0.2c0.1,0.1,0.2,0.1,0.3,0.2v0c0.4,0.2,0.7,0.4,1.1,0.6c0.2,0.1,0.4,0.3,0.6,0.4
					c0.4,0.2,0.8,0.5,1.2,0.8c0.5,0.4,1,0.7,1.5,1.1c0.2,0.1,0.4,0.3,0.6,0.5c0.7,0.5,1.4,1.1,2,1.7c0.7,0.6,1.4,1.3,2.1,2
					c0.1,0.1,0.2,0.2,0.4,0.3c0.2,0.2,0.4,0.4,0.6,0.6c1.2,1.3,2.3,2.8,3.3,4.3c0.7,1.1,1.3,2.2,1.9,3.4c0.3,0.5,0.5,1.1,0.8,1.7
					l0.1,0.3c0.9,2.3,1.6,4.9,1.9,7.8c0,0,0,0.1,0,0.1c0,0.2,0,0.4,0,0.6c0.2,1.5,0.3,3.2,0.3,4.9c0,1.5-0.1,3.1-0.2,4.5
					c0,0.4-0.1,0.9-0.2,1.3c-0.4,3.3-1.3,6.3-2.5,9c-0.4,0.9-0.9,1.8-1.4,2.7c-1,1.6-2,3.1-3.3,4.5c-0.6,0.6-1.1,1.2-1.8,1.8
					c-0.7,0.7-1.5,1.4-2.4,2c-0.4,0.3-0.8,0.6-1.2,0.9c-1.6,1.1-3.3,2-5.1,2.7c-1.4,0.6-2.9,1.1-4.4,1.5c-1.8,0.5-3.7,0.8-5.6,1
					v15.9h-11v-16c-0.3,0-0.6-0.1-0.9-0.1c-1.5-0.2-3-0.5-4.4-0.8c-2.3-0.6-4.5-1.3-6.6-2.2c-1.5-0.7-2.8-1.4-4.1-2.2
					c-2-1.3-3.8-2.7-5.4-4.4c-0.1-0.1-0.2-0.2-0.3-0.3c-0.5-0.6-1.1-1.1-1.6-1.8c-0.5-0.7-1-1.4-1.5-2.1c-1.4-2-2.5-4.1-3.4-6.5
					c-0.5-1.2-0.9-2.4-1.3-3.7c-0.7-2.3-1.2-4.8-1.4-7.5c-0.2-1.5-0.3-3-0.3-4.5c0,0,0,0,0,0c0-0.7,0-1.4,0-2h23.4
					c0,2.3,0.2,4.3,0.5,6.2c0,0,0,0.1,0,0.1c0.5,3,1.6,5.5,3,7.4c0.1,0.1,0.2,0.3,0.3,0.4c0.1,0.1,0.2,0.3,0.3,0.4c0,0,0,0,0,0
					c1.6,1.8,3.6,3,6.1,3.6c0.2,0,0.4,0.1,0.5,0.1c0.9,0.2,1.8,0.2,2.7,0.2c1.5,0,2.9-0.3,4.2-0.8c0.1-0.1,0.3-0.1,0.4-0.2
					c1.1-0.5,2.1-1.3,2.9-2.2c1.6-1.9,2.5-4.3,2.7-7.4c0,0,0,0,0,0c0-0.5,0-0.9,0-1.4c0-3.5-0.6-6.3-1.9-8.5l0,0.2l-0.1-0.5
					c0,0,0,0,0,0c-0.2-0.4-0.4-0.7-0.7-1c-0.4-0.5-0.9-1.1-1.5-1.6c-0.5-0.5-1.1-1-1.8-1.5c-0.1-0.1-0.3-0.2-0.5-0.3
					c-0.5-0.3-0.9-0.6-1.4-1c-0.4-0.2-0.7-0.4-1.1-0.7c-0.3-0.2-0.7-0.4-1.1-0.6c-0.3-0.2-0.7-0.4-1.1-0.5c-0.3-0.2-0.7-0.4-1.1-0.5
					c-0.1,0-0.2-0.1-0.3-0.1c-0.9-0.4-1.7-0.8-2.5-1.2c-0.2-0.1-0.4-0.1-0.5-0.2c-1-0.5-1.9-0.9-2.8-1.4c-0.1,0-0.2-0.1-0.2-0.1h0
					c-1.6-0.8-3.1-1.6-4.5-2.4c-0.6-0.3-1.1-0.6-1.7-0.9c-0.1-0.1-0.3-0.2-0.4-0.3c-0.9-0.5-1.8-1-2.6-1.6h0
					c-2.3-1.5-4.3-3.1-6.1-4.9c0,0,0,0,0,0c-0.1-0.1-0.3-0.3-0.4-0.4l-0.3-0.3c-2.2-2.3-4-4.8-5.4-7.7c-0.4-0.7-0.7-1.5-1-2.2l0,0
					c-0.8-1.9-1.3-4-1.7-6.3c-0.1-0.7-0.2-1.4-0.3-2.1c-0.1-0.7-0.1-1.4-0.2-2.1c-0.1-1-0.1-2-0.1-3c0-1.8,0.1-3.6,0.3-5.3
					c0.2-1.5,0.5-3,0.9-4.4c0.7-2.5,1.6-4.9,2.9-7.1c0.7-1.3,1.6-2.5,2.5-3.7c0.4-0.5,0.8-1,1.3-1.5c0.3-0.4,0.7-0.7,1-1.1
					c0.9-0.9,1.8-1.7,2.8-2.4c1.4-1.1,2.8-2,4.4-2.8v0c2-1,4.2-1.9,6.5-2.5c1.2-0.3,2.5-0.6,3.8-0.8c0.9-0.2,1.8-0.3,2.7-0.4v-16.7
					h11.1v17c1.5,0.2,2.9,0.6,4.2,1c1.5,0.4,2.9,1,4.3,1.6c2.2,1,4.3,2.2,6.1,3.8c0.1,0,0.1,0.1,0.2,0.2c0.9,0.7,1.8,1.5,2.7,2.5
					c0.9,0.9,1.7,1.9,2.5,2.9c0.9,1.2,1.7,2.4,2.4,3.7c0.4,0.7,0.7,1.4,1.1,2.1c1.2,2.6,2.2,5.5,2.8,8.5c0.1,0.4,0.1,0.7,0.2,1.1
					c0.5,2.9,0.8,6,0.8,9.2V275.7z"/>
			</g>
		</g>
	</g>
	<g>
		<path class="st4" d="M337.1,280.1l-60.4-68.9v-57.8h-45.8v56.7l-59.6,68H106v42.3h65l56.9,64.8v67.3h48V390l62.1-70.9h65.4v-39
			H337.1z M330,319.1l-54.2,61.8v-0.4l-9.6,10.9l-7,7.9l-5.5,6.3l-6.1-6.9l-5.8-6.6l-0.9-1.1l-80.3-91.6l0,0l18.6-21.3l51.6-58.9
			v0.4l3.9-4.5l7.2-8.2l5.8-6.6l5.7-6.5l93.1,106.2l0,0L330,319.1z"/>
	</g>
</g>
<g id="Layer_3">
</g>
<g id="Graphics">
</g>
<g id="Default_g_x2B__icon">
</g>
<g id="YouTube_Icon">
</g>
</svg>
