<?xml version="1.0" encoding="utf-8"?>
<!-- Generator: Adobe Illustrator 19.1.0, SVG Export Plug-In . SVG Version: 6.00 Build 0)  -->
<!DOCTYPE svg PUBLIC "-//W3C//DTD SVG 1.1//EN" "http://www.w3.org/Graphics/SVG/1.1/DTD/svg11.dtd">
<svg version="1.1" xmlns="http://www.w3.org/2000/svg" xmlns:xlink="http://www.w3.org/1999/xlink" x="0px" y="0px" width="507.3px"
	 height="406.4px" viewBox="0 0 507.3 406.4" style="enable-background:new 0 0 507.3 406.4;" xml:space="preserve">
<style type="text/css">
	.st0{fill:#016293;}
	.st1{fill:#9CBDD8;}
	.st2{fill:#9BD7D8;}
	.st3{fill:#016293;stroke:#016293;stroke-width:2.041;stroke-miterlimit:10;}
	.st4{fill:#FFFFFF;}
	.st5{fill:#231F20;}
	.st6{fill:#FFFFFF;stroke:#016293;stroke-width:1.0169;stroke-miterlimit:10;}
	.st7{fill:#FFFFFF;stroke:#016293;stroke-width:1.0185;stroke-miterlimit:10;}
	.st8{fill:#FFFFFF;stroke:#016293;stroke-width:1.0209;stroke-miterlimit:10;}
	.st9{fill:#016293;stroke:#FFFFFF;stroke-width:2;stroke-miterlimit:10;}
	.st10{fill:#016293;stroke:#FFFFFF;stroke-miterlimit:10;}
	.st11{fill:#FFFFFF;stroke:#016293;stroke-width:5.0184;stroke-miterlimit:10;}
	.st12{fill:none;stroke:#016293;stroke-width:3;stroke-miterlimit:10;}
	.st13{fill:#FFFFFF;stroke:#016293;stroke-width:3;stroke-miterlimit:10;}
	.st14{fill:#FFFFFF;stroke:#231F20;stroke-miterlimit:10;}
	.st15{fill:none;stroke:#231F20;stroke-miterlimit:10;}
	.st16{display:none;}
	.st17{display:inline;fill:#F26F6A;}
	.st18{fill:none;stroke:#9CBDD8;stroke-width:5.8821;stroke-miterlimit:10;}
	.st19{fill:#FFFFFF;stroke:#9CBDD8;stroke-width:5.8821;stroke-miterlimit:10;}
	.st20{fill:#9CBDD8;stroke:#FFFFFF;stroke-width:5.8821;stroke-miterlimit:10;}
	.st21{clip-path:url(#SVGID_2_);fill:#231F20;}
	.st22{clip-path:url(#SVGID_2_);fill:#046293;}
	.st23{clip-path:url(#SVGID_2_);fill:#9CBDD9;}
	.st24{clip-path:url(#SVGID_2_);fill:#9CD8D9;}
	.st25{clip-path:url(#SVGID_2_);fill:#FFFFFF;}
	.st26{clip-path:url(#SVGID_2_);}
	.st27{fill:#BDC4C9;}
	.st28{clip-path:url(#SVGID_2_);fill:none;stroke:#FFFFFF;stroke-width:0.809;stroke-miterlimit:10;}
	.st29{clip-path:url(#SVGID_2_);fill:none;stroke:#FFFFFF;stroke-width:0.453;stroke-miterlimit:10;}
	.st30{clip-path:url(#SVGID_2_);fill:none;stroke:#FFFFFF;stroke-width:0.535;stroke-miterlimit:10;}
	.st31{fill:#9CD8D9;}
	.st32{clip-path:url(#SVGID_4_);}
	.st33{clip-path:url(#SVGID_4_);fill:none;stroke:#231F20;stroke-width:0.689;stroke-miterlimit:10;}
	.st34{clip-path:url(#SVGID_4_);fill:none;stroke:#231F20;stroke-width:0.506;stroke-miterlimit:10;}
	.st35{fill:#066393;}
	.st36{fill:#9BD7D8;stroke:#016293;stroke-width:18.6809;stroke-miterlimit:10;}
	.st37{fill:#076393;}
	.st38{fill:none;stroke:#076393;stroke-width:3.5038;stroke-miterlimit:10;}
	.st39{fill:#FFFFFF;stroke:#076393;stroke-width:3.5038;stroke-miterlimit:10;}
	.st40{fill:#076393;stroke:#FFFFFF;stroke-width:3.5038;stroke-miterlimit:10;}
</style>
<g id="Layer_1">
</g>
<g id="Logo">
	<g>
		<g>
			<g id="XMLID_1_">
				<path class="st4" d="M180.3,364.2v-11.8c4.7-0.2,9.3-0.6,13.9-1.3l2.4,11.5C191.2,363.5,185.8,364,180.3,364.2z"/>
				<path class="st4" d="M173.3,352.5v11.6c-5.2-0.1-10.5-0.6-15.7-1.5l2.3-11C164.3,352.2,168.8,352.5,173.3,352.5z"/>
				<path class="st4" d="M150.8,361.4c-5-1.1-9.9-2.5-14.6-4.2l4-9.2c4.2,1.1,8.5,2.1,12.9,2.8L150.8,361.4z"/>
				<path class="st4" d="M203.4,361.3l-2.4-11.4c4.2-0.8,8.4-1.9,12.5-3.2h0l4.3,10.3C213.2,358.7,208.4,360.1,203.4,361.3z"/>
				<path class="st4" d="M129.6,354.7c-4.9-2.1-9.7-4.5-14.2-7.2l4.6-6.8c4.3,2,8.8,3.7,13.3,5.3L129.6,354.7z"/>
				<path class="st4" d="M224.3,354.4l-4.2-10c4.4-1.6,8.7-3.5,12.8-5.5l5.7,8.2C234,349.9,229.3,352.3,224.3,354.4z"/>
				<path class="st4" d="M109.5,343.7c-4.4-3-8.5-6.2-12.4-9.8l4.1-4c4,2.8,8.2,5.3,12.5,7.6L109.5,343.7z"/>
				<path class="st4" d="M244.5,343.3l-5.4-7.7c4.1-2.4,8.1-5,11.9-7.8l5.9,5.7C253,337.1,248.9,340.4,244.5,343.3z"/>
				<path class="st4" d="M95.5,325.8l-3.5,3.4c-3.6-3.6-6.9-7.5-10-11.7l2.5-1.6C87.9,319.4,91.6,322.7,95.5,325.8z"/>
				<path class="st4" d="M261.9,328.7l-5.5-5.2c3.7-3.1,7.1-6.3,10.3-9.8l5.1,3.3C268.9,321.1,265.5,325,261.9,328.7z"/>
				<path class="st4" d="M79.7,310.7l-1.6,1c-2.7-4.1-5.1-8.3-7.1-12.6C73.6,303.1,76.5,307,79.7,310.7z"/>
				<path class="st4" d="M275.9,311.2l-4.5-2.9c3-3.6,5.7-7.4,8.2-11.4l3.5,1.4C281,302.8,278.6,307.1,275.9,311.2z"/>
				<path class="st4" d="M285.8,291.9l-2.7-1.1c2.3-4.4,4.4-8.9,6.1-13.6l1.1,0.2C289.2,282.4,287.7,287.2,285.8,291.9z"/>
				<path class="st4" d="M184.8,253.1L184.8,253.1L184.8,253.1C184.8,253.1,184.8,253.1,184.8,253.1z"/>
				<path class="st0" d="M158.7,252.3l-0.2,0l0.5-0.1C158.9,252.2,158.8,252.3,158.7,252.3z"/>
				<path class="st4" d="M66.5,255.2c-0.3-2.3-0.6-4.6-0.7-7c0-0.5-0.1-0.9-0.1-1.4l3.7-4.2l6.3,5.6l7.9,7l10.9,9.6l6.6,5.8l6.1,5.3
					l5.9,5.2l5.4,4.7l5.4,4.8l4.3,3.8l5.3,4.6l4.3,3.8l5.3,4.6l5,4.4l5.5,4.8l5.5,4.8l6,5.3l8.3,7.3l2,1.7v3.3c-0.7,0-1.3,0-2,0
					c-3.6-0.1-7.2-0.3-10.8-0.6c-2.3-0.2-4.6-0.5-6.9-0.9c-3.5-0.5-6.9-1.2-10.2-2.1c-2.3-0.6-4.5-1.2-6.8-1.9
					c-3.8-1.2-7.4-2.5-11-4c-2.2-0.9-4.3-1.9-6.4-3c-3.6-1.8-7.1-3.8-10.5-6c-2-1.3-4-2.6-5.8-4c-3.4-2.5-6.5-5.1-9.5-7.9
					c-1.8-1.6-3.4-3.3-5-5.1c-3.1-3.3-5.9-6.8-8.5-10.5c-1.4-1.9-2.7-3.9-3.9-5.9c-2.1-3.6-4-7.3-5.6-11.1c-0.9-2.2-1.8-4.4-2.5-6.6
					C68.4,264.9,67.2,260.1,66.5,255.2z"/>
				<path class="st4" d="M180.3,331.5l8.2-7.2l6-5.3l5.3-4.7l5.5-4.8l4.4-3.9l5.3-4.6l4.2-3.7l5.3-4.6l4-3.5l5.4-4.8l4.4-3.9
					l5.9-5.2l6.2-5.5l6.6-5.8l10-8.8l7.9-7l6.3-5.5l3.7,4.2c0,0.4-0.1,0.9-0.1,1.4c-0.2,2.3-0.4,4.7-0.7,7c-0.7,4.6-1.7,9-3.1,13.4
					c-0.7,2.2-1.5,4.5-2.4,6.7c-1.6,4-3.5,7.8-5.7,11.6c-1.2,2-2.5,4.1-3.8,6c-2.3,3.3-4.7,6.4-7.4,9.4c-1.6,1.8-3.2,3.5-4.9,5.2
					c-2.8,2.8-5.8,5.4-9,7.8c-1.8,1.5-3.8,2.8-5.7,4.2c-3.2,2.2-6.6,4.2-10.1,6.1c-2.1,1.1-4.2,2.1-6.3,3.1c-3.4,1.6-6.9,3-10.5,4.2
					c-2.2,0.8-4.4,1.4-6.7,2.1c-3.3,0.9-6.7,1.7-10.1,2.3c-2.3,0.5-4.6,0.8-6.9,1.1c-3.6,0.5-7.4,0.8-11.1,0.9
					c-1.6,0.1-3.3,0.1-5,0.1v-3.3L180.3,331.5z"/>
				<path class="st0" d="M173.3,334.2l-8.3-7.3l-6-5.3l-5.5-4.8l-5.5-4.8l-5-4.4l-5.3-4.6l-4.3-3.8l-5.3-4.6l-4.3-3.8l-5.4-4.8
					l-5.4-4.7l-5.9-5.2l-6.1-5.3l-6.6-5.8l-10.9-9.6l-7.9-7l-6.3-5.6l6.9-6.1l6.6-5.8l9.4-8.3l5.9-5.2l7.3-6.5l5.5-4.8l7-6.2
					l5.3-4.6l6.1-5.3l5.3-4.6l7.8-6.9l5.5-4.9l7.4-6.6l6-5.3l12-10.6l2-1.7l5,4.4l11.2,9.9l6,5.3l8.6,7.6l5.5,4.9l6,5.3l5.3,4.7
					l6.4,5.6l5.3,4.6l6.1,5.4l5.4,4.8l7.7,6.8l5.9,5.2l8.2,7.2l6.6,5.8l6.8,5.9l0,0l-6.3,5.5l-7.9,7l-10,8.8l-6.6,5.8l-6.2,5.5
					l-5.9,5.2l-4.4,3.9l-5.4,4.8l-4,3.5l-5.3,4.6L215,301l-5.3,4.6l-4.4,3.9l-5.5,4.8l-5.3,4.7l-6,5.3l-8.2,7.2l-5,4.4L173.3,334.2z
					 M158.7,252.3c-2.2,1.3-5.1,1.9-8.5,1.9c-0.5,0-0.9,0-1.4,0c0,0,0,0,0,0c-3.1-0.2-5.6-1.1-7.4-2.7c-1-0.8-1.7-1.8-2.2-2.9
					c-0.1-0.1-0.1-0.2-0.2-0.4c-0.5-1.2-0.8-2.6-0.8-4.2c0-0.9,0.1-1.8,0.2-2.7c0-0.2,0.1-0.4,0.1-0.5c0.5-2.4,1.7-4.5,3.6-6.1
					c0,0,0,0,0,0c0.1-0.1,0.3-0.2,0.4-0.3c0.1-0.1,0.3-0.2,0.4-0.3c1.9-1.4,4.4-2.4,7.4-3c0,0,0.1,0,0.1,0c1.9-0.3,3.9-0.5,6.2-0.5
					v-23.4c-0.7,0-1.4,0-2.1,0c-1.6,0-3.1,0.2-4.5,0.3c-2.6,0.3-5.1,0.8-7.5,1.5c-1.3,0.4-2.5,0.8-3.7,1.3c-2.3,0.9-4.5,2.1-6.5,3.4
					c-0.7,0.5-1.4,1-2.1,1.6c-0.7,0.6-1.4,1.2-2,1.8c-1.7,1.6-3.2,3.4-4.4,5.4c-0.8,1.3-1.6,2.7-2.2,4.1c-0.9,2-1.7,4.3-2.2,6.6
					c-0.3,1.4-0.6,2.9-0.8,4.4c0,0.3-0.1,0.6-0.1,0.9h-16v11h15.9c0.2,2,0.6,3.8,1,5.6c0.4,1.6,0.9,3.1,1.5,4.4
					c0.9,2.3,2.2,4.5,3.6,6.4c0.6,0.8,1.3,1.6,2,2.4c0.6,0.6,1.2,1.2,1.8,1.8c1.4,1.2,2.9,2.3,4.5,3.3c0.9,0.5,1.8,1,2.7,1.4
					c2.7,1.2,5.7,2,9,2.5c0.4,0.1,0.9,0.1,1.3,0.2c1.5,0.1,3,0.2,4.5,0.2c1.7,0,3.4-0.1,4.9-0.3c0.2,0,0.5,0,0.7-0.1
					c2.9-0.3,5.5-1,7.8-1.9l0.3-0.1c0.6-0.2,1.1-0.5,1.7-0.8c1.2-0.6,2.3-1.2,3.4-1.9c1.5-1,2.9-2.1,4.3-3.3
					c0.2-0.2,0.4-0.4,0.6-0.6c0.1-0.1,0.2-0.2,0.3-0.4c0.7-0.7,1.3-1.4,2-2.1c0.6-0.6,1.1-1.3,1.7-2c0.2-0.2,0.3-0.4,0.5-0.6
					c0.4-0.5,0.8-1,1.1-1.5c0.3-0.4,0.6-0.8,0.8-1.2c0.1-0.2,0.3-0.4,0.4-0.6c0.2-0.4,0.4-0.7,0.6-1.1h0c0.1-0.1,0.1-0.2,0.2-0.3
					c0.1-0.1,0.1-0.2,0.2-0.3c0.1-0.1,0.2-0.3,0.2-0.4h0c0.2-0.4,0.4-0.8,0.7-1.2c0.1-0.1,0.2-0.3,0.2-0.4c0.2-0.3,0.3-0.6,0.5-0.9
					c0.1-0.1,0.2-0.3,0.2-0.4c0.2-0.2,0.3-0.5,0.4-0.8c0.1-0.1,0.2-0.3,0.2-0.4c0.2-0.3,0.3-0.6,0.5-0.9c0,0,0,0,0-0.1
					c0.2-0.4,0.4-0.7,0.6-1.1c0.3-0.5,0.5-1,0.8-1.5c0.4-0.7,0.8-1.5,1.1-2.2c0.3-0.5,0.5-1.1,0.8-1.6c0,0,0-0.1,0.1-0.1h0
					c0-0.1,0.1-0.1,0.1-0.2c0.4-0.9,0.9-1.8,1.4-2.6h0c1.6-2.8,3.3-4.9,5-6.4c1.5-1.3,3.4-2.2,5.7-2.6c1.1-0.2,2.3-0.3,3.6-0.3
					c2.3,0,4.3,0.3,6,0.9c0.2,0.1,0.5,0.2,0.7,0.3c0.9,0.4,1.7,0.8,2.4,1.4c1.4,1.1,2.4,2.4,2.9,4.1c0,0.1,0,0.1,0,0.1
					c0.3,0.9,0.4,1.9,0.4,2.9c0,1.6-0.3,3-1,4.2c0,0,0,0.1,0,0.1c-0.7,1.4-1.9,2.7-3.4,3.6c-1.7,1.1-3.7,1.8-6.2,2.2
					c-1.9,0.4-4,0.5-6.4,0.5v23.5h0.2c3.2,0,6.3-0.3,9.2-0.8c0.4-0.1,0.7-0.1,1.1-0.2c3-0.6,5.9-1.6,8.5-2.8c0.7-0.3,1.4-0.7,2.1-1
					c1.3-0.7,2.5-1.5,3.7-2.4c1.1-0.8,2-1.6,2.9-2.5c0.9-0.9,1.7-1.7,2.4-2.7c1.6-1.9,2.9-4,3.9-6.4c0.6-1.4,1.2-2.8,1.6-4.3
					c0.4-1.4,0.7-2.8,1-4.2h17v-11.1h-16.7c-0.1-0.9-0.2-1.8-0.4-2.7c-0.2-1.3-0.5-2.5-0.8-3.8c-0.7-2.3-1.5-4.5-2.5-6.5h0
					c-0.8-1.6-1.8-3-2.8-4.4c-1-1.4-2.2-2.6-3.5-3.8c-0.5-0.4-1-0.9-1.5-1.3c-1.2-1-2.4-1.8-3.7-2.6c-2.2-1.2-4.5-2.2-7.1-2.9
					c-1.4-0.4-2.9-0.7-4.4-0.9c-1.7-0.2-3.5-0.3-5.3-0.3c-1,0-2,0-3,0.1c-0.7,0-1.4,0.1-2.1,0.2c-3.2,0.3-6,1-8.4,2l0,0
					c-0.8,0.3-1.5,0.6-2.2,1c-2.9,1.4-5.4,3.2-7.7,5.4c-0.1,0.1-0.2,0.2-0.3,0.3c-0.1,0.1-0.3,0.3-0.4,0.4c0,0,0,0,0,0
					c-1.8,1.8-3.4,3.9-4.9,6.2v0c-0.6,0.8-1.1,1.7-1.6,2.6c-0.1,0.1-0.2,0.3-0.3,0.4c-0.3,0.6-0.6,1.1-0.9,1.7
					c-0.8,1.5-1.6,3-2.4,4.5v0c-0.1,0.1-0.1,0.2-0.1,0.2c-0.5,0.9-0.9,1.8-1.4,2.8c-0.1,0.2-0.2,0.4-0.2,0.5
					c-0.4,0.8-0.8,1.7-1.2,2.5c0,0.1-0.1,0.2-0.1,0.3c-0.2,0.4-0.3,0.7-0.5,1c-0.2,0.4-0.3,0.8-0.5,1.1c-0.2,0.4-0.4,0.7-0.6,1.1
					c-0.2,0.4-0.4,0.8-0.7,1.1c-0.3,0.5-0.6,1-0.9,1.4c-0.1,0.2-0.2,0.3-0.3,0.5c-0.5,0.7-1,1.2-1.5,1.8c-0.5,0.6-1.1,1.1-1.6,1.5
					c-0.3,0.2-0.6,0.5-1,0.7c0,0,0,0,0,0l-0.5,0.1L158.7,252.3z"/>
				<path class="st4" d="M208.6,277.4c-2.9,0.5-5.9,0.8-9.2,0.8h-0.2v-23.5c2.4,0,4.5-0.2,6.4-0.5c2.5-0.4,4.6-1.2,6.2-2.2
					c1.6-1,2.7-2.2,3.4-3.6c0,0,0-0.1,0-0.1c0.6-1.2,1-2.7,1-4.2c0-1.1-0.1-2-0.4-2.9c0-0.1,0-0.1,0-0.1c-0.5-1.6-1.5-3-2.9-4.1
					c-0.7-0.5-1.5-1-2.4-1.4c-0.2-0.1-0.5-0.2-0.7-0.3c-1.7-0.6-3.7-0.9-6-0.9c-1.3,0-2.5,0.1-3.6,0.3c-2.3,0.4-4.2,1.3-5.7,2.6
					c-1.7,1.5-3.4,3.6-5,6.4h0c-0.5,0.8-0.9,1.7-1.4,2.6l-0.3,0.2l0.1,0c0,0,0,0.1-0.1,0.1c-0.3,0.5-0.5,1.1-0.8,1.6
					c-0.4,0.8-0.7,1.5-1.1,2.2c-0.3,0.5-0.5,1-0.8,1.5c-0.2,0.4-0.4,0.7-0.6,1.1l-0.1,0l0.1,0c-0.2,0.3-0.3,0.6-0.5,0.9
					c0,0.1-0.1,0.3-0.2,0.4c-0.1,0.3-0.3,0.5-0.4,0.8c-0.1,0.1-0.1,0.3-0.2,0.4c-0.2,0.3-0.3,0.6-0.5,0.9c-0.1,0.1-0.1,0.3-0.2,0.4
					c-0.2,0.4-0.4,0.8-0.7,1.2h0c-0.1,0.1-0.1,0.3-0.2,0.4c-0.1,0.1-0.1,0.2-0.2,0.3c-0.1,0.1-0.1,0.2-0.2,0.3h0
					c-0.2,0.4-0.4,0.7-0.6,1.1c-0.1,0.2-0.3,0.4-0.4,0.6c-0.2,0.4-0.5,0.8-0.8,1.2c-0.4,0.5-0.7,1-1.1,1.5c-0.1,0.2-0.3,0.4-0.5,0.6
					c-0.5,0.7-1.1,1.4-1.7,2c-0.6,0.7-1.3,1.4-2,2.1c-0.1,0.1-0.2,0.2-0.3,0.4c-0.2,0.2-0.4,0.4-0.6,0.6c-1.3,1.2-2.8,2.3-4.3,3.3
					c-1.1,0.7-2.2,1.4-3.4,1.9c-0.5,0.3-1.1,0.5-1.7,0.8l-0.3,0.1c-2.3,0.9-4.9,1.6-7.8,1.9c-0.2,0-0.5,0.1-0.7,0.1
					c-1.6,0.2-3.2,0.3-4.9,0.3c-1.6,0-3.1-0.1-4.5-0.2c-0.4-0.1-0.9-0.1-1.3-0.2c-3.3-0.4-6.3-1.3-9-2.5c-0.9-0.4-1.9-0.9-2.7-1.4
					c-1.6-0.9-3.1-2-4.5-3.3c-0.6-0.6-1.2-1.1-1.8-1.8c-0.7-0.7-1.4-1.5-2-2.4c-1.5-1.9-2.7-4.1-3.6-6.4c-0.6-1.4-1.1-2.9-1.5-4.4
					c-0.5-1.8-0.8-3.7-1-5.6h-15.9v-11h16c0-0.3,0.1-0.6,0.1-0.9c0.2-1.5,0.5-3,0.8-4.4c0.6-2.3,1.3-4.6,2.2-6.6
					c0.7-1.5,1.4-2.8,2.2-4.1c1.3-2,2.7-3.8,4.4-5.4c0.6-0.6,1.3-1.2,2-1.8c0.7-0.5,1.4-1.1,2.1-1.6c2-1.4,4.1-2.5,6.5-3.4
					c1.2-0.5,2.4-0.9,3.7-1.3c2.3-0.7,4.8-1.2,7.5-1.5c1.5-0.2,3-0.3,4.5-0.3c0.7,0,1.4,0,2.1,0v23.4c-2.3,0-4.3,0.2-6.2,0.5
					c0,0-0.1,0-0.1,0c-3,0.5-5.5,1.6-7.4,3c-0.1,0.1-0.3,0.2-0.4,0.3c-0.1,0.1-0.3,0.2-0.4,0.3c0,0,0,0,0,0c-1.9,1.6-3,3.6-3.6,6.1
					c0,0.2-0.1,0.3-0.1,0.5c-0.2,0.9-0.2,1.8-0.2,2.7c0,1.6,0.3,2.9,0.8,4.2c0.1,0.1,0.1,0.3,0.2,0.4c0.5,1.1,1.3,2.1,2.2,2.9
					c1.9,1.6,4.3,2.5,7.4,2.7c0,0,0,0,0,0c0.5,0,0.9,0,1.4,0c3.5,0,6.3-0.6,8.5-1.9c0.1,0,0.2-0.1,0.3-0.1c0,0,0,0,0,0
					c0.4-0.2,0.7-0.4,1-0.7c0.6-0.4,1.1-0.9,1.6-1.5c0.5-0.5,1-1.1,1.5-1.8c0.1-0.1,0.2-0.3,0.3-0.5c0.3-0.5,0.6-0.9,0.9-1.4
					c0.2-0.4,0.4-0.7,0.7-1.1c0.2-0.3,0.4-0.7,0.6-1.1c0.2-0.3,0.4-0.7,0.5-1.1c0.2-0.3,0.4-0.7,0.5-1c0-0.1,0.1-0.2,0.1-0.3
					c0.4-0.9,0.8-1.7,1.2-2.5c0.1-0.2,0.2-0.3,0.2-0.5c0.5-1,0.9-1.9,1.4-2.8c0-0.1,0.1-0.2,0.1-0.2v0c0.8-1.5,1.6-3.1,2.4-4.5
					c0.3-0.6,0.6-1.1,0.9-1.7c0.1-0.1,0.2-0.3,0.3-0.4c0.5-0.9,1.1-1.8,1.6-2.6v0c1.5-2.3,3.1-4.3,4.9-6.2c0,0,0,0,0,0
					c0.1-0.1,0.3-0.3,0.4-0.4c0.1-0.1,0.2-0.2,0.3-0.3c2.3-2.2,4.8-4,7.7-5.4c0.7-0.4,1.4-0.7,2.2-1l0,0c2.5-1,5.3-1.6,8.4-2
					c0.7-0.1,1.4-0.1,2.1-0.2c1-0.1,2-0.1,3-0.1c1.8,0,3.6,0.1,5.3,0.3c1.5,0.2,3,0.5,4.4,0.9c2.5,0.7,4.9,1.6,7.1,2.9
					c1.3,0.7,2.6,1.6,3.7,2.6c0.5,0.4,1,0.8,1.5,1.3c1.3,1.2,2.5,2.4,3.5,3.8c1.1,1.4,2,2.8,2.8,4.4h0c1.1,2,1.9,4.2,2.5,6.5
					c0.3,1.2,0.6,2.5,0.8,3.8c0.2,0.9,0.3,1.8,0.4,2.7h16.7v11.1h-17c-0.2,1.5-0.6,2.9-1,4.2c-0.4,1.5-1,2.9-1.6,4.3
					c-1,2.3-2.4,4.4-3.9,6.4c-0.7,0.9-1.6,1.8-2.4,2.7c-0.9,0.9-1.9,1.7-2.9,2.5c-1.2,0.9-2.4,1.7-3.7,2.4c-0.7,0.4-1.4,0.7-2.1,1
					c-2.6,1.2-5.5,2.2-8.5,2.8C209.3,277.3,208.9,277.3,208.6,277.4z"/>
				<path class="st4" d="M188.2,246.5L188.2,246.5l-0.2,0l0.3-0.2C188.2,246.3,188.2,246.4,188.2,246.5z"/>
				<path class="st0" d="M239.1,335.6l5.4,7.7c4.4-3,8.5-6.2,12.4-9.8l-5.9-5.7C247.2,330.6,243.2,333.2,239.1,335.6z M97.1,334
					c3.9,3.6,8.1,6.8,12.4,9.8l4.2-6.1c-4.3-2.3-8.5-4.9-12.5-7.6L97.1,334z M224.3,354.4c4.9-2.1,9.7-4.6,14.3-7.3l-5.7-8.2
					c-4.1,2.1-8.4,3.9-12.8,5.5L224.3,354.4z M115.4,347.5c4.6,2.7,9.3,5.1,14.2,7.2l3.7-8.7c-4.6-1.5-9-3.3-13.3-5.3L115.4,347.5z
					 M203.4,361.3c4.9-1.1,9.7-2.5,14.4-4.2l-4.3-10.3h0c-4.1,1.3-8.2,2.3-12.5,3.2L203.4,361.3z M136.1,357.2
					c4.7,1.7,9.6,3.1,14.6,4.2l2.2-10.6c-4.4-0.7-8.7-1.6-12.9-2.8L136.1,357.2z M180.3,364.2c5.5-0.2,10.9-0.7,16.3-1.6l-2.4-11.5
					c-4.5,0.7-9.2,1.1-13.9,1.3V364.2z M71,299.1c2.1,4.3,4.4,8.5,7.1,12.6l1.6-1C76.5,307,73.6,303.1,71,299.1z M247.8,315.1
					c3.2-2.4,6.2-5.1,9-7.8c1.7-1.7,3.3-3.4,4.9-5.2c2.7-3,5.1-6.1,7.4-9.4c1.3-1.9,2.6-4,3.8-6c2.2-3.7,4.1-7.6,5.7-11.6
					c0.9-2.2,1.7-4.4,2.4-6.7c1.4-4.3,2.4-8.8,3.1-13.4c0.3-2.3,0.6-4.6,0.7-7c0-0.5,0.1-0.9,0.1-1.4c0.1-1.4,0.1-2.7,0.1-4.1v-0.1
					c0-2.7-0.1-5.3-0.4-7.9v0c-0.2-2.4-0.5-4.6-0.9-6.9c-0.7-4.2-1.8-8.3-3.1-12.3c-0.7-2.2-1.5-4.4-2.4-6.5c-2-4.6-4.3-9.1-7-13.3
					c-1.2-2-2.6-3.9-4-5.8c-2.8-3.8-5.9-7.4-9.3-10.8c-1.6-1.6-3.3-3.2-5.1-4.8c-3.7-3.3-7.7-6.3-11.9-9.1c-1.9-1.3-3.9-2.5-5.9-3.6
					c-3.9-2.2-8-4.3-12.2-6.1c-2.1-0.9-4.3-1.8-6.5-2.5c-4.7-1.7-9.6-3.1-14.6-4.1c-2.2-0.5-4.5-0.9-6.8-1.3
					c-4.8-0.8-9.6-1.2-14.6-1.4c-1.6-0.1-3.3-0.1-5-0.1c-0.7,0-1.3,0-2,0c-5.1,0.1-10.1,0.5-15.1,1.1c-2.3,0.3-4.6,0.7-6.9,1.2
					c-4.4,0.9-8.6,1.9-12.8,3.2c-2.2,0.7-4.4,1.5-6.6,2.3c-5.1,1.9-10,4.2-14.6,6.7c-2,1.1-4.1,2.3-6,3.5c-4.1,2.6-8,5.4-11.6,8.5
					c-1.8,1.5-3.5,3.1-5.2,4.7c-3.8,3.6-7.3,7.5-10.4,11.6c-1.4,1.8-2.8,3.7-4,5.7c-2.7,4.1-5,8.3-6.9,12.7
					c-0.9,2.1-1.8,4.3-2.6,6.5c-1.6,4.5-2.8,9.1-3.7,13.9c-0.4,2.3-0.7,4.6-0.9,6.9c-0.3,2.6-0.4,5.3-0.4,8c0,0,0,0,0,0
					c0,1.4,0,2.8,0.1,4.2c0,0.5,0,0.9,0.1,1.4c0.2,2.3,0.4,4.7,0.7,7c0.7,4.9,1.9,9.7,3.4,14.4c0.7,2.2,1.5,4.5,2.5,6.6
					c1.6,3.8,3.5,7.6,5.6,11.1c1.2,2,2.5,4,3.9,5.9c2.6,3.7,5.4,7.2,8.5,10.5c1.6,1.7,3.3,3.4,5,5.1c3,2.8,6.2,5.4,9.5,7.9
					c1.9,1.4,3.8,2.8,5.8,4c3.3,2.2,6.8,4.1,10.5,6c2.1,1.1,4.3,2,6.4,3c3.6,1.5,7.2,2.9,11,4c2.2,0.7,4.5,1.3,6.8,1.9
					c3.4,0.8,6.8,1.5,10.2,2.1c2.3,0.4,4.6,0.7,6.9,0.9c3.5,0.4,7.1,0.6,10.8,0.6c0.7,0,1.3,0,2,0c1.7,0,3.3,0,5-0.1
					c3.8-0.1,7.5-0.5,11.1-0.9c2.3-0.3,4.6-0.7,6.9-1.1c3.4-0.6,6.8-1.4,10.1-2.3c2.3-0.6,4.5-1.3,6.7-2.1c3.6-1.2,7.1-2.6,10.5-4.2
					c2.2-1,4.3-2,6.3-3.1c3.5-1.9,6.9-3.9,10.1-6.1C244.1,318,246,316.6,247.8,315.1z M271.5,308.3l4.5,2.9
					c2.7-4.1,5.1-8.4,7.2-12.9l-3.5-1.4C277.2,300.9,274.4,304.7,271.5,308.3z M256.5,323.4l5.5,5.2c3.6-3.7,7-7.6,10-11.8l-5.1-3.3
					C263.6,317.1,260.2,320.4,256.5,323.4z M92,329.1l3.5-3.4c-3.9-3.1-7.6-6.4-11-9.9l-2.5,1.6C85.2,321.6,88.5,325.5,92,329.1z
					 M157.6,362.7c5.2,0.8,10.5,1.3,15.7,1.5v-11.6c-4.6,0-9-0.3-13.4-0.8L157.6,362.7z M298,275.4
					c-13.2,64.3-78.4,106.2-145.2,93.5c-33.2-6.3-61.6-24.9-79.9-52.3c-13-19.4-19.7-41.6-19.7-64.2c0-4.6,0.3-9.2,0.9-13.9
					c2.4-52.1,44.9-94.8,100.3-103.2c7.3-1.3,14.8-2,22.4-2c7.9,0,16,0.7,24,2.3c33.2,6.3,61.5,24.9,79.9,52.3
					C298.1,213.9,304.3,245,298,275.4z M289.3,277.2c-1.7,4.7-3.7,9.2-6.1,13.6l2.7,1.1c1.9-4.7,3.4-9.5,4.6-14.5L289.3,277.2z"/>
				<path class="st4" d="M283.8,227.8c0.4,2.3,0.7,4.6,0.9,6.9v0c0.2,2.6,0.4,5.2,0.4,7.9v0.1c0,1.4,0,2.8-0.1,4.1l-3.7-4.2l0,0
					l-6.8-5.9l-6.6-5.8l-8.2-7.2l-5.9-5.2l-7.7-6.8l-5.4-4.8l-6.1-5.4l-5.3-4.6l-6.4-5.6l-5.3-4.7l-6-5.3l-5.5-4.9l-8.6-7.6l-6-5.3
					l-11.2-9.9l-5-4.4v-3.3c1.7,0,3.3,0,5,0.1c4.9,0.2,9.8,0.7,14.6,1.4c2.3,0.4,4.6,0.8,6.8,1.3c5,1.1,9.9,2.5,14.6,4.1
					c2.2,0.8,4.4,1.6,6.5,2.5c4.2,1.8,8.3,3.8,12.2,6.1c2,1.2,4,2.4,5.9,3.6c4.2,2.8,8.2,5.8,11.9,9.1c1.8,1.6,3.5,3.2,5.1,4.8
					c3.4,3.4,6.5,7,9.3,10.8c1.4,1.9,2.7,3.8,4,5.8c2.7,4.2,5,8.7,7,13.3c0.9,2.1,1.7,4.3,2.4,6.5C282,219.5,283,223.6,283.8,227.8z
					"/>
				<path class="st4" d="M65.6,242.6c0-2.7,0.1-5.4,0.4-8c0.2-2.3,0.5-4.6,0.9-6.9c0.8-4.8,2.1-9.4,3.7-13.9
					c0.8-2.2,1.7-4.4,2.6-6.5c2-4.4,4.3-8.7,6.9-12.7c1.3-2,2.6-3.8,4-5.7c3.1-4.1,6.6-8,10.4-11.6c1.7-1.6,3.4-3.2,5.2-4.7
					c3.7-3.1,7.5-5.9,11.6-8.5c1.9-1.2,4-2.4,6-3.5c4.6-2.6,9.5-4.8,14.6-6.7c2.2-0.8,4.4-1.6,6.6-2.3c4.2-1.3,8.4-2.4,12.8-3.2
					c2.3-0.5,4.6-0.8,6.9-1.2c4.9-0.7,9.9-1.1,15.1-1.1c0.7,0,1.3,0,2,0v3.3l-2,1.7l-12,10.6l-6,5.3l-7.4,6.6l-5.5,4.9l-7.8,6.9
					l-5.3,4.6l-6.1,5.3l-5.3,4.6l-7,6.2l-5.5,4.8l-7.3,6.5l-5.9,5.2l-9.4,8.3l-6.6,5.8l-6.9,6.1l-3.7,4.2
					C65.6,245.5,65.6,244.1,65.6,242.6C65.6,242.6,65.6,242.6,65.6,242.6z"/>
			</g>
		</g>
		<g>
			<g id="XMLID_2_">
				<path class="st0" d="M298,244.7C284.8,309,219.6,351,152.8,338.2c-33.2-6.3-61.6-24.9-79.9-52.3c-13-19.4-19.7-41.6-19.7-64.2
					c0-4.6,0.3-9.2,0.9-13.9c2.4-52.1,44.9-94.8,100.3-103.2c7.3-1.3,14.8-2,22.4-2c7.9,0,16,0.7,24,2.3
					c33.2,6.3,61.5,24.9,79.9,52.3C298.1,183.3,304.3,214.3,298,244.7z M180.3,321.8v11.8c5.5-0.2,10.9-0.7,16.3-1.6l-2.4-11.5
					C189.6,321.1,185,321.6,180.3,321.8z M173.3,333.5v-11.6c-4.6,0-9-0.3-13.4-0.8l-2.3,11C162.9,332.9,168.1,333.4,173.3,333.5z
					 M150.8,330.7l2.2-10.6c-4.4-0.7-8.7-1.6-12.9-2.8l-4,9.2C140.9,328.2,145.8,329.6,150.8,330.7z M201,319.2l2.4,11.4
					c4.9-1.1,9.7-2.5,14.4-4.2l-4.3-10.3h0C209.4,317.3,205.3,318.4,201,319.2z M129.6,324l3.7-8.7c-4.6-1.5-9-3.3-13.3-5.3
					l-4.6,6.8C120,319.5,124.7,321.9,129.6,324z M220.1,313.8l4.2,10c4.9-2.1,9.7-4.6,14.3-7.3l-5.7-8.2
					C228.8,310.3,224.5,312.2,220.1,313.8z M109.5,313.1l4.2-6.1c-4.3-2.3-8.5-4.9-12.5-7.7l-4.1,4
					C101,306.9,105.1,310.1,109.5,313.1z M239.1,305l5.4,7.7c4.4-3,8.5-6.2,12.4-9.8l-5.9-5.7C247.2,300,243.2,302.6,239.1,305z
					 M173.3,308.6c0.7,0,1.3,0,2,0c1.7,0,3.3,0,5-0.1c3.8-0.1,7.5-0.5,11.1-0.9c2.3-0.3,4.6-0.6,6.9-1.1c3.4-0.6,6.8-1.4,10.1-2.3
					c2.3-0.6,4.5-1.3,6.7-2.1c3.6-1.2,7.1-2.6,10.5-4.2c2.2-1,4.3-2,6.3-3.1c3.5-1.9,6.9-3.9,10.1-6.1c2-1.3,3.9-2.7,5.7-4.2
					c3.2-2.4,6.2-5.1,9-7.8c1.7-1.7,3.3-3.4,4.9-5.2c2.7-3,5.1-6.1,7.4-9.4c1.3-2,2.6-4,3.8-6c2.2-3.7,4.1-7.6,5.7-11.6
					c0.9-2.2,1.7-4.4,2.4-6.6c1.4-4.3,2.4-8.8,3.1-13.4c0.3-2.3,0.6-4.6,0.7-7c0-0.4,0.1-0.9,0.1-1.4c0.1-1.4,0.1-2.7,0.1-4.1V212
					c0-2.7-0.1-5.3-0.4-7.9v0c-0.2-2.4-0.5-4.6-0.9-6.9c-0.7-4.2-1.8-8.3-3.1-12.3c-0.7-2.2-1.5-4.4-2.4-6.5c-2-4.6-4.3-9.1-7-13.3
					c-1.2-2-2.6-3.9-4-5.8c-2.8-3.8-5.9-7.4-9.3-10.8c-1.6-1.6-3.3-3.2-5.1-4.8c-3.7-3.3-7.7-6.3-11.9-9.1c-1.9-1.3-3.9-2.5-5.9-3.6
					c-3.9-2.2-8-4.3-12.2-6c-2.1-0.9-4.3-1.8-6.5-2.5c-4.7-1.7-9.6-3.1-14.6-4.1c-2.2-0.5-4.5-0.9-6.8-1.3
					c-4.8-0.8-9.6-1.2-14.6-1.4c-1.6-0.1-3.3-0.1-5-0.1c-0.7,0-1.3,0-2,0c-5.1,0.1-10.1,0.5-15.1,1.1c-2.3,0.3-4.6,0.7-6.9,1.2
					c-4.4,0.9-8.6,1.9-12.8,3.2c-2.2,0.7-4.4,1.5-6.6,2.3c-5.1,1.9-10,4.2-14.6,6.7c-2,1.1-4.1,2.3-6,3.5c-4.1,2.6-8,5.4-11.6,8.5
					c-1.8,1.5-3.5,3-5.2,4.7c-3.8,3.6-7.3,7.5-10.4,11.6c-1.4,1.8-2.8,3.7-4,5.7c-2.7,4.1-5,8.3-6.9,12.7c-0.9,2.1-1.8,4.3-2.6,6.5
					c-1.6,4.5-2.8,9.1-3.7,13.9c-0.4,2.3-0.7,4.6-0.9,6.9c-0.3,2.6-0.4,5.3-0.4,8c0,0,0,0,0,0c0,1.4,0,2.8,0.1,4.2
					c0,0.5,0,0.9,0.1,1.4c0.2,2.4,0.4,4.7,0.7,7c0.7,4.9,1.9,9.7,3.4,14.4c0.7,2.2,1.5,4.5,2.5,6.6c1.6,3.8,3.5,7.6,5.6,11.1
					c1.2,2,2.5,4,3.9,6c2.6,3.7,5.4,7.2,8.5,10.5c1.6,1.7,3.3,3.4,5,5.1c3,2.8,6.2,5.4,9.5,7.9c1.9,1.4,3.8,2.8,5.8,4
					c3.3,2.1,6.8,4.1,10.5,5.9c2.1,1.1,4.3,2,6.4,3c3.6,1.5,7.2,2.9,11,4c2.2,0.7,4.5,1.3,6.8,1.9c3.4,0.8,6.8,1.5,10.2,2.1
					c2.3,0.4,4.6,0.7,6.9,0.9C166.1,308.3,169.7,308.5,173.3,308.6z M92,298.5l3.5-3.4c-3.9-3.1-7.6-6.4-11-9.9l-2.5,1.6
					C85.2,290.9,88.5,294.8,92,298.5z M256.5,292.8l5.5,5.2c3.6-3.7,7-7.6,10-11.8l-5.1-3.3C263.6,286.5,260.2,289.7,256.5,292.8z
					 M78.1,281.1l1.6-1c-3.2-3.7-6.1-7.5-8.7-11.5C73,272.8,75.4,277,78.1,281.1z M271.5,277.7l4.5,2.9c2.7-4.1,5.1-8.4,7.2-12.9
					l-3.5-1.4C277.2,270.2,274.4,274.1,271.5,277.7z M283.2,260.2l2.7,1.1c1.9-4.6,3.4-9.5,4.6-14.5l-1.1-0.2
					C287.6,251.2,285.5,255.8,283.2,260.2z"/>
				<path class="st4" d="M180.3,333.5v-11.8c4.7-0.2,9.3-0.6,13.9-1.3l2.4,11.5C191.2,332.8,185.8,333.4,180.3,333.5z"/>
				<path class="st4" d="M173.3,321.9v11.6c-5.2-0.1-10.5-0.6-15.7-1.5l2.3-11C164.3,321.6,168.8,321.8,173.3,321.9z"/>
				<path class="st4" d="M153,320.1l-2.2,10.6c-5-1.1-9.9-2.5-14.6-4.2l4-9.2C144.3,318.5,148.6,319.4,153,320.1z"/>
				<path class="st4" d="M203.4,330.6l-2.4-11.4c4.2-0.8,8.4-1.9,12.5-3.2h0l4.3,10.3C213.2,328.1,208.4,329.5,203.4,330.6z"/>
				<path class="st4" d="M133.4,315.3l-3.7,8.7c-4.9-2.1-9.7-4.5-14.2-7.2l4.6-6.8C124.3,312.1,128.8,313.8,133.4,315.3z"/>
				<path class="st4" d="M224.3,323.8l-4.2-10c4.4-1.6,8.7-3.5,12.8-5.5l5.7,8.2C234,319.2,229.3,321.7,224.3,323.8z"/>
				<path class="st4" d="M113.8,306.9l-4.2,6.1c-4.4-3-8.5-6.2-12.4-9.8l4.1-4C105.2,302.1,109.4,304.6,113.8,306.9z"/>
				<path class="st4" d="M244.5,312.7l-5.4-7.7c4.1-2.4,8.1-5,11.9-7.8l5.9,5.7C253,306.4,248.9,309.7,244.5,312.7z"/>
				<path class="st4" d="M175.3,308.6v-3.3l5-4.4l8.2-7.2l6-5.3l5.3-4.7l5.5-4.9l4.4-3.9l5.3-4.6l4.2-3.7l5.3-4.6l4-3.5l5.4-4.8
					l4.4-3.9l5.9-5.2l6.2-5.5l6.6-5.8l10-8.8l7.9-7l6.3-5.5l3.7,4.2c0,0.4-0.1,0.9-0.1,1.4c-0.2,2.4-0.4,4.7-0.7,7
					c-0.7,4.6-1.7,9-3.1,13.4c-0.7,2.2-1.5,4.5-2.4,6.6c-1.6,4-3.5,7.8-5.7,11.6c-1.2,2.1-2.5,4.1-3.8,6c-2.3,3.3-4.7,6.4-7.4,9.4
					c-1.6,1.8-3.2,3.5-4.9,5.2c-2.8,2.8-5.8,5.4-9,7.8c-1.8,1.4-3.8,2.8-5.7,4.2c-3.2,2.2-6.6,4.2-10.1,6.1
					c-2.1,1.1-4.2,2.1-6.3,3.1c-3.4,1.5-6.9,3-10.5,4.2c-2.2,0.8-4.4,1.5-6.7,2.1c-3.3,0.9-6.7,1.7-10.1,2.3
					c-2.3,0.5-4.6,0.8-6.9,1.1c-3.6,0.5-7.4,0.8-11.1,0.9C178.7,308.6,177,308.6,175.3,308.6z"/>
				<path class="st4" d="M175.3,305.3v3.3c-0.7,0-1.3,0-2,0c-3.6-0.1-7.2-0.3-10.8-0.6c-2.3-0.2-4.6-0.5-6.9-0.9
					c-3.5-0.5-6.9-1.2-10.2-2.1c-2.3-0.6-4.5-1.2-6.8-1.9c-3.8-1.2-7.4-2.5-11-4c-2.2-0.9-4.3-1.9-6.4-3c-3.6-1.8-7.1-3.8-10.5-5.9
					c-2-1.3-4-2.6-5.8-4c-3.4-2.4-6.5-5.1-9.5-7.9c-1.8-1.6-3.4-3.3-5-5.1c-3.1-3.3-5.9-6.8-8.5-10.5c-1.4-1.9-2.7-3.9-3.9-6
					c-2.1-3.6-4-7.3-5.6-11.1c-0.9-2.2-1.8-4.4-2.5-6.6c-1.5-4.6-2.7-9.4-3.4-14.4c-0.3-2.3-0.6-4.6-0.7-7c0-0.5-0.1-0.9-0.1-1.4
					l3.7-4.2l6.3,5.5l7.9,7l10.9,9.6l6.6,5.8l6.1,5.3l5.9,5.2l5.4,4.7l5.4,4.8l4.3,3.8l5.3,4.6l4.3,3.8l5.3,4.6l5,4.4l5.5,4.8
					l5.5,4.8l6,5.3l8.3,7.3L175.3,305.3z"/>
				<path class="st0" d="M180.3,300.9l-5,4.4l-2-1.7l-8.3-7.3l-6-5.3l-5.5-4.8l-5.5-4.8l-5-4.4l-5.3-4.6l-4.3-3.8l-5.3-4.6l-4.3-3.8
					l-5.4-4.8l-5.4-4.7l-5.9-5.2l-6.1-5.3l-6.6-5.8l-10.9-9.6l-7.9-7l-6.3-5.5l6.9-6.1l6.6-5.8l9.4-8.3l5.9-5.2l7.3-6.5l5.5-4.8
					l7-6.2l5.3-4.6l6.1-5.3l5.3-4.6l7.8-6.9l5.5-4.9l7.4-6.6l6-5.3l12-10.6l2-1.7l5,4.4l11.2,9.9l6,5.3l8.6,7.6l5.5,4.9l6,5.3
					l5.3,4.7l6.4,5.6l5.3,4.6l6.1,5.4l5.4,4.8l7.7,6.8l5.9,5.2l8.2,7.2l6.6,5.8l6.8,5.9l0,0l-6.3,5.5l-7.9,7l-10,8.8l-6.6,5.8
					l-6.2,5.5l-5.9,5.2l-4.4,3.9l-5.4,4.8l-4,3.5l-5.3,4.6l-4.2,3.7l-5.3,4.6l-4.4,3.9l-5.5,4.9l-5.3,4.7l-6,5.3L180.3,300.9z
					 M199.2,247.6h0.2c3.2,0,6.3-0.3,9.2-0.8c0.4-0.1,0.7-0.1,1.1-0.2c3-0.6,5.9-1.6,8.5-2.8c0.7-0.3,1.4-0.7,2.1-1.1
					c1.3-0.7,2.5-1.5,3.7-2.4c1.1-0.8,2-1.6,2.9-2.5c0.9-0.9,1.7-1.7,2.4-2.7c1.6-1.9,2.9-4,3.9-6.4c0.6-1.3,1.2-2.8,1.6-4.3
					c0.4-1.4,0.7-2.8,1-4.2h17v-11.1h-16.7c-0.1-0.9-0.2-1.8-0.4-2.7c-0.2-1.3-0.5-2.5-0.8-3.8c-0.7-2.3-1.5-4.5-2.5-6.5h0
					c-0.8-1.6-1.8-3-2.8-4.4c-1-1.4-2.2-2.6-3.5-3.8c-0.5-0.4-1-0.9-1.5-1.3c-1.2-1-2.4-1.8-3.7-2.5c-2.2-1.2-4.5-2.2-7.1-2.9
					c-1.4-0.4-2.9-0.7-4.4-0.9c-1.7-0.2-3.5-0.3-5.3-0.3c-1,0-2,0-3,0.1c-0.7,0-1.4,0.1-2.1,0.2c-3.2,0.3-6,1-8.4,2l0,0
					c-0.8,0.3-1.5,0.6-2.2,1c-2.9,1.4-5.4,3.2-7.7,5.4c-0.1,0.1-0.2,0.2-0.3,0.3c-0.1,0.1-0.3,0.3-0.4,0.4c0,0,0,0,0,0
					c-1.8,1.8-3.4,3.9-4.9,6.2v0c-0.6,0.8-1.1,1.7-1.6,2.6c-0.1,0.1-0.2,0.3-0.3,0.4c-0.3,0.6-0.6,1.1-0.9,1.7
					c-0.8,1.5-1.6,3-2.4,4.5v0c-0.1,0.1-0.1,0.2-0.1,0.2c-0.5,0.9-0.9,1.8-1.4,2.8c-0.1,0.2-0.2,0.4-0.2,0.5
					c-0.4,0.8-0.8,1.7-1.2,2.5c0,0.1-0.1,0.2-0.1,0.3c-0.2,0.4-0.3,0.7-0.5,1.1c-0.2,0.4-0.3,0.8-0.5,1.1c-0.2,0.4-0.4,0.7-0.6,1.1
					c-0.2,0.4-0.4,0.8-0.7,1.1c-0.3,0.5-0.6,1-0.9,1.4c-0.1,0.2-0.2,0.3-0.3,0.5c-0.5,0.7-1,1.2-1.5,1.8c-0.5,0.6-1.1,1.1-1.6,1.5
					c-0.3,0.2-0.6,0.5-1,0.7c0,0,0,0,0,0l-0.5,0.1l0.2,0c-2.2,1.3-5.1,1.9-8.5,1.9c-0.5,0-0.9,0-1.4,0c0,0,0,0,0,0
					c-3.1-0.2-5.6-1.1-7.4-2.7c-1-0.8-1.7-1.8-2.2-2.9c-0.1-0.1-0.1-0.2-0.2-0.4c-0.5-1.2-0.8-2.6-0.8-4.2c0-0.9,0.1-1.8,0.2-2.7
					c0-0.2,0.1-0.4,0.1-0.5c0.5-2.4,1.7-4.5,3.6-6.1c0,0,0,0,0,0c0.1-0.1,0.3-0.2,0.4-0.3c0.1-0.1,0.3-0.2,0.4-0.3
					c1.9-1.4,4.4-2.4,7.4-3c0,0,0.1,0,0.1,0c1.9-0.3,3.9-0.5,6.2-0.5v-23.4c-0.7,0-1.4,0-2.1,0c-1.6,0-3.1,0.2-4.5,0.3
					c-2.6,0.3-5.1,0.8-7.5,1.4c-1.3,0.4-2.5,0.8-3.7,1.3c-2.3,0.9-4.5,2.1-6.5,3.4c-0.7,0.5-1.4,1-2.1,1.6c-0.7,0.6-1.4,1.2-2,1.8
					c-1.7,1.6-3.2,3.4-4.4,5.4c-0.8,1.3-1.6,2.7-2.2,4.1c-0.9,2-1.7,4.3-2.2,6.6c-0.3,1.4-0.6,2.9-0.8,4.4c0,0.3-0.1,0.6-0.1,0.9
					h-16v11h15.9c0.2,2,0.6,3.8,1,5.6c0.4,1.6,0.9,3.1,1.5,4.4c0.9,2.3,2.2,4.5,3.6,6.4c0.6,0.8,1.3,1.6,2,2.4
					c0.6,0.6,1.2,1.2,1.8,1.8c1.4,1.2,2.9,2.3,4.5,3.3c0.9,0.5,1.8,1,2.7,1.4c2.7,1.2,5.7,2.1,9,2.5c0.4,0.1,0.9,0.1,1.3,0.2
					c1.5,0.1,3,0.2,4.5,0.2c1.7,0,3.4-0.1,4.9-0.3c0.2,0,0.5,0,0.7-0.1c2.9-0.3,5.5-1,7.8-1.9l0.3-0.1c0.6-0.2,1.1-0.5,1.7-0.8
					c1.2-0.6,2.3-1.2,3.4-1.9c1.5-1,2.9-2.1,4.3-3.3c0.2-0.2,0.4-0.4,0.6-0.6c0.1-0.1,0.2-0.2,0.3-0.4c0.7-0.7,1.3-1.3,2-2.1
					c0.6-0.6,1.1-1.3,1.7-2c0.2-0.2,0.3-0.4,0.5-0.6c0.4-0.5,0.8-1,1.1-1.5c0.3-0.4,0.6-0.8,0.8-1.2c0.1-0.2,0.3-0.4,0.4-0.6
					c0.2-0.4,0.4-0.7,0.6-1.1h0c0.1-0.1,0.1-0.2,0.2-0.3c0.1-0.1,0.1-0.2,0.2-0.3c0.1-0.1,0.2-0.3,0.2-0.4h0
					c0.2-0.4,0.4-0.8,0.7-1.2c0.1-0.1,0.2-0.3,0.2-0.4c0.2-0.3,0.3-0.6,0.5-0.9c0.1-0.1,0.2-0.3,0.2-0.4c0.2-0.2,0.3-0.5,0.4-0.8
					c0.1-0.1,0.2-0.3,0.2-0.4c0.2-0.3,0.3-0.6,0.5-0.9c0,0,0,0,0-0.1c0.2-0.4,0.4-0.7,0.6-1.1c0.3-0.5,0.5-1,0.8-1.5
					c0.4-0.7,0.8-1.5,1.1-2.2c0.3-0.5,0.5-1.1,0.8-1.6c0,0,0-0.1,0.1-0.1h0c0-0.1,0.1-0.1,0.1-0.2c0.4-0.9,0.9-1.8,1.4-2.6h0
					c1.6-2.8,3.3-4.9,5-6.4c1.5-1.3,3.4-2.2,5.7-2.6c1.1-0.2,2.3-0.3,3.6-0.3c2.3,0,4.3,0.3,6,0.9c0.2,0.1,0.5,0.2,0.7,0.3
					c0.9,0.4,1.7,0.8,2.4,1.4c1.4,1.1,2.4,2.4,2.9,4.1c0,0,0,0.1,0,0.1c0.3,0.9,0.4,1.9,0.4,2.9c0,1.6-0.3,3-1,4.2c0,0,0,0.1,0,0.1
					c-0.7,1.4-1.9,2.7-3.4,3.6c-1.7,1.1-3.7,1.8-6.2,2.2c-1.9,0.4-4,0.5-6.4,0.5V247.6z"/>
				<path class="st4" d="M95.5,295.1l-3.5,3.4c-3.6-3.6-6.9-7.5-10-11.7l2.5-1.6C87.9,288.7,91.6,292,95.5,295.1z"/>
				<path class="st4" d="M261.9,298l-5.5-5.2c3.7-3.1,7.1-6.3,10.3-9.8l5.1,3.3C268.9,290.4,265.5,294.4,261.9,298z"/>
				<path class="st4" d="M79.7,280l-1.6,1c-2.7-4.1-5.1-8.3-7.1-12.6C73.6,272.5,76.5,276.4,79.7,280z"/>
				<path class="st4" d="M275.9,280.5l-4.5-2.9c3-3.6,5.7-7.4,8.2-11.4l3.5,1.4C281,272.1,278.6,276.4,275.9,280.5z"/>
				<path class="st4" d="M285.8,261.2l-2.7-1.1c2.3-4.4,4.4-8.9,6.1-13.6l1.1,0.2C289.2,251.8,287.7,256.6,285.8,261.2z"/>
				<path class="st4" d="M199.4,247.6h-0.2v-23.5c2.4,0,4.5-0.2,6.4-0.5c2.5-0.4,4.6-1.2,6.2-2.2c1.6-1,2.7-2.2,3.4-3.6
					c0,0,0-0.1,0-0.1c0.6-1.2,1-2.6,1-4.2c0-1.1-0.1-2-0.4-2.9c0-0.1,0-0.1,0-0.1c-0.5-1.6-1.5-3-2.9-4.1c-0.7-0.5-1.5-1-2.4-1.4
					c-0.2-0.1-0.5-0.2-0.7-0.3c-1.7-0.6-3.7-0.9-6-0.9c-1.3,0-2.5,0.1-3.6,0.3c-2.3,0.4-4.2,1.3-5.7,2.6c-1.7,1.5-3.4,3.6-5,6.4h0
					c-0.5,0.8-0.9,1.7-1.4,2.6l-0.3,0.2l0.1,0c0,0,0,0.1-0.1,0.1c-0.3,0.5-0.5,1.1-0.8,1.6c-0.4,0.8-0.7,1.5-1.1,2.2
					c-0.3,0.5-0.5,1-0.8,1.5c-0.2,0.4-0.4,0.7-0.6,1.1l-0.1,0l0.1,0c-0.2,0.3-0.3,0.6-0.5,0.9c0,0.1-0.1,0.3-0.2,0.4
					c-0.1,0.3-0.3,0.5-0.4,0.8c-0.1,0.1-0.1,0.3-0.2,0.4c-0.2,0.3-0.3,0.6-0.5,0.9c-0.1,0.1-0.1,0.3-0.2,0.4
					c-0.2,0.4-0.4,0.8-0.7,1.2h0c-0.1,0.1-0.1,0.3-0.2,0.4c-0.1,0.1-0.1,0.2-0.2,0.3c-0.1,0.1-0.1,0.2-0.2,0.3h0
					c-0.2,0.4-0.4,0.7-0.6,1.1c-0.1,0.2-0.3,0.4-0.4,0.6c-0.2,0.4-0.5,0.8-0.8,1.2c-0.4,0.5-0.7,1-1.1,1.5c-0.1,0.2-0.3,0.4-0.5,0.6
					c-0.5,0.7-1.1,1.4-1.7,2c-0.6,0.7-1.3,1.4-2,2.1c-0.1,0.1-0.2,0.2-0.3,0.4c-0.2,0.2-0.4,0.4-0.6,0.6c-1.3,1.2-2.8,2.3-4.3,3.3
					c-1.1,0.7-2.2,1.3-3.4,1.9c-0.5,0.3-1.1,0.5-1.7,0.8l-0.3,0.1c-2.3,0.9-4.9,1.6-7.8,1.9c-0.2,0-0.5,0.1-0.7,0.1
					c-1.6,0.2-3.2,0.3-4.9,0.3c-1.6,0-3.1-0.1-4.5-0.2c-0.4-0.1-0.9-0.1-1.3-0.2c-3.3-0.4-6.3-1.3-9-2.5c-0.9-0.4-1.9-0.9-2.7-1.4
					c-1.6-0.9-3.1-2-4.5-3.3c-0.6-0.6-1.2-1.1-1.8-1.8c-0.7-0.7-1.4-1.5-2-2.4c-1.5-1.9-2.7-4.1-3.6-6.4c-0.6-1.4-1.1-2.9-1.5-4.4
					c-0.5-1.8-0.8-3.7-1-5.6h-15.9v-11h16c0-0.3,0.1-0.6,0.1-0.9c0.2-1.5,0.5-3,0.8-4.4c0.6-2.3,1.3-4.6,2.2-6.6
					c0.7-1.5,1.4-2.8,2.2-4.1c1.3-2,2.7-3.8,4.4-5.4c0.6-0.6,1.3-1.2,2-1.8c0.7-0.5,1.4-1.1,2.1-1.6c2-1.4,4.1-2.5,6.5-3.4
					c1.2-0.5,2.4-0.9,3.7-1.3c2.3-0.7,4.8-1.2,7.5-1.4c1.5-0.2,3-0.3,4.5-0.3c0.7,0,1.4,0,2.1,0v23.4c-2.3,0-4.3,0.2-6.2,0.5
					c0,0-0.1,0-0.1,0c-3,0.5-5.5,1.6-7.4,3c-0.1,0.1-0.3,0.2-0.4,0.3c-0.1,0.1-0.3,0.2-0.4,0.3c0,0,0,0,0,0c-1.9,1.6-3,3.6-3.6,6.1
					c0,0.2-0.1,0.3-0.1,0.5c-0.2,0.9-0.2,1.8-0.2,2.7c0,1.6,0.3,2.9,0.8,4.2c0.1,0.1,0.1,0.3,0.2,0.4c0.5,1.1,1.3,2.1,2.2,2.9
					c1.9,1.6,4.3,2.5,7.4,2.7c0,0,0,0,0,0c0.5,0,0.9,0,1.4,0c3.5,0,6.3-0.6,8.5-1.9c0.1,0,0.2-0.1,0.3-0.1c0,0,0,0,0,0
					c0.4-0.2,0.7-0.4,1-0.7c0.6-0.4,1.1-0.9,1.6-1.5c0.5-0.5,1-1.1,1.5-1.8c0.1-0.1,0.2-0.3,0.3-0.5c0.3-0.5,0.6-0.9,0.9-1.4
					c0.2-0.4,0.4-0.7,0.7-1.1c0.2-0.3,0.4-0.7,0.6-1.1c0.2-0.3,0.4-0.7,0.5-1.1c0.2-0.3,0.4-0.7,0.5-1.1c0-0.1,0.1-0.2,0.1-0.3
					c0.4-0.9,0.8-1.7,1.2-2.5c0.1-0.2,0.2-0.3,0.2-0.5c0.5-1,0.9-1.9,1.4-2.8c0-0.1,0.1-0.2,0.1-0.2v0c0.8-1.5,1.6-3.1,2.4-4.5
					c0.3-0.6,0.6-1.1,0.9-1.7c0.1-0.1,0.2-0.3,0.3-0.4c0.5-0.9,1.1-1.8,1.6-2.6v0c1.5-2.3,3.1-4.3,4.9-6.2c0,0,0,0,0,0
					c0.1-0.1,0.3-0.3,0.4-0.4c0.1-0.1,0.2-0.2,0.3-0.3c2.3-2.2,4.8-4,7.7-5.4c0.7-0.4,1.4-0.7,2.2-1l0,0c2.5-1,5.3-1.6,8.4-2
					c0.7-0.1,1.4-0.1,2.1-0.2c1-0.1,2-0.1,3-0.1c1.8,0,3.6,0.1,5.3,0.3c1.5,0.2,3,0.5,4.4,0.9c2.5,0.7,4.9,1.6,7.1,2.9
					c1.3,0.7,2.6,1.6,3.7,2.5c0.5,0.4,1,0.8,1.5,1.3c1.3,1.2,2.5,2.4,3.5,3.8c1.1,1.4,2,2.8,2.8,4.4h0c1.1,2,1.9,4.2,2.5,6.5
					c0.3,1.2,0.6,2.5,0.8,3.8c0.2,0.9,0.3,1.8,0.4,2.7h16.7v11.1h-17c-0.2,1.5-0.6,2.9-1,4.2c-0.4,1.5-1,2.9-1.6,4.3
					c-1,2.3-2.4,4.4-3.9,6.4c-0.7,0.9-1.6,1.8-2.4,2.7c-0.9,0.9-1.9,1.7-2.9,2.5c-1.2,0.9-2.4,1.7-3.7,2.4c-0.7,0.4-1.4,0.7-2.1,1.1
					c-2.6,1.2-5.5,2.2-8.5,2.8c-0.4,0.1-0.7,0.1-1.1,0.2C205.7,247.3,202.6,247.5,199.4,247.6z"/>
				<path class="st4" d="M184.8,222.4L184.8,222.4L184.8,222.4C184.8,222.4,184.8,222.4,184.8,222.4z"/>
				<path class="st0" d="M158.7,221.7l-0.2,0l0.5-0.1C158.9,221.6,158.8,221.6,158.7,221.7z"/>
				<path class="st4" d="M285,216.2l-3.7-4.2l0,0l-6.8-5.9l-6.6-5.8l-8.2-7.2l-5.9-5.2l-7.7-6.8l-5.4-4.8l-6.1-5.4l-5.3-4.6
					l-6.4-5.6l-5.3-4.7l-6-5.3l-5.5-4.9l-8.6-7.6l-6-5.3l-11.2-9.9l-5-4.4v-3.3c1.7,0,3.3,0,5,0.1c4.9,0.2,9.8,0.7,14.6,1.4
					c2.3,0.3,4.6,0.8,6.8,1.3c5,1.1,9.9,2.5,14.6,4.1c2.2,0.8,4.4,1.6,6.5,2.5c4.2,1.8,8.3,3.8,12.2,6c2,1.2,4,2.4,5.9,3.6
					c4.2,2.8,8.2,5.8,11.9,9.1c1.8,1.6,3.5,3.2,5.1,4.8c3.4,3.4,6.5,7,9.3,10.8c1.4,1.9,2.7,3.8,4,5.8c2.7,4.2,5,8.7,7,13.3
					c0.9,2.1,1.7,4.3,2.4,6.5c1.3,4,2.4,8.1,3.1,12.3c0.4,2.3,0.7,4.6,0.9,6.9v0c0.2,2.6,0.4,5.2,0.4,7.9v0.1
					C285.1,213.5,285,214.8,285,216.2z"/>
				<path class="st4" d="M69.3,212l-3.7,4.2c-0.1-1.4-0.1-2.8-0.1-4.2c0,0,0,0,0,0c0-2.7,0.1-5.4,0.4-8c0.2-2.3,0.5-4.6,0.9-6.9
					c0.8-4.8,2.1-9.4,3.7-13.9c0.8-2.2,1.7-4.4,2.6-6.5c2-4.4,4.3-8.7,6.9-12.7c1.3-2,2.6-3.8,4-5.7c3.1-4.1,6.6-8,10.4-11.6
					c1.7-1.6,3.4-3.2,5.2-4.7c3.7-3.1,7.5-5.9,11.6-8.5c1.9-1.2,4-2.4,6-3.5c4.6-2.6,9.5-4.8,14.6-6.7c2.2-0.8,4.4-1.6,6.6-2.3
					c4.2-1.3,8.4-2.4,12.8-3.2c2.3-0.4,4.6-0.8,6.9-1.2c4.9-0.7,9.9-1.1,15.1-1.1c0.7,0,1.3,0,2,0v3.3l-2,1.7l-12,10.6l-6,5.3
					l-7.4,6.6l-5.5,4.9l-7.8,6.9l-5.3,4.6l-6.1,5.3l-5.3,4.6l-7,6.2l-5.5,4.8l-7.3,6.5l-5.9,5.2l-9.4,8.3l-6.6,5.8L69.3,212z"/>
				<path class="st4" d="M188.1,215.8l-0.1,0l0.3-0.2C188.2,215.7,188.2,215.8,188.1,215.8L188.1,215.8z"/>
			</g>
		</g>
		<g>
			<g id="XMLID_3_">
				<path class="st0" d="M298,216.5c-13.2,64.3-78.4,106.2-145.2,93.5c-33.2-6.3-61.6-24.9-79.9-52.3c-13-19.4-19.7-41.6-19.7-64.2
					c0-4.6,0.3-9.2,0.9-13.9c2.4-52.1,44.9-94.8,100.3-103.2c7.3-1.3,14.8-2,22.4-2c7.9,0,16,0.7,24,2.3
					c33.2,6.3,61.5,24.9,79.9,52.3C298.1,155,304.3,186.1,298,216.5z M180.3,293.5v11.8c5.5-0.2,10.9-0.7,16.3-1.6l-2.4-11.5
					C189.6,292.9,185,293.3,180.3,293.5z M173.3,305.3v-11.7c-4.6,0-9-0.3-13.4-0.8l-2.3,11C162.9,304.6,168.1,305.1,173.3,305.3z
					 M150.8,302.5l2.2-10.6c-4.4-0.7-8.7-1.6-12.9-2.8l-4,9.2C140.9,300,145.8,301.4,150.8,302.5z M201,291l2.4,11.4
					c4.9-1.1,9.7-2.5,14.4-4.2l-4.3-10.3h0C209.4,289.1,205.3,290.2,201,291z M129.6,295.8l3.7-8.7c-4.6-1.5-9-3.3-13.3-5.3
					l-4.6,6.8C120,291.3,124.7,293.7,129.6,295.8z M220.1,285.6l4.2,10c4.9-2.1,9.7-4.6,14.3-7.3l-5.7-8.2
					C228.8,282.1,224.5,284,220.1,285.6z M109.5,284.9l4.2-6.1c-4.3-2.3-8.5-4.9-12.5-7.6l-4.1,4C101,278.6,105.1,281.9,109.5,284.9
					z M239.1,276.7l5.4,7.7c4.4-3,8.5-6.2,12.4-9.8l-5.9-5.7C247.2,271.7,243.2,274.3,239.1,276.7z M173.3,280.3c0.7,0,1.3,0,2,0
					c1.7,0,3.3,0,5-0.1c3.8-0.1,7.5-0.5,11.1-0.9c2.3-0.3,4.6-0.6,6.9-1.1c3.4-0.6,6.8-1.4,10.1-2.3c2.3-0.6,4.5-1.3,6.7-2.1
					c3.6-1.2,7.1-2.6,10.5-4.2c2.2-1,4.3-2,6.3-3.1c3.5-1.9,6.9-3.9,10.1-6.1c2-1.3,3.9-2.7,5.7-4.2c3.2-2.4,6.2-5.1,9-7.8
					c1.7-1.7,3.3-3.4,4.9-5.2c2.7-3,5.1-6.1,7.4-9.4c1.3-1.9,2.6-4,3.8-6c2.2-3.7,4.1-7.6,5.7-11.6c0.9-2.2,1.7-4.4,2.4-6.7
					c1.4-4.3,2.4-8.8,3.1-13.4c0.3-2.3,0.6-4.6,0.7-7c0-0.4,0.1-0.9,0.1-1.4c0.1-1.4,0.1-2.7,0.1-4.1v-0.1c0-2.7-0.1-5.3-0.4-7.9v0
					c-0.2-2.3-0.5-4.6-0.9-6.9c-0.7-4.2-1.8-8.3-3.1-12.3c-0.7-2.2-1.5-4.4-2.4-6.5c-2-4.6-4.3-9.1-7-13.3c-1.2-2-2.6-3.9-4-5.8
					c-2.8-3.8-5.9-7.4-9.3-10.8c-1.6-1.6-3.3-3.2-5.1-4.8c-3.7-3.3-7.7-6.3-11.9-9.1c-1.9-1.3-3.9-2.5-5.9-3.6
					c-3.9-2.2-8-4.3-12.2-6.1c-2.1-0.9-4.3-1.8-6.5-2.5c-4.7-1.7-9.6-3.1-14.6-4.1c-2.2-0.5-4.5-0.9-6.8-1.3
					c-4.8-0.8-9.6-1.2-14.6-1.4c-1.6-0.1-3.3-0.1-5-0.1c-0.7,0-1.3,0-2,0c-5.1,0.1-10.1,0.5-15.1,1.1c-2.3,0.3-4.6,0.7-6.9,1.1
					c-4.4,0.9-8.6,1.9-12.8,3.2c-2.2,0.7-4.4,1.5-6.6,2.3c-5.1,1.9-10,4.2-14.6,6.7c-2,1.1-4.1,2.3-6,3.5c-4.1,2.6-8,5.4-11.6,8.5
					c-1.8,1.5-3.5,3-5.2,4.7c-3.8,3.6-7.3,7.5-10.4,11.6c-1.4,1.9-2.8,3.7-4,5.7c-2.7,4.1-5,8.3-6.9,12.7c-0.9,2.1-1.8,4.3-2.6,6.5
					c-1.6,4.5-2.8,9.1-3.7,13.9c-0.4,2.3-0.7,4.6-0.9,6.9c-0.3,2.6-0.4,5.3-0.4,8c0,0,0,0,0,0c0,1.4,0,2.8,0.1,4.2
					c0,0.5,0,0.9,0.1,1.4c0.2,2.4,0.4,4.7,0.7,7c0.7,4.9,1.9,9.7,3.4,14.4c0.7,2.2,1.5,4.5,2.5,6.6c1.6,3.8,3.5,7.6,5.6,11.1
					c1.2,2,2.5,4,3.9,5.9c2.6,3.7,5.4,7.2,8.5,10.5c1.6,1.7,3.3,3.4,5,5.1c3,2.8,6.2,5.4,9.5,7.9c1.9,1.4,3.8,2.8,5.8,4
					c3.3,2.1,6.8,4.1,10.5,6c2.1,1.1,4.3,2,6.4,3c3.6,1.5,7.2,2.9,11,4c2.2,0.7,4.5,1.3,6.8,1.9c3.4,0.8,6.8,1.5,10.2,2.1
					c2.3,0.4,4.6,0.7,6.9,0.9C166.1,280.1,169.7,280.3,173.3,280.3z M92,270.2l3.5-3.4c-3.9-3.1-7.6-6.4-11-9.9l-2.5,1.6
					C85.2,262.7,88.5,266.6,92,270.2z M256.5,264.6l5.5,5.2c3.6-3.7,7-7.6,10-11.8l-5.1-3.3C263.6,258.2,260.2,261.5,256.5,264.6z
					 M78.1,252.8l1.6-1c-3.2-3.7-6.1-7.5-8.7-11.5C73,244.5,75.4,248.8,78.1,252.8z M271.5,249.5l4.5,2.9c2.7-4.1,5.1-8.4,7.2-12.9
					l-3.5-1.4C277.2,242,274.4,245.8,271.5,249.5z M283.2,231.9l2.7,1.1c1.9-4.7,3.4-9.5,4.6-14.5l-1.1-0.2
					C287.6,223,285.5,227.6,283.2,231.9z"/>
				<path class="st4" d="M180.3,305.3v-11.8c4.7-0.2,9.3-0.6,13.9-1.3l2.4,11.5C191.2,304.6,185.8,305.1,180.3,305.3z"/>
				<path class="st4" d="M173.3,293.6v11.7c-5.2-0.1-10.5-0.6-15.7-1.5l2.3-11C164.3,293.3,168.8,293.6,173.3,293.6z"/>
				<path class="st4" d="M153,291.9l-2.2,10.6c-5-1.1-9.9-2.5-14.6-4.2l4-9.2C144.3,290.3,148.6,291.2,153,291.9z"/>
				<path class="st4" d="M203.4,302.4L201,291c4.2-0.8,8.4-1.9,12.5-3.2h0l4.3,10.3C213.2,299.8,208.4,301.3,203.4,302.4z"/>
				<path class="st4" d="M133.4,287.1l-3.7,8.7c-4.9-2.1-9.7-4.5-14.2-7.2l4.6-6.8C124.3,283.8,128.8,285.6,133.4,287.1z"/>
				<path class="st4" d="M224.3,295.6l-4.2-10c4.4-1.6,8.7-3.5,12.8-5.6l5.7,8.2C234,291,229.3,293.4,224.3,295.6z"/>
				<path class="st4" d="M113.8,278.7l-4.2,6.1c-4.4-3-8.5-6.2-12.4-9.8l4.1-4C105.2,273.9,109.4,276.4,113.8,278.7z"/>
				<path class="st4" d="M244.5,284.5l-5.4-7.7c4.1-2.4,8.1-5,11.9-7.8l5.9,5.7C253,278.2,248.9,281.5,244.5,284.5z"/>
				<path class="st4" d="M175.3,280.4v-3.3l5-4.4l8.2-7.2l6-5.3l5.3-4.7l5.5-4.9l4.4-3.9l5.3-4.6l4.2-3.7l5.3-4.6l4-3.5l5.4-4.8
					l4.4-3.9l5.9-5.2l6.2-5.5l6.6-5.8l10-8.8l7.9-7l6.3-5.5l3.7,4.2c0,0.4-0.1,0.9-0.1,1.4c-0.2,2.4-0.4,4.7-0.7,7
					c-0.7,4.6-1.7,9-3.1,13.4c-0.7,2.2-1.5,4.5-2.4,6.7c-1.6,4-3.5,7.8-5.7,11.6c-1.2,2.1-2.5,4.1-3.8,6c-2.3,3.3-4.7,6.4-7.4,9.4
					c-1.6,1.8-3.2,3.5-4.9,5.2c-2.8,2.8-5.8,5.4-9,7.8c-1.8,1.5-3.8,2.8-5.7,4.2c-3.2,2.2-6.6,4.2-10.1,6.1
					c-2.1,1.1-4.2,2.1-6.3,3.1c-3.4,1.6-6.9,3-10.5,4.2c-2.2,0.8-4.4,1.5-6.7,2.1c-3.3,0.9-6.7,1.7-10.1,2.3
					c-2.3,0.5-4.6,0.8-6.9,1.1c-3.6,0.5-7.4,0.8-11.1,0.9C178.7,280.3,177,280.4,175.3,280.4z"/>
				<path class="st4" d="M175.3,277.1v3.3c-0.7,0-1.3,0-2,0c-3.6-0.1-7.2-0.3-10.8-0.6c-2.3-0.2-4.6-0.5-6.9-0.9
					c-3.5-0.5-6.9-1.2-10.2-2.1c-2.3-0.6-4.5-1.2-6.8-1.9c-3.8-1.2-7.4-2.5-11-4c-2.2-0.9-4.3-1.9-6.4-3c-3.6-1.8-7.1-3.8-10.5-6
					c-2-1.3-4-2.6-5.8-4c-3.4-2.4-6.5-5.1-9.5-7.9c-1.8-1.6-3.4-3.3-5-5.1c-3.1-3.3-5.9-6.8-8.5-10.5c-1.4-1.9-2.7-3.9-3.9-5.9
					c-2.1-3.6-4-7.3-5.6-11.1c-0.9-2.2-1.8-4.4-2.5-6.6c-1.5-4.6-2.7-9.4-3.4-14.4c-0.3-2.3-0.6-4.6-0.7-7c0-0.5-0.1-0.9-0.1-1.4
					l3.7-4.2l6.3,5.6l7.9,7l10.9,9.6l6.6,5.8l6.1,5.3l5.9,5.2l5.4,4.7l5.4,4.8l4.3,3.8l5.3,4.6l4.3,3.8l5.3,4.6l5,4.4l5.5,4.8
					l5.5,4.8l6,5.3l8.3,7.3L175.3,277.1z"/>
				<path class="st0" d="M180.3,272.7l-5,4.4l-2-1.7L165,268l-6-5.3l-5.5-4.8L148,253l-5-4.4l-5.3-4.6l-4.3-3.8l-5.3-4.6l-4.3-3.8
					l-5.4-4.8l-5.4-4.7l-5.9-5.2l-6.1-5.3l-6.6-5.8l-10.9-9.6l-7.9-7l-6.3-5.6l6.9-6.1l6.6-5.8l9.4-8.3l5.9-5.2l7.3-6.5l5.5-4.8
					l7-6.2l5.3-4.6l6.1-5.3l5.3-4.6l7.8-6.9l5.5-4.8l7.4-6.6l6-5.3l12-10.6l2-1.7l5,4.4l11.2,9.9l6,5.3l8.6,7.6l5.5,4.9l6,5.3
					l5.3,4.7l6.4,5.6l5.3,4.6l6.1,5.4l5.4,4.8l7.7,6.8l5.9,5.2l8.2,7.2l6.6,5.8l6.8,5.9l0,0l-6.3,5.5l-7.9,7l-10,8.8l-6.6,5.8
					l-6.2,5.5l-5.9,5.2l-4.4,3.9l-5.4,4.8l-4,3.5l-5.3,4.6l-4.2,3.7l-5.3,4.6l-4.4,3.9l-5.5,4.9l-5.3,4.7l-6,5.3L180.3,272.7z
					 M199.2,219.3h0.2c3.2,0,6.3-0.3,9.2-0.8c0.4-0.1,0.7-0.1,1.1-0.2c3-0.6,5.9-1.6,8.5-2.8c0.7-0.3,1.4-0.7,2.1-1.1
					c1.3-0.7,2.5-1.5,3.7-2.4c1.1-0.8,2-1.6,2.9-2.5c0.9-0.9,1.7-1.7,2.4-2.7c1.6-1.9,2.9-4,3.9-6.4c0.6-1.4,1.2-2.8,1.6-4.3
					c0.4-1.4,0.7-2.8,1-4.2h17V181h-16.7c-0.1-0.9-0.2-1.8-0.4-2.7c-0.2-1.3-0.5-2.5-0.8-3.8c-0.7-2.3-1.5-4.5-2.5-6.5h0
					c-0.8-1.6-1.8-3-2.8-4.4c-1-1.4-2.2-2.6-3.5-3.8c-0.5-0.4-1-0.9-1.5-1.3c-1.2-1-2.4-1.8-3.7-2.6c-2.2-1.2-4.5-2.2-7.1-2.9
					c-1.4-0.4-2.9-0.7-4.4-0.9c-1.7-0.2-3.5-0.3-5.3-0.3c-1,0-2,0-3,0.1c-0.7,0-1.4,0.1-2.1,0.2c-3.2,0.3-6,1-8.4,1.9l0,0
					c-0.8,0.3-1.5,0.6-2.2,1c-2.9,1.4-5.4,3.2-7.7,5.4c-0.1,0.1-0.2,0.2-0.3,0.3c-0.1,0.1-0.3,0.3-0.4,0.4c0,0,0,0,0,0
					c-1.8,1.8-3.4,3.9-4.9,6.1v0c-0.6,0.8-1.1,1.7-1.6,2.6c-0.1,0.1-0.2,0.3-0.3,0.4c-0.3,0.6-0.6,1.1-0.9,1.7
					c-0.8,1.5-1.6,3-2.4,4.5v0c-0.1,0.1-0.1,0.2-0.1,0.2c-0.5,0.9-0.9,1.8-1.4,2.8c-0.1,0.2-0.2,0.3-0.2,0.5
					c-0.4,0.8-0.8,1.7-1.2,2.5c0,0.1-0.1,0.2-0.1,0.3c-0.2,0.4-0.3,0.7-0.5,1.1c-0.2,0.4-0.3,0.8-0.5,1.1c-0.2,0.4-0.4,0.7-0.6,1.1
					c-0.2,0.4-0.4,0.8-0.7,1.1c-0.3,0.5-0.6,1-0.9,1.5c-0.1,0.2-0.2,0.3-0.3,0.5c-0.5,0.7-1,1.2-1.5,1.8c-0.5,0.6-1.1,1.1-1.6,1.5
					c-0.3,0.2-0.6,0.5-1,0.7c0,0,0,0,0,0l-0.5,0.1l0.2,0c-2.2,1.3-5.1,1.9-8.5,1.9c-0.5,0-0.9,0-1.4,0c0,0,0,0,0,0
					c-3.1-0.2-5.6-1.1-7.4-2.7c-1-0.8-1.7-1.8-2.2-2.9c-0.1-0.1-0.1-0.2-0.2-0.4c-0.5-1.2-0.8-2.6-0.8-4.2c0-0.9,0.1-1.8,0.2-2.7
					c0-0.2,0.1-0.4,0.1-0.5c0.5-2.4,1.7-4.5,3.6-6.1c0,0,0,0,0,0c0.1-0.1,0.3-0.2,0.4-0.3c0.1-0.1,0.3-0.2,0.4-0.3
					c1.9-1.4,4.4-2.4,7.4-3c0,0,0.1,0,0.1,0c1.9-0.3,3.9-0.5,6.2-0.5v-23.4c-0.7,0-1.4,0-2.1,0c-1.6,0-3.1,0.2-4.5,0.3
					c-2.6,0.3-5.1,0.8-7.5,1.4c-1.3,0.4-2.5,0.8-3.7,1.3c-2.3,0.9-4.5,2.1-6.5,3.4c-0.7,0.5-1.4,1-2.1,1.6c-0.7,0.6-1.4,1.2-2,1.8
					c-1.7,1.6-3.2,3.4-4.4,5.4c-0.8,1.3-1.6,2.7-2.2,4.1c-0.9,2.1-1.7,4.3-2.2,6.6c-0.3,1.4-0.6,2.8-0.8,4.4c0,0.3-0.1,0.6-0.1,0.9
					h-16v11h15.9c0.2,2,0.6,3.8,1,5.6c0.4,1.6,0.9,3,1.5,4.4c0.9,2.3,2.2,4.5,3.6,6.4c0.6,0.8,1.3,1.6,2,2.3
					c0.6,0.6,1.2,1.2,1.8,1.8c1.4,1.2,2.9,2.3,4.5,3.3c0.9,0.5,1.8,1,2.7,1.4c2.7,1.2,5.7,2.1,9,2.5c0.4,0.1,0.9,0.1,1.3,0.2
					c1.5,0.1,3,0.2,4.5,0.2c1.7,0,3.4-0.1,4.9-0.3c0.2,0,0.5,0,0.7-0.1c2.9-0.3,5.5-1,7.8-1.9l0.3-0.1c0.6-0.2,1.1-0.5,1.7-0.8
					c1.2-0.6,2.3-1.2,3.4-1.9c1.5-1,2.9-2.1,4.3-3.3c0.2-0.2,0.4-0.4,0.6-0.6c0.1-0.1,0.2-0.2,0.3-0.4c0.7-0.7,1.3-1.4,2-2.1
					c0.6-0.6,1.1-1.3,1.7-2c0.2-0.2,0.3-0.4,0.5-0.6c0.4-0.5,0.8-1,1.1-1.5c0.3-0.4,0.6-0.8,0.8-1.2c0.1-0.2,0.3-0.4,0.4-0.6
					c0.2-0.4,0.4-0.7,0.6-1.1h0c0.1-0.1,0.1-0.2,0.2-0.3c0.1-0.1,0.1-0.2,0.2-0.3c0.1-0.1,0.2-0.3,0.2-0.4h0
					c0.2-0.4,0.4-0.8,0.7-1.2c0.1-0.1,0.2-0.3,0.2-0.4c0.2-0.3,0.3-0.6,0.5-0.9c0.1-0.1,0.2-0.3,0.2-0.4c0.2-0.2,0.3-0.5,0.4-0.8
					c0.1-0.1,0.2-0.3,0.2-0.4c0.2-0.3,0.3-0.6,0.5-0.9c0,0,0,0,0-0.1c0.2-0.4,0.4-0.7,0.6-1.1c0.3-0.5,0.5-1,0.8-1.5
					c0.4-0.7,0.8-1.5,1.1-2.2c0.3-0.5,0.5-1.1,0.8-1.6c0,0,0-0.1,0.1-0.1h0c0-0.1,0.1-0.1,0.1-0.2c0.4-0.9,0.9-1.8,1.4-2.6h0
					c1.6-2.8,3.3-5,5-6.4c1.5-1.3,3.4-2.2,5.7-2.6c1.1-0.2,2.3-0.3,3.6-0.3c2.3,0,4.3,0.3,6,0.9c0.2,0.1,0.5,0.2,0.7,0.3
					c0.9,0.4,1.7,0.8,2.4,1.4c1.4,1.1,2.4,2.4,2.9,4.1c0,0.1,0,0.1,0,0.2c0.3,0.9,0.4,1.9,0.4,2.9c0,1.6-0.3,3-1,4.2
					c0,0,0,0.1,0,0.1c-0.7,1.4-1.9,2.6-3.4,3.6c-1.7,1.1-3.7,1.8-6.2,2.2c-1.9,0.4-4,0.5-6.4,0.5V219.3z"/>
				<path class="st4" d="M95.5,266.9l-3.5,3.4c-3.6-3.6-6.9-7.5-10-11.7l2.5-1.6C87.9,260.5,91.6,263.8,95.5,266.9z"/>
				<path class="st4" d="M261.9,269.8l-5.5-5.2c3.7-3.1,7.1-6.3,10.3-9.8l5.1,3.3C268.9,262.2,265.5,266.1,261.9,269.8z"/>
				<path class="st4" d="M79.7,251.8l-1.6,1c-2.7-4.1-5.1-8.3-7.1-12.6C73.6,244.3,76.5,248.1,79.7,251.8z"/>
				<path class="st4" d="M275.9,252.3l-4.5-2.9c3-3.6,5.7-7.4,8.2-11.4l3.5,1.4C281,243.9,278.6,248.2,275.9,252.3z"/>
				<path class="st4" d="M285.8,233l-2.7-1.1c2.3-4.4,4.4-8.9,6.1-13.6l1.1,0.2C289.2,223.5,287.7,228.4,285.8,233z"/>
				<path class="st4" d="M199.4,219.3h-0.2v-23.5c2.4,0,4.5-0.2,6.4-0.5c2.5-0.4,4.6-1.2,6.2-2.2c1.6-1,2.7-2.2,3.4-3.6
					c0,0,0-0.1,0-0.1c0.6-1.2,1-2.6,1-4.2c0-1.1-0.1-2-0.4-2.9c0-0.1,0-0.1,0-0.2c-0.5-1.6-1.5-3-2.9-4.1c-0.7-0.5-1.5-1-2.4-1.4
					c-0.2-0.1-0.5-0.2-0.7-0.3c-1.7-0.6-3.7-0.9-6-0.9c-1.3,0-2.5,0.1-3.6,0.3c-2.3,0.4-4.2,1.3-5.7,2.6c-1.7,1.5-3.4,3.6-5,6.4h0
					c-0.5,0.8-0.9,1.7-1.4,2.6l-0.3,0.2l0.1,0c0,0,0,0.1-0.1,0.1c-0.3,0.5-0.5,1.1-0.8,1.6c-0.4,0.8-0.7,1.5-1.1,2.2
					c-0.3,0.5-0.5,1-0.8,1.5c-0.2,0.4-0.4,0.7-0.6,1.1l-0.1,0l0.1,0c-0.2,0.3-0.3,0.6-0.5,0.9c0,0.1-0.1,0.3-0.2,0.4
					c-0.1,0.3-0.3,0.5-0.4,0.8c-0.1,0.1-0.1,0.3-0.2,0.4c-0.2,0.3-0.3,0.6-0.5,0.9c-0.1,0.1-0.1,0.3-0.2,0.4
					c-0.2,0.4-0.4,0.8-0.7,1.2h0c-0.1,0.1-0.1,0.3-0.2,0.4c-0.1,0.1-0.1,0.2-0.2,0.3c-0.1,0.1-0.1,0.2-0.2,0.3h0
					c-0.2,0.4-0.4,0.7-0.6,1.1c-0.1,0.2-0.3,0.4-0.4,0.6c-0.2,0.4-0.5,0.8-0.8,1.2c-0.4,0.5-0.7,1-1.1,1.5c-0.1,0.2-0.3,0.4-0.5,0.6
					c-0.5,0.7-1.1,1.4-1.7,2c-0.6,0.7-1.3,1.4-2,2.1c-0.1,0.1-0.2,0.2-0.3,0.4c-0.2,0.2-0.4,0.4-0.6,0.6c-1.3,1.2-2.8,2.3-4.3,3.3
					c-1.1,0.7-2.2,1.3-3.4,1.9c-0.5,0.3-1.1,0.5-1.7,0.8l-0.3,0.1c-2.3,0.9-4.9,1.6-7.8,1.9c-0.2,0-0.5,0.1-0.7,0.1
					c-1.6,0.2-3.2,0.3-4.9,0.3c-1.6,0-3.1-0.1-4.5-0.2c-0.4-0.1-0.9-0.1-1.3-0.2c-3.3-0.4-6.3-1.3-9-2.5c-0.9-0.4-1.9-0.9-2.7-1.4
					c-1.6-1-3.1-2-4.5-3.3c-0.6-0.6-1.2-1.1-1.8-1.8c-0.7-0.7-1.4-1.5-2-2.3c-1.5-1.9-2.7-4.1-3.6-6.4c-0.6-1.4-1.1-2.9-1.5-4.4
					c-0.5-1.8-0.8-3.7-1-5.6h-15.9v-11h16c0-0.3,0.1-0.6,0.1-0.9c0.2-1.5,0.5-3,0.8-4.4c0.6-2.3,1.3-4.6,2.2-6.6
					c0.7-1.5,1.4-2.8,2.2-4.1c1.3-2,2.7-3.8,4.4-5.4c0.6-0.6,1.3-1.2,2-1.8c0.7-0.5,1.4-1.1,2.1-1.6c2-1.4,4.1-2.5,6.5-3.4
					c1.2-0.5,2.4-0.9,3.7-1.3c2.3-0.7,4.8-1.2,7.5-1.4c1.5-0.2,3-0.3,4.5-0.3c0.7,0,1.4,0,2.1,0v23.4c-2.3,0-4.3,0.2-6.2,0.5
					c0,0-0.1,0-0.1,0c-3,0.5-5.5,1.6-7.4,3c-0.1,0.1-0.3,0.2-0.4,0.3c-0.1,0.1-0.3,0.2-0.4,0.3c0,0,0,0,0,0c-1.9,1.6-3,3.6-3.6,6.1
					c0,0.2-0.1,0.4-0.1,0.5c-0.2,0.9-0.2,1.8-0.2,2.7c0,1.6,0.3,3,0.8,4.2c0.1,0.1,0.1,0.3,0.2,0.4c0.5,1.1,1.3,2.1,2.2,2.9
					c1.9,1.6,4.3,2.5,7.4,2.7c0,0,0,0,0,0c0.5,0,0.9,0,1.4,0c3.5,0,6.3-0.6,8.5-1.9c0.1,0,0.2-0.1,0.3-0.1c0,0,0,0,0,0
					c0.4-0.2,0.7-0.4,1-0.7c0.6-0.4,1.1-0.9,1.6-1.5c0.5-0.5,1-1.1,1.5-1.8c0.1-0.1,0.2-0.3,0.3-0.5c0.3-0.5,0.6-0.9,0.9-1.5
					c0.2-0.4,0.4-0.7,0.7-1.1c0.2-0.3,0.4-0.7,0.6-1.1c0.2-0.3,0.4-0.7,0.5-1.1c0.2-0.3,0.4-0.7,0.5-1.1c0-0.1,0.1-0.2,0.1-0.3
					c0.4-0.8,0.8-1.7,1.2-2.5c0.1-0.2,0.2-0.4,0.2-0.5c0.5-1,0.9-1.9,1.4-2.8c0-0.1,0.1-0.2,0.1-0.2v0c0.8-1.6,1.6-3.1,2.4-4.5
					c0.3-0.5,0.6-1.1,0.9-1.7c0.1-0.1,0.2-0.3,0.3-0.4c0.5-0.9,1.1-1.8,1.6-2.6v0c1.5-2.3,3.1-4.3,4.9-6.1c0,0,0,0,0,0
					c0.1-0.1,0.3-0.3,0.4-0.4c0.1-0.1,0.2-0.2,0.3-0.3c2.3-2.2,4.8-4,7.7-5.4c0.7-0.4,1.4-0.7,2.2-1l0,0c2.5-1,5.3-1.6,8.4-1.9
					c0.7-0.1,1.4-0.1,2.1-0.2c1-0.1,2-0.1,3-0.1c1.8,0,3.6,0.1,5.3,0.3c1.5,0.2,3,0.5,4.4,0.9c2.5,0.7,4.9,1.6,7.1,2.9
					c1.3,0.7,2.6,1.6,3.7,2.6c0.5,0.4,1,0.8,1.5,1.3c1.3,1.2,2.5,2.4,3.5,3.8c1.1,1.4,2,2.8,2.8,4.4h0c1.1,2,1.9,4.2,2.5,6.5
					c0.3,1.2,0.6,2.5,0.8,3.8c0.2,0.9,0.3,1.8,0.4,2.7h16.7v11.1h-17c-0.2,1.5-0.6,2.9-1,4.2c-0.4,1.5-1,2.9-1.6,4.3
					c-1,2.3-2.4,4.4-3.9,6.4c-0.7,0.9-1.6,1.8-2.4,2.7c-0.9,0.9-1.9,1.7-2.9,2.5c-1.2,0.9-2.4,1.7-3.7,2.4c-0.7,0.4-1.4,0.7-2.1,1.1
					c-2.6,1.2-5.5,2.2-8.5,2.8c-0.4,0.1-0.7,0.1-1.1,0.2C205.7,219,202.6,219.3,199.4,219.3z"/>
				<path class="st4" d="M184.8,194.2L184.8,194.2L184.8,194.2C184.8,194.2,184.8,194.2,184.8,194.2z"/>
				<path class="st0" d="M158.7,193.4l-0.2,0l0.5-0.1C158.9,193.4,158.8,193.4,158.7,193.4z"/>
				<path class="st4" d="M285,188l-3.7-4.2l0,0l-6.8-5.9L268,172l-8.2-7.2l-5.9-5.2l-7.7-6.8l-5.4-4.8l-6.1-5.4l-5.3-4.6l-6.4-5.6
					l-5.3-4.7l-6-5.3l-5.5-4.9l-8.6-7.6l-6-5.3l-11.2-9.9l-5-4.4v-3.3c1.7,0,3.3,0,5,0.1c4.9,0.2,9.8,0.7,14.6,1.4
					c2.3,0.3,4.6,0.8,6.8,1.3c5,1.1,9.9,2.5,14.6,4.1c2.2,0.8,4.4,1.6,6.5,2.5c4.2,1.8,8.3,3.8,12.2,6.1c2,1.2,4,2.4,5.9,3.6
					c4.2,2.8,8.2,5.8,11.9,9.1c1.8,1.6,3.5,3.2,5.1,4.8c3.4,3.4,6.5,7,9.3,10.8c1.4,1.9,2.7,3.8,4,5.8c2.7,4.2,5,8.7,7,13.3
					c0.9,2.1,1.7,4.3,2.4,6.5c1.3,4,2.4,8.1,3.1,12.3c0.4,2.3,0.7,4.6,0.9,6.9v0c0.2,2.6,0.4,5.2,0.4,7.9v0.1
					C285.1,185.2,285,186.6,285,188z"/>
				<path class="st4" d="M69.3,183.8l-3.7,4.2c-0.1-1.4-0.1-2.8-0.1-4.2c0,0,0,0,0,0c0-2.7,0.1-5.4,0.4-8c0.2-2.3,0.5-4.6,0.9-6.9
					c0.8-4.8,2.1-9.4,3.7-13.9c0.8-2.2,1.7-4.4,2.6-6.5c2-4.4,4.3-8.7,6.9-12.7c1.3-1.9,2.6-3.8,4-5.7c3.1-4.1,6.6-8,10.4-11.6
					c1.7-1.6,3.4-3.2,5.2-4.7c3.7-3.1,7.5-5.9,11.6-8.5c1.9-1.2,4-2.4,6-3.5c4.6-2.6,9.5-4.8,14.6-6.7c2.2-0.8,4.4-1.6,6.6-2.3
					c4.2-1.3,8.4-2.4,12.8-3.2c2.3-0.4,4.6-0.8,6.9-1.1c4.9-0.7,9.9-1.1,15.1-1.1c0.7,0,1.3,0,2,0v3.3l-2,1.7l-12,10.6l-6,5.3
					l-7.4,6.6l-5.5,4.8l-7.8,6.9l-5.3,4.6l-6.1,5.3l-5.3,4.6l-7,6.2l-5.5,4.8l-7.3,6.5l-5.9,5.2l-9.4,8.3l-6.6,5.8L69.3,183.8z"/>
				<path class="st4" d="M188.1,187.6l-0.1,0l0.3-0.2C188.2,187.5,188.2,187.5,188.1,187.6L188.1,187.6z"/>
			</g>
		</g>
		<g>
			<g id="XMLID_6_">
				<path class="st4" d="M180.3,276v-11.8c4.7-0.2,9.3-0.6,13.9-1.3l2.4,11.5C191.2,275.3,185.8,275.9,180.3,276z"/>
				<path class="st4" d="M173.3,264.3V276c-5.2-0.1-10.5-0.6-15.7-1.5l2.3-11C164.3,264,168.8,264.3,173.3,264.3z"/>
				<path class="st4" d="M150.8,273.2c-5-1.1-9.9-2.5-14.6-4.2l4-9.2c4.2,1.1,8.5,2.1,12.9,2.8L150.8,273.2z"/>
				<path class="st4" d="M203.4,273.1l-2.4-11.4c4.2-0.8,8.4-1.9,12.5-3.2h0l4.3,10.3C213.2,270.6,208.4,272,203.4,273.1z"/>
				<path class="st4" d="M129.6,266.5c-4.9-2.1-9.7-4.5-14.2-7.2l4.6-6.8c4.3,2,8.8,3.7,13.3,5.3L129.6,266.5z"/>
				<path class="st4" d="M224.3,266.3l-4.2-10c4.4-1.6,8.7-3.5,12.8-5.6l5.7,8.2C234,261.7,229.3,264.1,224.3,266.3z"/>
				<path class="st4" d="M109.5,255.6c-4.4-3-8.5-6.2-12.4-9.8l4.1-4c4,2.8,8.2,5.3,12.5,7.6L109.5,255.6z"/>
				<path class="st4" d="M244.5,255.2l-5.4-7.7c4.1-2.4,8.1-5,11.9-7.8l5.9,5.7C253,248.9,248.9,252.2,244.5,255.2z"/>
				<path class="st4" d="M95.5,237.6l-3.5,3.4c-3.6-3.6-6.9-7.5-10-11.7l2.5-1.6C87.9,231.2,91.6,234.5,95.5,237.6z"/>
				<path class="st4" d="M261.9,240.5l-5.5-5.2c3.7-3.1,7.1-6.3,10.3-9.8l5.1,3.3C268.9,232.9,265.5,236.8,261.9,240.5z"/>
				<path class="st4" d="M79.7,222.5l-1.6,1c-2.7-4.1-5.1-8.3-7.1-12.6C73.6,215,76.5,218.8,79.7,222.5z"/>
				<path class="st4" d="M275.9,223l-4.5-2.8c3-3.6,5.7-7.4,8.2-11.4l3.5,1.4C281,214.6,278.6,218.9,275.9,223z"/>
				<path class="st4" d="M285.8,203.7l-2.7-1.1c2.3-4.4,4.4-8.9,6.1-13.6l1.1,0.2C289.2,194.2,287.7,199.1,285.8,203.7z"/>
				<path class="st4" d="M184.8,164.9L184.8,164.9L184.8,164.9C184.8,164.9,184.8,164.9,184.8,164.9z"/>
				<path class="st0" d="M158.7,164.1l-0.2,0l0.5-0.1C158.9,164.1,158.8,164.1,158.7,164.1z"/>
				<path class="st4" d="M66.5,167c-0.3-2.3-0.6-4.6-0.7-7c0-0.5-0.1-0.9-0.1-1.4l3.7-4.2l6.3,5.6l7.9,7l10.9,9.6l6.6,5.8l6.1,5.3
					l5.9,5.2l5.4,4.7l5.4,4.8l4.3,3.8l5.3,4.6l4.3,3.8l5.3,4.6l5,4.4l5.5,4.8l5.5,4.8l6,5.3l8.3,7.3l2,1.7v3.3c-0.7,0-1.3,0-2,0
					c-3.6-0.1-7.2-0.3-10.8-0.6c-2.3-0.2-4.6-0.5-6.9-0.9c-3.5-0.5-6.9-1.2-10.2-2.1c-2.3-0.6-4.5-1.2-6.8-1.9
					c-3.8-1.2-7.4-2.5-11-4c-2.2-0.9-4.3-1.9-6.4-3c-3.6-1.8-7.1-3.8-10.5-5.9c-2-1.3-4-2.6-5.8-4c-3.4-2.4-6.5-5.1-9.5-7.9
					c-1.8-1.6-3.4-3.3-5-5.1c-3.1-3.3-5.9-6.8-8.5-10.5c-1.4-1.9-2.7-3.9-3.9-6c-2.1-3.6-4-7.3-5.6-11.1c-0.9-2.2-1.8-4.4-2.5-6.6
					C68.4,176.7,67.2,171.9,66.5,167z"/>
				<path class="st4" d="M180.3,243.4l8.2-7.2l6-5.3l5.3-4.7l5.5-4.9l4.4-3.9l5.3-4.6l4.2-3.7l5.3-4.6l4-3.5l5.4-4.8l4.4-3.9
					l5.9-5.2l6.2-5.5l6.6-5.8l10-8.8l7.9-7l6.3-5.5l3.7,4.2c0,0.4-0.1,0.9-0.1,1.4c-0.2,2.3-0.4,4.7-0.7,7c-0.7,4.6-1.7,9-3.1,13.4
					c-0.7,2.2-1.5,4.5-2.4,6.6c-1.6,4-3.5,7.8-5.7,11.6c-1.2,2.1-2.5,4.1-3.8,6c-2.3,3.3-4.7,6.4-7.4,9.4c-1.6,1.8-3.2,3.5-4.9,5.2
					c-2.8,2.8-5.8,5.4-9,7.8c-1.8,1.4-3.8,2.8-5.7,4.2c-3.2,2.2-6.6,4.2-10.1,6.1c-2.1,1.1-4.2,2.2-6.3,3.1c-3.4,1.5-6.9,3-10.5,4.2
					c-2.2,0.8-4.4,1.4-6.7,2.1c-3.3,0.9-6.7,1.7-10.1,2.3c-2.3,0.5-4.6,0.8-6.9,1.1c-3.6,0.5-7.4,0.8-11.1,0.9
					c-1.6,0.1-3.3,0.1-5,0.1v-3.3L180.3,243.4z"/>
				<path class="st0" d="M173.3,246l-8.3-7.3l-6-5.3l-5.5-4.8l-5.5-4.8l-5-4.4l-5.3-4.6l-4.3-3.8l-5.3-4.6l-4.3-3.8l-5.4-4.8
					l-5.4-4.7l-5.9-5.2l-6.1-5.3l-6.6-5.8L83.6,167l-7.9-7l-6.3-5.6l6.9-6.1l6.6-5.8l9.4-8.3l5.9-5.2l7.3-6.5l5.5-4.8l7-6.2l5.3-4.6
					l6.1-5.3l5.3-4.6l7.8-6.9l5.5-4.8l7.4-6.6l6-5.3l12-10.6l2-1.7l5,4.4l11.2,9.9l6,5.3l8.6,7.6l5.5,4.9l6,5.3l5.3,4.7l6.4,5.6
					l5.3,4.6l6.1,5.4l5.4,4.8l7.7,6.7l5.9,5.2l8.2,7.2l6.6,5.8l6.8,5.9l0,0L275,160l-7.9,7l-10,8.8l-6.6,5.8l-6.2,5.5l-5.9,5.2
					l-4.4,3.9l-5.4,4.8l-4,3.5l-5.3,4.6l-4.2,3.7l-5.3,4.6l-4.4,3.9l-5.5,4.9l-5.3,4.7l-6,5.3l-8.2,7.2l-5,4.4L173.3,246z
					 M158.7,164.1c-2.2,1.3-5.1,1.9-8.5,1.9c-0.5,0-0.9,0-1.4,0c0,0,0,0,0,0c-3.1-0.2-5.6-1.1-7.4-2.7c-1-0.8-1.7-1.8-2.2-2.9
					c-0.1-0.1-0.1-0.2-0.2-0.4c-0.5-1.2-0.8-2.6-0.8-4.2c0-0.9,0.1-1.8,0.2-2.7c0-0.2,0.1-0.4,0.1-0.5c0.5-2.4,1.7-4.5,3.6-6.1
					c0,0,0,0,0,0c0.1-0.1,0.3-0.2,0.4-0.3c0.1-0.1,0.3-0.2,0.4-0.3c1.9-1.4,4.4-2.4,7.4-3c0,0,0.1,0,0.1,0c1.9-0.3,3.9-0.5,6.2-0.5
					V119c-0.7,0-1.4,0-2.1,0c-1.6,0-3.1,0.2-4.5,0.3c-2.6,0.3-5.1,0.8-7.5,1.4c-1.3,0.4-2.5,0.8-3.7,1.3c-2.3,0.9-4.5,2.1-6.5,3.4
					c-0.7,0.5-1.4,1-2.1,1.6c-0.7,0.6-1.4,1.2-2,1.8c-1.7,1.6-3.2,3.4-4.4,5.4c-0.8,1.3-1.6,2.7-2.2,4.1c-0.9,2-1.7,4.3-2.2,6.6
					c-0.3,1.4-0.6,2.9-0.8,4.4c0,0.3-0.1,0.6-0.1,0.9h-16v11h15.9c0.2,2,0.6,3.8,1,5.6c0.4,1.6,0.9,3.1,1.5,4.4
					c0.9,2.3,2.2,4.5,3.6,6.4c0.6,0.8,1.3,1.6,2,2.4c0.6,0.6,1.2,1.2,1.8,1.8c1.4,1.2,2.9,2.3,4.5,3.3c0.9,0.5,1.8,1,2.7,1.4
					c2.7,1.2,5.7,2.1,9,2.5c0.4,0.1,0.9,0.1,1.3,0.2c1.5,0.1,3,0.2,4.5,0.2c1.7,0,3.4-0.1,4.9-0.3c0.2,0,0.5,0,0.7-0.1
					c2.9-0.3,5.5-1,7.8-1.9l0.3-0.1c0.6-0.2,1.1-0.5,1.7-0.8c1.2-0.6,2.3-1.2,3.4-1.9c1.5-1,2.9-2.1,4.3-3.3
					c0.2-0.2,0.4-0.4,0.6-0.6c0.1-0.1,0.2-0.2,0.3-0.4c0.7-0.7,1.3-1.3,2-2.1c0.6-0.6,1.1-1.3,1.7-2c0.2-0.2,0.3-0.4,0.5-0.6
					c0.4-0.5,0.8-1,1.1-1.5c0.3-0.4,0.6-0.8,0.8-1.2c0.1-0.2,0.3-0.4,0.4-0.6c0.2-0.4,0.4-0.7,0.6-1.1h0c0.1-0.1,0.1-0.2,0.2-0.3
					c0.1-0.1,0.1-0.2,0.2-0.3c0.1-0.1,0.2-0.3,0.2-0.4h0c0.2-0.4,0.4-0.8,0.7-1.2c0.1-0.1,0.2-0.3,0.2-0.4c0.2-0.3,0.3-0.6,0.5-0.9
					c0.1-0.1,0.2-0.3,0.2-0.4c0.2-0.2,0.3-0.5,0.4-0.8c0.1-0.1,0.2-0.3,0.2-0.4c0.2-0.3,0.3-0.6,0.5-0.9c0,0,0,0,0-0.1
					c0.2-0.4,0.4-0.7,0.6-1.1c0.3-0.5,0.5-1,0.8-1.5c0.4-0.7,0.8-1.5,1.1-2.2c0.3-0.5,0.5-1.1,0.8-1.6c0,0,0-0.1,0.1-0.1h0
					c0-0.1,0.1-0.1,0.1-0.2c0.4-0.9,0.9-1.8,1.4-2.6h0c1.6-2.8,3.3-4.9,5-6.4c1.5-1.3,3.4-2.2,5.7-2.6c1.1-0.2,2.3-0.3,3.6-0.3
					c2.3,0,4.3,0.3,6,0.9c0.2,0.1,0.5,0.2,0.7,0.3c0.9,0.4,1.7,0.8,2.4,1.4c1.4,1.1,2.4,2.4,2.9,4.1c0,0.1,0,0.1,0,0.1
					c0.3,0.9,0.4,1.9,0.4,2.9c0,1.6-0.3,3-1,4.2c0,0,0,0.1,0,0.1c-0.7,1.4-1.9,2.7-3.4,3.6c-1.7,1.1-3.7,1.8-6.2,2.2
					c-1.9,0.4-4,0.5-6.4,0.5V190h0.2c3.2,0,6.3-0.3,9.2-0.8c0.4-0.1,0.7-0.1,1.1-0.2c3-0.6,5.9-1.6,8.5-2.8c0.7-0.3,1.4-0.7,2.1-1.1
					c1.3-0.7,2.5-1.5,3.7-2.4c1.1-0.8,2-1.6,2.9-2.5c0.9-0.9,1.7-1.7,2.4-2.7c1.6-1.9,2.9-4,3.9-6.4c0.6-1.3,1.2-2.8,1.6-4.3
					c0.4-1.4,0.7-2.8,1-4.2h17v-11.1h-16.7c-0.1-0.9-0.2-1.8-0.4-2.7c-0.2-1.3-0.5-2.5-0.8-3.8c-0.7-2.3-1.5-4.5-2.5-6.5h0
					c-0.8-1.6-1.8-3-2.8-4.4c-1-1.4-2.2-2.6-3.5-3.8c-0.5-0.4-1-0.9-1.5-1.3c-1.2-1-2.4-1.8-3.7-2.6c-2.2-1.2-4.5-2.2-7.1-2.9
					c-1.4-0.4-2.9-0.7-4.4-0.9c-1.7-0.2-3.5-0.3-5.3-0.3c-1,0-2,0-3,0.1c-0.7,0-1.4,0.1-2.1,0.2c-3.2,0.3-6,1-8.4,1.9l0,0
					c-0.8,0.3-1.5,0.6-2.2,1c-2.9,1.4-5.4,3.2-7.7,5.4c-0.1,0.1-0.2,0.2-0.3,0.3c-0.1,0.1-0.3,0.3-0.4,0.4c0,0,0,0,0,0
					c-1.8,1.8-3.4,3.9-4.9,6.2v0c-0.6,0.8-1.1,1.7-1.6,2.6c-0.1,0.1-0.2,0.3-0.3,0.4c-0.3,0.6-0.6,1.1-0.9,1.7
					c-0.8,1.5-1.6,3-2.4,4.5v0c-0.1,0.1-0.1,0.2-0.1,0.2c-0.5,0.9-0.9,1.8-1.4,2.8c-0.1,0.2-0.2,0.4-0.2,0.5
					c-0.4,0.8-0.8,1.7-1.2,2.5c0,0.1-0.1,0.2-0.1,0.3c-0.2,0.4-0.3,0.7-0.5,1c-0.2,0.4-0.3,0.8-0.5,1.1c-0.2,0.4-0.4,0.7-0.6,1.1
					c-0.2,0.4-0.4,0.8-0.7,1.1c-0.3,0.5-0.6,1-0.9,1.4c-0.1,0.2-0.2,0.3-0.3,0.5c-0.5,0.7-1,1.2-1.5,1.8c-0.5,0.6-1.1,1.1-1.6,1.5
					c-0.3,0.2-0.6,0.5-1,0.7c0,0,0,0,0,0l-0.5,0.1L158.7,164.1z"/>
				<path class="st4" d="M208.6,189.2c-2.9,0.5-5.9,0.8-9.2,0.8h-0.2v-23.5c2.4,0,4.5-0.2,6.4-0.5c2.5-0.4,4.6-1.2,6.2-2.2
					c1.6-1,2.7-2.2,3.4-3.6c0,0,0-0.1,0-0.1c0.6-1.2,1-2.7,1-4.2c0-1.1-0.1-2-0.4-2.9c0-0.1,0-0.1,0-0.1c-0.5-1.6-1.5-3-2.9-4.1
					c-0.7-0.5-1.5-1-2.4-1.4c-0.2-0.1-0.5-0.2-0.7-0.3c-1.7-0.6-3.7-0.9-6-0.9c-1.3,0-2.5,0.1-3.6,0.3c-2.3,0.4-4.2,1.3-5.7,2.6
					c-1.7,1.5-3.4,3.6-5,6.4h0c-0.5,0.8-0.9,1.7-1.4,2.6l-0.3,0.2l0.1,0c0,0,0,0.1-0.1,0.1c-0.3,0.5-0.5,1.1-0.8,1.6
					c-0.4,0.8-0.7,1.5-1.1,2.2c-0.3,0.5-0.5,1-0.8,1.5c-0.2,0.4-0.4,0.7-0.6,1.1l-0.1,0l0.1,0c-0.2,0.3-0.3,0.6-0.5,0.9
					c0,0.1-0.1,0.3-0.2,0.4c-0.1,0.3-0.3,0.5-0.4,0.8c-0.1,0.1-0.1,0.3-0.2,0.4c-0.2,0.3-0.3,0.6-0.5,0.9c-0.1,0.1-0.1,0.3-0.2,0.4
					c-0.2,0.4-0.4,0.8-0.7,1.2h0c-0.1,0.1-0.1,0.3-0.2,0.4c-0.1,0.1-0.1,0.2-0.2,0.3c-0.1,0.1-0.1,0.2-0.2,0.3h0
					c-0.2,0.4-0.4,0.7-0.6,1.1c-0.1,0.2-0.3,0.4-0.4,0.6c-0.2,0.4-0.5,0.8-0.8,1.2c-0.4,0.5-0.7,1-1.1,1.5c-0.1,0.2-0.3,0.4-0.5,0.6
					c-0.5,0.7-1.1,1.4-1.7,2c-0.6,0.7-1.3,1.4-2,2.1c-0.1,0.1-0.2,0.2-0.3,0.4c-0.2,0.2-0.4,0.4-0.6,0.6c-1.3,1.2-2.8,2.3-4.3,3.3
					c-1.1,0.7-2.2,1.4-3.4,1.9c-0.5,0.3-1.1,0.5-1.7,0.8l-0.3,0.1c-2.3,0.9-4.9,1.6-7.8,1.9c-0.2,0-0.5,0.1-0.7,0.1
					c-1.6,0.2-3.2,0.3-4.9,0.3c-1.6,0-3.1-0.1-4.5-0.2c-0.4-0.1-0.9-0.1-1.3-0.2c-3.3-0.4-6.3-1.3-9-2.5c-0.9-0.4-1.9-0.9-2.7-1.4
					c-1.6-0.9-3.1-2-4.5-3.3c-0.6-0.6-1.2-1.1-1.8-1.8c-0.7-0.7-1.4-1.5-2-2.4c-1.5-1.9-2.7-4.1-3.6-6.4c-0.6-1.4-1.1-2.9-1.5-4.4
					c-0.5-1.8-0.8-3.7-1-5.6h-15.9v-11h16c0-0.3,0.1-0.6,0.1-0.9c0.2-1.5,0.5-3,0.8-4.4c0.6-2.3,1.3-4.6,2.2-6.6
					c0.7-1.5,1.4-2.8,2.2-4.1c1.3-2,2.7-3.8,4.4-5.4c0.6-0.6,1.3-1.2,2-1.8c0.7-0.5,1.4-1.1,2.1-1.6c2-1.4,4.1-2.5,6.5-3.4
					c1.2-0.5,2.4-0.9,3.7-1.3c2.3-0.7,4.8-1.2,7.5-1.4c1.5-0.2,3-0.3,4.5-0.3c0.7,0,1.4,0,2.1,0v23.4c-2.3,0-4.3,0.2-6.2,0.5
					c0,0-0.1,0-0.1,0c-3,0.5-5.5,1.6-7.4,3c-0.1,0.1-0.3,0.2-0.4,0.3c-0.1,0.1-0.3,0.2-0.4,0.3c0,0,0,0,0,0c-1.9,1.6-3,3.6-3.6,6.1
					c0,0.2-0.1,0.3-0.1,0.5c-0.2,0.9-0.2,1.8-0.2,2.7c0,1.6,0.3,2.9,0.8,4.2c0.1,0.1,0.1,0.3,0.2,0.4c0.5,1.1,1.3,2.1,2.2,2.9
					c1.9,1.6,4.3,2.5,7.4,2.7c0,0,0,0,0,0c0.5,0,0.9,0,1.4,0c3.5,0,6.3-0.6,8.5-1.9c0.1,0,0.2-0.1,0.3-0.1c0,0,0,0,0,0
					c0.4-0.2,0.7-0.4,1-0.7c0.6-0.4,1.1-0.9,1.6-1.5c0.5-0.5,1-1.1,1.5-1.8c0.1-0.1,0.2-0.3,0.3-0.5c0.3-0.5,0.6-0.9,0.9-1.4
					c0.2-0.4,0.4-0.7,0.7-1.1c0.2-0.3,0.4-0.7,0.6-1.1c0.2-0.3,0.4-0.7,0.5-1.1c0.2-0.3,0.4-0.7,0.5-1c0-0.1,0.1-0.2,0.1-0.3
					c0.4-0.9,0.8-1.7,1.2-2.5c0.1-0.2,0.2-0.3,0.2-0.5c0.5-1,0.9-1.9,1.4-2.8c0-0.1,0.1-0.2,0.1-0.2v0c0.8-1.5,1.6-3.1,2.4-4.5
					c0.3-0.6,0.6-1.1,0.9-1.7c0.1-0.1,0.2-0.3,0.3-0.4c0.5-0.9,1.1-1.8,1.6-2.6v0c1.5-2.3,3.1-4.3,4.9-6.2c0,0,0,0,0,0
					c0.1-0.1,0.3-0.3,0.4-0.4c0.1-0.1,0.2-0.2,0.3-0.3c2.3-2.2,4.8-4,7.7-5.4c0.7-0.4,1.4-0.7,2.2-1l0,0c2.5-1,5.3-1.6,8.4-1.9
					c0.7-0.1,1.4-0.1,2.1-0.2c1-0.1,2-0.1,3-0.1c1.8,0,3.6,0.1,5.3,0.3c1.5,0.2,3,0.5,4.4,0.9c2.5,0.7,4.9,1.6,7.1,2.9
					c1.3,0.7,2.6,1.6,3.7,2.6c0.5,0.4,1,0.8,1.5,1.3c1.3,1.2,2.5,2.4,3.5,3.8c1.1,1.4,2,2.8,2.8,4.4h0c1.1,2,1.9,4.2,2.5,6.5
					c0.3,1.2,0.6,2.5,0.8,3.8c0.2,0.9,0.3,1.8,0.4,2.7h16.7v11.1h-17c-0.2,1.5-0.6,2.9-1,4.2c-0.4,1.5-1,2.9-1.6,4.3
					c-1,2.3-2.4,4.4-3.9,6.4c-0.7,0.9-1.6,1.8-2.4,2.7c-0.9,0.9-1.9,1.7-2.9,2.5c-1.2,0.9-2.4,1.7-3.7,2.4c-0.7,0.4-1.4,0.7-2.1,1.1
					c-2.6,1.2-5.5,2.2-8.5,2.8C209.3,189.1,208.9,189.2,208.6,189.2z"/>
				<path class="st4" d="M188.2,158.3L188.2,158.3l-0.2,0l0.3-0.2C188.2,158.2,188.2,158.2,188.2,158.3z"/>
				<path class="st0" d="M239.1,247.4l5.4,7.7c4.4-3,8.5-6.2,12.4-9.8l-5.9-5.7C247.2,242.5,243.2,245,239.1,247.4z M97.1,245.8
					c3.9,3.6,8.1,6.8,12.4,9.8l4.2-6.2c-4.3-2.3-8.5-4.9-12.5-7.6L97.1,245.8z M224.3,266.3c4.9-2.1,9.7-4.6,14.3-7.3l-5.7-8.2
					c-4.1,2.1-8.4,3.9-12.8,5.6L224.3,266.3z M115.4,259.3c4.6,2.7,9.3,5.1,14.2,7.2l3.7-8.7c-4.6-1.5-9-3.3-13.3-5.3L115.4,259.3z
					 M203.4,273.1c4.9-1.1,9.7-2.5,14.4-4.2l-4.3-10.3h0c-4.1,1.3-8.2,2.3-12.5,3.2L203.4,273.1z M136.1,269
					c4.7,1.7,9.6,3.1,14.6,4.2l2.2-10.6c-4.4-0.7-8.7-1.6-12.9-2.8L136.1,269z M180.3,276c5.5-0.2,10.9-0.7,16.3-1.6l-2.4-11.5
					c-4.5,0.7-9.2,1.1-13.9,1.3V276z M71,211c2.1,4.3,4.4,8.5,7.1,12.6l1.6-1C76.5,218.8,73.6,215,71,211z M247.8,227
					c3.2-2.4,6.2-5.1,9-7.8c1.7-1.7,3.3-3.4,4.9-5.2c2.7-3,5.1-6.1,7.4-9.4c1.3-2,2.6-4,3.8-6c2.2-3.7,4.1-7.6,5.7-11.6
					c0.9-2.2,1.7-4.4,2.4-6.6c1.4-4.3,2.4-8.8,3.1-13.4c0.3-2.3,0.6-4.6,0.7-7c0-0.5,0.1-0.9,0.1-1.4c0.1-1.4,0.1-2.7,0.1-4.1v-0.1
					c0-2.7-0.1-5.3-0.4-7.9v0c-0.2-2.4-0.5-4.6-0.9-6.9c-0.7-4.2-1.8-8.3-3.1-12.3c-0.7-2.2-1.5-4.4-2.4-6.5c-2-4.6-4.3-9.1-7-13.3
					c-1.2-2-2.6-3.9-4-5.8c-2.8-3.8-5.9-7.4-9.3-10.8c-1.6-1.7-3.3-3.2-5.1-4.8c-3.7-3.3-7.7-6.3-11.9-9.1c-1.9-1.3-3.9-2.5-5.9-3.6
					c-3.9-2.2-8-4.3-12.2-6.1c-2.1-0.9-4.3-1.8-6.5-2.5c-4.7-1.7-9.6-3.1-14.6-4.1c-2.2-0.5-4.5-0.9-6.8-1.3
					c-4.8-0.8-9.6-1.2-14.6-1.4c-1.6-0.1-3.3-0.1-5-0.1c-0.7,0-1.3,0-2,0c-5.1,0.1-10.1,0.5-15.1,1.1c-2.3,0.3-4.6,0.7-6.9,1.2
					c-4.4,0.9-8.6,1.9-12.8,3.2c-2.2,0.7-4.4,1.5-6.6,2.3c-5.1,1.9-10,4.2-14.6,6.7c-2,1.1-4.1,2.3-6,3.5c-4.1,2.6-8,5.4-11.6,8.5
					c-1.8,1.5-3.5,3.1-5.2,4.7c-3.8,3.6-7.3,7.5-10.4,11.6c-1.4,1.8-2.8,3.7-4,5.7c-2.7,4.1-5,8.3-6.9,12.7
					c-0.9,2.1-1.8,4.3-2.6,6.5c-1.6,4.5-2.8,9.1-3.7,13.9c-0.4,2.3-0.7,4.6-0.9,6.9c-0.3,2.6-0.4,5.3-0.4,8c0,0,0,0,0,0
					c0,1.4,0,2.8,0.1,4.2c0,0.5,0,0.9,0.1,1.4c0.2,2.3,0.4,4.7,0.7,7c0.7,4.9,1.9,9.7,3.4,14.4c0.7,2.2,1.5,4.5,2.5,6.6
					c1.6,3.8,3.5,7.6,5.6,11.1c1.2,2,2.5,4,3.9,6c2.6,3.7,5.4,7.2,8.5,10.5c1.6,1.7,3.3,3.4,5,5.1c3,2.8,6.2,5.4,9.5,7.9
					c1.9,1.4,3.8,2.8,5.8,4c3.3,2.1,6.8,4.1,10.5,5.9c2.1,1.1,4.3,2,6.4,3c3.6,1.5,7.2,2.9,11,4c2.2,0.7,4.5,1.3,6.8,1.9
					c3.4,0.8,6.8,1.5,10.2,2.1c2.3,0.4,4.6,0.7,6.9,0.9c3.5,0.4,7.1,0.6,10.8,0.6c0.7,0,1.3,0,2,0c1.7,0,3.3,0,5-0.1
					c3.8-0.1,7.5-0.5,11.1-0.9c2.3-0.3,4.6-0.6,6.9-1.1c3.4-0.6,6.8-1.4,10.1-2.3c2.3-0.6,4.5-1.3,6.7-2.1c3.6-1.2,7.1-2.6,10.5-4.2
					c2.2-1,4.3-2,6.3-3.1c3.5-1.8,6.9-3.9,10.1-6.1C244.1,229.8,246,228.4,247.8,227z M271.5,220.2l4.5,2.8
					c2.7-4.1,5.1-8.4,7.2-12.9l-3.5-1.4C277.2,212.7,274.4,216.5,271.5,220.2z M256.5,235.3l5.5,5.2c3.6-3.7,7-7.6,10-11.8l-5.1-3.3
					C263.6,228.9,260.2,232.2,256.5,235.3z M92,240.9l3.5-3.4c-3.9-3.1-7.6-6.4-11-9.9l-2.5,1.6C85.2,233.4,88.5,237.3,92,240.9z
					 M157.6,274.5c5.2,0.8,10.5,1.3,15.7,1.5v-11.6c-4.6,0-9-0.3-13.4-0.8L157.6,274.5z M298,187.2
					c-13.2,64.3-78.4,106.2-145.2,93.5c-33.2-6.3-61.6-24.9-79.9-52.3c-13-19.4-19.7-41.6-19.7-64.2c0-4.6,0.3-9.2,0.9-13.9
					c2.4-52.1,44.9-94.8,100.3-103.2c7.3-1.3,14.8-2,22.4-2c7.9,0,16,0.7,24,2.3c33.2,6.3,61.5,24.9,79.9,52.3
					C298.1,125.7,304.3,156.8,298,187.2z M289.3,189c-1.7,4.7-3.7,9.2-6.1,13.6l2.7,1.1c1.9-4.6,3.4-9.5,4.6-14.5L289.3,189z"/>
				<path class="st4" d="M283.8,139.6c0.4,2.3,0.7,4.6,0.9,6.9v0c0.2,2.6,0.4,5.2,0.4,7.9v0.1c0,1.4,0,2.8-0.1,4.1l-3.7-4.2l0,0
					l-6.8-5.9l-6.6-5.8l-8.2-7.2l-5.9-5.2l-7.7-6.7l-5.4-4.8l-6.1-5.4l-5.3-4.6l-6.4-5.6l-5.3-4.7l-6-5.3l-5.5-4.9l-8.6-7.6l-6-5.3
					l-11.2-9.9l-5-4.4v-3.3c1.7,0,3.3,0,5,0.1c4.9,0.2,9.8,0.7,14.6,1.4c2.3,0.3,4.6,0.8,6.8,1.3c5,1.1,9.9,2.5,14.6,4.1
					c2.2,0.8,4.4,1.6,6.5,2.5c4.2,1.8,8.3,3.8,12.2,6.1c2,1.1,4,2.4,5.9,3.6c4.2,2.8,8.2,5.8,11.9,9.1c1.8,1.6,3.5,3.1,5.1,4.8
					c3.4,3.4,6.5,7,9.3,10.8c1.4,1.9,2.7,3.8,4,5.8c2.7,4.2,5,8.7,7,13.3c0.9,2.1,1.7,4.3,2.4,6.5C282,131.4,283,135.5,283.8,139.6z
					"/>
				<path class="st4" d="M65.6,154.5c0-2.7,0.1-5.4,0.4-8c0.2-2.3,0.5-4.6,0.9-6.9c0.8-4.8,2.1-9.4,3.7-13.9
					c0.8-2.2,1.7-4.4,2.6-6.5c2-4.4,4.3-8.7,6.9-12.7c1.3-1.9,2.6-3.8,4-5.7c3.1-4.1,6.6-8,10.4-11.6c1.7-1.6,3.4-3.2,5.2-4.7
					c3.7-3.1,7.5-5.9,11.6-8.5c1.9-1.2,4-2.4,6-3.5c4.6-2.6,9.5-4.8,14.6-6.7c2.2-0.8,4.4-1.6,6.6-2.3c4.2-1.3,8.4-2.4,12.8-3.2
					c2.3-0.5,4.6-0.8,6.9-1.2c4.9-0.7,9.9-1.1,15.1-1.1c0.7,0,1.3,0,2,0v3.3l-2,1.7l-12,10.6l-6,5.3l-7.4,6.6l-5.5,4.8l-7.8,6.9
					l-5.3,4.6l-6.1,5.3l-5.3,4.6l-7,6.2l-5.5,4.8l-7.3,6.5l-5.9,5.2l-9.4,8.3l-6.6,5.8l-6.9,6.1l-3.7,4.2
					C65.6,157.3,65.6,155.9,65.6,154.5C65.6,154.5,65.6,154.5,65.6,154.5z"/>
			</g>
		</g>
		<g>
			<g id="XMLID_5_">
				<path class="st0" d="M298,156.6c-13.2,64.3-78.4,106.2-145.2,93.5c-33.2-6.3-61.6-24.9-79.9-52.3c-13-19.4-19.7-41.6-19.7-64.2
					c0-4.6,0.3-9.2,0.9-13.9c2.4-52.1,44.9-94.8,100.3-103.2c7.3-1.3,14.8-2,22.4-2c7.9,0,16,0.7,24,2.3
					c33.2,6.3,61.5,24.9,79.9,52.3C298.1,95.1,304.3,126.2,298,156.6z M180.3,233.6v11.8c5.5-0.2,10.9-0.7,16.3-1.6l-2.4-11.5
					C189.6,233,185,233.4,180.3,233.6z M173.3,245.3v-11.7c-4.6,0-9-0.3-13.4-0.8l-2.3,11C162.9,244.7,168.1,245.2,173.3,245.3z
					 M150.8,242.5l2.2-10.6c-4.4-0.7-8.7-1.6-12.9-2.8l-4,9.2C140.9,240,145.8,241.4,150.8,242.5z M201,231.1l2.4,11.4
					c4.9-1.1,9.7-2.5,14.4-4.2l-4.3-10.3h0C209.4,229.2,205.3,230.2,201,231.1z M129.6,235.8l3.7-8.7c-4.6-1.5-9-3.3-13.3-5.3
					l-4.6,6.8C120,231.4,124.7,233.7,129.6,235.8z M220.1,225.6l4.2,10c4.9-2.1,9.7-4.6,14.3-7.3l-5.7-8.2
					C228.8,222.2,224.5,224,220.1,225.6z M109.5,224.9l4.2-6.2c-4.3-2.3-8.5-4.9-12.5-7.6l-4.1,4C101,218.7,105.1,221.9,109.5,224.9
					z M239.1,216.8l5.4,7.7c4.4-3,8.5-6.2,12.4-9.8L251,209C247.2,211.8,243.2,214.4,239.1,216.8z M173.3,220.4c0.7,0,1.3,0,2,0
					c1.7,0,3.3,0,5-0.1c3.8-0.1,7.5-0.5,11.1-0.9c2.3-0.3,4.6-0.6,6.9-1.1c3.4-0.6,6.8-1.4,10.1-2.3c2.3-0.6,4.5-1.3,6.7-2.1
					c3.6-1.2,7.1-2.6,10.5-4.2c2.2-1,4.3-2,6.3-3.1c3.5-1.8,6.9-3.9,10.1-6.1c2-1.3,3.9-2.7,5.7-4.2c3.2-2.4,6.2-5.1,9-7.8
					c1.7-1.7,3.3-3.4,4.9-5.2c2.7-3,5.1-6.1,7.4-9.4c1.3-2,2.6-4,3.8-6c2.2-3.7,4.1-7.6,5.7-11.6c0.9-2.2,1.7-4.4,2.4-6.6
					c1.4-4.3,2.4-8.8,3.1-13.4c0.3-2.3,0.6-4.6,0.7-7c0-0.4,0.1-0.9,0.1-1.4c0.1-1.4,0.1-2.7,0.1-4.1v-0.1c0-2.7-0.1-5.3-0.4-7.9v0
					c-0.2-2.3-0.5-4.6-0.9-6.9c-0.7-4.2-1.8-8.3-3.1-12.3c-0.7-2.2-1.5-4.4-2.4-6.5c-2-4.6-4.3-9.1-7-13.3c-1.2-2-2.6-3.9-4-5.8
					c-2.8-3.8-5.9-7.4-9.3-10.8c-1.6-1.6-3.3-3.2-5.1-4.8c-3.7-3.3-7.7-6.3-11.9-9.1c-1.9-1.3-3.9-2.5-5.9-3.6
					c-3.9-2.2-8-4.3-12.2-6c-2.1-0.9-4.3-1.8-6.5-2.5c-4.7-1.7-9.6-3.1-14.6-4.1c-2.2-0.5-4.5-0.9-6.8-1.3
					c-4.8-0.8-9.6-1.2-14.6-1.4c-1.6-0.1-3.3-0.1-5-0.1c-0.7,0-1.3,0-2,0c-5.1,0.1-10.1,0.5-15.1,1.1c-2.3,0.3-4.6,0.7-6.9,1.1
					c-4.4,0.9-8.6,1.9-12.8,3.2c-2.2,0.7-4.4,1.5-6.6,2.3c-5.1,1.9-10,4.2-14.6,6.7c-2,1.1-4.1,2.3-6,3.5c-4.1,2.6-8,5.4-11.6,8.5
					c-1.8,1.5-3.5,3-5.2,4.7c-3.8,3.6-7.3,7.5-10.4,11.6c-1.4,1.8-2.8,3.7-4,5.7c-2.7,4.1-5,8.3-6.9,12.7c-0.9,2.1-1.8,4.3-2.6,6.5
					c-1.6,4.5-2.8,9.1-3.7,13.9c-0.4,2.3-0.7,4.6-0.9,6.9c-0.3,2.6-0.4,5.3-0.4,8c0,0,0,0,0,0c0,1.4,0,2.8,0.1,4.2
					c0,0.5,0,0.9,0.1,1.4c0.2,2.4,0.4,4.7,0.7,7c0.7,4.9,1.9,9.7,3.4,14.4c0.7,2.2,1.5,4.5,2.5,6.6c1.6,3.8,3.5,7.6,5.6,11.1
					c1.2,2,2.5,4,3.9,6c2.6,3.7,5.4,7.2,8.5,10.5c1.6,1.7,3.3,3.4,5,5.1c3,2.8,6.2,5.4,9.5,7.9c1.9,1.4,3.8,2.8,5.8,4
					c3.3,2.1,6.8,4.1,10.5,5.9c2.1,1.1,4.3,2,6.4,3c3.6,1.5,7.2,2.9,11,4c2.2,0.7,4.5,1.3,6.8,1.9c3.4,0.8,6.8,1.5,10.2,2.1
					c2.3,0.4,4.6,0.7,6.9,0.9C166.1,220.1,169.7,220.3,173.3,220.4z M92,210.3l3.5-3.4c-3.9-3.1-7.6-6.4-11-9.9l-2.5,1.6
					C85.2,202.7,88.5,206.6,92,210.3z M256.5,204.6l5.5,5.2c3.6-3.7,7-7.6,10-11.8l-5.1-3.3C263.6,198.3,260.2,201.5,256.5,204.6z
					 M78.1,192.9l1.6-1c-3.2-3.7-6.1-7.5-8.7-11.5C73,184.6,75.4,188.8,78.1,192.9z M271.5,189.5l4.5,2.8c2.7-4.1,5.1-8.4,7.2-12.9
					l-3.5-1.4C277.2,182.1,274.4,185.9,271.5,189.5z M283.2,172l2.7,1.1c1.9-4.6,3.4-9.5,4.6-14.5l-1.1-0.2
					C287.6,163.1,285.5,167.6,283.2,172z"/>
				<path class="st4" d="M180.3,245.4v-11.8c4.7-0.2,9.3-0.6,13.9-1.3l2.4,11.5C191.2,244.7,185.8,245.2,180.3,245.4z"/>
				<path class="st4" d="M173.3,233.7v11.7c-5.2-0.1-10.5-0.6-15.7-1.5l2.3-11C164.3,233.4,168.8,233.7,173.3,233.7z"/>
				<path class="st4" d="M153,231.9l-2.2,10.6c-5-1.1-9.9-2.5-14.6-4.2l4-9.2C144.3,230.3,148.6,231.2,153,231.9z"/>
				<path class="st4" d="M203.4,242.4l-2.4-11.4c4.2-0.8,8.4-1.9,12.5-3.2h0l4.3,10.3C213.2,239.9,208.4,241.3,203.4,242.4z"/>
				<path class="st4" d="M133.4,227.2l-3.7,8.7c-4.9-2.1-9.7-4.5-14.2-7.2l4.6-6.8C124.3,223.9,128.8,225.6,133.4,227.2z"/>
				<path class="st4" d="M224.3,235.6l-4.2-10c4.4-1.6,8.7-3.5,12.8-5.6l5.7,8.2C234,231,229.3,233.5,224.3,235.6z"/>
				<path class="st4" d="M113.8,218.8l-4.2,6.2c-4.4-3-8.5-6.2-12.4-9.8l4.1-4C105.2,213.9,109.4,216.5,113.8,218.8z"/>
				<path class="st4" d="M244.5,224.5l-5.4-7.7c4.1-2.4,8.1-5,11.9-7.8l5.9,5.7C253,218.3,248.9,221.5,244.5,224.5z"/>
				<path class="st4" d="M175.3,220.4v-3.3l5-4.4l8.2-7.2l6-5.3l5.3-4.7l5.5-4.9l4.4-3.9l5.3-4.6l4.2-3.7l5.3-4.6l4-3.5l5.4-4.8
					l4.4-3.9l5.9-5.2l6.2-5.5l6.6-5.8l10-8.8l7.9-7l6.3-5.5l3.7,4.2c0,0.4-0.1,0.9-0.1,1.4c-0.2,2.4-0.4,4.7-0.7,7
					c-0.7,4.6-1.7,9-3.1,13.4c-0.7,2.2-1.5,4.5-2.4,6.6c-1.6,4-3.5,7.8-5.7,11.6c-1.2,2.1-2.5,4.1-3.8,6c-2.3,3.3-4.7,6.4-7.4,9.4
					c-1.6,1.8-3.2,3.5-4.9,5.2c-2.8,2.8-5.8,5.4-9,7.8c-1.8,1.4-3.8,2.8-5.7,4.2c-3.2,2.2-6.6,4.2-10.1,6.1
					c-2.1,1.1-4.2,2.2-6.3,3.1c-3.4,1.5-6.9,3-10.5,4.2c-2.2,0.8-4.4,1.4-6.7,2.1c-3.3,0.9-6.7,1.7-10.1,2.3
					c-2.3,0.5-4.6,0.8-6.9,1.1c-3.6,0.5-7.4,0.8-11.1,0.9C178.7,220.4,177,220.4,175.3,220.4z"/>
				<path class="st4" d="M175.3,217.1v3.3c-0.7,0-1.3,0-2,0c-3.6-0.1-7.2-0.3-10.8-0.6c-2.3-0.2-4.6-0.5-6.9-0.9
					c-3.5-0.5-6.9-1.2-10.2-2.1c-2.3-0.6-4.5-1.2-6.8-1.9c-3.8-1.2-7.4-2.5-11-4c-2.2-0.9-4.3-1.9-6.4-3c-3.6-1.8-7.1-3.8-10.5-5.9
					c-2-1.3-4-2.6-5.8-4c-3.4-2.4-6.5-5.1-9.5-7.9c-1.8-1.6-3.4-3.3-5-5.1c-3.1-3.3-5.9-6.8-8.5-10.5c-1.4-1.9-2.7-3.9-3.9-6
					c-2.1-3.6-4-7.3-5.6-11.1c-0.9-2.2-1.8-4.4-2.5-6.6c-1.5-4.6-2.7-9.4-3.4-14.4c-0.3-2.3-0.6-4.6-0.7-7c0-0.5-0.1-0.9-0.1-1.4
					l3.7-4.2l6.3,5.5l7.9,7l10.9,9.6l6.6,5.8l6.1,5.3l5.9,5.2l5.4,4.7l5.4,4.8l4.3,3.8l5.3,4.6l4.3,3.8l5.3,4.6l5,4.4l5.5,4.8
					l5.5,4.8l6,5.3l8.3,7.3L175.3,217.1z"/>
				<path class="st0" d="M180.3,212.7l-5,4.4l-2-1.7L165,208l-6-5.3l-5.5-4.8l-5.5-4.8l-5-4.4l-5.3-4.6l-4.3-3.8l-5.3-4.6l-4.3-3.8
					l-5.4-4.8l-5.4-4.7l-5.9-5.2l-6.1-5.3l-6.6-5.8l-10.9-9.6l-7.9-7l-6.3-5.5l6.9-6.1l6.6-5.8l9.4-8.3l5.9-5.2l7.3-6.5l5.5-4.8
					l7-6.2l5.3-4.6l6.1-5.3l5.3-4.6l7.8-6.9l5.5-4.8l7.4-6.6l6-5.3l12-10.6l2-1.7l5,4.4l11.2,9.9l6,5.3l8.6,7.6l5.5,4.9l6,5.3
					l5.3,4.7l6.4,5.6l5.3,4.6l6.1,5.4l5.4,4.8l7.7,6.8l5.9,5.2l8.2,7.2l6.6,5.8l6.8,5.9l0,0l-6.3,5.5l-7.9,7l-10,8.8l-6.6,5.8
					l-6.2,5.5l-5.9,5.2l-4.4,3.9l-5.4,4.8l-4,3.5l-5.3,4.6l-4.2,3.7l-5.3,4.6l-4.4,3.9l-5.5,4.9l-5.3,4.7l-6,5.3L180.3,212.7z
					 M199.2,159.4h0.2c3.2,0,6.3-0.3,9.2-0.8c0.4-0.1,0.7-0.1,1.1-0.2c3-0.6,5.9-1.6,8.5-2.8c0.7-0.3,1.4-0.7,2.1-1.1
					c1.3-0.7,2.5-1.5,3.7-2.4c1.1-0.8,2-1.6,2.9-2.5c0.9-0.9,1.7-1.7,2.4-2.7c1.6-1.9,2.9-4,3.9-6.4c0.6-1.3,1.2-2.8,1.6-4.3
					c0.4-1.4,0.7-2.8,1-4.2h17V121h-16.7c-0.1-0.9-0.2-1.8-0.4-2.7c-0.2-1.3-0.5-2.5-0.8-3.8c-0.7-2.3-1.5-4.5-2.5-6.5h0
					c-0.8-1.6-1.8-3-2.8-4.4c-1-1.4-2.2-2.6-3.5-3.8c-0.5-0.4-1-0.9-1.5-1.3c-1.2-1-2.4-1.8-3.7-2.6c-2.2-1.2-4.5-2.2-7.1-2.9
					c-1.4-0.4-2.9-0.7-4.4-0.9c-1.7-0.2-3.5-0.3-5.3-0.3c-1,0-2,0-3,0.1c-0.7,0-1.4,0.1-2.1,0.2c-3.2,0.3-6,1-8.4,1.9l0,0
					c-0.8,0.3-1.5,0.6-2.2,1c-2.9,1.4-5.4,3.2-7.7,5.4c-0.1,0.1-0.2,0.2-0.3,0.3c-0.1,0.1-0.3,0.3-0.4,0.4c0,0,0,0,0,0
					c-1.8,1.8-3.4,3.9-4.9,6.1v0c-0.6,0.8-1.1,1.7-1.6,2.6c-0.1,0.1-0.2,0.3-0.3,0.4c-0.3,0.6-0.6,1.1-0.9,1.7
					c-0.8,1.5-1.6,3-2.4,4.5v0c-0.1,0.1-0.1,0.2-0.1,0.2c-0.5,0.9-0.9,1.8-1.4,2.8c-0.1,0.2-0.2,0.3-0.2,0.5
					c-0.4,0.8-0.8,1.7-1.2,2.5c0,0.1-0.1,0.2-0.1,0.3c-0.2,0.4-0.3,0.7-0.5,1.1c-0.2,0.4-0.3,0.8-0.5,1.1c-0.2,0.4-0.4,0.7-0.6,1.1
					c-0.2,0.4-0.4,0.8-0.7,1.1c-0.3,0.5-0.6,1-0.9,1.5c-0.1,0.2-0.2,0.3-0.3,0.5c-0.5,0.7-1,1.2-1.5,1.8c-0.5,0.6-1.1,1.1-1.6,1.5
					c-0.3,0.2-0.6,0.5-1,0.7c0,0,0,0,0,0l-0.5,0.1l0.2,0c-2.2,1.3-5.1,1.9-8.5,1.9c-0.5,0-0.9,0-1.4,0c0,0,0,0,0,0
					c-3.1-0.2-5.6-1.1-7.4-2.7c-1-0.8-1.7-1.8-2.2-2.9c-0.1-0.1-0.1-0.2-0.2-0.4c-0.5-1.2-0.8-2.6-0.8-4.2c0-0.9,0.1-1.8,0.2-2.7
					c0-0.2,0.1-0.4,0.1-0.5c0.5-2.5,1.7-4.5,3.6-6.1c0,0,0,0,0,0c0.1-0.1,0.3-0.2,0.4-0.3c0.1-0.1,0.3-0.2,0.4-0.3
					c1.9-1.4,4.4-2.5,7.4-3c0,0,0.1,0,0.1,0c1.9-0.3,3.9-0.5,6.2-0.5V88.3c-0.7,0-1.4,0-2.1,0c-1.6,0-3.1,0.2-4.5,0.3
					c-2.6,0.3-5.1,0.8-7.5,1.4c-1.3,0.4-2.5,0.8-3.7,1.3c-2.3,0.9-4.5,2.1-6.5,3.4c-0.7,0.5-1.4,1-2.1,1.5c-0.7,0.6-1.4,1.2-2,1.8
					c-1.7,1.6-3.2,3.4-4.4,5.4c-0.8,1.3-1.6,2.7-2.2,4.1c-0.9,2.1-1.7,4.3-2.2,6.6c-0.3,1.4-0.6,2.8-0.8,4.4c0,0.3-0.1,0.6-0.1,0.9
					h-16v11h15.9c0.2,2,0.6,3.8,1,5.6c0.4,1.6,0.9,3.1,1.5,4.4c0.9,2.3,2.2,4.5,3.6,6.4c0.6,0.8,1.3,1.6,2,2.4
					c0.6,0.6,1.2,1.2,1.8,1.8c1.4,1.2,2.9,2.3,4.5,3.3c0.9,0.5,1.8,1,2.7,1.4c2.7,1.2,5.7,2.1,9,2.5c0.4,0.1,0.9,0.1,1.3,0.2
					c1.5,0.1,3,0.2,4.5,0.2c1.7,0,3.4-0.1,4.9-0.3c0.2,0,0.5,0,0.7-0.1c2.9-0.3,5.5-1,7.8-1.9l0.3-0.1c0.6-0.2,1.1-0.5,1.7-0.8
					c1.2-0.6,2.3-1.2,3.4-1.9c1.5-1,2.9-2.1,4.3-3.3c0.2-0.2,0.4-0.4,0.6-0.6c0.1-0.1,0.2-0.2,0.3-0.4c0.7-0.7,1.3-1.3,2-2.1
					c0.6-0.6,1.1-1.3,1.7-2c0.2-0.2,0.3-0.4,0.5-0.6c0.4-0.5,0.8-1,1.1-1.5c0.3-0.4,0.6-0.8,0.8-1.2c0.1-0.2,0.3-0.4,0.4-0.6
					c0.2-0.4,0.4-0.7,0.6-1.1h0c0.1-0.1,0.1-0.2,0.2-0.3c0.1-0.1,0.1-0.2,0.2-0.3c0.1-0.1,0.2-0.3,0.2-0.4h0
					c0.2-0.4,0.4-0.8,0.7-1.2c0.1-0.1,0.2-0.3,0.2-0.4c0.2-0.3,0.3-0.6,0.5-0.9c0.1-0.1,0.2-0.3,0.2-0.4c0.2-0.2,0.3-0.5,0.4-0.8
					c0.1-0.1,0.2-0.3,0.2-0.4c0.2-0.3,0.3-0.6,0.5-0.9c0,0,0,0,0-0.1c0.2-0.4,0.4-0.7,0.6-1.1c0.3-0.5,0.5-1,0.8-1.5
					c0.4-0.7,0.8-1.5,1.1-2.2c0.3-0.5,0.5-1.1,0.8-1.6c0,0,0-0.1,0.1-0.1h0c0-0.1,0.1-0.1,0.1-0.2c0.4-0.9,0.9-1.8,1.4-2.6h0
					c1.6-2.8,3.3-4.9,5-6.4c1.5-1.3,3.4-2.2,5.7-2.6c1.1-0.2,2.3-0.3,3.6-0.3c2.3,0,4.3,0.3,6,0.9c0.2,0.1,0.5,0.2,0.7,0.3
					c0.9,0.4,1.7,0.8,2.4,1.4c1.4,1.1,2.4,2.4,2.9,4.1c0,0.1,0,0.1,0,0.2c0.3,0.9,0.4,1.9,0.4,2.9c0,1.6-0.3,3-1,4.2
					c0,0,0,0.1,0,0.1c-0.7,1.4-1.9,2.7-3.4,3.6c-1.7,1.1-3.7,1.8-6.2,2.2c-1.9,0.4-4,0.5-6.4,0.5V159.4z"/>
				<path class="st4" d="M95.5,206.9l-3.5,3.4c-3.6-3.6-6.9-7.5-10-11.7l2.5-1.6C87.9,200.5,91.6,203.8,95.5,206.9z"/>
				<path class="st4" d="M261.9,209.9l-5.5-5.2c3.7-3.1,7.1-6.3,10.3-9.8l5.1,3.3C268.9,202.3,265.5,206.2,261.9,209.9z"/>
				<path class="st4" d="M79.7,191.8l-1.6,1c-2.7-4.1-5.1-8.3-7.1-12.6C73.6,184.3,76.5,188.2,79.7,191.8z"/>
				<path class="st4" d="M275.9,192.4l-4.5-2.8c3-3.6,5.7-7.4,8.2-11.4l3.5,1.4C281,184,278.6,188.3,275.9,192.4z"/>
				<path class="st4" d="M285.8,173.1l-2.7-1.1c2.3-4.4,4.4-8.9,6.1-13.6l1.1,0.2C289.2,163.6,287.7,168.4,285.8,173.1z"/>
				<path class="st4" d="M199.4,159.4h-0.2v-23.5c2.4,0,4.5-0.2,6.4-0.5c2.5-0.4,4.6-1.2,6.2-2.2c1.6-1,2.7-2.2,3.4-3.6
					c0,0,0-0.1,0-0.1c0.6-1.2,1-2.6,1-4.2c0-1-0.1-2-0.4-2.9c0-0.1,0-0.1,0-0.2c-0.5-1.6-1.5-3-2.9-4.1c-0.7-0.5-1.5-1-2.4-1.4
					c-0.2-0.1-0.5-0.2-0.7-0.3c-1.7-0.6-3.7-0.9-6-0.9c-1.3,0-2.5,0.1-3.6,0.3c-2.3,0.4-4.2,1.3-5.7,2.6c-1.7,1.5-3.4,3.6-5,6.4h0
					c-0.5,0.8-0.9,1.7-1.4,2.6l-0.3,0.2l0.1,0c0,0,0,0.1-0.1,0.1c-0.3,0.5-0.5,1.1-0.8,1.6c-0.4,0.8-0.7,1.5-1.1,2.2
					c-0.3,0.5-0.5,1-0.8,1.5c-0.2,0.4-0.4,0.7-0.6,1.1l-0.1,0l0.1,0c-0.2,0.3-0.3,0.6-0.5,0.9c0,0.1-0.1,0.3-0.2,0.4
					c-0.1,0.3-0.3,0.5-0.4,0.8c-0.1,0.1-0.1,0.3-0.2,0.4c-0.2,0.3-0.3,0.6-0.5,0.9c-0.1,0.1-0.1,0.3-0.2,0.4
					c-0.2,0.4-0.4,0.8-0.7,1.2h0c-0.1,0.1-0.1,0.3-0.2,0.4c-0.1,0.1-0.1,0.2-0.2,0.3c-0.1,0.1-0.1,0.2-0.2,0.3h0
					c-0.2,0.4-0.4,0.7-0.6,1.1c-0.1,0.2-0.3,0.4-0.4,0.6c-0.2,0.4-0.5,0.8-0.8,1.2c-0.4,0.5-0.7,1-1.1,1.5c-0.1,0.2-0.3,0.4-0.5,0.6
					c-0.5,0.7-1.1,1.4-1.7,2c-0.6,0.7-1.3,1.4-2,2.1c-0.1,0.1-0.2,0.2-0.3,0.4c-0.2,0.2-0.4,0.4-0.6,0.6c-1.3,1.2-2.8,2.3-4.3,3.3
					c-1.1,0.7-2.2,1.3-3.4,1.9c-0.5,0.3-1.1,0.5-1.7,0.8l-0.3,0.1c-2.3,0.9-4.9,1.6-7.8,1.9c-0.2,0-0.5,0.1-0.7,0.1
					c-1.6,0.2-3.2,0.3-4.9,0.3c-1.6,0-3.1-0.1-4.5-0.2c-0.4-0.1-0.9-0.1-1.3-0.2c-3.3-0.4-6.3-1.3-9-2.5c-0.9-0.4-1.9-0.9-2.7-1.4
					c-1.6-0.9-3.1-2-4.5-3.3c-0.6-0.6-1.2-1.1-1.8-1.8c-0.7-0.7-1.4-1.5-2-2.4c-1.5-1.9-2.7-4.1-3.6-6.4c-0.6-1.4-1.1-2.9-1.5-4.4
					c-0.5-1.8-0.8-3.7-1-5.6h-15.9v-11h16c0-0.3,0.1-0.6,0.1-0.9c0.2-1.5,0.5-3,0.8-4.4c0.6-2.3,1.3-4.5,2.2-6.6
					c0.7-1.5,1.4-2.8,2.2-4.1c1.3-2,2.7-3.8,4.4-5.4c0.6-0.6,1.3-1.2,2-1.8c0.7-0.5,1.4-1,2.1-1.5c2-1.4,4.1-2.5,6.5-3.4
					c1.2-0.5,2.4-0.9,3.7-1.3c2.3-0.7,4.8-1.2,7.5-1.4c1.5-0.2,3-0.3,4.5-0.3c0.7,0,1.4,0,2.1,0v23.4c-2.3,0-4.3,0.2-6.2,0.5
					c0,0-0.1,0-0.1,0c-3,0.5-5.5,1.6-7.4,3c-0.1,0.1-0.3,0.2-0.4,0.3c-0.1,0.1-0.3,0.2-0.4,0.3c0,0,0,0,0,0c-1.9,1.6-3,3.6-3.6,6.1
					c0,0.2-0.1,0.3-0.1,0.5c-0.2,0.9-0.2,1.8-0.2,2.7c0,1.6,0.3,3,0.8,4.2c0.1,0.1,0.1,0.3,0.2,0.4c0.5,1.1,1.3,2.1,2.2,2.9
					c1.9,1.6,4.3,2.5,7.4,2.7c0,0,0,0,0,0c0.5,0,0.9,0,1.4,0c3.5,0,6.3-0.6,8.5-1.9c0.1,0,0.2-0.1,0.3-0.1c0,0,0,0,0,0
					c0.4-0.2,0.7-0.4,1-0.7c0.6-0.4,1.1-0.9,1.6-1.5c0.5-0.5,1-1.1,1.5-1.8c0.1-0.1,0.2-0.3,0.3-0.5c0.3-0.5,0.6-0.9,0.9-1.5
					c0.2-0.4,0.4-0.7,0.7-1.1c0.2-0.3,0.4-0.7,0.6-1.1c0.2-0.3,0.4-0.7,0.5-1.1c0.2-0.3,0.4-0.7,0.5-1.1c0-0.1,0.1-0.2,0.1-0.3
					c0.4-0.8,0.8-1.7,1.2-2.5c0.1-0.2,0.2-0.4,0.2-0.5c0.5-1,0.9-1.9,1.4-2.8c0-0.1,0.1-0.2,0.1-0.2v0c0.8-1.6,1.6-3.1,2.4-4.5
					c0.3-0.5,0.6-1.1,0.9-1.7c0.1-0.1,0.2-0.3,0.3-0.4c0.5-0.9,1.1-1.8,1.6-2.6v0c1.5-2.3,3.1-4.3,4.9-6.1c0,0,0,0,0,0
					c0.1-0.1,0.3-0.3,0.4-0.4c0.1-0.1,0.2-0.2,0.3-0.3c2.3-2.2,4.8-4,7.7-5.4c0.7-0.4,1.4-0.7,2.2-1l0,0c2.5-1,5.3-1.6,8.4-1.9
					c0.7-0.1,1.4-0.1,2.1-0.2c1-0.1,2-0.1,3-0.1c1.8,0,3.6,0.1,5.3,0.3c1.5,0.2,3,0.5,4.4,0.9c2.5,0.7,4.9,1.6,7.1,2.9
					c1.3,0.7,2.6,1.6,3.7,2.6c0.5,0.4,1,0.8,1.5,1.3c1.3,1.2,2.5,2.5,3.5,3.8c1.1,1.4,2,2.8,2.8,4.4h0c1.1,2,1.9,4.2,2.5,6.5
					c0.3,1.2,0.6,2.5,0.8,3.8c0.2,0.9,0.3,1.8,0.4,2.7h16.7v11.1h-17c-0.2,1.5-0.6,2.9-1,4.2c-0.4,1.5-1,2.9-1.6,4.3
					c-1,2.3-2.4,4.4-3.9,6.4c-0.7,0.9-1.6,1.8-2.4,2.7c-0.9,0.9-1.9,1.7-2.9,2.5c-1.2,0.9-2.4,1.7-3.7,2.4c-0.7,0.4-1.4,0.7-2.1,1.1
					c-2.6,1.2-5.5,2.2-8.5,2.8c-0.4,0.1-0.7,0.1-1.1,0.2C205.7,159.1,202.6,159.4,199.4,159.4z"/>
				<path class="st4" d="M184.8,134.3L184.8,134.3L184.8,134.3C184.8,134.2,184.8,134.2,184.8,134.3z"/>
				<path class="st0" d="M158.7,133.5l-0.2,0l0.5-0.1C158.9,133.4,158.8,133.5,158.7,133.5z"/>
				<path class="st4" d="M285,128l-3.7-4.2l0,0l-6.8-5.9l-6.6-5.8l-8.2-7.2l-5.9-5.2l-7.7-6.8l-5.4-4.8l-6.1-5.4l-5.3-4.6l-6.4-5.6
					l-5.3-4.7l-6-5.3l-5.5-4.9l-8.6-7.6l-6-5.3L180.3,35l-5-4.4v-3.3c1.7,0,3.3,0,5,0.1c4.9,0.2,9.8,0.7,14.6,1.4
					c2.3,0.4,4.6,0.8,6.8,1.3c5,1.1,9.9,2.5,14.6,4.1c2.2,0.8,4.4,1.6,6.5,2.5c4.2,1.8,8.3,3.8,12.2,6c2,1.2,4,2.4,5.9,3.6
					c4.2,2.8,8.2,5.8,11.9,9.1c1.8,1.6,3.5,3.2,5.1,4.8c3.4,3.4,6.5,7,9.3,10.8c1.4,1.9,2.7,3.8,4,5.8c2.7,4.2,5,8.7,7,13.3
					c0.9,2.1,1.7,4.3,2.4,6.5c1.3,4,2.4,8.1,3.1,12.3c0.4,2.3,0.7,4.6,0.9,6.9v0c0.2,2.6,0.4,5.2,0.4,7.9v0.1
					C285.1,125.3,285,126.7,285,128z"/>
				<path class="st4" d="M69.3,123.8l-3.7,4.2c-0.1-1.4-0.1-2.8-0.1-4.2c0,0,0,0,0,0c0-2.7,0.1-5.4,0.4-8c0.2-2.3,0.5-4.6,0.9-6.9
					c0.8-4.8,2.1-9.4,3.7-13.9c0.8-2.2,1.7-4.4,2.6-6.5c2-4.4,4.3-8.7,6.9-12.7c1.3-1.9,2.6-3.8,4-5.7c3.1-4.1,6.6-8,10.4-11.6
					c1.7-1.6,3.4-3.2,5.2-4.7c3.7-3.1,7.5-5.9,11.6-8.5c1.9-1.2,4-2.4,6-3.5c4.6-2.6,9.5-4.8,14.6-6.7c2.2-0.8,4.4-1.6,6.6-2.3
					c4.2-1.3,8.4-2.4,12.8-3.2c2.3-0.5,4.6-0.8,6.9-1.1c4.9-0.7,9.9-1.1,15.1-1.1c0.7,0,1.3,0,2,0v3.3l-2,1.7l-12,10.6l-6,5.3
					l-7.4,6.6l-5.5,4.8l-7.8,6.9l-5.3,4.6l-6.1,5.3l-5.3,4.6l-7,6.2l-5.5,4.8l-7.3,6.5l-5.9,5.2l-9.4,8.3l-6.6,5.8L69.3,123.8z"/>
				<path class="st4" d="M188.1,127.7l-0.1,0l0.3-0.2C188.2,127.5,188.2,127.6,188.1,127.7L188.1,127.7z"/>
			</g>
		</g>
		<g>
			<g id="XMLID_7_">
				<path class="st0" d="M391.6,155.5c64.3,13.2,106.2,78.4,93.5,145.2c-6.3,33.2-24.9,61.6-52.3,79.9c-19.4,13-41.6,19.7-64.2,19.7
					c-4.6,0-9.2-0.3-13.9-0.9c-52.1-2.4-94.8-44.9-103.2-100.3c-1.3-7.3-2-14.8-2-22.4c0-7.9,0.7-16,2.3-24
					c6.3-33.2,24.9-61.5,52.3-79.9C330.1,155.4,361.2,149.3,391.6,155.5z M468.6,273.2h11.8c-0.2-5.5-0.7-10.9-1.6-16.3l-11.5,2.4
					C468,263.9,468.4,268.5,468.6,273.2z M480.4,280.2h-11.6c0,4.6-0.3,9-0.8,13.5l11,2.3C479.7,290.7,480.2,285.4,480.4,280.2z
					 M477.6,302.8l-10.6-2.2c-0.7,4.4-1.6,8.7-2.8,12.9l9.2,4C475.1,312.7,476.5,307.8,477.6,302.8z M466.1,252.5l11.4-2.4
					c-1.1-4.9-2.5-9.7-4.2-14.4l-10.3,4.3v0C464.2,244.1,465.2,248.3,466.1,252.5z M470.9,323.9l-8.7-3.7c-1.5,4.6-3.3,9-5.3,13.3
					l6.8,4.6C466.4,333.6,468.8,328.8,470.9,323.9z M460.7,233.4l10-4.2c-2.1-4.9-4.6-9.7-7.3-14.3l-8.2,5.7
					C457.2,224.8,459.1,229,460.7,233.4z M459.9,344l-6.2-4.2c-2.3,4.4-4.9,8.6-7.6,12.5l4,4.1C453.7,352.6,457,348.4,459.9,344z
					 M451.8,214.4l7.7-5.4c-3-4.4-6.2-8.5-9.8-12.4l-5.7,5.9C446.8,206.3,449.4,210.3,451.8,214.4z M455.4,280.2c0-0.7,0-1.3,0-2
					c0-1.7,0-3.3-0.1-5c-0.1-3.8-0.5-7.5-0.9-11.1c-0.3-2.3-0.6-4.6-1.1-6.9c-0.6-3.4-1.4-6.8-2.3-10.1c-0.6-2.3-1.3-4.5-2.1-6.7
					c-1.2-3.6-2.6-7.1-4.2-10.5c-1-2.2-2-4.3-3.1-6.3c-1.8-3.5-3.9-6.9-6.1-10.1c-1.3-2-2.7-3.9-4.2-5.7c-2.4-3.2-5.1-6.2-7.8-9
					c-1.7-1.7-3.4-3.3-5.2-4.9c-3-2.7-6.1-5.1-9.4-7.4c-2-1.3-4-2.6-6-3.8c-3.7-2.2-7.6-4.1-11.6-5.7c-2.2-0.9-4.4-1.7-6.6-2.4
					c-4.3-1.4-8.8-2.4-13.4-3.1c-2.3-0.3-4.6-0.6-7-0.7c-0.5,0-0.9-0.1-1.4-0.1c-1.4-0.1-2.7-0.1-4.1-0.1h-0.1
					c-2.7,0-5.3,0.1-7.9,0.4h0c-2.4,0.2-4.6,0.5-6.9,0.9c-4.2,0.7-8.3,1.8-12.3,3.1c-2.2,0.7-4.4,1.5-6.5,2.5
					c-4.6,1.9-9.1,4.3-13.3,7c-2,1.2-3.9,2.6-5.8,4c-3.8,2.8-7.4,5.9-10.8,9.3c-1.6,1.6-3.2,3.3-4.8,5.1c-3.3,3.7-6.3,7.7-9.1,11.9
					c-1.3,1.9-2.5,3.9-3.6,5.9c-2.2,3.9-4.3,8-6,12.2c-0.9,2.1-1.8,4.3-2.5,6.5c-1.7,4.7-3.1,9.6-4.1,14.6c-0.5,2.2-0.9,4.5-1.3,6.9
					c-0.8,4.8-1.2,9.6-1.4,14.5c-0.1,1.6-0.1,3.3-0.1,5c0,0.7,0,1.3,0,2c0.1,5.1,0.5,10.1,1.1,15.1c0.3,2.3,0.7,4.6,1.1,6.9
					c0.9,4.4,1.9,8.6,3.2,12.8c0.7,2.2,1.5,4.4,2.3,6.6c1.9,5.1,4.2,10,6.7,14.6c1.1,2,2.3,4.1,3.5,6c2.6,4.1,5.4,8,8.5,11.6
					c1.5,1.8,3.1,3.5,4.7,5.2c3.6,3.8,7.5,7.3,11.6,10.4c1.9,1.4,3.7,2.8,5.7,4c4.1,2.6,8.3,5,12.7,7c2.1,0.9,4.3,1.8,6.5,2.6
					c4.5,1.6,9.1,2.8,13.9,3.7c2.3,0.4,4.6,0.7,6.9,0.9c2.6,0.3,5.3,0.4,8,0.4c0,0,0,0,0,0c1.4,0,2.8,0,4.2-0.1
					c0.5,0,0.9-0.1,1.4-0.1c2.3-0.2,4.7-0.4,7-0.7c4.9-0.7,9.7-1.9,14.4-3.4c2.2-0.7,4.5-1.6,6.6-2.5c3.8-1.6,7.6-3.5,11.1-5.6
					c2-1.2,4-2.5,6-3.9c3.7-2.6,7.2-5.4,10.5-8.5c1.7-1.6,3.4-3.3,5.1-5c2.8-3,5.4-6.2,7.9-9.5c1.4-1.9,2.8-3.8,4-5.9
					c2.1-3.3,4.1-6.8,5.9-10.5c1.1-2.1,2-4.3,3-6.4c1.5-3.6,2.9-7.2,4-11c0.7-2.2,1.3-4.5,1.9-6.8c0.8-3.4,1.5-6.8,2.1-10.2
					c0.4-2.3,0.7-4.6,0.9-6.9C455.2,287.4,455.4,283.8,455.4,280.2z M445.3,361.5l-3.4-3.5c-3.1,3.9-6.4,7.6-9.9,11l1.6,2.5
					C437.8,368.4,441.7,365.1,445.3,361.5z M439.6,197l5.2-5.4c-3.7-3.6-7.6-7-11.8-10l-3.3,5.1C433.3,189.9,436.6,193.4,439.6,197z
					 M427.9,375.4l-1-1.6c-3.7,3.2-7.5,6.1-11.5,8.7C419.6,380.5,423.8,378.1,427.9,375.4z M424.5,182.1l2.9-4.5
					c-4.1-2.7-8.4-5.1-12.9-7.2l-1.4,3.5C417.1,176.4,420.9,179.1,424.5,182.1z M407,170.4l1.1-2.7c-4.6-1.9-9.5-3.4-14.5-4.6
					l-0.2,1.2C398.1,166,402.6,168,407,170.4z"/>
				<path class="st4" d="M480.4,273.2h-11.8c-0.2-4.7-0.6-9.3-1.3-13.9l11.5-2.4C479.7,262.3,480.2,267.7,480.4,273.2z"/>
				<path class="st4" d="M468.7,280.2h11.6c-0.1,5.2-0.6,10.5-1.5,15.7l-11-2.3C468.4,289.2,468.7,284.8,468.7,280.2z"/>
				<path class="st4" d="M467,300.6l10.6,2.2c-1.1,5-2.5,9.9-4.2,14.6l-9.2-4C465.3,309.3,466.3,305,467,300.6z"/>
				<path class="st4" d="M477.4,250.1l-11.4,2.4c-0.8-4.2-1.9-8.4-3.2-12.5v0l10.3-4.3C474.9,240.4,476.3,245.2,477.4,250.1z"/>
				<path class="st4" d="M462.2,320.2l8.7,3.7c-2.1,4.9-4.5,9.7-7.2,14.2l-6.8-4.6C458.9,329.2,460.7,324.7,462.2,320.2z"/>
				<path class="st4" d="M470.6,229.2l-10,4.2c-1.6-4.4-3.5-8.7-5.5-12.8l8.2-5.7C466.1,219.5,468.5,224.3,470.6,229.2z"/>
				<path class="st4" d="M453.8,339.8l6.2,4.2c-3,4.4-6.2,8.5-9.8,12.4l-4-4.1C448.9,348.3,451.5,344.1,453.8,339.8z"/>
				<path class="st4" d="M459.5,209l-7.7,5.4c-2.4-4.1-5-8.1-7.8-11.9l5.7-5.9C453.3,200.5,456.5,204.7,459.5,209z"/>
				<path class="st4" d="M455.4,278.2h-3.3l-4.4-5l-7.2-8.2l-5.3-6l-4.7-5.3l-4.9-5.5l-3.9-4.4l-4.6-5.3l-3.7-4.2l-4.6-5.3l-3.5-4
					l-4.8-5.4l-3.9-4.4l-5.2-5.9l-5.5-6.2l-5.8-6.6l-8.8-10l-7-7.9l-5.5-6.3l4.2-3.7c0.5,0,0.9,0,1.4,0.1c2.3,0.2,4.7,0.4,7,0.7
					c4.6,0.7,9,1.7,13.4,3.1c2.2,0.7,4.5,1.5,6.6,2.4c4,1.6,7.8,3.5,11.6,5.7c2,1.2,4.1,2.5,6,3.8c3.3,2.3,6.4,4.7,9.4,7.4
					c1.8,1.6,3.5,3.2,5.2,4.9c2.8,2.8,5.4,5.8,7.8,9c1.5,1.8,2.8,3.8,4.2,5.7c2.2,3.2,4.2,6.6,6.1,10.1c1.1,2.1,2.2,4.2,3.1,6.3
					c1.5,3.4,3,6.9,4.2,10.5c0.8,2.2,1.4,4.4,2.1,6.7c0.9,3.3,1.7,6.7,2.3,10.1c0.5,2.3,0.8,4.6,1.1,6.9c0.5,3.6,0.8,7.4,0.9,11.1
					C455.4,274.9,455.4,276.6,455.4,278.2z"/>
				<path class="st4" d="M452.1,278.2h3.3c0,0.7,0,1.3,0,2c-0.1,3.6-0.3,7.2-0.6,10.8c-0.2,2.3-0.5,4.6-0.9,6.9
					c-0.5,3.5-1.2,6.9-2.1,10.2c-0.6,2.3-1.2,4.5-1.9,6.8c-1.2,3.8-2.5,7.4-4,11c-0.9,2.2-1.9,4.3-3,6.4c-1.8,3.6-3.8,7.1-5.9,10.5
					c-1.3,2-2.6,4-4,5.9c-2.5,3.4-5.1,6.5-7.9,9.5c-1.6,1.8-3.3,3.4-5.1,5c-3.3,3.1-6.8,6-10.5,8.5c-1.9,1.4-3.9,2.7-6,3.9
					c-3.6,2.1-7.3,4-11.1,5.6c-2.2,0.9-4.4,1.8-6.6,2.5c-4.6,1.5-9.5,2.7-14.4,3.4c-2.3,0.3-4.6,0.6-7,0.7c-0.5,0-0.9,0.1-1.4,0.1
					l-4.2-3.7l5.6-6.3l7-7.9l9.6-10.9l5.8-6.6l5.3-6.1l5.2-5.9l4.7-5.3l4.8-5.4l3.8-4.3l4.6-5.3l3.8-4.3l4.6-5.3l4.4-5l4.8-5.5
					l4.8-5.5l5.3-6l7.3-8.3L452.1,278.2z"/>
				<path class="st0" d="M447.7,273.2l4.4,5l-1.7,2l-7.3,8.3l-5.3,6l-4.8,5.5l-4.8,5.5l-4.4,5l-4.6,5.3l-3.8,4.3l-4.6,5.3l-3.8,4.3
					l-4.8,5.4l-4.7,5.3l-5.2,5.9l-5.3,6.1l-5.8,6.6l-9.6,10.9l-7,7.9l-5.6,6.3l-6.1-6.9l-5.8-6.6l-8.3-9.4l-5.2-5.9L327,348
					l-4.8-5.5l-6.2-7l-4.6-5.3l-5.3-6l-4.6-5.3l-6.9-7.8l-4.9-5.5l-6.6-7.4l-5.3-6l-10.6-12l-1.7-2l4.4-5l9.9-11.2l5.3-6l7.6-8.6
					l4.9-5.5l5.3-6l4.7-5.3l5.6-6.4l4.6-5.3l5.4-6.1l4.8-5.4l6.8-7.7l5.2-5.9l7.2-8.2l5.8-6.6l5.9-6.8l0,0l5.5,6.3l7,7.9l8.8,10
					l5.8,6.6l5.5,6.2l5.2,5.9l3.9,4.4l4.8,5.4l3.5,4l4.6,5.3l3.7,4.2l4.6,5.3l3.9,4.4l4.9,5.5l4.7,5.3l5.3,6L447.7,273.2z
					 M394.4,254.4v-0.2c0-3.2-0.3-6.3-0.8-9.2c0-0.4-0.1-0.7-0.2-1.1c-0.6-3-1.6-5.9-2.8-8.5c-0.3-0.7-0.7-1.4-1.1-2.1
					c-0.7-1.3-1.5-2.5-2.4-3.7c-0.8-1.1-1.6-2-2.5-2.9c-0.9-0.9-1.7-1.7-2.7-2.4c-1.9-1.6-4-2.9-6.3-3.9c-1.4-0.6-2.8-1.2-4.3-1.6
					c-1.4-0.4-2.8-0.7-4.2-1v-17h-11.1v16.7c-0.9,0.1-1.8,0.2-2.7,0.4c-1.3,0.2-2.5,0.5-3.8,0.8c-2.3,0.7-4.5,1.5-6.5,2.5v0
					c-1.6,0.8-3,1.8-4.4,2.8c-1.4,1-2.6,2.2-3.8,3.5c-0.5,0.5-0.9,1-1.3,1.5c-1,1.2-1.8,2.4-2.6,3.7c-1.2,2.2-2.2,4.5-2.9,7.1
					c-0.4,1.4-0.7,2.9-0.9,4.4c-0.2,1.7-0.3,3.5-0.3,5.3c0,1,0,2,0.1,3c0,0.7,0.1,1.4,0.2,2.1c0.3,3.2,1,6,2,8.4l0,0
					c0.3,0.8,0.6,1.5,1,2.2c1.4,2.9,3.2,5.4,5.4,7.7c0.1,0.1,0.2,0.2,0.3,0.3c0.1,0.1,0.3,0.3,0.4,0.4c0,0,0,0,0,0
					c1.8,1.8,3.9,3.4,6.1,4.9h0c0.8,0.6,1.7,1.1,2.6,1.6c0.1,0.1,0.3,0.2,0.4,0.3c0.6,0.3,1.1,0.6,1.7,0.9c1.5,0.8,3,1.6,4.5,2.4h0
					c0.1,0.1,0.2,0.1,0.2,0.1c0.9,0.5,1.8,0.9,2.8,1.4c0.2,0.1,0.4,0.2,0.5,0.2c0.8,0.4,1.7,0.8,2.5,1.2c0.1,0,0.2,0.1,0.3,0.1
					c0.4,0.2,0.7,0.3,1,0.5c0.4,0.2,0.8,0.4,1.1,0.5c0.4,0.2,0.7,0.4,1.1,0.6c0.4,0.2,0.8,0.4,1.1,0.7c0.5,0.3,1,0.6,1.4,0.9
					c0.2,0.1,0.3,0.2,0.5,0.3c0.7,0.5,1.2,1,1.8,1.5c0.6,0.5,1.1,1.1,1.5,1.6c0.2,0.3,0.5,0.6,0.7,1c0,0,0,0,0,0l0.1,0.5l0-0.2
					c1.3,2.2,1.9,5.1,1.9,8.5c0,0.5,0,0.9,0,1.4c0,0,0,0,0,0c-0.2,3.1-1.1,5.6-2.7,7.4c-0.8,1-1.8,1.7-2.9,2.2
					c-0.1,0.1-0.2,0.1-0.4,0.2c-1.2,0.5-2.6,0.8-4.2,0.8c-0.9,0-1.8-0.1-2.7-0.2c-0.2,0-0.4-0.1-0.5-0.1c-2.5-0.5-4.5-1.7-6.1-3.6
					c0,0,0,0,0,0c-0.1-0.1-0.2-0.3-0.3-0.4c-0.1-0.1-0.2-0.3-0.3-0.4c-1.4-1.9-2.5-4.4-3-7.4c0,0,0-0.1,0-0.1
					c-0.3-1.9-0.5-3.9-0.5-6.2h-23.4c0,0.7,0,1.4,0,2.1c0,1.5,0.2,3.1,0.3,4.5c0.3,2.6,0.8,5.1,1.5,7.5c0.4,1.3,0.8,2.5,1.3,3.7
					c0.9,2.3,2.1,4.5,3.4,6.5c0.5,0.7,1,1.4,1.5,2.1c0.6,0.7,1.2,1.4,1.8,2c1.6,1.7,3.4,3.2,5.4,4.4c1.3,0.8,2.7,1.6,4.1,2.2
					c2.1,0.9,4.3,1.7,6.6,2.2c1.4,0.3,2.9,0.6,4.4,0.8c0.3,0,0.6,0.1,0.9,0.1v16h11v-15.9c2-0.2,3.8-0.6,5.6-1
					c1.6-0.4,3-0.9,4.4-1.5c2.3-0.9,4.5-2.2,6.4-3.6c0.8-0.6,1.6-1.3,2.4-2c0.6-0.6,1.2-1.2,1.8-1.8c1.2-1.4,2.3-2.9,3.3-4.5
					c0.5-0.9,1-1.8,1.4-2.7c1.2-2.7,2-5.7,2.5-9c0.1-0.4,0.1-0.9,0.2-1.3c0.1-1.5,0.2-3,0.2-4.5c0-1.7-0.1-3.4-0.3-4.9
					c0-0.2,0-0.5-0.1-0.7c-0.3-2.9-1-5.5-1.9-7.8l-0.1-0.3c-0.2-0.6-0.5-1.1-0.8-1.7c-0.6-1.2-1.2-2.3-1.9-3.4c-1-1.5-2.1-3-3.3-4.3
					c-0.2-0.2-0.4-0.4-0.6-0.6c-0.1-0.1-0.2-0.2-0.4-0.4c-0.7-0.7-1.3-1.3-2.1-1.9c-0.6-0.6-1.3-1.1-2-1.7c-0.2-0.2-0.4-0.3-0.6-0.5
					c-0.5-0.4-1-0.8-1.5-1.1c-0.4-0.3-0.8-0.6-1.2-0.8c-0.2-0.1-0.4-0.3-0.6-0.4c-0.4-0.2-0.7-0.4-1.1-0.6v0
					c-0.1-0.1-0.2-0.1-0.3-0.2c-0.1-0.1-0.2-0.1-0.3-0.2c-0.1-0.1-0.3-0.2-0.4-0.2v0c-0.4-0.2-0.8-0.4-1.2-0.7
					c-0.1-0.1-0.3-0.2-0.4-0.2c-0.3-0.2-0.6-0.3-0.9-0.5c-0.1-0.1-0.3-0.2-0.4-0.2c-0.2-0.2-0.5-0.3-0.8-0.4
					c-0.1-0.1-0.3-0.2-0.4-0.2c-0.3-0.2-0.6-0.3-0.9-0.5c0,0,0,0-0.1,0c-0.4-0.2-0.7-0.4-1.1-0.6c-0.5-0.3-1-0.5-1.5-0.8
					c-0.7-0.4-1.5-0.8-2.2-1.1c-0.5-0.3-1.1-0.5-1.6-0.8c0,0-0.1,0-0.1-0.1v0c-0.1,0-0.1-0.1-0.2-0.1c-0.9-0.4-1.8-0.9-2.6-1.3v0
					c-2.8-1.6-5-3.3-6.4-5c-1.3-1.5-2.2-3.4-2.6-5.7c-0.2-1.1-0.3-2.3-0.3-3.6c0-2.3,0.3-4.3,0.9-6c0.1-0.2,0.2-0.5,0.3-0.7
					c0.4-0.9,0.8-1.7,1.4-2.4c1.1-1.4,2.4-2.4,4.1-2.9c0.1,0,0.1,0,0.1,0c0.9-0.3,1.9-0.4,2.9-0.4c1.6,0,3,0.3,4.2,1
					c0,0,0.1,0,0.1,0c1.4,0.7,2.6,1.9,3.6,3.4c1.1,1.7,1.8,3.7,2.2,6.2c0.4,1.9,0.5,4,0.5,6.4H394.4z"/>
				<path class="st4" d="M441.9,358l3.4,3.5c-3.6,3.6-7.5,6.9-11.7,10L432,369C435.6,365.6,438.9,361.9,441.9,358z"/>
				<path class="st4" d="M444.9,191.6l-5.2,5.4c-3.1-3.7-6.3-7.1-9.8-10.3l3.3-5.1C437.3,184.6,441.2,188,444.9,191.6z"/>
				<path class="st4" d="M426.9,373.8l1,1.6c-4.1,2.7-8.3,5.1-12.6,7.1C419.3,379.9,423.2,377,426.9,373.8z"/>
				<path class="st4" d="M427.4,177.6l-2.9,4.5c-3.6-3-7.4-5.7-11.4-8.2l1.4-3.5C419,172.5,423.3,174.9,427.4,177.6z"/>
				<path class="st4" d="M408.1,167.7l-1.1,2.7c-4.4-2.3-8.9-4.4-13.6-6.1l0.2-1.2C398.6,164.3,403.4,165.8,408.1,167.7z"/>
				<path class="st4" d="M394.4,254.1v0.2h-23.5c0-2.4-0.2-4.5-0.5-6.4c-0.4-2.5-1.2-4.6-2.2-6.2c-1-1.6-2.2-2.7-3.6-3.4
					c0,0-0.1,0-0.1,0c-1.2-0.6-2.7-1-4.2-1c-1.1,0-2,0.1-2.9,0.4c-0.1,0-0.1,0-0.1,0c-1.6,0.5-3,1.5-4.1,2.9c-0.5,0.7-1,1.5-1.4,2.4
					c-0.1,0.2-0.2,0.5-0.3,0.7c-0.6,1.7-0.9,3.7-0.9,6c0,1.3,0.1,2.5,0.3,3.6c0.4,2.3,1.3,4.2,2.6,5.7c1.5,1.7,3.6,3.4,6.4,5v0
					c0.8,0.5,1.7,0.9,2.6,1.3l0.2,0.3l0-0.1c0,0,0.1,0,0.1,0.1c0.5,0.3,1.1,0.5,1.6,0.8c0.8,0.4,1.5,0.7,2.2,1.1
					c0.5,0.3,1,0.5,1.5,0.8c0.4,0.2,0.7,0.4,1.1,0.6l0,0.1l0-0.1c0.3,0.2,0.6,0.3,0.9,0.5c0.1,0.1,0.3,0.1,0.4,0.2
					c0.3,0.1,0.5,0.3,0.8,0.4c0.1,0.1,0.3,0.1,0.4,0.2c0.3,0.2,0.6,0.3,0.9,0.5c0.1,0.1,0.3,0.1,0.4,0.2c0.4,0.2,0.8,0.4,1.2,0.7v0
					c0.1,0.1,0.3,0.1,0.4,0.2c0.1,0.1,0.2,0.1,0.3,0.2c0.1,0.1,0.2,0.1,0.3,0.2v0c0.4,0.2,0.7,0.4,1.1,0.6c0.2,0.1,0.4,0.3,0.6,0.4
					c0.4,0.2,0.8,0.5,1.2,0.8c0.5,0.4,1,0.7,1.5,1.1c0.2,0.1,0.4,0.3,0.6,0.5c0.7,0.5,1.4,1.1,2,1.7c0.7,0.6,1.4,1.3,2.1,1.9
					c0.1,0.1,0.2,0.2,0.4,0.4c0.2,0.2,0.4,0.4,0.6,0.6c1.2,1.3,2.3,2.8,3.3,4.3c0.7,1.1,1.4,2.2,1.9,3.4c0.3,0.5,0.5,1.1,0.8,1.7
					l0.1,0.3c0.9,2.3,1.6,4.9,1.9,7.8c0,0.2,0.1,0.5,0.1,0.7c0.2,1.5,0.3,3.2,0.3,4.9c0,1.5-0.1,3.1-0.2,4.5
					c-0.1,0.4-0.1,0.9-0.2,1.3c-0.4,3.3-1.3,6.3-2.5,9c-0.4,0.9-0.9,1.8-1.4,2.7c-1,1.6-2,3.1-3.3,4.5c-0.6,0.6-1.1,1.2-1.8,1.8
					c-0.7,0.7-1.5,1.4-2.4,2c-1.9,1.5-4.1,2.7-6.4,3.6c-1.4,0.6-2.9,1.1-4.4,1.5c-1.8,0.5-3.7,0.8-5.6,1v15.9h-11v-16
					c-0.3,0-0.6-0.1-0.9-0.1c-1.5-0.2-3-0.5-4.4-0.8c-2.3-0.6-4.5-1.3-6.6-2.2c-1.5-0.6-2.8-1.4-4.1-2.2c-2-1.3-3.8-2.7-5.4-4.4
					c-0.6-0.6-1.2-1.3-1.8-2c-0.5-0.7-1-1.4-1.5-2.1c-1.4-2-2.5-4.1-3.4-6.5c-0.5-1.2-0.9-2.4-1.3-3.7c-0.7-2.3-1.2-4.8-1.5-7.5
					c-0.2-1.5-0.3-3-0.3-4.5c0-0.7,0-1.4,0-2.1h23.4c0,2.3,0.2,4.3,0.5,6.2c0,0,0,0.1,0,0.1c0.5,3,1.6,5.5,3,7.4
					c0.1,0.1,0.2,0.3,0.3,0.4c0.1,0.1,0.2,0.3,0.3,0.4c0,0,0,0,0,0c1.6,1.9,3.6,3,6.1,3.6c0.2,0,0.4,0.1,0.5,0.1
					c0.9,0.2,1.8,0.2,2.7,0.2c1.5,0,2.9-0.3,4.2-0.8c0.1-0.1,0.3-0.1,0.4-0.2c1.1-0.5,2.1-1.3,2.9-2.2c1.6-1.9,2.5-4.3,2.7-7.4
					c0,0,0,0,0,0c0-0.5,0-0.9,0-1.4c0-3.5-0.6-6.3-1.9-8.5c0-0.1-0.1-0.2-0.1-0.3c0,0,0,0,0,0c-0.2-0.4-0.4-0.7-0.7-1
					c-0.4-0.5-0.9-1.1-1.5-1.6c-0.5-0.5-1.1-1-1.8-1.5c-0.1-0.1-0.3-0.2-0.5-0.3c-0.5-0.3-0.9-0.6-1.4-0.9c-0.4-0.2-0.7-0.4-1.1-0.7
					c-0.3-0.2-0.7-0.4-1.1-0.6c-0.3-0.2-0.7-0.4-1.1-0.5c-0.3-0.2-0.7-0.4-1-0.5c-0.1,0-0.2-0.1-0.3-0.1c-0.9-0.4-1.7-0.8-2.5-1.2
					c-0.2-0.1-0.4-0.1-0.5-0.2c-1-0.5-1.9-0.9-2.8-1.4c-0.1,0-0.2-0.1-0.2-0.1h0c-1.5-0.8-3.1-1.6-4.5-2.4c-0.6-0.3-1.1-0.6-1.7-0.9
					c-0.1-0.1-0.3-0.2-0.4-0.3c-0.9-0.5-1.8-1-2.6-1.6h0c-2.3-1.5-4.3-3.1-6.1-4.9c0,0,0,0,0,0c-0.1-0.1-0.3-0.3-0.4-0.4
					c-0.1-0.1-0.2-0.2-0.3-0.3c-2.2-2.3-4-4.8-5.4-7.7c-0.4-0.7-0.7-1.5-1-2.2l0,0c-1-2.5-1.6-5.3-2-8.4c-0.1-0.7-0.1-1.4-0.2-2.1
					c-0.1-1-0.1-2-0.1-3c0-1.8,0.1-3.6,0.3-5.3c0.2-1.5,0.5-3,0.9-4.4c0.7-2.5,1.6-4.9,2.9-7.1c0.7-1.3,1.6-2.6,2.6-3.7
					c0.4-0.5,0.8-1,1.3-1.5c1.2-1.3,2.5-2.5,3.8-3.5c1.4-1.1,2.8-2,4.4-2.8v0c2-1.1,4.2-1.9,6.5-2.5c1.2-0.3,2.5-0.6,3.8-0.8
					c0.9-0.2,1.8-0.3,2.7-0.4v-16.7h11.1v17c1.5,0.2,2.9,0.6,4.2,1c1.5,0.4,2.9,1,4.3,1.6c2.3,1,4.4,2.4,6.3,3.9
					c0.9,0.7,1.8,1.6,2.7,2.4c0.9,0.9,1.7,1.9,2.5,2.9c0.9,1.2,1.7,2.4,2.4,3.7c0.4,0.7,0.7,1.4,1.1,2.1c1.2,2.6,2.2,5.5,2.8,8.5
					c0.1,0.4,0.1,0.7,0.2,1.1C394.1,247.8,394.4,250.9,394.4,254.1z"/>
				<path class="st4" d="M369.3,268.8L369.3,268.8L369.3,268.8C369.2,268.7,369.3,268.8,369.3,268.8z"/>
				<path class="st0" d="M368.5,294.8l0,0.2l-0.1-0.5C368.4,294.7,368.5,294.7,368.5,294.8z"/>
				<path class="st4" d="M363,168.6l-4.2,3.7l0,0l-5.9,6.8l-5.8,6.6l-7.2,8.2l-5.2,5.9l-6.8,7.7l-4.8,5.4l-5.4,6.1l-4.6,5.3
					l-5.6,6.4l-4.7,5.3l-5.3,6l-4.9,5.5l-7.6,8.6l-5.3,6l-9.9,11.2l-4.4,5h-3.3c0-1.7,0-3.3,0.1-5c0.2-4.9,0.7-9.8,1.4-14.5
					c0.4-2.3,0.8-4.6,1.3-6.9c1.1-5,2.5-9.9,4.1-14.6c0.8-2.2,1.6-4.4,2.5-6.5c1.8-4.2,3.8-8.3,6-12.2c1.2-2,2.4-4,3.6-5.9
					c2.8-4.2,5.8-8.2,9.1-11.9c1.6-1.8,3.2-3.5,4.8-5.1c3.4-3.4,7-6.5,10.8-9.3c1.9-1.4,3.8-2.7,5.8-4c4.2-2.7,8.7-5,13.3-7
					c2.1-0.9,4.3-1.7,6.5-2.5c4-1.3,8.1-2.4,12.3-3.1c2.3-0.4,4.6-0.7,6.9-0.9h0c2.6-0.2,5.2-0.4,7.9-0.4h0.1
					C360.3,168.5,361.7,168.5,363,168.6z"/>
				<path class="st4" d="M358.9,384.2l4.2,3.7c-1.4,0.1-2.8,0.1-4.2,0.1c0,0,0,0,0,0c-2.7,0-5.4-0.1-8-0.4c-2.3-0.2-4.6-0.5-6.9-0.9
					c-4.8-0.8-9.4-2.1-13.9-3.7c-2.2-0.8-4.4-1.6-6.5-2.6c-4.4-2-8.7-4.3-12.7-7c-1.9-1.3-3.8-2.6-5.7-4c-4.1-3.1-8-6.6-11.6-10.4
					c-1.6-1.7-3.2-3.4-4.7-5.2c-3.1-3.6-5.9-7.5-8.5-11.6c-1.2-2-2.4-4-3.5-6c-2.6-4.6-4.8-9.5-6.7-14.6c-0.8-2.2-1.6-4.4-2.3-6.6
					c-1.3-4.2-2.4-8.4-3.2-12.8c-0.4-2.3-0.8-4.6-1.1-6.9c-0.7-4.9-1.1-10-1.1-15.1c0-0.7,0-1.3,0-2h3.3l1.7,2l10.6,12l5.3,6
					l6.6,7.4l4.9,5.5l6.9,7.8l4.6,5.3l5.3,6l4.6,5.3l6.2,7l4.8,5.5l6.5,7.3l5.2,5.9l8.3,9.4l5.8,6.6L358.9,384.2z"/>
				<path class="st4" d="M362.7,265.4l0,0.1l-0.2-0.3C362.5,265.3,362.6,265.4,362.7,265.4L362.7,265.4z"/>
			</g>
		</g>
	</g>
</g>
<g id="Layer_3">
</g>
<g id="Graphics">
</g>
<g id="Default_g_x2B__icon">
</g>
<g id="YouTube_Icon">
</g>
</svg>
