<svg xmlns="http://www.w3.org/2000/svg" width="507.3" height="406.4" viewBox="0 0 507.3 406.4"><style type="text/css">.st0{fill:#016293;} .st1{fill:#9CBDD8;} .st2{fill:#9BD7D8;} .st3{fill:#016293;stroke:#016293;stroke-width:2.041;stroke-miterlimit:10;} .st4{fill:#FFFFFF;} .st5{fill:#231F20;} .st6{fill:#FFFFFF;stroke:#016293;stroke-width:1.0169;stroke-miterlimit:10;} .st7{fill:#FFFFFF;stroke:#016293;stroke-width:1.0185;stroke-miterlimit:10;} .st8{fill:#FFFFFF;stroke:#016293;stroke-width:1.0209;stroke-miterlimit:10;} .st9{fill:#016293;stroke:#FFFFFF;stroke-width:2;stroke-miterlimit:10;} .st10{fill:#016293;stroke:#FFFFFF;stroke-miterlimit:10;} .st11{fill:#FFFFFF;stroke:#016293;stroke-width:5.0184;stroke-miterlimit:10;} .st12{fill:none;stroke:#016293;stroke-width:3;stroke-miterlimit:10;} .st13{fill:#FFFFFF;stroke:#016293;stroke-width:3;stroke-miterlimit:10;} .st14{fill:#FFFFFF;stroke:#231F20;stroke-miterlimit:10;} .st15{fill:none;stroke:#231F20;stroke-miterlimit:10;} .st16{display:none;} .st17{display:inline;fill:#F26F6A;} .st18{fill:none;stroke:#9CBDD8;stroke-width:5.8821;stroke-miterlimit:10;} .st19{fill:#FFFFFF;stroke:#9CBDD8;stroke-width:5.8821;stroke-miterlimit:10;} .st20{fill:#9CBDD8;stroke:#FFFFFF;stroke-width:5.8821;stroke-miterlimit:10;} .st21{clip-path:url(#SVGID_2_);fill:#231F20;} .st22{clip-path:url(#SVGID_2_);fill:#046293;} .st23{clip-path:url(#SVGID_2_);fill:#9CBDD9;} .st24{clip-path:url(#SVGID_2_);fill:#9CD8D9;} .st25{clip-path:url(#SVGID_2_);fill:#FFFFFF;} .st26{clip-path:url(#SVGID_2_);} .st27{fill:#BDC4C9;} .st28{clip-path:url(#SVGID_2_);fill:none;stroke:#FFFFFF;stroke-width:0.809;stroke-miterlimit:10;} .st29{clip-path:url(#SVGID_2_);fill:none;stroke:#FFFFFF;stroke-width:0.453;stroke-miterlimit:10;} .st30{clip-path:url(#SVGID_2_);fill:none;stroke:#FFFFFF;stroke-width:0.535;stroke-miterlimit:10;} .st31{fill:#9CD8D9;} .st32{clip-path:url(#SVGID_4_);} .st33{clip-path:url(#SVGID_4_);fill:none;stroke:#231F20;stroke-width:0.689;stroke-miterlimit:10;} .st34{clip-path:url(#SVGID_4_);fill:none;stroke:#231F20;stroke-width:0.506;stroke-miterlimit:10;} .st35{fill:#066393;} .st36{fill:#9BD7D8;stroke:#016293;stroke-width:18.6809;stroke-miterlimit:10;} .st37{fill:#076393;} .st38{fill:none;stroke:#076393;stroke-width:3.5038;stroke-miterlimit:10;} .st39{fill:#FFFFFF;stroke:#076393;stroke-width:3.5038;stroke-miterlimit:10;} .st40{fill:#076393;stroke:#FFFFFF;stroke-width:3.5038;stroke-miterlimit:10;}</style><g id="Logo"><g id="XMLID_1_"><path class="st4" d="M180.3 364.2v-11.8c4.7-.2 9.3-.6 13.9-1.3l2.4 11.5c-5.4.9-10.8 1.4-16.3 1.6zM173.3 352.5v11.6c-5.2-.1-10.5-.6-15.7-1.5l2.3-11c4.4.6 8.9.9 13.4.9zM150.8 361.4c-5-1.1-9.9-2.5-14.6-4.2l4-9.2c4.2 1.1 8.5 2.1 12.9 2.8l-2.3 10.6zM203.4 361.3l-2.4-11.4c4.2-.8 8.4-1.9 12.5-3.2l4.3 10.3c-4.6 1.7-9.4 3.1-14.4 4.3zM129.6 354.7c-4.9-2.1-9.7-4.5-14.2-7.2l4.6-6.8c4.3 2 8.8 3.7 13.3 5.3l-3.7 8.7zM224.3 354.4l-4.2-10c4.4-1.6 8.7-3.5 12.8-5.5l5.7 8.2c-4.6 2.8-9.3 5.2-14.3 7.3zM109.5 343.7c-4.4-3-8.5-6.2-12.4-9.8l4.1-4c4 2.8 8.2 5.3 12.5 7.6l-4.2 6.2zM244.5 343.3l-5.4-7.7c4.1-2.4 8.1-5 11.9-7.8l5.9 5.7c-3.9 3.6-8 6.9-12.4 9.8zM95.5 325.8l-3.5 3.4c-3.6-3.6-6.9-7.5-10-11.7l2.5-1.6c3.4 3.5 7.1 6.8 11 9.9zM261.9 328.7l-5.5-5.2c3.7-3.1 7.1-6.3 10.3-9.8l5.1 3.3c-2.9 4.1-6.3 8-9.9 11.7zM79.7 310.7l-1.6 1c-2.7-4.1-5.1-8.3-7.1-12.6 2.6 4 5.5 7.9 8.7 11.6zM275.9 311.2l-4.5-2.9c3-3.6 5.7-7.4 8.2-11.4l3.5 1.4c-2.1 4.5-4.5 8.8-7.2 12.9zM285.8 291.9l-2.7-1.1c2.3-4.4 4.4-8.9 6.1-13.6l1.1.2c-1.1 5-2.6 9.8-4.5 14.5zM184.8 253.1z"/><path class="st0" d="M158.7 252.3h-.2l.5-.1-.3.1z"/><path class="st4" d="M66.5 255.2c-.3-2.3-.6-4.6-.7-7l-.1-1.4 3.7-4.2 6.3 5.6 7.9 7 10.9 9.6 6.6 5.8 6.1 5.3 5.9 5.2 5.4 4.7 5.4 4.8 4.3 3.8 5.3 4.6 4.3 3.8 5.3 4.6 5 4.4 5.5 4.8 5.5 4.8 6 5.3 8.3 7.3 2 1.7v3.3h-2c-3.6-.1-7.2-.3-10.8-.6-2.3-.2-4.6-.5-6.9-.9-3.5-.5-6.9-1.2-10.2-2.1-2.3-.6-4.5-1.2-6.8-1.9-3.8-1.2-7.4-2.5-11-4-2.2-.9-4.3-1.9-6.4-3-3.6-1.8-7.1-3.8-10.5-6-2-1.3-4-2.6-5.8-4-3.4-2.5-6.5-5.1-9.5-7.9-1.8-1.6-3.4-3.3-5-5.1-3.1-3.3-5.9-6.8-8.5-10.5-1.4-1.9-2.7-3.9-3.9-5.9-2.1-3.6-4-7.3-5.6-11.1-.9-2.2-1.8-4.4-2.5-6.6-1.6-4.5-2.8-9.3-3.5-14.2zM180.3 331.5l8.2-7.2 6-5.3 5.3-4.7 5.5-4.8 4.4-3.9 5.3-4.6 4.2-3.7 5.3-4.6 4-3.5 5.4-4.8 4.4-3.9 5.9-5.2 6.2-5.5 6.6-5.8 10-8.8 7.9-7 6.3-5.5 3.7 4.2c0 .4-.1.9-.1 1.4-.2 2.3-.4 4.7-.7 7-.7 4.6-1.7 9-3.1 13.4-.7 2.2-1.5 4.5-2.4 6.7-1.6 4-3.5 7.8-5.7 11.6-1.2 2-2.5 4.1-3.8 6-2.3 3.3-4.7 6.4-7.4 9.4-1.6 1.8-3.2 3.5-4.9 5.2-2.8 2.8-5.8 5.4-9 7.8-1.8 1.5-3.8 2.8-5.7 4.2-3.2 2.2-6.6 4.2-10.1 6.1-2.1 1.1-4.2 2.1-6.3 3.1-3.4 1.6-6.9 3-10.5 4.2-2.2.8-4.4 1.4-6.7 2.1-3.3.9-6.7 1.7-10.1 2.3-2.3.5-4.6.8-6.9 1.1-3.6.5-7.4.8-11.1.9-1.6.1-3.3.1-5 .1v-3.3l4.9-4.7z"/><path class="st0" d="M173.3 334.2l-8.3-7.3-6-5.3-5.5-4.8-5.5-4.8-5-4.4-5.3-4.6-4.3-3.8-5.3-4.6-4.3-3.8-5.4-4.8-5.4-4.7-5.9-5.2-6.1-5.3-6.6-5.8-10.9-9.6-7.9-7-6.3-5.6 6.9-6.1 6.6-5.8 9.4-8.3 5.9-5.2 7.3-6.5 5.5-4.8 7-6.2 5.3-4.6 6.1-5.3 5.3-4.6 7.8-6.9 5.5-4.9 7.4-6.6 6-5.3 12-10.6 2-1.7 5 4.4 11.2 9.9 6 5.3 8.6 7.6 5.5 4.9 6 5.3 5.3 4.7 6.4 5.6 5.3 4.6 6.1 5.4 5.4 4.8 7.7 6.8 5.9 5.2 8.2 7.2 6.6 5.8 6.8 5.9-6.3 5.5-7.9 7-10 8.8-6.6 5.8-6.2 5.5-5.9 5.2-4.4 3.9-5.4 4.8-4 3.5-5.3 4.6-4.3 3.6-5.3 4.6-4.4 3.9-5.5 4.8-5.3 4.7-6 5.3-8.2 7.2-5 4.4-2-1.7zm-14.6-81.9c-2.2 1.3-5.1 1.9-8.5 1.9h-1.4c-3.1-.2-5.6-1.1-7.4-2.7-1-.8-1.7-1.8-2.2-2.9-.1-.1-.1-.2-.2-.4-.5-1.2-.8-2.6-.8-4.2 0-.9.1-1.8.2-2.7 0-.2.1-.4.1-.5.5-2.4 1.7-4.5 3.6-6.1l.4-.3.4-.3c1.9-1.4 4.4-2.4 7.4-3h.1c1.9-.3 3.9-.5 6.2-.5v-23.4h-2.1c-1.6 0-3.1.2-4.5.3-2.6.3-5.1.8-7.5 1.5-1.3.4-2.5.8-3.7 1.3-2.3.9-4.5 2.1-6.5 3.4-.7.5-1.4 1-2.1 1.6-.7.6-1.4 1.2-2 1.8-1.7 1.6-3.2 3.4-4.4 5.4-.8 1.3-1.6 2.7-2.2 4.1-.9 2-1.7 4.3-2.2 6.6-.3 1.4-.6 2.9-.8 4.4l-.1.9h-16v11h15.9c.2 2 .6 3.8 1 5.6.4 1.6.9 3.1 1.5 4.4.9 2.3 2.2 4.5 3.6 6.4.6.8 1.3 1.6 2 2.4l1.8 1.8c1.4 1.2 2.9 2.3 4.5 3.3.9.5 1.8 1 2.7 1.4 2.7 1.2 5.7 2 9 2.5l1.3.2c1.5.1 3 .2 4.5.2 1.7 0 3.4-.1 4.9-.3.2 0 .5 0 .7-.1 2.9-.3 5.5-1 7.8-1.9l.3-.1c.6-.2 1.1-.5 1.7-.8 1.2-.6 2.3-1.2 3.4-1.9 1.5-1 2.9-2.1 4.3-3.3l.6-.6c.1-.1.2-.2.3-.4l2-2.1c.6-.6 1.1-1.3 1.7-2l.5-.6c.4-.5.8-1 1.1-1.5.3-.4.6-.8.8-1.2l.4-.6.6-1.1.2-.3.2-.3c.1-.1.2-.3.2-.4.2-.4.4-.8.7-1.2.1-.1.2-.3.2-.4l.5-.9c.1-.1.2-.3.2-.4.2-.2.3-.5.4-.8.1-.1.2-.3.2-.4l.5-.9v-.1l.6-1.1.8-1.5c.4-.7.8-1.5 1.1-2.2l.8-1.6s0-.1.1-.1l.1-.2c.4-.9.9-1.8 1.4-2.6 1.6-2.8 3.3-4.9 5-6.4 1.5-1.3 3.4-2.2 5.7-2.6 1.1-.2 2.3-.3 3.6-.3 2.3 0 4.3.3 6 .9l.7.3c.9.4 1.7.8 2.4 1.4 1.4 1.1 2.4 2.4 2.9 4.1v.1c.3.9.4 1.9.4 2.9 0 1.6-.3 3-1 4.2v.1c-.7 1.4-1.9 2.7-3.4 3.6-1.7 1.1-3.7 1.8-6.2 2.2-1.9.4-4 .5-6.4.5v23.5h.2c3.2 0 6.3-.3 9.2-.8l1.1-.2c3-.6 5.9-1.6 8.5-2.8l2.1-1c1.3-.7 2.5-1.5 3.7-2.4 1.1-.8 2-1.6 2.9-2.5.9-.9 1.7-1.7 2.4-2.7 1.6-1.9 2.9-4 3.9-6.4.6-1.4 1.2-2.8 1.6-4.3.4-1.4.7-2.8 1-4.2h17v-11.1h-16.7c-.1-.9-.2-1.8-.4-2.7-.2-1.3-.5-2.5-.8-3.8-.7-2.3-1.5-4.5-2.5-6.5-.8-1.6-1.8-3-2.8-4.4-1-1.4-2.2-2.6-3.5-3.8l-1.5-1.3c-1.2-1-2.4-1.8-3.7-2.6-2.2-1.2-4.5-2.2-7.1-2.9-1.4-.4-2.9-.7-4.4-.9-1.7-.2-3.5-.3-5.3-.3-1 0-2 0-3 .1-.7 0-1.4.1-2.1.2-3.2.3-6 1-8.4 2-.8.3-1.5.6-2.2 1-2.9 1.4-5.4 3.2-7.7 5.4l-.3.3-.4.4c-1.8 1.8-3.4 3.9-4.9 6.2-.6.8-1.1 1.7-1.6 2.6l-.3.4-.9 1.7-2.4 4.5c-.1.1-.1.2-.1.2-.5.9-.9 1.8-1.4 2.8-.1.2-.2.4-.2.5l-1.2 2.5-.1.3c-.2.4-.3.7-.5 1-.2.4-.3.8-.5 1.1l-.6 1.1c-.2.4-.4.8-.7 1.1-.3.5-.6 1-.9 1.4l-.3.5c-.5.7-1 1.2-1.5 1.8-.5.6-1.1 1.1-1.6 1.5-.3.2-.6.5-1 .7l-.5.1-.2.2z"/><path class="st4" d="M208.6 277.4c-2.9.5-5.9.8-9.2.8h-.2v-23.5c2.4 0 4.5-.2 6.4-.5 2.5-.4 4.6-1.2 6.2-2.2 1.6-1 2.7-2.2 3.4-3.6v-.1c.6-1.2 1-2.7 1-4.2 0-1.1-.1-2-.4-2.9v-.1c-.5-1.6-1.5-3-2.9-4.1-.7-.5-1.5-1-2.4-1.4l-.7-.3c-1.7-.6-3.7-.9-6-.9-1.3 0-2.5.1-3.6.3-2.3.4-4.2 1.3-5.7 2.6-1.7 1.5-3.4 3.6-5 6.4-.5.8-.9 1.7-1.4 2.6l-.3.2h.1s0 .1-.1.1l-.8 1.6c-.4.8-.7 1.5-1.1 2.2l-.8 1.5-.6 1.1h-.1.1l-.5.9c0 .1-.1.3-.2.4l-.4.8-.2.4-.5.9-.2.4c-.2.4-.4.8-.7 1.2l-.2.4-.2.3-.2.3-.6 1.1-.4.6c-.2.4-.5.8-.8 1.2l-1.1 1.5c-.1.2-.3.4-.5.6-.5.7-1.1 1.4-1.7 2-.6.7-1.3 1.4-2 2.1-.1.1-.2.2-.3.4l-.6.6c-1.3 1.2-2.8 2.3-4.3 3.3-1.1.7-2.2 1.4-3.4 1.9-.5.3-1.1.5-1.7.8l-.3.1c-2.3.9-4.9 1.6-7.8 1.9l-.7.1c-1.6.2-3.2.3-4.9.3-1.6 0-3.1-.1-4.5-.2l-1.3-.2c-3.3-.4-6.3-1.3-9-2.5-.9-.4-1.9-.9-2.7-1.4-1.6-.9-3.1-2-4.5-3.3-.6-.6-1.2-1.1-1.8-1.8-.7-.7-1.4-1.5-2-2.4-1.5-1.9-2.7-4.1-3.6-6.4-.6-1.4-1.1-2.9-1.5-4.4-.5-1.8-.8-3.7-1-5.6h-15.9v-11h16l.1-.9c.2-1.5.5-3 .8-4.4.6-2.3 1.3-4.6 2.2-6.6.7-1.5 1.4-2.8 2.2-4.1 1.3-2 2.7-3.8 4.4-5.4.6-.6 1.3-1.2 2-1.8l2.1-1.6c2-1.4 4.1-2.5 6.5-3.4 1.2-.5 2.4-.9 3.7-1.3 2.3-.7 4.8-1.2 7.5-1.5 1.5-.2 3-.3 4.5-.3h2.1v23.4c-2.3 0-4.3.2-6.2.5h-.1c-3 .5-5.5 1.6-7.4 3l-.4.3-.4.3c-1.9 1.6-3 3.6-3.6 6.1l-.1.5c-.2.9-.2 1.8-.2 2.7 0 1.6.3 2.9.8 4.2l.2.4c.5 1.1 1.3 2.1 2.2 2.9 1.9 1.6 4.3 2.5 7.4 2.7h1.4c3.5 0 6.3-.6 8.5-1.9l.3-.1c.4-.2.7-.4 1-.7.6-.4 1.1-.9 1.6-1.5.5-.5 1-1.1 1.5-1.8.1-.1.2-.3.3-.5l.9-1.4c.2-.4.4-.7.7-1.1.2-.3.4-.7.6-1.1.2-.3.4-.7.5-1.1.2-.3.4-.7.5-1l.1-.3c.4-.9.8-1.7 1.2-2.5.1-.2.2-.3.2-.5.5-1 .9-1.9 1.4-2.8 0-.1.1-.2.1-.2.8-1.5 1.6-3.1 2.4-4.5l.9-1.7.3-.4c.5-.9 1.1-1.8 1.6-2.6 1.5-2.3 3.1-4.3 4.9-6.2l.4-.4.3-.3c2.3-2.2 4.8-4 7.7-5.4.7-.4 1.4-.7 2.2-1 2.5-1 5.3-1.6 8.4-2l2.1-.2c1-.1 2-.1 3-.1 1.8 0 3.6.1 5.3.3 1.5.2 3 .5 4.4.9 2.5.7 4.9 1.6 7.1 2.9 1.3.7 2.6 1.6 3.7 2.6.5.4 1 .8 1.5 1.3 1.3 1.2 2.5 2.4 3.5 3.8 1.1 1.4 2 2.8 2.8 4.4 1.1 2 1.9 4.2 2.5 6.5.3 1.2.6 2.5.8 3.8.2.9.3 1.8.4 2.7h16.7v11.1h-17c-.2 1.5-.6 2.9-1 4.2-.4 1.5-1 2.9-1.6 4.3-1 2.3-2.4 4.4-3.9 6.4-.7.9-1.6 1.8-2.4 2.7-.9.9-1.9 1.7-2.9 2.5-1.2.9-2.4 1.7-3.7 2.4-.7.4-1.4.7-2.1 1-2.6 1.2-5.5 2.2-8.5 2.8.1 0-.3 0-.6.1zM188.2 246.5h-.2l.3-.2c-.1 0-.1.1-.1.2z"/><path class="st0" d="M239.1 335.6l5.4 7.7c4.4-3 8.5-6.2 12.4-9.8l-5.9-5.7c-3.8 2.8-7.8 5.4-11.9 7.8zm-142-1.6c3.9 3.6 8.1 6.8 12.4 9.8l4.2-6.1c-4.3-2.3-8.5-4.9-12.5-7.6l-4.1 3.9zm127.2 20.4c4.9-2.1 9.7-4.6 14.3-7.3l-5.7-8.2c-4.1 2.1-8.4 3.9-12.8 5.5l4.2 10zm-108.9-6.9c4.6 2.7 9.3 5.1 14.2 7.2l3.7-8.7c-4.6-1.5-9-3.3-13.3-5.3l-4.6 6.8zm88 13.8c4.9-1.1 9.7-2.5 14.4-4.2l-4.3-10.3c-4.1 1.3-8.2 2.3-12.5 3.2l2.4 11.3zm-67.3-4.1c4.7 1.7 9.6 3.1 14.6 4.2l2.2-10.6c-4.4-.7-8.7-1.6-12.9-2.8l-3.9 9.2zm44.2 7c5.5-.2 10.9-.7 16.3-1.6l-2.4-11.5c-4.5.7-9.2 1.1-13.9 1.3v11.8zm-109.3-65.1c2.1 4.3 4.4 8.5 7.1 12.6l1.6-1c-3.2-3.7-6.1-7.6-8.7-11.6zm176.8 16c3.2-2.4 6.2-5.1 9-7.8 1.7-1.7 3.3-3.4 4.9-5.2 2.7-3 5.1-6.1 7.4-9.4 1.3-1.9 2.6-4 3.8-6 2.2-3.7 4.1-7.6 5.7-11.6.9-2.2 1.7-4.4 2.4-6.7 1.4-4.3 2.4-8.8 3.1-13.4.3-2.3.6-4.6.7-7l.1-1.4c.1-1.4.1-2.7.1-4.1v-.1c0-2.7-.1-5.3-.4-7.9-.2-2.4-.5-4.6-.9-6.9-.7-4.2-1.8-8.3-3.1-12.3-.7-2.2-1.5-4.4-2.4-6.5-2-4.6-4.3-9.1-7-13.3-1.2-2-2.6-3.9-4-5.8-2.8-3.8-5.9-7.4-9.3-10.8-1.6-1.6-3.3-3.2-5.1-4.8-3.7-3.3-7.7-6.3-11.9-9.1-1.9-1.3-3.9-2.5-5.9-3.6-3.9-2.2-8-4.3-12.2-6.1-2.1-.9-4.3-1.8-6.5-2.5-4.7-1.7-9.6-3.1-14.6-4.1-2.2-.5-4.5-.9-6.8-1.3-4.8-.8-9.6-1.2-14.6-1.4-1.6-.1-3.3-.1-5-.1h-2c-5.1.1-10.1.5-15.1 1.1-2.3.3-4.6.7-6.9 1.2-4.4.9-8.6 1.9-12.8 3.2-2.2.7-4.4 1.5-6.6 2.3-5.1 1.9-10 4.2-14.6 6.7-2 1.1-4.1 2.3-6 3.5-4.1 2.6-8 5.4-11.6 8.5-1.8 1.5-3.5 3.1-5.2 4.7-3.8 3.6-7.3 7.5-10.4 11.6-1.4 1.8-2.8 3.7-4 5.7-2.7 4.1-5 8.3-6.9 12.7-.9 2.1-1.8 4.3-2.6 6.5-1.6 4.5-2.8 9.1-3.7 13.9-.4 2.3-.7 4.6-.9 6.9-.3 2.6-.4 5.3-.4 8 0 1.4 0 2.8.1 4.2 0 .5 0 .9.1 1.4.2 2.3.4 4.7.7 7 .7 4.9 1.9 9.7 3.4 14.4.7 2.2 1.5 4.5 2.5 6.6 1.6 3.8 3.5 7.6 5.6 11.1 1.2 2 2.5 4 3.9 5.9 2.6 3.7 5.4 7.2 8.5 10.5 1.6 1.7 3.3 3.4 5 5.1 3 2.8 6.2 5.4 9.5 7.9 1.9 1.4 3.8 2.8 5.8 4 3.3 2.2 6.8 4.1 10.5 6 2.1 1.1 4.3 2 6.4 3 3.6 1.5 7.2 2.9 11 4 2.2.7 4.5 1.3 6.8 1.9 3.4.8 6.8 1.5 10.2 2.1 2.3.4 4.6.7 6.9.9 3.5.4 7.1.6 10.8.6h2c1.7 0 3.3 0 5-.1 3.8-.1 7.5-.5 11.1-.9 2.3-.3 4.6-.7 6.9-1.1 3.4-.6 6.8-1.4 10.1-2.3 2.3-.6 4.5-1.3 6.7-2.1 3.6-1.2 7.1-2.6 10.5-4.2 2.2-1 4.3-2 6.3-3.1 3.5-1.9 6.9-3.9 10.1-6.1 2.1-1.1 4-2.5 5.8-4zm23.7-6.8l4.5 2.9c2.7-4.1 5.1-8.4 7.2-12.9l-3.5-1.4c-2.5 4-5.3 7.8-8.2 11.4zm-15 15.1l5.5 5.2c3.6-3.7 7-7.6 10-11.8l-5.1-3.3c-3.3 3.6-6.7 6.9-10.4 9.9zm-164.5 5.7l3.5-3.4c-3.9-3.1-7.6-6.4-11-9.9l-2.5 1.6c3.2 4.2 6.5 8.1 10 11.7zm65.6 33.6c5.2.8 10.5 1.3 15.7 1.5v-11.6c-4.6 0-9-.3-13.4-.8l-2.3 10.9zm140.4-87.3c-13.2 64.3-78.4 106.2-145.2 93.5-33.2-6.3-61.6-24.9-79.9-52.3-13-19.4-19.7-41.6-19.7-64.2 0-4.6.3-9.2.9-13.9 2.4-52.1 44.9-94.8 100.3-103.2 7.3-1.3 14.8-2 22.4-2 7.9 0 16 .7 24 2.3 33.2 6.3 61.5 24.9 79.9 52.3 17.4 26 23.6 57.1 17.3 87.5zm-8.7 1.8c-1.7 4.7-3.7 9.2-6.1 13.6l2.7 1.1c1.9-4.7 3.4-9.5 4.6-14.5l-1.2-.2z"/><path class="st4" d="M283.8 227.8c.4 2.3.7 4.6.9 6.9.2 2.6.4 5.2.4 7.9v.1c0 1.4 0 2.8-.1 4.1l-3.7-4.2-6.8-5.9-6.6-5.8-8.2-7.2-5.9-5.2-7.7-6.8-5.4-4.8-6.1-5.4-5.3-4.6-6.4-5.6-5.3-4.7-6-5.3-5.5-4.9-8.6-7.6-6-5.3-11.2-9.9-5-4.4v-3.3c1.7 0 3.3 0 5 .1 4.9.2 9.8.7 14.6 1.4 2.3.4 4.6.8 6.8 1.3 5 1.1 9.9 2.5 14.6 4.1 2.2.8 4.4 1.6 6.5 2.5 4.2 1.8 8.3 3.8 12.2 6.1 2 1.2 4 2.4 5.9 3.6 4.2 2.8 8.2 5.8 11.9 9.1 1.8 1.6 3.5 3.2 5.1 4.8 3.4 3.4 6.5 7 9.3 10.8 1.4 1.9 2.7 3.8 4 5.8 2.7 4.2 5 8.7 7 13.3.9 2.1 1.7 4.3 2.4 6.5 1.4 4.2 2.4 8.3 3.2 12.5zM65.6 242.6c0-2.7.1-5.4.4-8 .2-2.3.5-4.6.9-6.9.8-4.8 2.1-9.4 3.7-13.9.8-2.2 1.7-4.4 2.6-6.5 2-4.4 4.3-8.7 6.9-12.7 1.3-2 2.6-3.8 4-5.7 3.1-4.1 6.6-8 10.4-11.6 1.7-1.6 3.4-3.2 5.2-4.7 3.7-3.1 7.5-5.9 11.6-8.5 1.9-1.2 4-2.4 6-3.5 4.6-2.6 9.5-4.8 14.6-6.7 2.2-.8 4.4-1.6 6.6-2.3 4.2-1.3 8.4-2.4 12.8-3.2 2.3-.5 4.6-.8 6.9-1.2 4.9-.7 9.9-1.1 15.1-1.1h2v3.3l-2 1.7-12 10.6-6 5.3-7.4 6.6-5.5 4.9-7.8 6.9-5.3 4.6-6.1 5.3-5.3 4.6-7 6.2-5.5 4.8-7.3 6.5-5.9 5.2-9.4 8.3-6.6 5.8-6.9 6.1-3.7 4.2v-4.4z"/></g><g id="XMLID_2_"><path class="st0" d="M298 244.7c-13.2 64.3-78.4 106.3-145.2 93.5-33.2-6.3-61.6-24.9-79.9-52.3-13-19.4-19.7-41.6-19.7-64.2 0-4.6.3-9.2.9-13.9 2.4-52.1 44.9-94.8 100.3-103.2 7.3-1.3 14.8-2 22.4-2 7.9 0 16 .7 24 2.3 33.2 6.3 61.5 24.9 79.9 52.3 17.4 26.1 23.6 57.1 17.3 87.5zm-117.7 77.1v11.8c5.5-.2 10.9-.7 16.3-1.6l-2.4-11.5c-4.6.6-9.2 1.1-13.9 1.3zm-7 11.7v-11.6c-4.6 0-9-.3-13.4-.8l-2.3 11c5.3.8 10.5 1.3 15.7 1.4zm-22.5-2.8l2.2-10.6c-4.4-.7-8.7-1.6-12.9-2.8l-4 9.2c4.8 1.7 9.7 3.1 14.7 4.2zm50.2-11.5l2.4 11.4c4.9-1.1 9.7-2.5 14.4-4.2l-4.3-10.3c-4.1 1.2-8.2 2.3-12.5 3.1zm-71.4 4.8l3.7-8.7c-4.6-1.5-9-3.3-13.3-5.3l-4.6 6.8c4.6 2.7 9.3 5.1 14.2 7.2zm90.5-10.2l4.2 10c4.9-2.1 9.7-4.6 14.3-7.3l-5.7-8.2c-4.1 2-8.4 3.9-12.8 5.5zm-110.6-.7l4.2-6.1c-4.3-2.3-8.5-4.9-12.5-7.7l-4.1 4c3.9 3.6 8 6.8 12.4 9.8zm129.6-8.1l5.4 7.7c4.4-3 8.5-6.2 12.4-9.8l-5.9-5.7c-3.8 2.8-7.8 5.4-11.9 7.8zm-65.8 3.6h2c1.7 0 3.3 0 5-.1 3.8-.1 7.5-.5 11.1-.9 2.3-.3 4.6-.6 6.9-1.1 3.4-.6 6.8-1.4 10.1-2.3 2.3-.6 4.5-1.3 6.7-2.1 3.6-1.2 7.1-2.6 10.5-4.2 2.2-1 4.3-2 6.3-3.1 3.5-1.9 6.9-3.9 10.1-6.1 2-1.3 3.9-2.7 5.7-4.2 3.2-2.4 6.2-5.1 9-7.8 1.7-1.7 3.3-3.4 4.9-5.2 2.7-3 5.1-6.1 7.4-9.4 1.3-2 2.6-4 3.8-6 2.2-3.7 4.1-7.6 5.7-11.6.9-2.2 1.7-4.4 2.4-6.6 1.4-4.3 2.4-8.8 3.1-13.4.3-2.3.6-4.6.7-7 0-.4.1-.9.1-1.4.1-1.4.1-2.7.1-4.1 0-2.7-.1-5.3-.4-7.9-.2-2.4-.5-4.6-.9-6.9-.7-4.2-1.8-8.3-3.1-12.3-.7-2.2-1.5-4.4-2.4-6.5-2-4.6-4.3-9.1-7-13.3-1.2-2-2.6-3.9-4-5.8-2.8-3.8-5.9-7.4-9.3-10.8-1.6-1.6-3.3-3.2-5.1-4.8-3.7-3.3-7.7-6.3-11.9-9.1-1.9-1.3-3.9-2.5-5.9-3.6-3.9-2.2-8-4.3-12.2-6-2.1-.9-4.3-1.8-6.5-2.5-4.7-1.7-9.6-3.1-14.6-4.1-2.2-.5-4.5-.9-6.8-1.3-4.8-.8-9.6-1.2-14.6-1.4-1.6-.1-3.3-.1-5-.1h-2c-5.1.1-10.1.5-15.1 1.1-2.3.3-4.6.7-6.9 1.2-4.4.9-8.6 1.9-12.8 3.2-2.2.7-4.4 1.5-6.6 2.3-5.1 1.9-10 4.2-14.6 6.7-2 1.1-4.1 2.3-6 3.5-4.1 2.6-8 5.4-11.6 8.5-1.8 1.5-3.5 3-5.2 4.7-3.8 3.6-7.3 7.5-10.4 11.6-1.4 1.8-2.8 3.7-4 5.7-2.7 4.1-5 8.3-6.9 12.7-.9 2.1-1.8 4.3-2.6 6.5-1.6 4.5-2.8 9.1-3.7 13.9-.4 2.3-.7 4.6-.9 6.9-.3 2.6-.4 5.3-.4 8 0 1.4 0 2.8.1 4.2 0 .5 0 .9.1 1.4.2 2.4.4 4.7.7 7 .7 4.9 1.9 9.7 3.4 14.4.7 2.2 1.5 4.5 2.5 6.6 1.6 3.8 3.5 7.6 5.6 11.1 1.2 2 2.5 4 3.9 6 2.6 3.7 5.4 7.2 8.5 10.5 1.6 1.7 3.3 3.4 5 5.1 3 2.8 6.2 5.4 9.5 7.9 1.9 1.4 3.8 2.8 5.8 4 3.3 2.1 6.8 4.1 10.5 5.9 2.1 1.1 4.3 2 6.4 3 3.6 1.5 7.2 2.9 11 4 2.2.7 4.5 1.3 6.8 1.9 3.4.8 6.8 1.5 10.2 2.1 2.3.4 4.6.7 6.9.9 3.7.2 7.3.4 10.9.5zm-81.3-10.1l3.5-3.4c-3.9-3.1-7.6-6.4-11-9.9l-2.5 1.6c3.2 4.1 6.5 8 10 11.7zm164.5-5.7l5.5 5.2c3.6-3.7 7-7.6 10-11.8l-5.1-3.3c-3.3 3.6-6.7 6.8-10.4 9.9zm-178.4-11.7l1.6-1c-3.2-3.7-6.1-7.5-8.7-11.5 2 4.2 4.4 8.4 7.1 12.5zm193.4-3.4l4.5 2.9c2.7-4.1 5.1-8.4 7.2-12.9l-3.5-1.4c-2.5 3.9-5.3 7.8-8.2 11.4zm11.7-17.5l2.7 1.1c1.9-4.6 3.4-9.5 4.6-14.5l-1.1-.2c-1.8 4.6-3.9 9.2-6.2 13.6z"/><path class="st4" d="M180.3 333.5v-11.8c4.7-.2 9.3-.6 13.9-1.3l2.4 11.5c-5.4.9-10.8 1.5-16.3 1.6zM173.3 321.9v11.6c-5.2-.1-10.5-.6-15.7-1.5l2.3-11c4.4.6 8.9.8 13.4.9zM153 320.1l-2.2 10.6c-5-1.1-9.9-2.5-14.6-4.2l4-9.2c4.1 1.2 8.4 2.1 12.8 2.8zM203.4 330.6l-2.4-11.4c4.2-.8 8.4-1.9 12.5-3.2l4.3 10.3c-4.6 1.8-9.4 3.2-14.4 4.3zM133.4 315.3l-3.7 8.7c-4.9-2.1-9.7-4.5-14.2-7.2l4.6-6.8c4.2 2.1 8.7 3.8 13.3 5.3zM224.3 323.8l-4.2-10c4.4-1.6 8.7-3.5 12.8-5.5l5.7 8.2c-4.6 2.7-9.3 5.2-14.3 7.3zM113.8 306.9l-4.2 6.1c-4.4-3-8.5-6.2-12.4-9.8l4.1-4c3.9 2.9 8.1 5.4 12.5 7.7zM244.5 312.7l-5.4-7.7c4.1-2.4 8.1-5 11.9-7.8l5.9 5.7c-3.9 3.5-8 6.8-12.4 9.8zM175.3 308.6v-3.3l5-4.4 8.2-7.2 6-5.3 5.3-4.7 5.5-4.9 4.4-3.9 5.3-4.6 4.2-3.7 5.3-4.6 4-3.5 5.4-4.8 4.4-3.9 5.9-5.2 6.2-5.5 6.6-5.8 10-8.8 7.9-7 6.3-5.5 3.7 4.2c0 .4-.1.9-.1 1.4-.2 2.4-.4 4.7-.7 7-.7 4.6-1.7 9-3.1 13.4-.7 2.2-1.5 4.5-2.4 6.6-1.6 4-3.5 7.8-5.7 11.6-1.2 2.1-2.5 4.1-3.8 6-2.3 3.3-4.7 6.4-7.4 9.4-1.6 1.8-3.2 3.5-4.9 5.2-2.8 2.8-5.8 5.4-9 7.8-1.8 1.4-3.8 2.8-5.7 4.2-3.2 2.2-6.6 4.2-10.1 6.1-2.1 1.1-4.2 2.1-6.3 3.1-3.4 1.5-6.9 3-10.5 4.2-2.2.8-4.4 1.5-6.7 2.1-3.3.9-6.7 1.7-10.1 2.3-2.3.5-4.6.8-6.9 1.1-3.6.5-7.4.8-11.1.9h-5.1zM175.3 305.3v3.3h-2c-3.6-.1-7.2-.3-10.8-.6-2.3-.2-4.6-.5-6.9-.9-3.5-.5-6.9-1.2-10.2-2.1-2.3-.6-4.5-1.2-6.8-1.9-3.8-1.2-7.4-2.5-11-4-2.2-.9-4.3-1.9-6.4-3-3.6-1.8-7.1-3.8-10.5-5.9-2-1.3-4-2.6-5.8-4-3.4-2.4-6.5-5.1-9.5-7.9-1.8-1.6-3.4-3.3-5-5.1-3.1-3.3-5.9-6.8-8.5-10.5-1.4-1.9-2.7-3.9-3.9-6-2.1-3.6-4-7.3-5.6-11.1-.9-2.2-1.8-4.4-2.5-6.6-1.5-4.6-2.7-9.4-3.4-14.4-.3-2.3-.6-4.6-.7-7l-.1-1.4 3.7-4.2 6.3 5.5 7.9 7 10.9 9.6 6.6 5.8 6.1 5.3 5.9 5.2 5.4 4.7 5.4 4.8 4.3 3.8 5.3 4.6 4.3 3.8 5.3 4.6 5 4.4 5.5 4.8 5.5 4.8 6 5.3 8.3 7.3 1.9 2z"/><path class="st0" d="M180.3 300.9l-5 4.4-2-1.7-8.3-7.3-6-5.3-5.5-4.8-5.5-4.8-5-4.4-5.3-4.6-4.3-3.8-5.3-4.6-4.3-3.8-5.4-4.8-5.4-4.7-5.9-5.2-6.1-5.3-6.6-5.8-10.9-9.6-7.9-7-6.3-5.5 6.9-6.1 6.6-5.8 9.4-8.3 5.9-5.2 7.3-6.5 5.5-4.8 7-6.2 5.3-4.6 6.1-5.3 5.3-4.6 7.8-6.9 5.5-4.9 7.4-6.6 6-5.3 12-10.6 2-1.7 5 4.4 11.2 9.9 6 5.3 8.6 7.6 5.5 4.9 6 5.3 5.3 4.7 6.4 5.6 5.3 4.6 6.1 5.4 5.4 4.8 7.7 6.8 5.9 5.2 8.2 7.2 6.6 5.8 6.8 5.9-6.3 5.5-7.9 7-10 8.8-6.6 5.8-6.2 5.5-5.9 5.2-4.4 3.9-5.4 4.8-4 3.5-5.3 4.6-4.2 3.7-5.3 4.6-4.4 3.9-5.5 4.9-5.3 4.7-6 5.3-8.3 6.9zm18.9-53.3h.2c3.2 0 6.3-.3 9.2-.8l1.1-.2c3-.6 5.9-1.6 8.5-2.8.7-.3 1.4-.7 2.1-1.1 1.3-.7 2.5-1.5 3.7-2.4 1.1-.8 2-1.6 2.9-2.5.9-.9 1.7-1.7 2.4-2.7 1.6-1.9 2.9-4 3.9-6.4.6-1.3 1.2-2.8 1.6-4.3.4-1.4.7-2.8 1-4.2h17v-11.1h-16.7c-.1-.9-.2-1.8-.4-2.7-.2-1.3-.5-2.5-.8-3.8-.7-2.3-1.5-4.5-2.5-6.5-.8-1.6-1.8-3-2.8-4.4-1-1.4-2.2-2.6-3.5-3.8l-1.5-1.3c-1.2-1-2.4-1.8-3.7-2.5-2.2-1.2-4.5-2.2-7.1-2.9-1.4-.4-2.9-.7-4.4-.9-1.7-.2-3.5-.3-5.3-.3-1 0-2 0-3 .1-.7 0-1.4.1-2.1.2-3.2.3-6 1-8.4 2-.8.3-1.5.6-2.2 1-2.9 1.4-5.4 3.2-7.7 5.4l-.3.3-.4.4c-1.8 1.8-3.4 3.9-4.9 6.2-.6.8-1.1 1.7-1.6 2.6l-.3.4-.9 1.7-2.4 4.5c-.1.1-.1.2-.1.2-.5.9-.9 1.8-1.4 2.8-.1.2-.2.4-.2.5l-1.2 2.5-.1.3-.5 1.1c-.2.4-.3.8-.5 1.1l-.6 1.1c-.2.4-.4.8-.7 1.1-.3.5-.6 1-.9 1.4l-.3.5c-.5.7-1 1.2-1.5 1.8-.5.6-1.1 1.1-1.6 1.5-.3.2-.6.5-1 .7l-.5.1h.2c-2.2 1.3-5.1 1.9-8.5 1.9h-1.4c-3.1-.2-5.6-1.1-7.4-2.7-1-.8-1.7-1.8-2.2-2.9-.1-.1-.1-.2-.2-.4-.5-1.2-.8-2.6-.8-4.2 0-.9.1-1.8.2-2.7 0-.2.1-.4.1-.5.5-2.4 1.7-4.5 3.6-6.1l.4-.3.4-.3c1.9-1.4 4.4-2.4 7.4-3h.1c1.9-.3 3.9-.5 6.2-.5v-23.4h-2.1c-1.6 0-3.1.2-4.5.3-2.6.3-5.1.8-7.5 1.4-1.3.4-2.5.8-3.7 1.3-2.3.9-4.5 2.1-6.5 3.4-.7.5-1.4 1-2.1 1.6-.7.6-1.4 1.2-2 1.8-1.7 1.6-3.2 3.4-4.4 5.4-.8 1.3-1.6 2.7-2.2 4.1-.9 2-1.7 4.3-2.2 6.6-.3 1.4-.6 2.9-.8 4.4l-.1.9h-16v11h15.9c.2 2 .6 3.8 1 5.6.4 1.6.9 3.1 1.5 4.4.9 2.3 2.2 4.5 3.6 6.4.6.8 1.3 1.6 2 2.4l1.8 1.8c1.4 1.2 2.9 2.3 4.5 3.3.9.5 1.8 1 2.7 1.4 2.7 1.2 5.7 2.1 9 2.5l1.3.2c1.5.1 3 .2 4.5.2 1.7 0 3.4-.1 4.9-.3.2 0 .5 0 .7-.1 2.9-.3 5.5-1 7.8-1.9l.3-.1c.6-.2 1.1-.5 1.7-.8 1.2-.6 2.3-1.2 3.4-1.9 1.5-1 2.9-2.1 4.3-3.3l.6-.6c.1-.1.2-.2.3-.4.7-.7 1.3-1.3 2-2.1.6-.6 1.1-1.3 1.7-2l.5-.6c.4-.5.8-1 1.1-1.5.3-.4.6-.8.8-1.2l.4-.6.6-1.1.2-.3.2-.3c.1-.1.2-.3.2-.4.2-.4.4-.8.7-1.2.1-.1.2-.3.2-.4l.5-.9c.1-.1.2-.3.2-.4.2-.2.3-.5.4-.8.1-.1.2-.3.2-.4l.5-.9v-.1l.6-1.1.8-1.5c.4-.7.8-1.5 1.1-2.2l.8-1.6s0-.1.1-.1l.1-.2c.4-.9.9-1.8 1.4-2.6 1.6-2.8 3.3-4.9 5-6.4 1.5-1.3 3.4-2.2 5.7-2.6 1.1-.2 2.3-.3 3.6-.3 2.3 0 4.3.3 6 .9l.7.3c.9.4 1.7.8 2.4 1.4 1.4 1.1 2.4 2.4 2.9 4.1v.1c.3.9.4 1.9.4 2.9 0 1.6-.3 3-1 4.2v.1c-.7 1.4-1.9 2.7-3.4 3.6-1.7 1.1-3.7 1.8-6.2 2.2-1.9.4-4 .5-6.4.5v23.7z"/><path class="st4" d="M95.5 295.1l-3.5 3.4c-3.6-3.6-6.9-7.5-10-11.7l2.5-1.6c3.4 3.5 7.1 6.8 11 9.9zM261.9 298l-5.5-5.2c3.7-3.1 7.1-6.3 10.3-9.8l5.1 3.3c-2.9 4.1-6.3 8.1-9.9 11.7zM79.7 280l-1.6 1c-2.7-4.1-5.1-8.3-7.1-12.6 2.6 4.1 5.5 8 8.7 11.6zM275.9 280.5l-4.5-2.9c3-3.6 5.7-7.4 8.2-11.4l3.5 1.4c-2.1 4.5-4.5 8.8-7.2 12.9zM285.8 261.2l-2.7-1.1c2.3-4.4 4.4-8.9 6.1-13.6l1.1.2c-1.1 5.1-2.6 9.9-4.5 14.5zM199.4 247.6h-.2v-23.5c2.4 0 4.5-.2 6.4-.5 2.5-.4 4.6-1.2 6.2-2.2 1.6-1 2.7-2.2 3.4-3.6v-.1c.6-1.2 1-2.6 1-4.2 0-1.1-.1-2-.4-2.9v-.1c-.5-1.6-1.5-3-2.9-4.1-.7-.5-1.5-1-2.4-1.4l-.7-.3c-1.7-.6-3.7-.9-6-.9-1.3 0-2.5.1-3.6.3-2.3.4-4.2 1.3-5.7 2.6-1.7 1.5-3.4 3.6-5 6.4-.5.8-.9 1.7-1.4 2.6l-.3.2h.1s0 .1-.1.1l-.8 1.6c-.4.8-.7 1.5-1.1 2.2l-.8 1.5-.6 1.1h-.1.1l-.5.9c0 .1-.1.3-.2.4l-.4.8-.2.4-.5.9-.2.4c-.2.4-.4.8-.7 1.2l-.2.4-.2.3-.2.3-.6 1.1-.4.6c-.2.4-.5.8-.8 1.2l-1.1 1.5c-.1.2-.3.4-.5.6-.5.7-1.1 1.4-1.7 2-.6.7-1.3 1.4-2 2.1-.1.1-.2.2-.3.4l-.6.6c-1.3 1.2-2.8 2.3-4.3 3.3-1.1.7-2.2 1.3-3.4 1.9-.5.3-1.1.5-1.7.8l-.3.1c-2.3.9-4.9 1.6-7.8 1.9l-.7.1c-1.6.2-3.2.3-4.9.3-1.6 0-3.1-.1-4.5-.2l-1.3-.2c-3.3-.4-6.3-1.3-9-2.5-.9-.4-1.9-.9-2.7-1.4-1.6-.9-3.1-2-4.5-3.3-.6-.6-1.2-1.1-1.8-1.8-.7-.7-1.4-1.5-2-2.4-1.5-1.9-2.7-4.1-3.6-6.4-.6-1.4-1.1-2.9-1.5-4.4-.5-1.8-.8-3.7-1-5.6h-15.9v-11h16l.1-.9c.2-1.5.5-3 .8-4.4.6-2.3 1.3-4.6 2.2-6.6.7-1.5 1.4-2.8 2.2-4.1 1.3-2 2.7-3.8 4.4-5.4.6-.6 1.3-1.2 2-1.8l2.1-1.6c2-1.4 4.1-2.5 6.5-3.4 1.2-.5 2.4-.9 3.7-1.3 2.3-.7 4.8-1.2 7.5-1.4 1.5-.2 3-.3 4.5-.3h2.1v23.4c-2.3 0-4.3.2-6.2.5h-.1c-3 .5-5.5 1.6-7.4 3l-.4.3-.4.3c-1.9 1.6-3 3.6-3.6 6.1l-.1.5c-.2.9-.2 1.8-.2 2.7 0 1.6.3 2.9.8 4.2l.2.4c.5 1.1 1.3 2.1 2.2 2.9 1.9 1.6 4.3 2.5 7.4 2.7h1.4c3.5 0 6.3-.6 8.5-1.9l.3-.1c.4-.2.7-.4 1-.7.6-.4 1.1-.9 1.6-1.5.5-.5 1-1.1 1.5-1.8.1-.1.2-.3.3-.5l.9-1.4c.2-.4.4-.7.7-1.1.2-.3.4-.7.6-1.1.2-.3.4-.7.5-1.1.2-.3.4-.7.5-1.1l.1-.3c.4-.9.8-1.7 1.2-2.5.1-.2.2-.3.2-.5.5-1 .9-1.9 1.4-2.8 0-.1.1-.2.1-.2.8-1.5 1.6-3.1 2.4-4.5l.9-1.7.3-.4c.5-.9 1.1-1.8 1.6-2.6 1.5-2.3 3.1-4.3 4.9-6.2l.4-.4.3-.3c2.3-2.2 4.8-4 7.7-5.4.7-.4 1.4-.7 2.2-1 2.5-1 5.3-1.6 8.4-2l2.1-.2c1-.1 2-.1 3-.1 1.8 0 3.6.1 5.3.3 1.5.2 3 .5 4.4.9 2.5.7 4.9 1.6 7.1 2.9 1.3.7 2.6 1.6 3.7 2.5.5.4 1 .8 1.5 1.3 1.3 1.2 2.5 2.4 3.5 3.8 1.1 1.4 2 2.8 2.8 4.4 1.1 2 1.9 4.2 2.5 6.5.3 1.2.6 2.5.8 3.8.2.9.3 1.8.4 2.7h16.7v11.1h-17c-.2 1.5-.6 2.9-1 4.2-.4 1.5-1 2.9-1.6 4.3-1 2.3-2.4 4.4-3.9 6.4-.7.9-1.6 1.8-2.4 2.7-.9.9-1.9 1.7-2.9 2.5-1.2.9-2.4 1.7-3.7 2.4l-2.1 1.1c-2.6 1.2-5.5 2.2-8.5 2.8l-1.1.2c-2.4.4-5.5.6-8.7.7zM184.8 222.4z"/><path class="st0" d="M158.7 221.7h-.2l.5-.1c-.1 0-.2 0-.3.1z"/><path class="st4" d="M285 216.2l-3.7-4.2-6.8-5.9-6.6-5.8-8.2-7.2-5.9-5.2-7.7-6.8-5.4-4.8-6.1-5.4-5.3-4.6-6.4-5.6-5.3-4.7-6-5.3-5.5-4.9-8.6-7.6-6-5.3-11.2-9.9-5-4.4v-3.3c1.7 0 3.3 0 5 .1 4.9.2 9.8.7 14.6 1.4 2.3.3 4.6.8 6.8 1.3 5 1.1 9.9 2.5 14.6 4.1 2.2.8 4.4 1.6 6.5 2.5 4.2 1.8 8.3 3.8 12.2 6 2 1.2 4 2.4 5.9 3.6 4.2 2.8 8.2 5.8 11.9 9.1 1.8 1.6 3.5 3.2 5.1 4.8 3.4 3.4 6.5 7 9.3 10.8 1.4 1.9 2.7 3.8 4 5.8 2.7 4.2 5 8.7 7 13.3.9 2.1 1.7 4.3 2.4 6.5 1.3 4 2.4 8.1 3.1 12.3.4 2.3.7 4.6.9 6.9.2 2.6.4 5.2.4 7.9v.1c.1 1.7 0 3 0 4.4zM69.3 212l-3.7 4.2c-.1-1.4-.1-2.8-.1-4.2 0-2.7.1-5.4.4-8 .2-2.3.5-4.6.9-6.9.8-4.8 2.1-9.4 3.7-13.9.8-2.2 1.7-4.4 2.6-6.5 2-4.4 4.3-8.7 6.9-12.7 1.3-2 2.6-3.8 4-5.7 3.1-4.1 6.6-8 10.4-11.6 1.7-1.6 3.4-3.2 5.2-4.7 3.7-3.1 7.5-5.9 11.6-8.5 1.9-1.2 4-2.4 6-3.5 4.6-2.6 9.5-4.8 14.6-6.7 2.2-.8 4.4-1.6 6.6-2.3 4.2-1.3 8.4-2.4 12.8-3.2l6.9-1.2c4.9-.7 9.9-1.1 15.1-1.1h2v3.3l-2 1.7-12 10.6-6 5.3-7.4 6.6-5.5 4.9-7.8 6.9-5.3 4.6-6.1 5.3-5.3 4.6-7 6.2-5.5 4.8-7.3 6.5-5.9 5.2-9.4 8.3-6.6 5.8-6.8 5.9zM188.1 215.8h-.1l.3-.2c-.1.1-.1.2-.2.2z"/></g><g id="XMLID_3_"><path class="st0" d="M298 216.5c-13.2 64.3-78.4 106.2-145.2 93.5-33.2-6.3-61.6-24.9-79.9-52.3-13-19.4-19.7-41.6-19.7-64.2 0-4.6.3-9.2.9-13.9 2.4-52.1 44.9-94.8 100.3-103.2 7.3-1.3 14.8-2 22.4-2 7.9 0 16 .7 24 2.3 33.2 6.3 61.5 24.9 79.9 52.3 17.4 26 23.6 57.1 17.3 87.5zm-117.7 77v11.8c5.5-.2 10.9-.7 16.3-1.6l-2.4-11.5c-4.6.7-9.2 1.1-13.9 1.3zm-7 11.8v-11.7c-4.6 0-9-.3-13.4-.8l-2.3 11c5.3.8 10.5 1.3 15.7 1.5zm-22.5-2.8l2.2-10.6c-4.4-.7-8.7-1.6-12.9-2.8l-4 9.2c4.8 1.7 9.7 3.1 14.7 4.2zm50.2-11.5l2.4 11.4c4.9-1.1 9.7-2.5 14.4-4.2l-4.3-10.3c-4.1 1.2-8.2 2.3-12.5 3.1zm-71.4 4.8l3.7-8.7c-4.6-1.5-9-3.3-13.3-5.3l-4.6 6.8c4.6 2.7 9.3 5.1 14.2 7.2zm90.5-10.2l4.2 10c4.9-2.1 9.7-4.6 14.3-7.3l-5.7-8.2c-4.1 2-8.4 3.9-12.8 5.5zm-110.6-.7l4.2-6.1c-4.3-2.3-8.5-4.9-12.5-7.6l-4.1 4c3.9 3.4 8 6.7 12.4 9.7zm129.6-8.2l5.4 7.7c4.4-3 8.5-6.2 12.4-9.8l-5.9-5.7c-3.8 2.8-7.8 5.4-11.9 7.8zm-65.8 3.6h2c1.7 0 3.3 0 5-.1 3.8-.1 7.5-.5 11.1-.9 2.3-.3 4.6-.6 6.9-1.1 3.4-.6 6.8-1.4 10.1-2.3 2.3-.6 4.5-1.3 6.7-2.1 3.6-1.2 7.1-2.6 10.5-4.2 2.2-1 4.3-2 6.3-3.1 3.5-1.9 6.9-3.9 10.1-6.1 2-1.3 3.9-2.7 5.7-4.2 3.2-2.4 6.2-5.1 9-7.8 1.7-1.7 3.3-3.4 4.9-5.2 2.7-3 5.1-6.1 7.4-9.4 1.3-1.9 2.6-4 3.8-6 2.2-3.7 4.1-7.6 5.7-11.6.9-2.2 1.7-4.4 2.4-6.7 1.4-4.3 2.4-8.8 3.1-13.4.3-2.3.6-4.6.7-7 0-.4.1-.9.1-1.4.1-1.4.1-2.7.1-4.1v-.1c0-2.7-.1-5.3-.4-7.9-.2-2.3-.5-4.6-.9-6.9-.7-4.2-1.8-8.3-3.1-12.3-.7-2.2-1.5-4.4-2.4-6.5-2-4.6-4.3-9.1-7-13.3-1.2-2-2.6-3.9-4-5.8-2.8-3.8-5.9-7.4-9.3-10.8-1.6-1.6-3.3-3.2-5.1-4.8-3.7-3.3-7.7-6.3-11.9-9.1-1.9-1.3-3.9-2.5-5.9-3.6-3.9-2.2-8-4.3-12.2-6.1-2.1-.9-4.3-1.8-6.5-2.5-4.7-1.7-9.6-3.1-14.6-4.1-2.2-.5-4.5-.9-6.8-1.3-4.8-.8-9.6-1.2-14.6-1.4-1.6-.1-3.3-.1-5-.1h-2c-5.1.1-10.1.5-15.1 1.1-2.3.3-4.6.7-6.9 1.1-4.4.9-8.6 1.9-12.8 3.2-2.2.7-4.4 1.5-6.6 2.3-5.1 1.9-10 4.2-14.6 6.7-2 1.1-4.1 2.3-6 3.5-4.1 2.6-8 5.4-11.6 8.5-1.8 1.5-3.5 3-5.2 4.7-3.8 3.6-7.3 7.5-10.4 11.6-1.4 1.9-2.8 3.7-4 5.7-2.7 4.1-5 8.3-6.9 12.7-.9 2.1-1.8 4.3-2.6 6.5-1.6 4.5-2.8 9.1-3.7 13.9-.4 2.3-.7 4.6-.9 6.9-.3 2.6-.4 5.3-.4 8 0 1.4 0 2.8.1 4.2 0 .5 0 .9.1 1.4.2 2.4.4 4.7.7 7 .7 4.9 1.9 9.7 3.4 14.4.7 2.2 1.5 4.5 2.5 6.6 1.6 3.8 3.5 7.6 5.6 11.1 1.2 2 2.5 4 3.9 5.9 2.6 3.7 5.4 7.2 8.5 10.5 1.6 1.7 3.3 3.4 5 5.1 3 2.8 6.2 5.4 9.5 7.9 1.9 1.4 3.8 2.8 5.8 4 3.3 2.1 6.8 4.1 10.5 6 2.1 1.1 4.3 2 6.4 3 3.6 1.5 7.2 2.9 11 4 2.2.7 4.5 1.3 6.8 1.9 3.4.8 6.8 1.5 10.2 2.1 2.3.4 4.6.7 6.9.9 3.7.7 7.3.9 10.9.9zm-81.3-10.1l3.5-3.4c-3.9-3.1-7.6-6.4-11-9.9l-2.5 1.6c3.2 4.2 6.5 8.1 10 11.7zm164.5-5.6l5.5 5.2c3.6-3.7 7-7.6 10-11.8l-5.1-3.3c-3.3 3.5-6.7 6.8-10.4 9.9zm-178.4-11.8l1.6-1c-3.2-3.7-6.1-7.5-8.7-11.5 2 4.2 4.4 8.5 7.1 12.5zm193.4-3.3l4.5 2.9c2.7-4.1 5.1-8.4 7.2-12.9l-3.5-1.4c-2.5 3.9-5.3 7.7-8.2 11.4zm11.7-17.6l2.7 1.1c1.9-4.7 3.4-9.5 4.6-14.5l-1.1-.2c-1.8 4.7-3.9 9.3-6.2 13.6z"/><path class="st4" d="M180.3 305.3v-11.8c4.7-.2 9.3-.6 13.9-1.3l2.4 11.5c-5.4.9-10.8 1.4-16.3 1.6zM173.3 293.6v11.7c-5.2-.1-10.5-.6-15.7-1.5l2.3-11c4.4.5 8.9.8 13.4.8zM153 291.9l-2.2 10.6c-5-1.1-9.9-2.5-14.6-4.2l4-9.2c4.1 1.2 8.4 2.1 12.8 2.8zM203.4 302.4l-2.4-11.4c4.2-.8 8.4-1.9 12.5-3.2l4.3 10.3c-4.6 1.7-9.4 3.2-14.4 4.3zM133.4 287.1l-3.7 8.7c-4.9-2.1-9.7-4.5-14.2-7.2l4.6-6.8c4.2 2 8.7 3.8 13.3 5.3zM224.3 295.6l-4.2-10c4.4-1.6 8.7-3.5 12.8-5.6l5.7 8.2c-4.6 2.8-9.3 5.2-14.3 7.4zM113.8 278.7l-4.2 6.1c-4.4-3-8.5-6.2-12.4-9.8l4.1-4c3.9 2.9 8.1 5.4 12.5 7.7zM244.5 284.5l-5.4-7.7c4.1-2.4 8.1-5 11.9-7.8l5.9 5.7c-3.9 3.5-8 6.8-12.4 9.8zM175.3 280.4v-3.3l5-4.4 8.2-7.2 6-5.3 5.3-4.7 5.5-4.9 4.4-3.9 5.3-4.6 4.2-3.7 5.3-4.6 4-3.5 5.4-4.8 4.4-3.9 5.9-5.2 6.2-5.5 6.6-5.8 10-8.8 7.9-7 6.3-5.5 3.7 4.2c0 .4-.1.9-.1 1.4-.2 2.4-.4 4.7-.7 7-.7 4.6-1.7 9-3.1 13.4-.7 2.2-1.5 4.5-2.4 6.7-1.6 4-3.5 7.8-5.7 11.6-1.2 2.1-2.5 4.1-3.8 6-2.3 3.3-4.7 6.4-7.4 9.4-1.6 1.8-3.2 3.5-4.9 5.2-2.8 2.8-5.8 5.4-9 7.8-1.8 1.5-3.8 2.8-5.7 4.2-3.2 2.2-6.6 4.2-10.1 6.1-2.1 1.1-4.2 2.1-6.3 3.1-3.4 1.6-6.9 3-10.5 4.2-2.2.8-4.4 1.5-6.7 2.1-3.3.9-6.7 1.7-10.1 2.3-2.3.5-4.6.8-6.9 1.1-3.6.5-7.4.8-11.1.9-1.7-.2-3.4-.1-5.1-.1zM175.3 277.1v3.3h-2c-3.6-.1-7.2-.3-10.8-.6-2.3-.2-4.6-.5-6.9-.9-3.5-.5-6.9-1.2-10.2-2.1-2.3-.6-4.5-1.2-6.8-1.9-3.8-1.2-7.4-2.5-11-4-2.2-.9-4.3-1.9-6.4-3-3.6-1.8-7.1-3.8-10.5-6-2-1.3-4-2.6-5.8-4-3.4-2.4-6.5-5.1-9.5-7.9-1.8-1.6-3.4-3.3-5-5.1-3.1-3.3-5.9-6.8-8.5-10.5-1.4-1.9-2.7-3.9-3.9-5.9-2.1-3.6-4-7.3-5.6-11.1-.9-2.2-1.8-4.4-2.5-6.6-1.5-4.6-2.7-9.4-3.4-14.4-.3-2.3-.6-4.6-.7-7l-.1-1.4 3.7-4.2 6.3 5.6 7.9 7 10.9 9.6 6.6 5.8 6.1 5.3 5.9 5.2 5.4 4.7 5.4 4.8 4.3 3.8 5.3 4.6 4.3 3.8 5.3 4.6 5 4.4 5.5 4.8 5.5 4.8 6 5.3 8.3 7.3 1.9 1.9z"/><path class="st0" d="M180.3 272.7l-5 4.4-2-1.7-8.3-7.4-6-5.3-5.5-4.8-5.5-4.9-5-4.4-5.3-4.6-4.3-3.8-5.3-4.6-4.3-3.8-5.4-4.8-5.4-4.7-5.9-5.2-6.1-5.3-6.6-5.8-10.9-9.6-7.9-7-6.3-5.6 6.9-6.1 6.6-5.8 9.4-8.3 5.9-5.2 7.3-6.5 5.5-4.8 7-6.2 5.3-4.6 6.1-5.3 5.3-4.6 7.8-6.9 5.5-4.8 7.4-6.6 6-5.3 12-10.6 2-1.7 5 4.4 11.2 9.9 6 5.3 8.6 7.6 5.5 4.9 6 5.3 5.3 4.7 6.4 5.6 5.3 4.6 6.1 5.4 5.4 4.8 7.7 6.8 5.9 5.2 8.2 7.2 6.6 5.8 6.8 5.9-6.3 5.5-7.9 7-10 8.8-6.6 5.8-6.2 5.5-5.9 5.2-4.4 3.9-5.4 4.8-4 3.5-5.3 4.6-4.2 3.7-5.3 4.6-4.4 3.9-5.5 4.9-5.3 4.7-6 5.3-8.3 7.1zm18.9-53.4h.2c3.2 0 6.3-.3 9.2-.8l1.1-.2c3-.6 5.9-1.6 8.5-2.8.7-.3 1.4-.7 2.1-1.1 1.3-.7 2.5-1.5 3.7-2.4 1.1-.8 2-1.6 2.9-2.5.9-.9 1.7-1.7 2.4-2.7 1.6-1.9 2.9-4 3.9-6.4.6-1.4 1.2-2.8 1.6-4.3.4-1.4.7-2.8 1-4.2h17v-10.9h-16.7c-.1-.9-.2-1.8-.4-2.7-.2-1.3-.5-2.5-.8-3.8-.7-2.3-1.5-4.5-2.5-6.5-.8-1.6-1.8-3-2.8-4.4-1-1.4-2.2-2.6-3.5-3.8l-1.5-1.3c-1.2-1-2.4-1.8-3.7-2.6-2.2-1.2-4.5-2.2-7.1-2.9-1.4-.4-2.9-.7-4.4-.9-1.7-.2-3.5-.3-5.3-.3-1 0-2 0-3 .1-.7 0-1.4.1-2.1.2-3.2.3-6 1-8.4 1.9-.8.3-1.5.6-2.2 1-2.9 1.4-5.4 3.2-7.7 5.4l-.3.3-.4.4c-1.8 1.8-3.4 3.9-4.9 6.1-.6.8-1.1 1.7-1.6 2.6l-.3.4-.9 1.7-2.4 4.5c-.1.1-.1.2-.1.2-.5.9-.9 1.8-1.4 2.8-.1.2-.2.3-.2.5l-1.2 2.5-.1.3-.5 1.1c-.2.4-.3.8-.5 1.1l-.6 1.1c-.2.4-.4.8-.7 1.1l-.9 1.5-.3.5c-.5.7-1 1.2-1.5 1.8-.5.6-1.1 1.1-1.6 1.5-.3.2-.6.5-1 .7l-.5.1h.2c-2.2 1.3-5.1 1.9-8.5 1.9h-1.4c-3.1-.2-5.6-1.1-7.4-2.7-1-.8-1.7-1.8-2.2-2.9-.1-.1-.1-.2-.2-.4-.5-1.2-.8-2.6-.8-4.2 0-.9.1-1.8.2-2.7 0-.2.1-.4.1-.5.5-2.4 1.7-4.5 3.6-6.1l.4-.3.4-.3c1.9-1.4 4.4-2.4 7.4-3h.1c1.9-.3 3.9-.5 6.2-.5v-23.4h-2.1c-1.6 0-3.1.2-4.5.3-2.6.3-5.1.8-7.5 1.4-1.3.4-2.5.8-3.7 1.3-2.3.9-4.5 2.1-6.5 3.4-.7.5-1.4 1-2.1 1.6-.7.6-1.4 1.2-2 1.8-1.7 1.6-3.2 3.4-4.4 5.4-.8 1.3-1.6 2.7-2.2 4.1-.9 2.1-1.7 4.3-2.2 6.6-.3 1.4-.6 2.8-.8 4.4l-.1.9h-16v11h15.9c.2 2 .6 3.8 1 5.6.4 1.6.9 3 1.5 4.4.9 2.3 2.2 4.5 3.6 6.4.6.8 1.3 1.6 2 2.3l1.8 1.8c1.4 1.2 2.9 2.3 4.5 3.3.9.5 1.8 1 2.7 1.4 2.7 1.2 5.7 2.1 9 2.5l1.3.2c1.5.1 3 .2 4.5.2 1.7 0 3.4-.1 4.9-.3.2 0 .5 0 .7-.1 2.9-.3 5.5-1 7.8-1.9l.3-.1c.6-.2 1.1-.5 1.7-.8 1.2-.6 2.3-1.2 3.4-1.9 1.5-1 2.9-2.1 4.3-3.3l.6-.6c.1-.1.2-.2.3-.4l2-2.1c.6-.6 1.1-1.3 1.7-2l.5-.6c.4-.5.8-1 1.1-1.5.3-.4.6-.8.8-1.2l.4-.6.6-1.1.2-.3.2-.3c.1-.1.2-.3.2-.4.2-.4.4-.8.7-1.2.1-.1.2-.3.2-.4l.5-.9c.1-.1.2-.3.2-.4.2-.2.3-.5.4-.8.1-.1.2-.3.2-.4l.5-.9v-.1l.6-1.1.8-1.5c.4-.7.8-1.5 1.1-2.2l.8-1.6s0-.1.1-.1l.1-.2c.4-.9.9-1.8 1.4-2.6 1.6-2.8 3.3-5 5-6.4 1.5-1.3 3.4-2.2 5.7-2.6 1.1-.2 2.3-.3 3.6-.3 2.3 0 4.3.3 6 .9l.7.3c.9.4 1.7.8 2.4 1.4 1.4 1.1 2.4 2.4 2.9 4.1v.2c.3.9.4 1.9.4 2.9 0 1.6-.3 3-1 4.2v.1c-.7 1.4-1.9 2.6-3.4 3.6-1.7 1.1-3.7 1.8-6.2 2.2-1.9.4-4 .5-6.4.5v23.7z"/><path class="st4" d="M95.5 266.9l-3.5 3.4c-3.6-3.6-6.9-7.5-10-11.7l2.5-1.6c3.4 3.5 7.1 6.8 11 9.9zM261.9 269.8l-5.5-5.2c3.7-3.1 7.1-6.3 10.3-9.8l5.1 3.3c-2.9 4.1-6.3 8-9.9 11.7zM79.7 251.8l-1.6 1c-2.7-4.1-5.1-8.3-7.1-12.6 2.6 4.1 5.5 7.9 8.7 11.6zM275.9 252.3l-4.5-2.9c3-3.6 5.7-7.4 8.2-11.4l3.5 1.4c-2.1 4.5-4.5 8.8-7.2 12.9zM285.8 233l-2.7-1.1c2.3-4.4 4.4-8.9 6.1-13.6l1.1.2c-1.1 5-2.6 9.9-4.5 14.5zM199.4 219.3h-.2v-23.5c2.4 0 4.5-.2 6.4-.5 2.5-.4 4.6-1.2 6.2-2.2 1.6-1 2.7-2.2 3.4-3.6v-.1c.6-1.2 1-2.6 1-4.2 0-1.1-.1-2-.4-2.9v-.2c-.5-1.6-1.5-3-2.9-4.1-.7-.5-1.5-1-2.4-1.4l-.7-.3c-1.7-.6-3.7-.9-6-.9-1.3 0-2.5.1-3.6.3-2.3.4-4.2 1.3-5.7 2.6-1.7 1.5-3.4 3.6-5 6.4-.5.8-.9 1.7-1.4 2.6l-.3.2h.1s0 .1-.1.1l-.8 1.6c-.4.8-.7 1.5-1.1 2.2l-.8 1.5-.6 1.1h-.1.1l-.5.9c0 .1-.1.3-.2.4l-.4.8-.2.4-.5.9-.2.4c-.2.4-.4.8-.7 1.2l-.2.4-.2.3-.2.3-.6 1.1-.4.6c-.2.4-.5.8-.8 1.2l-1.1 1.5c-.1.2-.3.4-.5.6-.5.7-1.1 1.4-1.7 2-.6.7-1.3 1.4-2 2.1-.1.1-.2.2-.3.4l-.6.6c-1.3 1.2-2.8 2.3-4.3 3.3-1.1.7-2.2 1.3-3.4 1.9-.5.3-1.1.5-1.7.8l-.3.1c-2.3.9-4.9 1.6-7.8 1.9l-.7.1c-1.6.2-3.2.3-4.9.3-1.6 0-3.1-.1-4.5-.2l-1.3-.2c-3.3-.4-6.3-1.3-9-2.5-.9-.4-1.9-.9-2.7-1.4-1.6-1-3.1-2-4.5-3.3-.6-.6-1.2-1.1-1.8-1.8-.7-.7-1.4-1.5-2-2.3-1.5-1.9-2.7-4.1-3.6-6.4-.6-1.4-1.1-2.9-1.5-4.4-.5-1.8-.8-3.7-1-5.6h-15.9v-11h16l.1-.9c.2-1.5.5-3 .8-4.4.6-2.3 1.3-4.6 2.2-6.6.7-1.5 1.4-2.8 2.2-4.1 1.3-2 2.7-3.8 4.4-5.4.6-.6 1.3-1.2 2-1.8l2.1-1.6c2-1.4 4.1-2.5 6.5-3.4 1.2-.5 2.4-.9 3.7-1.3 2.3-.7 4.8-1.2 7.5-1.4 1.5-.2 3-.3 4.5-.3h2.1v23.4c-2.3 0-4.3.2-6.2.5h-.1c-3 .5-5.5 1.6-7.4 3l-.4.3-.4.3c-1.9 1.6-3 3.6-3.6 6.1 0 .2-.1.4-.1.5-.2.9-.2 1.8-.2 2.7 0 1.6.3 3 .8 4.2l.2.4c.5 1.1 1.3 2.1 2.2 2.9 1.9 1.6 4.3 2.5 7.4 2.7h1.4c3.5 0 6.3-.6 8.5-1.9l.3-.1c.4-.2.7-.4 1-.7.6-.4 1.1-.9 1.6-1.5.5-.5 1-1.1 1.5-1.8.1-.1.2-.3.3-.5.3-.5.6-.9.9-1.5.2-.4.4-.7.7-1.1.2-.3.4-.7.6-1.1.2-.3.4-.7.5-1.1.2-.3.4-.7.5-1.1l.1-.3 1.2-2.5c.1-.2.2-.4.2-.5.5-1 .9-1.9 1.4-2.8 0-.1.1-.2.1-.2.8-1.6 1.6-3.1 2.4-4.5.3-.5.6-1.1.9-1.7l.3-.4c.5-.9 1.1-1.8 1.6-2.6 1.5-2.3 3.1-4.3 4.9-6.1l.4-.4.3-.3c2.3-2.2 4.8-4 7.7-5.4.7-.4 1.4-.7 2.2-1 2.5-1 5.3-1.6 8.4-1.9l2.1-.2c1-.1 2-.1 3-.1 1.8 0 3.6.1 5.3.3 1.5.2 3 .5 4.4.9 2.5.7 4.9 1.6 7.1 2.9 1.3.7 2.6 1.6 3.7 2.6.5.4 1 .8 1.5 1.3 1.3 1.2 2.5 2.4 3.5 3.8 1.1 1.4 2 2.8 2.8 4.4 1.1 2 1.9 4.2 2.5 6.5.3 1.2.6 2.5.8 3.8.2.9.3 1.8.4 2.7h16.7v11.1h-17c-.2 1.5-.6 2.9-1 4.2-.4 1.5-1 2.9-1.6 4.3-1 2.3-2.4 4.4-3.9 6.4-.7.9-1.6 1.8-2.4 2.7-.9.9-1.9 1.7-2.9 2.5-1.2.9-2.4 1.7-3.7 2.4l-2.1 1.1c-2.6 1.2-5.5 2.2-8.5 2.8l-1.1.2c-2.4.2-5.5.5-8.7.5zM184.8 194.2z"/><path class="st0" d="M158.7 193.4h-.2l.5-.1c-.1.1-.2.1-.3.1z"/><path class="st4" d="M285 188l-3.7-4.2-6.8-5.9-6.5-5.9-8.2-7.2-5.9-5.2-7.7-6.8-5.4-4.8-6.1-5.4-5.3-4.6-6.4-5.6-5.3-4.7-6-5.3-5.5-4.9-8.6-7.6-6-5.3-11.2-9.9-5-4.4v-3.3c1.7 0 3.3 0 5 .1 4.9.2 9.8.7 14.6 1.4 2.3.3 4.6.8 6.8 1.3 5 1.1 9.9 2.5 14.6 4.1 2.2.8 4.4 1.6 6.5 2.5 4.2 1.8 8.3 3.8 12.2 6.1 2 1.2 4 2.4 5.9 3.6 4.2 2.8 8.2 5.8 11.9 9.1 1.8 1.6 3.5 3.2 5.1 4.8 3.4 3.4 6.5 7 9.3 10.8 1.4 1.9 2.7 3.8 4 5.8 2.7 4.2 5 8.7 7 13.3.9 2.1 1.7 4.3 2.4 6.5 1.3 4 2.4 8.1 3.1 12.3.4 2.3.7 4.6.9 6.9.2 2.6.4 5.2.4 7.9v.1c0 1.6-.1 3-.1 4.4zM69.3 183.8l-3.7 4.2c-.1-1.4-.1-2.8-.1-4.2 0-2.7.1-5.4.4-8 .2-2.3.5-4.6.9-6.9.8-4.8 2.1-9.4 3.7-13.9.8-2.2 1.7-4.4 2.6-6.5 2-4.4 4.3-8.7 6.9-12.7 1.3-1.9 2.6-3.8 4-5.7 3.1-4.1 6.6-8 10.4-11.6 1.7-1.6 3.4-3.2 5.2-4.7 3.7-3.1 7.5-5.9 11.6-8.5 1.9-1.2 4-2.4 6-3.5 4.6-2.6 9.5-4.8 14.6-6.7 2.2-.8 4.4-1.6 6.6-2.3 4.2-1.3 8.4-2.4 12.8-3.2 2.3-.4 4.6-.8 6.9-1.1 4.9-.7 9.9-1.1 15.1-1.1h2v3.3l-2 1.7-12 10.6-6 5.3-7.4 6.6-5.5 4.8-7.8 6.9-5.3 4.6-6.1 5.3-5.3 4.6-7 6.2-5.5 4.8-7.3 6.5-5.9 5.2-9.4 8.3-6.6 5.8-6.8 5.9zM188.1 187.6h-.1l.3-.2-.2.2z"/></g><g id="XMLID_6_"><path class="st4" d="M180.3 276v-11.8c4.7-.2 9.3-.6 13.9-1.3l2.4 11.5c-5.4.9-10.8 1.5-16.3 1.6zM173.3 264.3v11.7c-5.2-.1-10.5-.6-15.7-1.5l2.3-11c4.4.5 8.9.8 13.4.8zM150.8 273.2c-5-1.1-9.9-2.5-14.6-4.2l4-9.2c4.2 1.1 8.5 2.1 12.9 2.8l-2.3 10.6zM203.4 273.1l-2.4-11.4c4.2-.8 8.4-1.9 12.5-3.2l4.3 10.3c-4.6 1.8-9.4 3.2-14.4 4.3zM129.6 266.5c-4.9-2.1-9.7-4.5-14.2-7.2l4.6-6.8c4.3 2 8.8 3.7 13.3 5.3l-3.7 8.7zM224.3 266.3l-4.2-10c4.4-1.6 8.7-3.5 12.8-5.6l5.7 8.2c-4.6 2.8-9.3 5.2-14.3 7.4zM109.5 255.6c-4.4-3-8.5-6.2-12.4-9.8l4.1-4c4 2.8 8.2 5.3 12.5 7.6l-4.2 6.2zM244.5 255.2l-5.4-7.7c4.1-2.4 8.1-5 11.9-7.8l5.9 5.7c-3.9 3.5-8 6.8-12.4 9.8zM95.5 237.6l-3.5 3.4c-3.6-3.6-6.9-7.5-10-11.7l2.5-1.6c3.4 3.5 7.1 6.8 11 9.9zM261.9 240.5l-5.5-5.2c3.7-3.1 7.1-6.3 10.3-9.8l5.1 3.3c-2.9 4.1-6.3 8-9.9 11.7zM79.7 222.5l-1.6 1c-2.7-4.1-5.1-8.3-7.1-12.6 2.6 4.1 5.5 7.9 8.7 11.6zM275.9 223l-4.5-2.8c3-3.6 5.7-7.4 8.2-11.4l3.5 1.4c-2.1 4.4-4.5 8.7-7.2 12.8zM285.8 203.7l-2.7-1.1c2.3-4.4 4.4-8.9 6.1-13.6l1.1.2c-1.1 5-2.6 9.9-4.5 14.5zM184.8 164.9z"/><path class="st0" d="M158.7 164.1h-.2l.5-.1c-.1.1-.2.1-.3.1z"/><path class="st4" d="M66.5 167c-.3-2.3-.6-4.6-.7-7l-.1-1.4 3.7-4.2 6.3 5.6 7.9 7 10.9 9.6 6.6 5.8 6.1 5.3 5.9 5.2 5.4 4.7 5.4 4.8 4.3 3.8 5.3 4.6 4.3 3.8 5.3 4.6 5 4.4 5.5 4.8 5.5 4.8 6 5.3 8.3 7.3 2 1.7v3.3h-2c-3.6-.1-7.2-.3-10.8-.6-2.3-.2-4.6-.5-6.9-.9-3.5-.5-6.9-1.2-10.2-2.1-2.3-.6-4.5-1.2-6.8-1.9-3.8-1.2-7.4-2.5-11-4-2.2-.9-4.3-1.9-6.4-3-3.6-1.8-7.1-3.8-10.5-5.9-2-1.3-4-2.6-5.8-4-3.4-2.4-6.5-5.1-9.5-7.9-1.8-1.6-3.4-3.3-5-5.1-3.1-3.3-5.9-6.8-8.5-10.5-1.4-1.9-2.7-3.9-3.9-6-2.1-3.6-4-7.3-5.6-11.1-.9-2.2-1.8-4.4-2.5-6.6-1.6-4.5-2.8-9.3-3.5-14.2zM180.3 243.4l8.2-7.2 6-5.3 5.3-4.7 5.5-4.9 4.4-3.9 5.3-4.6 4.2-3.7 5.3-4.6 4-3.5 5.4-4.8 4.4-3.9 5.9-5.2 6.2-5.5 6.6-5.8 10-8.8 7.9-7 6.3-5.5 3.7 4.2c0 .4-.1.9-.1 1.4-.2 2.3-.4 4.7-.7 7-.7 4.6-1.7 9-3.1 13.4-.7 2.2-1.5 4.5-2.4 6.6-1.6 4-3.5 7.8-5.7 11.6-1.2 2.1-2.5 4.1-3.8 6-2.3 3.3-4.7 6.4-7.4 9.4-1.6 1.8-3.2 3.5-4.9 5.2-2.8 2.8-5.8 5.4-9 7.8-1.8 1.4-3.8 2.8-5.7 4.2-3.2 2.2-6.6 4.2-10.1 6.1-2.1 1.1-4.2 2.2-6.3 3.1-3.4 1.5-6.9 3-10.5 4.2-2.2.8-4.4 1.4-6.7 2.1-3.3.9-6.7 1.7-10.1 2.3-2.3.5-4.6.8-6.9 1.1-3.6.5-7.4.8-11.1.9-1.6.1-3.3.1-5 .1v-3.3l4.9-4.5z"/><path class="st0" d="M173.3 246l-8.3-7.3-6-5.3-5.5-4.8-5.5-4.8-5-4.4-5.3-4.6-4.3-3.8-5.3-4.6-4.3-3.8-5.4-4.8-5.4-4.7-5.9-5.2-6.1-5.3-6.6-5.8-10.8-9.8-7.9-7-6.3-5.6 6.9-6.1 6.6-5.8 9.4-8.3 5.9-5.2 7.3-6.5 5.5-4.8 7-6.2 5.3-4.6 6.1-5.3 5.3-4.6 7.8-6.9 5.5-4.8 7.4-6.6 6-5.3 12-10.6 2-1.7 5 4.4 11.2 9.9 6 5.3 8.6 7.6 5.5 4.9 6 5.3 5.3 4.7 6.4 5.6 5.3 4.6 6.1 5.4 5.4 4.8 7.7 6.7 5.9 5.2 8.2 7.2 6.6 5.8 6.8 5.9-6.4 5.6-7.9 7-10 8.8-6.6 5.8-6.2 5.5-5.9 5.2-4.4 3.9-5.4 4.8-4 3.5-5.3 4.6-4.2 3.7-5.3 4.6-4.4 3.9-5.5 4.9-5.3 4.7-6 5.3-8.2 7.2-5 4.4-2.1-1.8zm-14.6-81.9c-2.2 1.3-5.1 1.9-8.5 1.9h-1.4c-3.1-.2-5.6-1.1-7.4-2.7-1-.8-1.7-1.8-2.2-2.9-.1-.1-.1-.2-.2-.4-.5-1.2-.8-2.6-.8-4.2 0-.9.1-1.8.2-2.7 0-.2.1-.4.1-.5.5-2.4 1.7-4.5 3.6-6.1l.4-.3.4-.3c1.9-1.4 4.4-2.4 7.4-3h.1c1.9-.3 3.9-.5 6.2-.5v-23.4h-2.1c-1.6 0-3.1.2-4.5.3-2.6.3-5.1.8-7.5 1.4-1.3.4-2.5.8-3.7 1.3-2.3.9-4.5 2.1-6.5 3.4-.7.5-1.4 1-2.1 1.6-.7.6-1.4 1.2-2 1.8-1.7 1.6-3.2 3.4-4.4 5.4-.8 1.3-1.6 2.7-2.2 4.1-.9 2-1.7 4.3-2.2 6.6-.3 1.4-.6 2.9-.8 4.4l-.1.9h-16v11h15.9c.2 2 .6 3.8 1 5.6.4 1.6.9 3.1 1.5 4.4.9 2.3 2.2 4.5 3.6 6.4.6.8 1.3 1.6 2 2.4l1.8 1.8c1.4 1.2 2.9 2.3 4.5 3.3.9.5 1.8 1 2.7 1.4 2.7 1.2 5.7 2.1 9 2.5l1.3.2c1.5.1 3 .2 4.5.2 1.7 0 3.4-.1 4.9-.3.2 0 .5 0 .7-.1 2.9-.3 5.5-1 7.8-1.9l.3-.1c.6-.2 1.1-.5 1.7-.8 1.2-.6 2.3-1.2 3.4-1.9 1.5-1 2.9-2.1 4.3-3.3l.6-.6c.1-.1.2-.2.3-.4.7-.7 1.3-1.3 2-2.1.6-.6 1.1-1.3 1.7-2l.5-.6c.4-.5.8-1 1.1-1.5.3-.4.6-.8.8-1.2l.4-.6.6-1.1.2-.3.2-.3c.1-.1.2-.3.2-.4.2-.4.4-.8.7-1.2.1-.1.2-.3.2-.4l.5-.9c.1-.1.2-.3.2-.4.2-.2.3-.5.4-.8.1-.1.2-.3.2-.4l.5-.9v-.1l.6-1.1.8-1.5c.4-.7.8-1.5 1.1-2.2l.8-1.6s0-.1.1-.1l.1-.2c.4-.9.9-1.8 1.4-2.6 1.6-2.8 3.3-4.9 5-6.4 1.5-1.3 3.4-2.2 5.7-2.6 1.1-.2 2.3-.3 3.6-.3 2.3 0 4.3.3 6 .9l.7.3c.9.4 1.7.8 2.4 1.4 1.4 1.1 2.4 2.4 2.9 4.1v.1c.3.9.4 1.9.4 2.9 0 1.6-.3 3-1 4.2v.1c-.7 1.4-1.9 2.7-3.4 3.6-1.7 1.1-3.7 1.8-6.2 2.2-1.9.4-4 .5-6.4.5v23.5h.2c3.2 0 6.3-.3 9.2-.8l1.1-.2c3-.6 5.9-1.6 8.5-2.8.7-.3 1.4-.7 2.1-1.1 1.3-.7 2.5-1.5 3.7-2.4 1.1-.8 2-1.6 2.9-2.5.9-.9 1.7-1.7 2.4-2.7 1.6-1.9 2.9-4 3.9-6.4.6-1.3 1.2-2.8 1.6-4.3.4-1.4.7-2.8 1-4.2h17v-11.1h-16.7c-.1-.9-.2-1.8-.4-2.7-.2-1.3-.5-2.5-.8-3.8-.7-2.3-1.5-4.5-2.5-6.5-.8-1.6-1.8-3-2.8-4.4-1-1.4-2.2-2.6-3.5-3.8l-1.5-1.3c-1.2-1-2.4-1.8-3.7-2.6-2.2-1.2-4.5-2.2-7.1-2.9-1.4-.4-2.9-.7-4.4-.9-1.7-.2-3.5-.3-5.3-.3-1 0-2 0-3 .1-.7 0-1.4.1-2.1.2-3.2.3-6 1-8.4 1.9-.8.3-1.5.6-2.2 1-2.9 1.4-5.4 3.2-7.7 5.4l-.3.3-.4.4c-1.8 1.8-3.4 3.9-4.9 6.2-.6.8-1.1 1.7-1.6 2.6l-.3.4-.9 1.7-2.4 4.5c-.1.1-.1.2-.1.2-.5.9-.9 1.8-1.4 2.8-.1.2-.2.4-.2.5l-1.2 2.5-.1.3c-.2.4-.3.7-.5 1-.2.4-.3.8-.5 1.1l-.6 1.1c-.2.4-.4.8-.7 1.1-.3.5-.6 1-.9 1.4l-.3.5c-.5.7-1 1.2-1.5 1.8-.5.6-1.1 1.1-1.6 1.5-.3.2-.6.5-1 .7l-.5.1-.2.5z"/><path class="st4" d="M208.6 189.2c-2.9.5-5.9.8-9.2.8h-.2v-23.5c2.4 0 4.5-.2 6.4-.5 2.5-.4 4.6-1.2 6.2-2.2 1.6-1 2.7-2.2 3.4-3.6v-.1c.6-1.2 1-2.7 1-4.2 0-1.1-.1-2-.4-2.9v-.1c-.5-1.6-1.5-3-2.9-4.1-.7-.5-1.5-1-2.4-1.4l-.7-.3c-1.7-.6-3.7-.9-6-.9-1.3 0-2.5.1-3.6.3-2.3.4-4.2 1.3-5.7 2.6-1.7 1.5-3.4 3.6-5 6.4-.5.8-.9 1.7-1.4 2.6l-.3.2h.1s0 .1-.1.1l-.8 1.6c-.4.8-.7 1.5-1.1 2.2l-.8 1.5-.6 1.1h-.1.1l-.5.9c0 .1-.1.3-.2.4l-.4.8-.2.4-.5.9-.2.4c-.2.4-.4.8-.7 1.2l-.2.4-.2.3-.2.3-.6 1.1-.4.6c-.2.4-.5.8-.8 1.2l-1.1 1.5c-.1.2-.3.4-.5.6-.5.7-1.1 1.4-1.7 2-.6.7-1.3 1.4-2 2.1-.1.1-.2.2-.3.4l-.6.6c-1.3 1.2-2.8 2.3-4.3 3.3-1.1.7-2.2 1.4-3.4 1.9-.5.3-1.1.5-1.7.8l-.3.1c-2.3.9-4.9 1.6-7.8 1.9l-.7.1c-1.6.2-3.2.3-4.9.3-1.6 0-3.1-.1-4.5-.2l-1.3-.2c-3.3-.4-6.3-1.3-9-2.5-.9-.4-1.9-.9-2.7-1.4-1.6-.9-3.1-2-4.5-3.3-.6-.6-1.2-1.1-1.8-1.8-.7-.7-1.4-1.5-2-2.4-1.5-1.9-2.7-4.1-3.6-6.4-.6-1.4-1.1-2.9-1.5-4.4-.5-1.8-.8-3.7-1-5.6h-15.9v-11h16l.1-.9c.2-1.5.5-3 .8-4.4.6-2.3 1.3-4.6 2.2-6.6.7-1.5 1.4-2.8 2.2-4.1 1.3-2 2.7-3.8 4.4-5.4.6-.6 1.3-1.2 2-1.8l2.1-1.6c2-1.4 4.1-2.5 6.5-3.4 1.2-.5 2.4-.9 3.7-1.3 2.3-.7 4.8-1.2 7.5-1.4 1.5-.2 3-.3 4.5-.3h2.1v23.4c-2.3 0-4.3.2-6.2.5h-.1c-3 .5-5.5 1.6-7.4 3l-.4.3-.4.3c-1.9 1.6-3 3.6-3.6 6.1l-.1.5c-.2.9-.2 1.8-.2 2.7 0 1.6.3 2.9.8 4.2l.2.4c.5 1.1 1.3 2.1 2.2 2.9 1.9 1.6 4.3 2.5 7.4 2.7h1.4c3.5 0 6.3-.6 8.5-1.9l.3-.1c.4-.2.7-.4 1-.7.6-.4 1.1-.9 1.6-1.5.5-.5 1-1.1 1.5-1.8.1-.1.2-.3.3-.5l.9-1.4c.2-.4.4-.7.7-1.1.2-.3.4-.7.6-1.1.2-.3.4-.7.5-1.1.2-.3.4-.7.5-1l.1-.3c.4-.9.8-1.7 1.2-2.5.1-.2.2-.3.2-.5.5-1 .9-1.9 1.4-2.8 0-.1.1-.2.1-.2.8-1.5 1.6-3.1 2.4-4.5l.9-1.7.3-.4c.5-.9 1.1-1.8 1.6-2.6 1.5-2.3 3.1-4.3 4.9-6.2l.4-.4.3-.3c2.3-2.2 4.8-4 7.7-5.4.7-.4 1.4-.7 2.2-1 2.5-1 5.3-1.6 8.4-1.9l2.1-.2c1-.1 2-.1 3-.1 1.8 0 3.6.1 5.3.3 1.5.2 3 .5 4.4.9 2.5.7 4.9 1.6 7.1 2.9 1.3.7 2.6 1.6 3.7 2.6.5.4 1 .8 1.5 1.3 1.3 1.2 2.5 2.4 3.5 3.8 1.1 1.4 2 2.8 2.8 4.4 1.1 2 1.9 4.2 2.5 6.5.3 1.2.6 2.5.8 3.8.2.9.3 1.8.4 2.7h16.7v11.1h-17c-.2 1.5-.6 2.9-1 4.2-.4 1.5-1 2.9-1.6 4.3-1 2.3-2.4 4.4-3.9 6.4-.7.9-1.6 1.8-2.4 2.7-.9.9-1.9 1.7-2.9 2.5-1.2.9-2.4 1.7-3.7 2.4l-2.1 1.1c-2.6 1.2-5.5 2.2-8.5 2.8.1-.3-.3-.2-.6-.2zM188.2 158.3h-.2l.3-.2c-.1.1-.1.1-.1.2z"/><path class="st0" d="M239.1 247.4l5.4 7.7c4.4-3 8.5-6.2 12.4-9.8l-5.9-5.7c-3.8 2.9-7.8 5.4-11.9 7.8zm-142-1.6c3.9 3.6 8.1 6.8 12.4 9.8l4.2-6.2c-4.3-2.3-8.5-4.9-12.5-7.6l-4.1 4zm127.2 20.5c4.9-2.1 9.7-4.6 14.3-7.3l-5.7-8.2c-4.1 2.1-8.4 3.9-12.8 5.6l4.2 9.9zm-108.9-7c4.6 2.7 9.3 5.1 14.2 7.2l3.7-8.7c-4.6-1.5-9-3.3-13.3-5.3l-4.6 6.8zm88 13.8c4.9-1.1 9.7-2.5 14.4-4.2l-4.3-10.3c-4.1 1.3-8.2 2.3-12.5 3.2l2.4 11.3zm-67.3-4.1c4.7 1.7 9.6 3.1 14.6 4.2l2.2-10.6c-4.4-.7-8.7-1.6-12.9-2.8l-3.9 9.2zm44.2 7c5.5-.2 10.9-.7 16.3-1.6l-2.4-11.5c-4.5.7-9.2 1.1-13.9 1.3v11.8zm-109.3-65c2.1 4.3 4.4 8.5 7.1 12.6l1.6-1c-3.2-3.8-6.1-7.6-8.7-11.6zm176.8 16c3.2-2.4 6.2-5.1 9-7.8 1.7-1.7 3.3-3.4 4.9-5.2 2.7-3 5.1-6.1 7.4-9.4 1.3-2 2.6-4 3.8-6 2.2-3.7 4.1-7.6 5.7-11.6.9-2.2 1.7-4.4 2.4-6.6 1.4-4.3 2.4-8.8 3.1-13.4.3-2.3.6-4.6.7-7l.1-1.4c.1-1.4.1-2.7.1-4.1v-.1c0-2.7-.1-5.3-.4-7.9-.2-2.4-.5-4.6-.9-6.9-.7-4.2-1.8-8.3-3.1-12.3-.7-2.2-1.5-4.4-2.4-6.5-2-4.6-4.3-9.1-7-13.3-1.2-2-2.6-3.9-4-5.8-2.8-3.8-5.9-7.4-9.3-10.8-1.6-1.7-3.3-3.2-5.1-4.8-3.7-3.3-7.7-6.3-11.9-9.1-1.9-1.3-3.9-2.5-5.9-3.6-3.9-2.2-8-4.3-12.2-6.1-2.1-.9-4.3-1.8-6.5-2.5-4.7-1.7-9.6-3.1-14.6-4.1-2.2-.5-4.5-.9-6.8-1.3-4.8-.8-9.6-1.2-14.6-1.4-1.6-.1-3.3-.1-5-.1h-2c-5.1.1-10.1.5-15.1 1.1-2.3.3-4.6.7-6.9 1.2-4.4.9-8.6 1.9-12.8 3.2-2.2.7-4.4 1.5-6.6 2.3-5.1 1.9-10 4.2-14.6 6.7-2 1.1-4.1 2.3-6 3.5-4.1 2.6-8 5.4-11.6 8.5-1.8 1.5-3.5 3.1-5.2 4.7-3.8 3.6-7.3 7.5-10.4 11.6-1.4 1.8-2.8 3.7-4 5.7-2.7 4.1-5 8.3-6.9 12.7-.9 2.1-1.8 4.3-2.6 6.5-1.6 4.5-2.8 9.1-3.7 13.9-.4 2.3-.7 4.6-.9 6.9-.3 2.6-.4 5.3-.4 8 0 1.4 0 2.8.1 4.2 0 .5 0 .9.1 1.4.2 2.3.4 4.7.7 7 .7 4.9 1.9 9.7 3.4 14.4.7 2.2 1.5 4.5 2.5 6.6 1.6 3.8 3.5 7.6 5.6 11.1 1.2 2 2.5 4 3.9 6 2.6 3.7 5.4 7.2 8.5 10.5 1.6 1.7 3.3 3.4 5 5.1 3 2.8 6.2 5.4 9.5 7.9 1.9 1.4 3.8 2.8 5.8 4 3.3 2.1 6.8 4.1 10.5 5.9 2.1 1.1 4.3 2 6.4 3 3.6 1.5 7.2 2.9 11 4 2.2.7 4.5 1.3 6.8 1.9 3.4.8 6.8 1.5 10.2 2.1 2.3.4 4.6.7 6.9.9 3.5.4 7.1.6 10.8.6h2c1.7 0 3.3 0 5-.1 3.8-.1 7.5-.5 11.1-.9 2.3-.3 4.6-.6 6.9-1.1 3.4-.6 6.8-1.4 10.1-2.3 2.3-.6 4.5-1.3 6.7-2.1 3.6-1.2 7.1-2.6 10.5-4.2 2.2-1 4.3-2 6.3-3.1 3.5-1.8 6.9-3.9 10.1-6.1 2.1-1.3 4-2.7 5.8-4.1zm23.7-6.8l4.5 2.8c2.7-4.1 5.1-8.4 7.2-12.9l-3.5-1.4c-2.5 4-5.3 7.8-8.2 11.5zm-15 15.1l5.5 5.2c3.6-3.7 7-7.6 10-11.8l-5.1-3.3c-3.3 3.5-6.7 6.8-10.4 9.9zm-164.5 5.6l3.5-3.4c-3.9-3.1-7.6-6.4-11-9.9l-2.5 1.6c3.2 4.2 6.5 8.1 10 11.7zm65.6 33.6c5.2.8 10.5 1.3 15.7 1.5v-11.6c-4.6 0-9-.3-13.4-.8l-2.3 10.9zm140.4-87.3c-13.2 64.3-78.4 106.2-145.2 93.5-33.2-6.3-61.6-24.9-79.9-52.3-13-19.4-19.7-41.6-19.7-64.2 0-4.6.3-9.2.9-13.9 2.4-52.1 44.9-94.8 100.3-103.2 7.3-1.3 14.8-2 22.4-2 7.9 0 16 .7 24 2.3 33.2 6.3 61.5 24.9 79.9 52.3 17.4 26 23.6 57.1 17.3 87.5zm-8.7 1.8c-1.7 4.7-3.7 9.2-6.1 13.6l2.7 1.1c1.9-4.6 3.4-9.5 4.6-14.5l-1.2-.2z"/><path class="st4" d="M283.8 139.6c.4 2.3.7 4.6.9 6.9.2 2.6.4 5.2.4 7.9v.1c0 1.4 0 2.8-.1 4.1l-3.7-4.2-6.8-5.9-6.6-5.8-8.2-7.2-5.9-5.2-7.7-6.7-5.4-4.8-6.1-5.4-5.3-4.6-6.4-5.6-5.3-4.7-6-5.3-5.5-4.9-8.6-7.6-6-5.3-11.2-9.9-5-4.4v-3.3c1.7 0 3.3 0 5 .1 4.9.2 9.8.7 14.6 1.4 2.3.3 4.6.8 6.8 1.3 5 1.1 9.9 2.5 14.6 4.1 2.2.8 4.4 1.6 6.5 2.5 4.2 1.8 8.3 3.8 12.2 6.1 2 1.1 4 2.4 5.9 3.6 4.2 2.8 8.2 5.8 11.9 9.1 1.8 1.6 3.5 3.1 5.1 4.8 3.4 3.4 6.5 7 9.3 10.8 1.4 1.9 2.7 3.8 4 5.8 2.7 4.2 5 8.7 7 13.3.9 2.1 1.7 4.3 2.4 6.5 1.4 4.2 2.4 8.3 3.2 12.4zM65.6 154.5c0-2.7.1-5.4.4-8 .2-2.3.5-4.6.9-6.9.8-4.8 2.1-9.4 3.7-13.9.8-2.2 1.7-4.4 2.6-6.5 2-4.4 4.3-8.7 6.9-12.7 1.3-1.9 2.6-3.8 4-5.7 3.1-4.1 6.6-8 10.4-11.6 1.7-1.6 3.4-3.2 5.2-4.7 3.7-3.1 7.5-5.9 11.6-8.5 1.9-1.2 4-2.4 6-3.5 4.6-2.6 9.5-4.8 14.6-6.7 2.2-.8 4.4-1.6 6.6-2.3 4.2-1.3 8.4-2.4 12.8-3.2 2.3-.5 4.6-.8 6.9-1.2 4.9-.7 9.9-1.1 15.1-1.1h2v3.3l-2 1.7-12 10.6-6 5.3-7.4 6.6-5.5 4.8-7.8 6.9-5.3 4.6-6.1 5.3-5.3 4.6-7 6.2-5.5 4.8-7.3 6.5-5.9 5.2-9.4 8.3-6.6 5.8-6.9 6.1-3.7 4.2v-4.3z"/></g><g id="XMLID_5_"><path class="st0" d="M298 156.6c-13.2 64.3-78.4 106.2-145.2 93.5-33.2-6.3-61.6-24.9-79.9-52.3-13-19.4-19.7-41.6-19.7-64.2 0-4.6.3-9.2.9-13.9 2.4-52.1 44.9-94.8 100.3-103.2 7.3-1.3 14.8-2 22.4-2 7.9 0 16 .7 24 2.3 33.2 6.3 61.5 24.9 79.9 52.3 17.4 26 23.6 57.1 17.3 87.5zm-117.7 77v11.8c5.5-.2 10.9-.7 16.3-1.6l-2.4-11.5c-4.6.7-9.2 1.1-13.9 1.3zm-7 11.7v-11.7c-4.6 0-9-.3-13.4-.8l-2.3 11c5.3.9 10.5 1.4 15.7 1.5zm-22.5-2.8l2.2-10.6c-4.4-.7-8.7-1.6-12.9-2.8l-4 9.2c4.8 1.7 9.7 3.1 14.7 4.2zm50.2-11.4l2.4 11.4c4.9-1.1 9.7-2.5 14.4-4.2l-4.3-10.3c-4.1 1.2-8.2 2.2-12.5 3.1zm-71.4 4.7l3.7-8.7c-4.6-1.5-9-3.3-13.3-5.3l-4.6 6.8c4.6 2.8 9.3 5.1 14.2 7.2zm90.5-10.2l4.2 10c4.9-2.1 9.7-4.6 14.3-7.3l-5.7-8.2c-4.1 2.1-8.4 3.9-12.8 5.5zm-110.6-.7l4.2-6.2c-4.3-2.3-8.5-4.9-12.5-7.6l-4.1 4c3.9 3.6 8 6.8 12.4 9.8zm129.6-8.1l5.4 7.7c4.4-3 8.5-6.2 12.4-9.8l-5.9-5.7c-3.8 2.8-7.8 5.4-11.9 7.8zm-65.8 3.6h2c1.7 0 3.3 0 5-.1 3.8-.1 7.5-.5 11.1-.9 2.3-.3 4.6-.6 6.9-1.1 3.4-.6 6.8-1.4 10.1-2.3 2.3-.6 4.5-1.3 6.7-2.1 3.6-1.2 7.1-2.6 10.5-4.2 2.2-1 4.3-2 6.3-3.1 3.5-1.8 6.9-3.9 10.1-6.1 2-1.3 3.9-2.7 5.7-4.2 3.2-2.4 6.2-5.1 9-7.8 1.7-1.7 3.3-3.4 4.9-5.2 2.7-3 5.1-6.1 7.4-9.4 1.3-2 2.6-4 3.8-6 2.2-3.7 4.1-7.6 5.7-11.6.9-2.2 1.7-4.4 2.4-6.6 1.4-4.3 2.4-8.8 3.1-13.4.3-2.3.6-4.6.7-7 0-.4.1-.9.1-1.4.1-1.4.1-2.7.1-4.1v-.1c0-2.7-.1-5.3-.4-7.9-.2-2.3-.5-4.6-.9-6.9-.7-4.2-1.8-8.3-3.1-12.3-.7-2.2-1.5-4.4-2.4-6.5-2-4.6-4.3-9.1-7-13.3-1.2-2-2.6-3.9-4-5.8-2.8-3.8-5.9-7.4-9.3-10.8-1.6-1.6-3.3-3.2-5.1-4.8-3.7-3.3-7.7-6.3-11.9-9.1-1.9-1.3-3.9-2.5-5.9-3.6-3.9-2.2-8-4.3-12.2-6-2.1-.9-4.3-1.8-6.5-2.5-4.7-1.7-9.6-3.1-14.6-4.1-2.2-.5-4.5-.9-6.8-1.3-4.8-.8-9.6-1.2-14.6-1.4-1.6-.1-3.3-.1-5-.1h-2c-5.1.1-10.1.5-15.1 1.1-2.3.3-4.6.7-6.9 1.1-4.4.9-8.6 1.9-12.8 3.2-2.2.7-4.4 1.5-6.6 2.3-5.1 1.9-10 4.2-14.6 6.7-2 1.1-4.1 2.3-6 3.5-4.1 2.6-8 5.4-11.6 8.5-1.8 1.5-3.5 3-5.2 4.7-3.8 3.6-7.3 7.5-10.4 11.6-1.4 1.8-2.8 3.7-4 5.7-2.7 4.1-5 8.3-6.9 12.7-.9 2.1-1.8 4.3-2.6 6.5-1.6 4.5-2.8 9.1-3.7 13.9-.4 2.3-.7 4.6-.9 6.9-.3 2.6-.4 5.3-.4 8 0 1.4 0 2.8.1 4.2 0 .5 0 .9.1 1.4.2 2.4.4 4.7.7 7 .7 4.9 1.9 9.7 3.4 14.4.7 2.2 1.5 4.5 2.5 6.6 1.6 3.8 3.5 7.6 5.6 11.1 1.2 2 2.5 4 3.9 6 2.6 3.7 5.4 7.2 8.5 10.5 1.6 1.7 3.3 3.4 5 5.1 3 2.8 6.2 5.4 9.5 7.9 1.9 1.4 3.8 2.8 5.8 4 3.3 2.1 6.8 4.1 10.5 5.9 2.1 1.1 4.3 2 6.4 3 3.6 1.5 7.2 2.9 11 4 2.2.7 4.5 1.3 6.8 1.9 3.4.8 6.8 1.5 10.2 2.1 2.3.4 4.6.7 6.9.9 3.7.4 7.3.6 10.9.7zm-81.3-10.1l3.5-3.4c-3.9-3.1-7.6-6.4-11-9.9l-2.5 1.6c3.2 4.1 6.5 8 10 11.7zm164.5-5.7l5.5 5.2c3.6-3.7 7-7.6 10-11.8l-5.1-3.3c-3.3 3.6-6.7 6.8-10.4 9.9zm-178.4-11.7l1.6-1c-3.2-3.7-6.1-7.5-8.7-11.5 2 4.2 4.4 8.4 7.1 12.5zm193.4-3.4l4.5 2.8c2.7-4.1 5.1-8.4 7.2-12.9l-3.5-1.4c-2.5 4.1-5.3 7.9-8.2 11.5zm11.7-17.5l2.7 1.1c1.9-4.6 3.4-9.5 4.6-14.5l-1.1-.2c-1.8 4.7-3.9 9.2-6.2 13.6z"/><path class="st4" d="M180.3 245.4v-11.8c4.7-.2 9.3-.6 13.9-1.3l2.4 11.5c-5.4.9-10.8 1.4-16.3 1.6zM173.3 233.7v11.7c-5.2-.1-10.5-.6-15.7-1.5l2.3-11c4.4.5 8.9.8 13.4.8zM153 231.9l-2.2 10.6c-5-1.1-9.9-2.5-14.6-4.2l4-9.2c4.1 1.2 8.4 2.1 12.8 2.8zM203.4 242.4l-2.4-11.4c4.2-.8 8.4-1.9 12.5-3.2l4.3 10.3c-4.6 1.8-9.4 3.2-14.4 4.3zM133.4 227.2l-3.7 8.7c-4.9-2.1-9.7-4.5-14.2-7.2l4.6-6.8c4.2 2 8.7 3.7 13.3 5.3zM224.3 235.6l-4.2-10c4.4-1.6 8.7-3.5 12.8-5.6l5.7 8.2c-4.6 2.8-9.3 5.3-14.3 7.4zM113.8 218.8l-4.2 6.2c-4.4-3-8.5-6.2-12.4-9.8l4.1-4c3.9 2.7 8.1 5.3 12.5 7.6zM244.5 224.5l-5.4-7.7c4.1-2.4 8.1-5 11.9-7.8l5.9 5.7c-3.9 3.6-8 6.8-12.4 9.8zM175.3 220.4v-3.3l5-4.4 8.2-7.2 6-5.3 5.3-4.7 5.5-4.9 4.4-3.9 5.3-4.6 4.2-3.7 5.3-4.6 4-3.5 5.4-4.8 4.4-3.9 5.9-5.2 6.2-5.5 6.6-5.8 10-8.8 7.9-7 6.3-5.5 3.7 4.2c0 .4-.1.9-.1 1.4-.2 2.4-.4 4.7-.7 7-.7 4.6-1.7 9-3.1 13.4-.7 2.2-1.5 4.5-2.4 6.6-1.6 4-3.5 7.8-5.7 11.6-1.2 2.1-2.5 4.1-3.8 6-2.3 3.3-4.7 6.4-7.4 9.4-1.6 1.8-3.2 3.5-4.9 5.2-2.8 2.8-5.8 5.4-9 7.8-1.8 1.4-3.8 2.8-5.7 4.2-3.2 2.2-6.6 4.2-10.1 6.1-2.1 1.1-4.2 2.2-6.3 3.1-3.4 1.5-6.9 3-10.5 4.2-2.2.8-4.4 1.4-6.7 2.1-3.3.9-6.7 1.7-10.1 2.3-2.3.5-4.6.8-6.9 1.1-3.6.5-7.4.8-11.1.9h-5.1zM175.3 217.1v3.3h-2c-3.6-.1-7.2-.3-10.8-.6-2.3-.2-4.6-.5-6.9-.9-3.5-.5-6.9-1.2-10.2-2.1-2.3-.6-4.5-1.2-6.8-1.9-3.8-1.2-7.4-2.5-11-4-2.2-.9-4.3-1.9-6.4-3-3.6-1.8-7.1-3.8-10.5-5.9-2-1.3-4-2.6-5.8-4-3.4-2.4-6.5-5.1-9.5-7.9-1.8-1.6-3.4-3.3-5-5.1-3.1-3.3-5.9-6.8-8.5-10.5-1.4-1.9-2.7-3.9-3.9-6-2.1-3.6-4-7.3-5.6-11.1-.9-2.2-1.8-4.4-2.5-6.6-1.5-4.6-2.7-9.4-3.4-14.4-.3-2.3-.6-4.6-.7-7l-.1-1.4 3.7-4.2 6.3 5.5 7.9 7 10.9 9.6 6.6 5.8 6.1 5.3 5.9 5.2 5.4 4.7 5.4 4.8 4.3 3.8 5.3 4.6 4.3 3.8 5.3 4.6 5 4.4 5.5 4.8 5.5 4.8 6 5.3 8.3 7.3 1.9 2z"/><path class="st0" d="M180.3 212.7l-5 4.4-2-1.7-8.3-7.4-6-5.3-5.5-4.8-5.5-4.8-5-4.4-5.3-4.6-4.3-3.8-5.3-4.6-4.3-3.8-5.4-4.8-5.4-4.7-5.9-5.2-6.1-5.3-6.6-5.8-10.9-9.6-7.9-7-6.3-5.5 6.9-6.1 6.6-5.8 9.4-8.3 5.9-5.2 7.3-6.5 5.5-4.8 7-6.2 5.3-4.6 6.1-5.3 5.3-4.6 7.8-6.9 5.5-4.8 7.4-6.6 6-5.3 12-10.6 2-1.7 5 4.4 11.2 9.9 6 5.3 8.6 7.6 5.5 4.9 6 5.3 5.3 4.7 6.4 5.6 5.3 4.6 6.1 5.4 5.4 4.8 7.7 6.8 5.9 5.2 8.2 7.2 6.6 5.8 6.8 5.9-6.3 5.5-7.9 7-10 8.8-6.6 5.8-6.2 5.5-5.9 5.2-4.4 3.9-5.4 4.8-4 3.5-5.3 4.6-4.2 3.7-5.3 4.6-4.4 3.9-5.5 4.9-5.3 4.7-6 5.3-8.3 6.9zm18.9-53.3h.2c3.2 0 6.3-.3 9.2-.8l1.1-.2c3-.6 5.9-1.6 8.5-2.8.7-.3 1.4-.7 2.1-1.1 1.3-.7 2.5-1.5 3.7-2.4 1.1-.8 2-1.6 2.9-2.5.9-.9 1.7-1.7 2.4-2.7 1.6-1.9 2.9-4 3.9-6.4.6-1.3 1.2-2.8 1.6-4.3.4-1.4.7-2.8 1-4.2h17v-11h-16.7c-.1-.9-.2-1.8-.4-2.7-.2-1.3-.5-2.5-.8-3.8-.7-2.3-1.5-4.5-2.5-6.5-.8-1.6-1.8-3-2.8-4.4-1-1.4-2.2-2.6-3.5-3.8l-1.5-1.3c-1.2-1-2.4-1.8-3.7-2.6-2.2-1.2-4.5-2.2-7.1-2.9-1.4-.4-2.9-.7-4.4-.9-1.7-.2-3.5-.3-5.3-.3-1 0-2 0-3 .1-.7 0-1.4.1-2.1.2-3.2.3-6 1-8.4 1.9-.8.3-1.5.6-2.2 1-2.9 1.4-5.4 3.2-7.7 5.4l-.3.3-.4.4c-1.8 1.8-3.4 3.9-4.9 6.1-.6.8-1.1 1.7-1.6 2.6l-.3.4-.9 1.7-2.4 4.5c-.1.1-.1.2-.1.2-.5.9-.9 1.8-1.4 2.8-.1.2-.2.3-.2.5l-1.2 2.5-.1.3-.5 1.1c-.2.4-.3.8-.5 1.1l-.6 1.1c-.2.4-.4.8-.7 1.1l-.9 1.5-.3.5c-.5.7-1 1.2-1.5 1.8-.5.6-1.1 1.1-1.6 1.5-.3.2-.6.5-1 .7l-.5.1h.2c-2.2 1.3-5.1 1.9-8.5 1.9h-1.4c-3.1-.2-5.6-1.1-7.4-2.7-1-.8-1.7-1.8-2.2-2.9-.1-.1-.1-.2-.2-.4-.5-1.2-.8-2.6-.8-4.2 0-.9.1-1.8.2-2.7 0-.2.1-.4.1-.5.5-2.5 1.7-4.5 3.6-6.1l.4-.3.4-.3c1.9-1.4 4.4-2.5 7.4-3h.1c1.9-.3 3.9-.5 6.2-.5v-23.2h-2.1c-1.6 0-3.1.2-4.5.3-2.6.3-5.1.8-7.5 1.4-1.3.4-2.5.8-3.7 1.3-2.3.9-4.5 2.1-6.5 3.4l-2.1 1.5c-.7.6-1.4 1.2-2 1.8-1.7 1.6-3.2 3.4-4.4 5.4-.8 1.3-1.6 2.7-2.2 4.1-.9 2.1-1.7 4.3-2.2 6.6-.3 1.4-.6 2.8-.8 4.4l-.1.9h-16v11h15.9c.2 2 .6 3.8 1 5.6.4 1.6.9 3.1 1.5 4.4.9 2.3 2.2 4.5 3.6 6.4.6.8 1.3 1.6 2 2.4l1.8 1.8c1.4 1.2 2.9 2.3 4.5 3.3.9.5 1.8 1 2.7 1.4 2.7 1.2 5.7 2.1 9 2.5l1.3.2c1.5.1 3 .2 4.5.2 1.7 0 3.4-.1 4.9-.3.2 0 .5 0 .7-.1 2.9-.3 5.5-1 7.8-1.9l.3-.1c.6-.2 1.1-.5 1.7-.8 1.2-.6 2.3-1.2 3.4-1.9 1.5-1 2.9-2.1 4.3-3.3l.6-.6c.1-.1.2-.2.3-.4.7-.7 1.3-1.3 2-2.1.6-.6 1.1-1.3 1.7-2l.5-.6c.4-.5.8-1 1.1-1.5.3-.4.6-.8.8-1.2l.4-.6.6-1.1.2-.3.2-.3c.1-.1.2-.3.2-.4.2-.4.4-.8.7-1.2.1-.1.2-.3.2-.4l.5-.9c.1-.1.2-.3.2-.4.2-.2.3-.5.4-.8.1-.1.2-.3.2-.4l.5-.9v-.1l.6-1.1.8-1.5c.4-.7.8-1.5 1.1-2.2l.8-1.6s0-.1.1-.1l.1-.2c.4-.9.9-1.8 1.4-2.6 1.6-2.8 3.3-4.9 5-6.4 1.5-1.3 3.4-2.2 5.7-2.6 1.1-.2 2.3-.3 3.6-.3 2.3 0 4.3.3 6 .9l.7.3c.9.4 1.7.8 2.4 1.4 1.4 1.1 2.4 2.4 2.9 4.1v.2c.3.9.4 1.9.4 2.9 0 1.6-.3 3-1 4.2v.1c-.7 1.4-1.9 2.7-3.4 3.6-1.7 1.1-3.7 1.8-6.2 2.2-1.9.4-4 .5-6.4.5v23.6z"/><path class="st4" d="M95.5 206.9l-3.5 3.4c-3.6-3.6-6.9-7.5-10-11.7l2.5-1.6c3.4 3.5 7.1 6.8 11 9.9zM261.9 209.9l-5.5-5.2c3.7-3.1 7.1-6.3 10.3-9.8l5.1 3.3c-2.9 4.1-6.3 8-9.9 11.7zM79.7 191.8l-1.6 1c-2.7-4.1-5.1-8.3-7.1-12.6 2.6 4.1 5.5 8 8.7 11.6zM275.9 192.4l-4.5-2.8c3-3.6 5.7-7.4 8.2-11.4l3.5 1.4c-2.1 4.4-4.5 8.7-7.2 12.8zM285.8 173.1l-2.7-1.1c2.3-4.4 4.4-8.9 6.1-13.6l1.1.2c-1.1 5-2.6 9.8-4.5 14.5zM199.4 159.4h-.2v-23.5c2.4 0 4.5-.2 6.4-.5 2.5-.4 4.6-1.2 6.2-2.2 1.6-1 2.7-2.2 3.4-3.6v-.1c.6-1.2 1-2.6 1-4.2 0-1-.1-2-.4-2.9v-.2c-.5-1.6-1.5-3-2.9-4.1-.7-.5-1.5-1-2.4-1.4l-.7-.3c-1.7-.6-3.7-.9-6-.9-1.3 0-2.5.1-3.6.3-2.3.4-4.2 1.3-5.7 2.6-1.7 1.5-3.4 3.6-5 6.4-.5.8-.9 1.7-1.4 2.6l-.3.2h.1s0 .1-.1.1l-.8 1.6c-.4.8-.7 1.5-1.1 2.2l-.8 1.5-.6 1.1h-.1.1l-.5.9c0 .1-.1.3-.2.4l-.4.8-.2.4-.5.9-.2.4c-.2.4-.4.8-.7 1.2l-.2.4-.2.3-.2.3-.6 1.1-.4.6c-.2.4-.5.8-.8 1.2l-1.1 1.5c-.1.2-.3.4-.5.6-.5.7-1.1 1.4-1.7 2-.6.7-1.3 1.4-2 2.1-.1.1-.2.2-.3.4l-.6.6c-1.3 1.2-2.8 2.3-4.3 3.3-1.1.7-2.2 1.3-3.4 1.9-.5.3-1.1.5-1.7.8l-.3.1c-2.3.9-4.9 1.6-7.8 1.9l-.7.1c-1.6.2-3.2.3-4.9.3-1.6 0-3.1-.1-4.5-.2l-1.3-.2c-3.3-.4-6.3-1.3-9-2.5-.9-.4-1.9-.9-2.7-1.4-1.6-.9-3.1-2-4.5-3.3-.6-.6-1.2-1.1-1.8-1.8-.7-.7-1.4-1.5-2-2.4-1.5-1.9-2.7-4.1-3.6-6.4-.6-1.4-1.1-2.9-1.5-4.4-.5-1.8-.8-3.7-1-5.6h-15.9v-11h16l.1-.9c.2-1.5.5-3 .8-4.4.6-2.3 1.3-4.5 2.2-6.6.7-1.5 1.4-2.8 2.2-4.1 1.3-2 2.7-3.8 4.4-5.4.6-.6 1.3-1.2 2-1.8l2.1-1.5c2-1.4 4.1-2.5 6.5-3.4 1.2-.5 2.4-.9 3.7-1.3 2.3-.7 4.8-1.2 7.5-1.4 1.5-.2 3-.3 4.5-.3h2.1v23.4c-2.3 0-4.3.2-6.2.5h-.1c-3 .5-5.5 1.6-7.4 3l-.4.3-.4.3c-1.9 1.6-3 3.6-3.6 6.1l-.1.5c-.2.9-.2 1.8-.2 2.7 0 1.6.3 3 .8 4.2l.2.4c.5 1.1 1.3 2.1 2.2 2.9 1.9 1.6 4.3 2.5 7.4 2.7h1.4c3.5 0 6.3-.6 8.5-1.9l.3-.1c.4-.2.7-.4 1-.7.6-.4 1.1-.9 1.6-1.5.5-.5 1-1.1 1.5-1.8.1-.1.2-.3.3-.5.3-.5.6-.9.9-1.5.2-.4.4-.7.7-1.1.2-.3.4-.7.6-1.1.2-.3.4-.7.5-1.1.2-.3.4-.7.5-1.1l.1-.3 1.2-2.5c.1-.2.2-.4.2-.5.5-1 .9-1.9 1.4-2.8 0-.1.1-.2.1-.2.8-1.6 1.6-3.1 2.4-4.5.3-.5.6-1.1.9-1.7l.3-.4c.5-.9 1.1-1.8 1.6-2.6 1.5-2.3 3.1-4.3 4.9-6.1l.4-.4.3-.3c2.3-2.2 4.8-4 7.7-5.4.7-.4 1.4-.7 2.2-1 2.5-1 5.3-1.6 8.4-1.9l2.1-.2c1-.1 2-.1 3-.1 1.8 0 3.6.1 5.3.3 1.5.2 3 .5 4.4.9 2.5.7 4.9 1.6 7.1 2.9 1.3.7 2.6 1.6 3.7 2.6.5.4 1 .8 1.5 1.3 1.3 1.2 2.5 2.5 3.5 3.8 1.1 1.4 2 2.8 2.8 4.4 1.1 2 1.9 4.2 2.5 6.5.3 1.2.6 2.5.8 3.8.2.9.3 1.8.4 2.7h16.7v11.1h-17c-.2 1.5-.6 2.9-1 4.2-.4 1.5-1 2.9-1.6 4.3-1 2.3-2.4 4.4-3.9 6.4-.7.9-1.6 1.8-2.4 2.7-.9.9-1.9 1.7-2.9 2.5-1.2.9-2.4 1.7-3.7 2.4l-2.1 1.1c-2.6 1.2-5.5 2.2-8.5 2.8l-1.1.2c-2.4.2-5.5.5-8.7.5zM184.8 134.3z"/><path class="st0" d="M158.7 133.5h-.2l.5-.1-.3.1z"/><path class="st4" d="M285 128l-3.7-4.2-6.8-5.9-6.6-5.8-8.2-7.2-5.9-5.2-7.7-6.8-5.4-4.8-6.1-5.4-5.3-4.6-6.4-5.6-5.3-4.7-6-5.3-5.5-4.9-8.6-7.6-6-5.3-11.2-9.7-5-4.4v-3.3c1.7 0 3.3 0 5 .1 4.9.2 9.8.7 14.6 1.4 2.3.4 4.6.8 6.8 1.3 5 1.1 9.9 2.5 14.6 4.1 2.2.8 4.4 1.6 6.5 2.5 4.2 1.8 8.3 3.8 12.2 6 2 1.2 4 2.4 5.9 3.6 4.2 2.8 8.2 5.8 11.9 9.1 1.8 1.6 3.5 3.2 5.1 4.8 3.4 3.4 6.5 7 9.3 10.8 1.4 1.9 2.7 3.8 4 5.8 2.7 4.2 5 8.7 7 13.3.9 2.1 1.7 4.3 2.4 6.5 1.3 4 2.4 8.1 3.1 12.3.4 2.3.7 4.6.9 6.9.2 2.6.4 5.2.4 7.9v.1c.1 1.5 0 2.9 0 4.2zM69.3 123.8l-3.7 4.2c-.1-1.4-.1-2.8-.1-4.2 0-2.7.1-5.4.4-8 .2-2.3.5-4.6.9-6.9.8-4.8 2.1-9.4 3.7-13.9.8-2.2 1.7-4.4 2.6-6.5 2-4.4 4.3-8.7 6.9-12.7 1.3-1.9 2.6-3.8 4-5.7 3.1-4.1 6.6-8 10.4-11.6 1.7-1.6 3.4-3.2 5.2-4.7 3.7-3.1 7.5-5.9 11.6-8.5 1.9-1.2 4-2.4 6-3.5 4.6-2.6 9.5-4.8 14.6-6.7 2.2-.8 4.4-1.6 6.6-2.3 4.2-1.3 8.4-2.4 12.8-3.2 2.3-.5 4.6-.8 6.9-1.1 4.9-.7 9.9-1.1 15.1-1.1h2v3.3l-2 1.7-12 10.6-6 5.3-7.4 6.6-5.5 4.8-7.8 6.9-5.3 4.6-6.1 5.3-5.3 4.6-7 6.2-5.5 4.8-7.3 6.5-5.9 5.2-9.4 8.3-6.6 5.8-6.8 5.9zM188.1 127.7h-.1l.3-.2c-.1 0-.1.1-.2.2z"/></g><g id="XMLID_7_"><path class="st0" d="M391.6 155.5c64.3 13.2 106.2 78.4 93.5 145.2-6.3 33.2-24.9 61.6-52.3 79.9-19.4 13-41.6 19.7-64.2 19.7-4.6 0-9.2-.3-13.9-.9-52.1-2.4-94.8-44.9-103.2-100.3-1.3-7.3-2-14.8-2-22.4 0-7.9.7-16 2.3-24 6.3-33.2 24.9-61.5 52.3-79.9 26-17.4 57.1-23.5 87.5-17.3zm77 117.7h11.8c-.2-5.5-.7-10.9-1.6-16.3l-11.5 2.4c.7 4.6 1.1 9.2 1.3 13.9zm11.8 7h-11.6c0 4.6-.3 9-.8 13.5l11 2.3c.7-5.3 1.2-10.6 1.4-15.8zm-2.8 22.6l-10.6-2.2c-.7 4.4-1.6 8.7-2.8 12.9l9.2 4c1.7-4.8 3.1-9.7 4.2-14.7zm-11.5-50.3l11.4-2.4c-1.1-4.9-2.5-9.7-4.2-14.4l-10.3 4.3c1.2 4.1 2.2 8.3 3.1 12.5zm4.8 71.4l-8.7-3.7c-1.5 4.6-3.3 9-5.3 13.3l6.8 4.6c2.7-4.5 5.1-9.3 7.2-14.2zm-10.2-90.5l10-4.2c-2.1-4.9-4.6-9.7-7.3-14.3l-8.2 5.7c2 4.2 3.9 8.4 5.5 12.8zm-.8 110.6l-6.2-4.2c-2.3 4.4-4.9 8.6-7.6 12.5l4 4.1c3.6-3.8 6.9-8 9.8-12.4zm-8.1-129.6l7.7-5.4c-3-4.4-6.2-8.5-9.8-12.4l-5.7 5.9c2.8 3.8 5.4 7.8 7.8 11.9zm3.6 65.8v-2c0-1.7 0-3.3-.1-5-.1-3.8-.5-7.5-.9-11.1-.3-2.3-.6-4.6-1.1-6.9-.6-3.4-1.4-6.8-2.3-10.1-.6-2.3-1.3-4.5-2.1-6.7-1.2-3.6-2.6-7.1-4.2-10.5-1-2.2-2-4.3-3.1-6.3-1.8-3.5-3.9-6.9-6.1-10.1-1.3-2-2.7-3.9-4.2-5.7-2.4-3.2-5.1-6.2-7.8-9-1.7-1.7-3.4-3.3-5.2-4.9-3-2.7-6.1-5.1-9.4-7.4-2-1.3-4-2.6-6-3.8-3.7-2.2-7.6-4.1-11.6-5.7-2.2-.9-4.4-1.7-6.6-2.4-4.3-1.4-8.8-2.4-13.4-3.1-2.3-.3-4.6-.6-7-.7l-1.4-.1c-1.4-.1-2.7-.1-4.1-.1h-.1c-2.7 0-5.3.1-7.9.4-2.4.2-4.6.5-6.9.9-4.2.7-8.3 1.8-12.3 3.1-2.2.7-4.4 1.5-6.5 2.5-4.6 1.9-9.1 4.3-13.3 7-2 1.2-3.9 2.6-5.8 4-3.8 2.8-7.4 5.9-10.8 9.3-1.6 1.6-3.2 3.3-4.8 5.1-3.3 3.7-6.3 7.7-9.1 11.9-1.3 1.9-2.5 3.9-3.6 5.9-2.2 3.9-4.3 8-6 12.2-.9 2.1-1.8 4.3-2.5 6.5-1.7 4.7-3.1 9.6-4.1 14.6-.5 2.2-.9 4.5-1.3 6.9-.8 4.8-1.2 9.6-1.4 14.5-.1 1.6-.1 3.3-.1 5v2c.1 5.1.5 10.1 1.1 15.1.3 2.3.7 4.6 1.1 6.9.9 4.4 1.9 8.6 3.2 12.8.7 2.2 1.5 4.4 2.3 6.6 1.9 5.1 4.2 10 6.7 14.6 1.1 2 2.3 4.1 3.5 6 2.6 4.1 5.4 8 8.5 11.6 1.5 1.8 3.1 3.5 4.7 5.2 3.6 3.8 7.5 7.3 11.6 10.4 1.9 1.4 3.7 2.8 5.7 4 4.1 2.6 8.3 5 12.7 7 2.1.9 4.3 1.8 6.5 2.6 4.5 1.6 9.1 2.8 13.9 3.7 2.3.4 4.6.7 6.9.9 2.6.3 5.3.4 8 .4 1.4 0 2.8 0 4.2-.1l1.4-.1c2.3-.2 4.7-.4 7-.7 4.9-.7 9.7-1.9 14.4-3.4 2.2-.7 4.5-1.6 6.6-2.5 3.8-1.6 7.6-3.5 11.1-5.6 2-1.2 4-2.5 6-3.9 3.7-2.6 7.2-5.4 10.5-8.5 1.7-1.6 3.4-3.3 5.1-5 2.8-3 5.4-6.2 7.9-9.5 1.4-1.9 2.8-3.8 4-5.9 2.1-3.3 4.1-6.8 5.9-10.5 1.1-2.1 2-4.3 3-6.4 1.5-3.6 2.9-7.2 4-11 .7-2.2 1.3-4.5 1.9-6.8.8-3.4 1.5-6.8 2.1-10.2.4-2.3.7-4.6.9-6.9.5-3.8.7-7.4.7-11zm-10.1 81.3l-3.4-3.5c-3.1 3.9-6.4 7.6-9.9 11l1.6 2.5c4.2-3.1 8.1-6.4 11.7-10zm-5.7-164.5l5.2-5.4c-3.7-3.6-7.6-7-11.8-10l-3.3 5.1c3.6 3.2 6.9 6.7 9.9 10.3zm-11.7 178.4l-1-1.6c-3.7 3.2-7.5 6.1-11.5 8.7 4.2-2 8.4-4.4 12.5-7.1zm-3.4-193.3l2.9-4.5c-4.1-2.7-8.4-5.1-12.9-7.2l-1.4 3.5c4 2.5 7.8 5.2 11.4 8.2zm-17.5-11.7l1.1-2.7c-4.6-1.9-9.5-3.4-14.5-4.6l-.2 1.2c4.7 1.7 9.2 3.7 13.6 6.1z"/><path class="st4" d="M480.4 273.2h-11.8c-.2-4.7-.6-9.3-1.3-13.9l11.5-2.4c.9 5.4 1.4 10.8 1.6 16.3zM468.7 280.2h11.6c-.1 5.2-.6 10.5-1.5 15.7l-11-2.3c.6-4.4.9-8.8.9-13.4zM467 300.6l10.6 2.2c-1.1 5-2.5 9.9-4.2 14.6l-9.2-4c1.1-4.1 2.1-8.4 2.8-12.8zM477.4 250.1l-11.4 2.4c-.8-4.2-1.9-8.4-3.2-12.5l10.3-4.3c1.8 4.7 3.2 9.5 4.3 14.4zM462.2 320.2l8.7 3.7c-2.1 4.9-4.5 9.7-7.2 14.2l-6.8-4.6c2-4.3 3.8-8.8 5.3-13.3zM470.6 229.2l-10 4.2c-1.6-4.4-3.5-8.7-5.5-12.8l8.2-5.7c2.8 4.6 5.2 9.4 7.3 14.3zM453.8 339.8l6.2 4.2c-3 4.4-6.2 8.5-9.8 12.4l-4-4.1c2.7-4 5.3-8.2 7.6-12.5zM459.5 209l-7.7 5.4c-2.4-4.1-5-8.1-7.8-11.9l5.7-5.9c3.6 3.9 6.8 8.1 9.8 12.4zM455.4 278.2h-3.3l-4.4-5-7.2-8.2-5.3-6-4.7-5.3-4.9-5.5-3.9-4.4-4.6-5.3-3.7-4.2-4.6-5.3-3.5-4-4.8-5.4-3.9-4.4-5.2-5.9-5.5-6.2-5.8-6.6-8.8-10-7-7.9-5.5-6.3 4.2-3.7c.5 0 .9 0 1.4.1 2.3.2 4.7.4 7 .7 4.6.7 9 1.7 13.4 3.1 2.2.7 4.5 1.5 6.6 2.4 4 1.6 7.8 3.5 11.6 5.7 2 1.2 4.1 2.5 6 3.8 3.3 2.3 6.4 4.7 9.4 7.4 1.8 1.6 3.5 3.2 5.2 4.9 2.8 2.8 5.4 5.8 7.8 9 1.5 1.8 2.8 3.8 4.2 5.7 2.2 3.2 4.2 6.6 6.1 10.1 1.1 2.1 2.2 4.2 3.1 6.3 1.5 3.4 3 6.9 4.2 10.5.8 2.2 1.4 4.4 2.1 6.7.9 3.3 1.7 6.7 2.3 10.1.5 2.3.8 4.6 1.1 6.9.5 3.6.8 7.4.9 11.1v5.1zM452.1 278.2h3.3v2c-.1 3.6-.3 7.2-.6 10.8-.2 2.3-.5 4.6-.9 6.9-.5 3.5-1.2 6.9-2.1 10.2-.6 2.3-1.2 4.5-1.9 6.8-1.2 3.8-2.5 7.4-4 11-.9 2.2-1.9 4.3-3 6.4-1.8 3.6-3.8 7.1-5.9 10.5-1.3 2-2.6 4-4 5.9-2.5 3.4-5.1 6.5-7.9 9.5-1.6 1.8-3.3 3.4-5.1 5-3.3 3.1-6.8 6-10.5 8.5-1.9 1.4-3.9 2.7-6 3.9-3.6 2.1-7.3 4-11.1 5.6-2.2.9-4.4 1.8-6.6 2.5-4.6 1.5-9.5 2.7-14.4 3.4-2.3.3-4.6.6-7 .7l-1.4.1-4.2-3.7 5.6-6.3 7-7.9 9.6-10.9 5.8-6.6 5.3-6.1 5.2-5.9 4.7-5.3 4.8-5.4 3.8-4.3 4.6-5.3 3.8-4.3 4.6-5.3 4.4-5 4.8-5.5 4.8-5.5 5.3-6 7.3-8.3 1.9-2.1z"/><path class="st0" d="M447.7 273.2l4.4 5-1.7 2-7.3 8.3-5.3 6-4.8 5.5-4.8 5.5-4.4 5-4.6 5.3-3.8 4.3-4.6 5.3-3.8 4.3-4.8 5.4-4.7 5.3-5.2 5.9-5.3 6.1-5.8 6.6-9.6 10.9-7 7.9-5.6 6.3-6.1-6.9-5.8-6.6-8.3-9.4-5.2-5.9-6.6-7.3-4.8-5.5-6.2-7-4.6-5.3-5.3-6-4.6-5.3-6.9-7.8-4.9-5.5-6.6-7.4-5.3-6-10.6-12-1.7-2 4.4-5 9.9-11.2 5.3-6 7.6-8.6 4.9-5.5 5.3-6 4.7-5.3 5.6-6.4 4.6-5.3 5.4-6.1 4.8-5.4 6.8-7.7 5.2-5.9 7.2-8.2 5.8-6.6 5.9-6.8 5.5 6.3 7 7.9 8.8 10 5.8 6.6 5.5 6.2 5.2 5.9 3.9 4.4 4.8 5.4 3.5 4 4.6 5.3 3.7 4.2 4.6 5.3 3.9 4.4 4.9 5.5 4.7 5.3 5.3 6 7.1 8.3zm-53.3-18.8v-.2c0-3.2-.3-6.3-.8-9.2 0-.4-.1-.7-.2-1.1-.6-3-1.6-5.9-2.8-8.5-.3-.7-.7-1.4-1.1-2.1-.7-1.3-1.5-2.5-2.4-3.7-.8-1.1-1.6-2-2.5-2.9-.9-.9-1.7-1.7-2.7-2.4-1.9-1.6-4-2.9-6.3-3.9-1.4-.6-2.8-1.2-4.3-1.6-1.4-.4-2.8-.7-4.2-1v-17h-11.1v16.7c-.9.1-1.8.2-2.7.4-1.3.2-2.5.5-3.8.8-2.3.7-4.5 1.5-6.5 2.5-1.6.8-3 1.8-4.4 2.8-1.4 1-2.6 2.2-3.8 3.5-.5.5-.9 1-1.3 1.5-1 1.2-1.8 2.4-2.6 3.7-1.2 2.2-2.2 4.5-2.9 7.1-.4 1.4-.7 2.9-.9 4.4-.2 1.7-.3 3.5-.3 5.3 0 1 0 2 .1 3 0 .7.1 1.4.2 2.1.3 3.2 1 6 2 8.4.3.8.6 1.5 1 2.2 1.4 2.9 3.2 5.4 5.4 7.7l.3.3.4.4c1.8 1.8 3.9 3.4 6.1 4.9.8.6 1.7 1.1 2.6 1.6l.4.3 1.7.9 4.5 2.4c.1.1.2.1.2.1.9.5 1.8.9 2.8 1.4.2.1.4.2.5.2l2.5 1.2.3.1c.4.2.7.3 1 .5.4.2.8.4 1.1.5l1.1.6c.4.2.8.4 1.1.7.5.3 1 .6 1.4.9l.5.3c.7.5 1.2 1 1.8 1.5.6.5 1.1 1.1 1.5 1.6.2.3.5.6.7 1l.1.5v-.2c1.3 2.2 1.9 5.1 1.9 8.5v1.4c-.2 3.1-1.1 5.6-2.7 7.4-.8 1-1.8 1.7-2.9 2.2-.1.1-.2.1-.4.2-1.2.5-2.6.8-4.2.8-.9 0-1.8-.1-2.7-.2-.2 0-.4-.1-.5-.1-2.5-.5-4.5-1.7-6.1-3.6l-.3-.4-.3-.4c-1.4-1.9-2.5-4.4-3-7.4v-.1c-.3-1.9-.5-3.9-.5-6.2h-23.4v2.1c0 1.5.2 3.1.3 4.5.3 2.6.8 5.1 1.5 7.5.4 1.3.8 2.5 1.3 3.7.9 2.3 2.1 4.5 3.4 6.5l1.5 2.1c.6.7 1.2 1.4 1.8 2 1.6 1.7 3.4 3.2 5.4 4.4 1.3.8 2.7 1.6 4.1 2.2 2.1.9 4.3 1.7 6.6 2.2 1.4.3 2.9.6 4.4.8l.9.1v16h11v-15.9c2-.2 3.8-.6 5.6-1 1.6-.4 3-.9 4.4-1.5 2.3-.9 4.5-2.2 6.4-3.6.8-.6 1.6-1.3 2.4-2l1.8-1.8c1.2-1.4 2.3-2.9 3.3-4.5.5-.9 1-1.8 1.4-2.7 1.2-2.7 2-5.7 2.5-9l.2-1.3c.1-1.5.2-3 .2-4.5 0-1.7-.1-3.4-.3-4.9 0-.2 0-.5-.1-.7-.3-2.9-1-5.5-1.9-7.8l-.1-.3c-.2-.6-.5-1.1-.8-1.7-.6-1.2-1.2-2.3-1.9-3.4-1-1.5-2.1-3-3.3-4.3l-.6-.6-.4-.4c-.7-.7-1.3-1.3-2.1-1.9-.6-.6-1.3-1.1-2-1.7l-.6-.5c-.5-.4-1-.8-1.5-1.1-.4-.3-.8-.6-1.2-.8l-.6-.4-1.1-.6-.3-.2-.3-.2c-.1-.1-.3-.2-.4-.2-.4-.2-.8-.4-1.2-.7-.1-.1-.3-.2-.4-.2l-.9-.5c-.1-.1-.3-.2-.4-.2-.2-.2-.5-.3-.8-.4-.1-.1-.3-.2-.4-.2l-.9-.5h-.1l-1.1-.6-1.5-.8c-.7-.4-1.5-.8-2.2-1.1l-1.6-.8s-.1 0-.1-.1l-.2-.1c-.9-.4-1.8-.9-2.6-1.3-2.8-1.6-5-3.3-6.4-5-1.3-1.5-2.2-3.4-2.6-5.7-.2-1.1-.3-2.3-.3-3.6 0-2.3.3-4.3.9-6l.3-.7c.4-.9.8-1.7 1.4-2.4 1.1-1.4 2.4-2.4 4.1-2.9h.1c.9-.3 1.9-.4 2.9-.4 1.6 0 3 .3 4.2 1h.1c1.4.7 2.6 1.9 3.6 3.4 1.1 1.7 1.8 3.7 2.2 6.2.4 1.9.5 4 .5 6.4h23.9z"/><path class="st4" d="M441.9 358l3.4 3.5c-3.6 3.6-7.5 6.9-11.7 10l-1.6-2.5c3.6-3.4 6.9-7.1 9.9-11zM444.9 191.6l-5.2 5.4c-3.1-3.7-6.3-7.1-9.8-10.3l3.3-5.1c4.1 3 8 6.4 11.7 10zM426.9 373.8l1 1.6c-4.1 2.7-8.3 5.1-12.6 7.1 4-2.6 7.9-5.5 11.6-8.7zM427.4 177.6l-2.9 4.5c-3.6-3-7.4-5.7-11.4-8.2l1.4-3.5c4.5 2.1 8.8 4.5 12.9 7.2zM408.1 167.7l-1.1 2.7c-4.4-2.3-8.9-4.4-13.6-6.1l.2-1.2c5 1.2 9.8 2.7 14.5 4.6zM394.4 254.1v.2h-23.5c0-2.4-.2-4.5-.5-6.4-.4-2.5-1.2-4.6-2.2-6.2-1-1.6-2.2-2.7-3.6-3.4h-.1c-1.2-.6-2.7-1-4.2-1-1.1 0-2 .1-2.9.4h-.1c-1.6.5-3 1.5-4.1 2.9-.5.7-1 1.5-1.4 2.4l-.3.7c-.6 1.7-.9 3.7-.9 6 0 1.3.1 2.5.3 3.6.4 2.3 1.3 4.2 2.6 5.7 1.5 1.7 3.6 3.4 6.4 5 .8.5 1.7.9 2.6 1.3l.2.3v-.1s.1 0 .1.1l1.6.8c.8.4 1.5.7 2.2 1.1l1.5.8 1.1.6v.1-.1l.9.5.4.2.8.4.4.2.9.5.4.2c.4.2.8.4 1.2.7l.4.2.3.2.3.2 1.1.6.6.4c.4.2.8.5 1.2.8l1.5 1.1c.2.1.4.3.6.5.7.5 1.4 1.1 2 1.7l2.1 1.9.4.4.6.6c1.2 1.3 2.3 2.8 3.3 4.3.7 1.1 1.4 2.2 1.9 3.4.3.5.5 1.1.8 1.7l.1.3c.9 2.3 1.6 4.9 1.9 7.8l.1.7c.2 1.5.3 3.2.3 4.9 0 1.5-.1 3.1-.2 4.5l-.2 1.3c-.4 3.3-1.3 6.3-2.5 9-.4.9-.9 1.8-1.4 2.7-1 1.6-2 3.1-3.3 4.5-.6.6-1.1 1.2-1.8 1.8-.7.7-1.5 1.4-2.4 2-1.9 1.5-4.1 2.7-6.4 3.6-1.4.6-2.9 1.1-4.4 1.5-1.8.5-3.7.8-5.6 1v15.9h-11v-16l-.9-.1c-1.5-.2-3-.5-4.4-.8-2.3-.6-4.5-1.3-6.6-2.2-1.5-.6-2.8-1.4-4.1-2.2-2-1.3-3.8-2.7-5.4-4.4-.6-.6-1.2-1.3-1.8-2l-1.5-2.1c-1.4-2-2.5-4.1-3.4-6.5-.5-1.2-.9-2.4-1.3-3.7-.7-2.3-1.2-4.8-1.5-7.5-.2-1.5-.3-3-.3-4.5v-2.1h23.4c0 2.3.2 4.3.5 6.2v.1c.5 3 1.6 5.5 3 7.4l.3.4.3.4c1.6 1.9 3.6 3 6.1 3.6.2 0 .4.1.5.1.9.2 1.8.2 2.7.2 1.5 0 2.9-.3 4.2-.8l.4-.2c1.1-.5 2.1-1.3 2.9-2.2 1.6-1.9 2.5-4.3 2.7-7.4v-1.4c0-3.5-.6-6.3-1.9-8.5l-.1-.3c-.2-.4-.4-.7-.7-1-.4-.5-.9-1.1-1.5-1.6-.5-.5-1.1-1-1.8-1.5-.1-.1-.3-.2-.5-.3l-1.4-.9c-.4-.2-.7-.4-1.1-.7-.3-.2-.7-.4-1.1-.6-.3-.2-.7-.4-1.1-.5-.3-.2-.7-.4-1-.5l-.3-.1c-.9-.4-1.7-.8-2.5-1.2-.2-.1-.4-.1-.5-.2-1-.5-1.9-.9-2.8-1.4-.1 0-.2-.1-.2-.1-1.5-.8-3.1-1.6-4.5-2.4l-1.7-.9-.4-.3c-.9-.5-1.8-1-2.6-1.6-2.3-1.5-4.3-3.1-6.1-4.9l-.4-.4-.3-.3c-2.2-2.3-4-4.8-5.4-7.7-.4-.7-.7-1.5-1-2.2-1-2.5-1.6-5.3-2-8.4l-.2-2.1c-.1-1-.1-2-.1-3 0-1.8.1-3.6.3-5.3.2-1.5.5-3 .9-4.4.7-2.5 1.6-4.9 2.9-7.1.7-1.3 1.6-2.6 2.6-3.7.4-.5.8-1 1.3-1.5 1.2-1.3 2.5-2.5 3.8-3.5 1.4-1.1 2.8-2 4.4-2.8 2-1.1 4.2-1.9 6.5-2.5 1.2-.3 2.5-.6 3.8-.8.9-.2 1.8-.3 2.7-.4v-16.7h11.1v17c1.5.2 2.9.6 4.2 1 1.5.4 2.9 1 4.3 1.6 2.3 1 4.4 2.4 6.3 3.9.9.7 1.8 1.6 2.7 2.4.9.9 1.7 1.9 2.5 2.9.9 1.2 1.7 2.4 2.4 3.7l1.1 2.1c1.2 2.6 2.2 5.5 2.8 8.5l.2 1.1c.2 2.5.5 5.6.5 8.8zM369.3 268.8z"/><path class="st0" d="M368.5 294.8v.2l-.1-.5c0 .2.1.2.1.3z"/><path class="st4" d="M363 168.6l-4.2 3.7-5.9 6.8-5.8 6.6-7.2 8.2-5.2 5.9-6.8 7.7-4.8 5.4-5.4 6.1-4.6 5.3-5.6 6.4-4.7 5.3-5.3 6-4.9 5.5-7.6 8.6-5.3 6-9.9 11.2-4.4 5h-3.3c0-1.7 0-3.3.1-5 .2-4.9.7-9.8 1.4-14.5.4-2.3.8-4.6 1.3-6.9 1.1-5 2.5-9.9 4.1-14.6.8-2.2 1.6-4.4 2.5-6.5 1.8-4.2 3.8-8.3 6-12.2 1.2-2 2.4-4 3.6-5.9 2.8-4.2 5.8-8.2 9.1-11.9 1.6-1.8 3.2-3.5 4.8-5.1 3.4-3.4 7-6.5 10.8-9.3 1.9-1.4 3.8-2.7 5.8-4 4.2-2.7 8.7-5 13.3-7 2.1-.9 4.3-1.7 6.5-2.5 4-1.3 8.1-2.4 12.3-3.1 2.3-.4 4.6-.7 6.9-.9 2.6-.2 5.2-.4 7.9-.4h.1c1.7 0 3.1 0 4.4.1zM358.9 384.2l4.2 3.7c-1.4.1-2.8.1-4.2.1-2.7 0-5.4-.1-8-.4-2.3-.2-4.6-.5-6.9-.9-4.8-.8-9.4-2.1-13.9-3.7-2.2-.8-4.4-1.6-6.5-2.6-4.4-2-8.7-4.3-12.7-7-1.9-1.3-3.8-2.6-5.7-4-4.1-3.1-8-6.6-11.6-10.4-1.6-1.7-3.2-3.4-4.7-5.2-3.1-3.6-5.9-7.5-8.5-11.6-1.2-2-2.4-4-3.5-6-2.6-4.6-4.8-9.5-6.7-14.6-.8-2.2-1.6-4.4-2.3-6.6-1.3-4.2-2.4-8.4-3.2-12.8-.4-2.3-.8-4.6-1.1-6.9-.7-4.9-1.1-10-1.1-15.1v-2h3.3l1.7 2 10.6 12 5.3 6 6.6 7.4 4.9 5.5 6.9 7.8 4.6 5.3 5.3 6 4.6 5.3 6.2 7 4.8 5.5 6.5 7.3 5.2 5.9 8.3 9.4 5.8 6.6 5.8 7zM362.7 265.4v.1l-.2-.3c0 .1.1.2.2.2z"/></g></g></svg>