<?xml version="1.0" encoding="utf-8"?>
<!-- Generator: Adobe Illustrator 19.1.0, SVG Export Plug-In . SVG Version: 6.00 Build 0)  -->
<!DOCTYPE svg PUBLIC "-//W3C//DTD SVG 1.1//EN" "http://www.w3.org/Graphics/SVG/1.1/DTD/svg11.dtd">
<svg version="1.1" xmlns="http://www.w3.org/2000/svg" xmlns:xlink="http://www.w3.org/1999/xlink" x="0px" y="0px" width="414.3px"
	 height="377px" viewBox="0 0 414.3 377" style="enable-background:new 0 0 414.3 377;" xml:space="preserve">
<style type="text/css">
	.st0{fill:#016293;}
	.st1{fill:#9CBDD8;}
	.st2{fill:#9BD7D8;}
	.st3{fill:#016293;stroke:#016293;stroke-width:2.041;stroke-miterlimit:10;}
	.st4{fill:#FFFFFF;}
	.st5{fill:#231F20;}
	.st6{fill:#FFFFFF;stroke:#016293;stroke-width:1.0169;stroke-miterlimit:10;}
	.st7{fill:#FFFFFF;stroke:#016293;stroke-width:1.0185;stroke-miterlimit:10;}
	.st8{fill:#FFFFFF;stroke:#016293;stroke-width:1.0209;stroke-miterlimit:10;}
	.st9{fill:#016293;stroke:#FFFFFF;stroke-width:2;stroke-miterlimit:10;}
	.st10{fill:#016293;stroke:#FFFFFF;stroke-miterlimit:10;}
	.st11{fill:#FFFFFF;stroke:#016293;stroke-width:5.0184;stroke-miterlimit:10;}
	.st12{fill:none;stroke:#016293;stroke-width:3;stroke-miterlimit:10;}
	.st13{fill:#FFFFFF;stroke:#016293;stroke-width:3;stroke-miterlimit:10;}
	.st14{fill:#FFFFFF;stroke:#231F20;stroke-miterlimit:10;}
	.st15{fill:none;stroke:#231F20;stroke-miterlimit:10;}
	.st16{display:none;}
	.st17{display:inline;fill:#F26F6A;}
	.st18{fill:none;stroke:#9CBDD8;stroke-width:5.8821;stroke-miterlimit:10;}
	.st19{fill:#FFFFFF;stroke:#9CBDD8;stroke-width:5.8821;stroke-miterlimit:10;}
	.st20{fill:#9CBDD8;stroke:#FFFFFF;stroke-width:5.8821;stroke-miterlimit:10;}
	.st21{clip-path:url(#SVGID_2_);fill:#231F20;}
	.st22{clip-path:url(#SVGID_2_);fill:#046293;}
	.st23{clip-path:url(#SVGID_2_);fill:#9CBDD9;}
	.st24{clip-path:url(#SVGID_2_);fill:#9CD8D9;}
	.st25{clip-path:url(#SVGID_2_);fill:#FFFFFF;}
	.st26{clip-path:url(#SVGID_2_);}
	.st27{fill:#BDC4C9;}
	.st28{clip-path:url(#SVGID_2_);fill:none;stroke:#FFFFFF;stroke-width:0.809;stroke-miterlimit:10;}
	.st29{clip-path:url(#SVGID_2_);fill:none;stroke:#FFFFFF;stroke-width:0.453;stroke-miterlimit:10;}
	.st30{clip-path:url(#SVGID_2_);fill:none;stroke:#FFFFFF;stroke-width:0.535;stroke-miterlimit:10;}
	.st31{fill:#9CD8D9;}
	.st32{clip-path:url(#SVGID_4_);}
	.st33{clip-path:url(#SVGID_4_);fill:none;stroke:#231F20;stroke-width:0.689;stroke-miterlimit:10;}
	.st34{clip-path:url(#SVGID_4_);fill:none;stroke:#231F20;stroke-width:0.506;stroke-miterlimit:10;}
	.st35{fill:#066393;}
	.st36{fill:#9BD7D8;stroke:#016293;stroke-width:18.6809;stroke-miterlimit:10;}
	.st37{fill:#076393;}
	.st38{fill:none;stroke:#076393;stroke-width:3.5038;stroke-miterlimit:10;}
	.st39{fill:#FFFFFF;stroke:#076393;stroke-width:3.5038;stroke-miterlimit:10;}
	.st40{fill:#076393;stroke:#FFFFFF;stroke-width:3.5038;stroke-miterlimit:10;}
</style>
<g id="Layer_1">
</g>
<g id="Logo">
	<g>
		<polygon class="st2" points="110,364.4 141.8,374 150.6,345.3 179.3,354 189,322.1 128.4,303.8 		"/>
		<polygon class="st1" points="98.5,247.9 154.6,264.9 192.5,276.4 182.3,309.7 121.7,291.4 103.4,352 70,341.8 81.5,304 		"/>
		<polygon class="st0" points="67.6,190.1 123.7,207.1 195,228.7 184.8,262.1 90.9,233.6 62.4,327.6 29,317.5 50.6,246.2 		"/>
		<g>
			<g>
				<polygon class="st0" points="225.1,184.8 225.2,184.7 225.3,184.8 				"/>
				<path class="st0" d="M225.3,184.8L225.3,184.8l-0.1,0L225.3,184.8z M225.3,184.8L225.3,184.8l-0.1,0L225.3,184.8z M225.3,184.8
					L225.3,184.8l-0.1,0L225.3,184.8z M225.3,184.8L225.3,184.8l-0.1,0L225.3,184.8z M225.3,184.8L225.3,184.8l-0.1,0L225.3,184.8z
					 M225.3,184.8L225.3,184.8l-0.1,0L225.3,184.8z M225.3,184.8L225.3,184.8l-0.1,0L225.3,184.8z M225.3,184.8L225.3,184.8l-0.1,0
					L225.3,184.8z M225.3,184.8L225.3,184.8l-0.1,0L225.3,184.8z M225.3,184.8L225.3,184.8l-0.1,0L225.3,184.8z"/>
			</g>
			<g>
				<path class="st0" d="M294.9,51.2l-94.2,119.9l-0.1,0.3l-17.7,90.7l83.9-38.7l0.2-0.1l94.4-120.3c2.2,0.3,4.6-0.5,6.1-2.4
					c1.5-1.9,1.8-4.4,0.9-6.5l7.8-9.9l0,0l15.7-20c5.3-6.8,1.9-18.4-7.7-26l-31.7-24.9c-9.6-7.5-21.7-8.1-27-1.3l-15.7,20l0,0
					l-7.5,9.6c-2.5-0.8-5.3,0-7,2.2S293.5,49,294.9,51.2z M263.2,220.6l-37.9,17.5l0.3-6.6l-10.1,2.3l-1.3-11.3l-11.3,1.4l-0.3-10.5
					l-6.1,1.9l8-40.9l0.1-0.4l2.4-0.7l2.8-0.8l9-2.6l0.6,10.1l0.2,3.2l0.2,3.2l0.2,3.3l3.5-0.3l3.4-0.3l3.4-0.3l11.6-1.1l1.6,11.5
					l0.5,3.4l0.5,3.4l0.5,3.5l3.2-0.6l3.1-0.6l3.1-0.6l9.8-2l-0.2,9.5l-0.1,3l-0.1,2.5L263.2,220.6z M293.4,60.7l4.9-6.2l59,46.3
					l-4.9,6.2L293.4,60.7z M350.5,109.5l-82.6,105.2l0.3-14.5l-15.2,3.1l82.7-105.4L350.5,109.5z M332,95l-84,107l-2.7-19.2l-20,2
					l-0.1,0l84.4-107.4L332,95z M305.8,74.4l-82.5,105l-0.8-15.1l-13.4,3.9l82.5-105L305.8,74.4z M310.7,38.8l59,46.3l-4.3,5.5
					l-59-46.3L310.7,38.8z M301.9,46.1L364,94.9c0.2,0.2,0.4,0.4,0.5,0.6c0.5,0.8,0.5,1.8-0.1,2.6c-0.6,0.8-1.6,1-2.5,0.8
					c-0.3-0.1-0.5-0.2-0.7-0.4L299,49.7c-1-0.8-1.2-2.2-0.4-3.2C299.4,45.5,300.9,45.3,301.9,46.1z"/>
			</g>
		</g>
	</g>
</g>
<g id="Layer_3">
</g>
<g id="Graphics">
</g>
<g id="Default_g_x2B__icon">
</g>
<g id="YouTube_Icon">
</g>
</svg>
