<svg xmlns="http://www.w3.org/2000/svg" width="414.3" height="377" viewBox="0 0 414.3 377"><style type="text/css">.st0{fill:#016293;} .st1{fill:#9CBDD8;} .st2{fill:#9BD7D8;} .st3{fill:#016293;stroke:#016293;stroke-width:2.041;stroke-miterlimit:10;} .st4{fill:#FFFFFF;} .st5{fill:#231F20;} .st6{fill:#FFFFFF;stroke:#016293;stroke-width:1.0169;stroke-miterlimit:10;} .st7{fill:#FFFFFF;stroke:#016293;stroke-width:1.0185;stroke-miterlimit:10;} .st8{fill:#FFFFFF;stroke:#016293;stroke-width:1.0209;stroke-miterlimit:10;} .st9{fill:#016293;stroke:#FFFFFF;stroke-width:2;stroke-miterlimit:10;} .st10{fill:#016293;stroke:#FFFFFF;stroke-miterlimit:10;} .st11{fill:#FFFFFF;stroke:#016293;stroke-width:5.0184;stroke-miterlimit:10;} .st12{fill:none;stroke:#016293;stroke-width:3;stroke-miterlimit:10;} .st13{fill:#FFFFFF;stroke:#016293;stroke-width:3;stroke-miterlimit:10;} .st14{fill:#FFFFFF;stroke:#231F20;stroke-miterlimit:10;} .st15{fill:none;stroke:#231F20;stroke-miterlimit:10;} .st16{display:none;} .st17{display:inline;fill:#F26F6A;} .st18{fill:none;stroke:#9CBDD8;stroke-width:5.8821;stroke-miterlimit:10;} .st19{fill:#FFFFFF;stroke:#9CBDD8;stroke-width:5.8821;stroke-miterlimit:10;} .st20{fill:#9CBDD8;stroke:#FFFFFF;stroke-width:5.8821;stroke-miterlimit:10;} .st21{clip-path:url(#SVGID_2_);fill:#231F20;} .st22{clip-path:url(#SVGID_2_);fill:#046293;} .st23{clip-path:url(#SVGID_2_);fill:#9CBDD9;} .st24{clip-path:url(#SVGID_2_);fill:#9CD8D9;} .st25{clip-path:url(#SVGID_2_);fill:#FFFFFF;} .st26{clip-path:url(#SVGID_2_);} .st27{fill:#BDC4C9;} .st28{clip-path:url(#SVGID_2_);fill:none;stroke:#FFFFFF;stroke-width:0.809;stroke-miterlimit:10;} .st29{clip-path:url(#SVGID_2_);fill:none;stroke:#FFFFFF;stroke-width:0.453;stroke-miterlimit:10;} .st30{clip-path:url(#SVGID_2_);fill:none;stroke:#FFFFFF;stroke-width:0.535;stroke-miterlimit:10;} .st31{fill:#9CD8D9;} .st32{clip-path:url(#SVGID_4_);} .st33{clip-path:url(#SVGID_4_);fill:none;stroke:#231F20;stroke-width:0.689;stroke-miterlimit:10;} .st34{clip-path:url(#SVGID_4_);fill:none;stroke:#231F20;stroke-width:0.506;stroke-miterlimit:10;} .st35{fill:#066393;} .st36{fill:#9BD7D8;stroke:#016293;stroke-width:18.6809;stroke-miterlimit:10;} .st37{fill:#076393;} .st38{fill:none;stroke:#076393;stroke-width:3.5038;stroke-miterlimit:10;} .st39{fill:#FFFFFF;stroke:#076393;stroke-width:3.5038;stroke-miterlimit:10;} .st40{fill:#076393;stroke:#FFFFFF;stroke-width:3.5038;stroke-miterlimit:10;}</style><g id="Logo"><path class="st2" d="M110 364.4l31.8 9.6 8.8-28.7 28.7 8.7 9.7-31.9-60.6-18.3z"/><path class="st1" d="M98.5 247.9l56.1 17 37.9 11.5-10.2 33.3-60.6-18.3-18.3 60.6-33.4-10.2 11.5-37.8z"/><path class="st0" d="M67.6 190.1l56.1 17 71.3 21.6-10.2 33.4-93.9-28.5-28.5 94-33.4-10.1 21.6-71.3zM225.1 184.8l.1-.1.1.1zM225.3 184.8h-.1.1zm0 0h-.1.1zm0 0h-.1.1zm0 0h-.1.1zm0 0h-.1.1zm0 0h-.1.1zm0 0h-.1.1zm0 0h-.1.1zm0 0h-.1.1zm0 0h-.1.1zM294.9 51.2l-94.2 119.9-.1.3-17.7 90.7 83.9-38.7.2-.1 94.4-120.3c2.2.3 4.6-.5 6.1-2.4s1.8-4.4.9-6.5l7.8-9.9 15.7-20c5.3-6.8 1.9-18.4-7.7-26l-31.7-24.9c-9.6-7.5-21.7-8.1-27-1.3l-15.7 20-7.5 9.6c-2.5-.8-5.3 0-7 2.2s-1.8 5.2-.4 7.4zm-31.7 169.4l-37.9 17.5.3-6.6-10.1 2.3-1.3-11.3-11.3 1.4-.3-10.5-6.1 1.9 8-40.9.1-.4 2.4-.7 2.8-.8 9-2.6.6 10.1.2 3.2.2 3.2.2 3.3 3.5-.3 3.4-.3 3.4-.3 11.6-1.1 1.6 11.5.5 3.4.5 3.4.5 3.5 3.2-.6 3.1-.6 3.1-.6 9.8-2-.2 9.5-.1 3-.1 2.5-.6-.1zm30.2-159.9l4.9-6.2 59 46.3-4.9 6.2-59-46.3zm57.1 48.8l-82.6 105.2.3-14.5-15.2 3.1 82.7-105.4 14.8 11.6zm-18.5-14.5l-84 107-2.7-19.2-20 2h-.1l84.4-107.4 22.4 17.6zm-26.2-20.6l-82.5 105-.8-15.1-13.4 3.9 82.5-105 14.2 11.2zm4.9-35.6l59 46.3-4.3 5.5-59-46.3 4.3-5.5zm-8.8 7.3l62.1 48.8c.2.2.4.4.5.6.5.8.5 1.8-.1 2.6s-1.6 1-2.5.8c-.3-.1-.5-.2-.7-.4l-62.2-48.8c-1-.8-1.2-2.2-.4-3.2.8-1 2.3-1.2 3.3-.4z"/></g></svg>