<svg xmlns="http://www.w3.org/2000/svg" width="317" height="322.9" viewBox="0 0 317 322.9"><style type="text/css">.st0{fill:#016293;} .st1{fill:#9CBDD8;} .st2{fill:#9BD7D8;} .st3{fill:#016293;stroke:#016293;stroke-width:2.041;stroke-miterlimit:10;} .st4{fill:#FFFFFF;} .st5{fill:#231F20;} .st6{fill:#FFFFFF;stroke:#016293;stroke-width:1.0169;stroke-miterlimit:10;} .st7{fill:#FFFFFF;stroke:#016293;stroke-width:1.0185;stroke-miterlimit:10;} .st8{fill:#FFFFFF;stroke:#016293;stroke-width:1.0209;stroke-miterlimit:10;} .st9{fill:#016293;stroke:#FFFFFF;stroke-width:2;stroke-miterlimit:10;} .st10{fill:#016293;stroke:#FFFFFF;stroke-miterlimit:10;} .st11{fill:#FFFFFF;stroke:#016293;stroke-width:5.0184;stroke-miterlimit:10;} .st12{fill:none;stroke:#016293;stroke-width:3;stroke-miterlimit:10;} .st13{fill:#FFFFFF;stroke:#016293;stroke-width:3;stroke-miterlimit:10;} .st14{fill:#FFFFFF;stroke:#231F20;stroke-miterlimit:10;} .st15{fill:none;stroke:#231F20;stroke-miterlimit:10;} .st16{display:none;} .st17{display:inline;fill:#F26F6A;} .st18{fill:none;stroke:#9CBDD8;stroke-width:5.8821;stroke-miterlimit:10;} .st19{fill:#FFFFFF;stroke:#9CBDD8;stroke-width:5.8821;stroke-miterlimit:10;} .st20{fill:#9CBDD8;stroke:#FFFFFF;stroke-width:5.8821;stroke-miterlimit:10;} .st21{clip-path:url(#SVGID_2_);fill:#231F20;} .st22{clip-path:url(#SVGID_2_);fill:#046293;} .st23{clip-path:url(#SVGID_2_);fill:#9CBDD9;} .st24{clip-path:url(#SVGID_2_);fill:#9CD8D9;} .st25{clip-path:url(#SVGID_2_);fill:#FFFFFF;} .st26{clip-path:url(#SVGID_2_);} .st27{fill:#BDC4C9;} .st28{clip-path:url(#SVGID_2_);fill:none;stroke:#FFFFFF;stroke-width:0.809;stroke-miterlimit:10;} .st29{clip-path:url(#SVGID_2_);fill:none;stroke:#FFFFFF;stroke-width:0.453;stroke-miterlimit:10;} .st30{clip-path:url(#SVGID_2_);fill:none;stroke:#FFFFFF;stroke-width:0.535;stroke-miterlimit:10;} .st31{fill:#9CD8D9;} .st32{clip-path:url(#SVGID_4_);} .st33{clip-path:url(#SVGID_4_);fill:none;stroke:#231F20;stroke-width:0.689;stroke-miterlimit:10;} .st34{clip-path:url(#SVGID_4_);fill:none;stroke:#231F20;stroke-width:0.506;stroke-miterlimit:10;} .st35{fill:#066393;} .st36{fill:#9BD7D8;stroke:#016293;stroke-width:18.6809;stroke-miterlimit:10;} .st37{fill:#076393;} .st38{fill:none;stroke:#076393;stroke-width:3.5038;stroke-miterlimit:10;} .st39{fill:#FFFFFF;stroke:#076393;stroke-width:3.5038;stroke-miterlimit:10;} .st40{fill:#076393;stroke:#FFFFFF;stroke-width:3.5038;stroke-miterlimit:10;}</style><path class="st1" d="M308.1 162.6c0 15.9-6.2 30.7-17.4 41.9l-88.9 88.9c-11.2 11.2-26.1 17.4-41.9 17.4-15.8 0-30.7-6.2-41.9-17.4l-19-19.1c1.5.3 2.9.6 4.5.9 1.4.3 2.8.5 4.3.7 28.7 4.4 65.5.6 100.9-30.1 0 0 52.4-44.8 44.1-102.5 0-.1 25.2-25.1 25.2-25.1l-31.2 9.5 19.8-24.1 1.6-1.9-.1-.1-2.7.9-24.4 7.8s-.9-1-1.5-1.5c-7.9-8-18.7-12.9-30.8-12.9-23.9 0-43.3 19.4-43.3 43.3 0 3.3.4 6.5 1.1 9.6 0 0-37.3 13.9-97.4-45.5 0 0-16.4 40.3 15 61.4 0 0-9.5 2-19.3-5.5 0 0-3.2 36.2 35.7 45 0 0-10.9 4.1-20.5 2.7 0 0 9.6 28.7 40.9 30 0 0-11 13-33.8 18.3l-2.9.6c-1 .2-2 .4-3 .5l-51.9-51.9c-23.1-23.1-23.1-60.7 0-83.8l88.9-88.9c11.2-11.2 26.1-17.4 41.9-17.4 15.8 0 30.7 6.2 41.9 17.4l88.9 88.9c11 11.3 17.2 26.1 17.2 42z" id="Layer_1"/></svg>