<?xml version="1.0" encoding="utf-8"?>
<!-- Generator: Adobe Illustrator 19.1.0, SVG Export Plug-In . SVG Version: 6.00 Build 0)  -->
<!DOCTYPE svg PUBLIC "-//W3C//DTD SVG 1.1//EN" "http://www.w3.org/Graphics/SVG/1.1/DTD/svg11.dtd">
<svg version="1.1" xmlns="http://www.w3.org/2000/svg" xmlns:xlink="http://www.w3.org/1999/xlink" x="0px" y="0px" width="317px"
	 height="322.9px" viewBox="0 0 317 322.9" style="enable-background:new 0 0 317 322.9;" xml:space="preserve">
<style type="text/css">
	.st0{fill:#016293;}
	.st1{fill:#9CBDD8;}
	.st2{fill:#9BD7D8;}
	.st3{fill:#016293;stroke:#016293;stroke-width:2.041;stroke-miterlimit:10;}
	.st4{fill:#FFFFFF;}
	.st5{fill:#231F20;}
	.st6{fill:#FFFFFF;stroke:#016293;stroke-width:1.0169;stroke-miterlimit:10;}
	.st7{fill:#FFFFFF;stroke:#016293;stroke-width:1.0185;stroke-miterlimit:10;}
	.st8{fill:#FFFFFF;stroke:#016293;stroke-width:1.0209;stroke-miterlimit:10;}
	.st9{fill:#016293;stroke:#FFFFFF;stroke-width:2;stroke-miterlimit:10;}
	.st10{fill:#016293;stroke:#FFFFFF;stroke-miterlimit:10;}
	.st11{fill:#FFFFFF;stroke:#016293;stroke-width:5.0184;stroke-miterlimit:10;}
	.st12{fill:none;stroke:#016293;stroke-width:3;stroke-miterlimit:10;}
	.st13{fill:#FFFFFF;stroke:#016293;stroke-width:3;stroke-miterlimit:10;}
	.st14{fill:#FFFFFF;stroke:#231F20;stroke-miterlimit:10;}
	.st15{fill:none;stroke:#231F20;stroke-miterlimit:10;}
	.st16{display:none;}
	.st17{display:inline;fill:#F26F6A;}
	.st18{fill:none;stroke:#9CBDD8;stroke-width:5.8821;stroke-miterlimit:10;}
	.st19{fill:#FFFFFF;stroke:#9CBDD8;stroke-width:5.8821;stroke-miterlimit:10;}
	.st20{fill:#9CBDD8;stroke:#FFFFFF;stroke-width:5.8821;stroke-miterlimit:10;}
	.st21{clip-path:url(#SVGID_2_);fill:#231F20;}
	.st22{clip-path:url(#SVGID_2_);fill:#046293;}
	.st23{clip-path:url(#SVGID_2_);fill:#9CBDD9;}
	.st24{clip-path:url(#SVGID_2_);fill:#9CD8D9;}
	.st25{clip-path:url(#SVGID_2_);fill:#FFFFFF;}
	.st26{clip-path:url(#SVGID_2_);}
	.st27{fill:#BDC4C9;}
	.st28{clip-path:url(#SVGID_2_);fill:none;stroke:#FFFFFF;stroke-width:0.809;stroke-miterlimit:10;}
	.st29{clip-path:url(#SVGID_2_);fill:none;stroke:#FFFFFF;stroke-width:0.453;stroke-miterlimit:10;}
	.st30{clip-path:url(#SVGID_2_);fill:none;stroke:#FFFFFF;stroke-width:0.535;stroke-miterlimit:10;}
	.st31{fill:#9CD8D9;}
	.st32{clip-path:url(#SVGID_4_);}
	.st33{clip-path:url(#SVGID_4_);fill:none;stroke:#231F20;stroke-width:0.689;stroke-miterlimit:10;}
	.st34{clip-path:url(#SVGID_4_);fill:none;stroke:#231F20;stroke-width:0.506;stroke-miterlimit:10;}
	.st35{fill:#066393;}
	.st36{fill:#9BD7D8;stroke:#016293;stroke-width:18.6809;stroke-miterlimit:10;}
	.st37{fill:#076393;}
	.st38{fill:none;stroke:#076393;stroke-width:3.5038;stroke-miterlimit:10;}
	.st39{fill:#FFFFFF;stroke:#076393;stroke-width:3.5038;stroke-miterlimit:10;}
	.st40{fill:#076393;stroke:#FFFFFF;stroke-width:3.5038;stroke-miterlimit:10;}
</style>
<g id="Layer_1">
	<g>
		<path class="st1" d="M308.1,162.6c0,15.9-6.2,30.7-17.4,41.9l-88.9,88.9c-11.2,11.2-26.1,17.4-41.9,17.4
			c-15.8,0-30.7-6.2-41.9-17.4L99,274.3c1.5,0.3,2.9,0.6,4.5,0.9c1.4,0.3,2.8,0.5,4.3,0.7c28.7,4.4,65.5,0.6,100.9-30.1
			c0,0,52.4-44.8,44.1-102.5c0-0.1,25.2-25.1,25.2-25.1l-31.2,9.5l19.8-24.1l1.6-1.9l-0.1-0.1l-2.7,0.9l-24.4,7.8c0,0-0.9-1-1.5-1.5
			c-7.9-8-18.7-12.9-30.8-12.9c-23.9,0-43.3,19.4-43.3,43.3c0,3.3,0.4,6.5,1.1,9.6h0c0,0-37.3,13.9-97.4-45.5c0,0-16.4,40.3,15,61.4
			c0,0-9.5,2-19.3-5.5c0,0-3.2,36.2,35.7,45c0,0-10.9,4.1-20.5,2.7c0,0,9.6,28.7,40.9,30c0,0-11,13-33.8,18.3
			c-1,0.2-1.9,0.4-2.9,0.6c-1,0.2-2,0.4-3,0.5l-51.9-51.9c-23.1-23.1-23.1-60.7,0-83.8l88.9-88.9c11.2-11.2,26.1-17.4,41.9-17.4
			c15.8,0,30.7,6.2,41.9,17.4l88.9,88.9C301.9,131.9,308.1,146.7,308.1,162.6z"/>
	</g>
</g>
<g id="Logo">
</g>
<g id="Layer_3">
</g>
<g id="Graphics">
</g>
<g id="Default_g_x2B__icon">
</g>
<g id="YouTube_Icon">
</g>
</svg>
